<svg width="597" height="308" viewBox="0 0 597 308" fill="none" xmlns="http://www.w3.org/2000/svg">
<g filter="url(#filter0_d_261_5089)">
<g clip-path="url(#clip0_261_5089)">
<rect x="15" y="11" width="183" height="278" rx="16" fill="white"/>
<g clip-path="url(#clip1_261_5089)">
<path d="M42.55 184V174.37H37.15V184H32.8V161.5H37.15V170.53H42.55V161.5H46.9V184H42.55ZM57.3953 184.3C52.9253 184.3 49.5953 181.12 49.5953 176.5C49.5953 171.88 52.9253 168.7 57.3953 168.7C61.8653 168.7 65.1953 171.88 65.1953 176.5C65.1953 181.12 61.8653 184.3 57.3953 184.3ZM57.3953 180.43C59.4653 180.43 60.9653 178.84 60.9653 176.5C60.9653 174.13 59.4653 172.57 57.3953 172.57C55.3553 172.57 53.8253 174.13 53.8253 176.5C53.8253 178.84 55.3553 180.43 57.3953 180.43ZM77.4377 184V181.87C76.5377 183.43 75.0077 184.3 73.1477 184.3C70.0577 184.3 67.7477 182.29 67.7477 178.27V169H72.0977V177.28C72.0977 179.53 73.0877 180.7 74.7377 180.7C76.3877 180.7 77.3477 179.53 77.3477 177.28V169H81.6977V184H77.4377ZM89.65 176.41V184H85.3V169H89.5V171.61C90.49 169.75 92.2 168.7 94.33 168.7C94.6 168.7 94.9 168.7 95.08 168.76V173.2C94.66 173.05 94.12 172.96 93.52 172.96C91.06 172.96 89.65 174.19 89.65 176.41ZM104.021 184V161.5H110.831C114.731 161.5 117.371 163.69 117.371 167.86V169.21C117.371 173.5 114.731 175.81 110.831 175.81H108.311V184H104.021ZM110.561 165.25H108.311V172.06H110.561C112.211 172.06 113.201 171.16 113.201 168.91V168.16C113.201 166.03 112.211 165.25 110.561 165.25ZM128.606 184V181.72C127.646 183.55 125.906 184.3 123.836 184.3C121.346 184.3 118.916 182.98 118.916 180.01C118.916 173.65 128.456 176.5 128.456 173.56C128.456 172.51 127.436 171.88 126.086 171.88C124.586 171.88 123.656 172.69 123.656 174.16H119.366C119.366 170.23 122.726 168.7 126.206 168.7C129.656 168.7 132.806 170.08 132.806 173.68V184H128.606ZM123.266 179.65C123.266 180.61 124.106 181.09 125.156 181.09C126.956 181.09 128.516 180.04 128.516 178.03V177.25C126.446 178.18 123.266 177.91 123.266 179.65ZM148.49 179.56C148.49 182.53 145.76 184.3 142.13 184.3C138.26 184.3 135.32 182.38 135.32 179.05H139.52C139.52 180.52 140.63 181.24 142.1 181.24C143.42 181.24 144.23 180.76 144.23 179.8C144.23 176.86 135.59 179.5 135.59 173.32C135.59 170.44 138.23 168.7 141.68 168.7C145.4 168.7 148.22 170.92 148.22 173.77H144.02C144.02 172.63 143.03 171.76 141.71 171.76C140.54 171.76 139.73 172.27 139.73 173.11C139.73 175.78 148.49 173.35 148.49 179.56ZM163.607 179.56C163.607 182.53 160.877 184.3 157.247 184.3C153.377 184.3 150.437 182.38 150.437 179.05H154.637C154.637 180.52 155.747 181.24 157.217 181.24C158.537 181.24 159.347 180.76 159.347 179.8C159.347 176.86 150.707 179.5 150.707 173.32C150.707 170.44 153.347 168.7 156.797 168.7C160.517 168.7 163.337 170.92 163.337 173.77H159.137C159.137 172.63 158.147 171.76 156.827 171.76C155.657 171.76 154.847 172.27 154.847 173.11C154.847 175.78 163.607 173.35 163.607 179.56Z" fill="black"/>
</g>
<path d="M181 206C181.552 206 182 205.552 182 205C182 204.448 181.552 204 181 204L181 206ZM31 206L181 206L181 204L31 204L31 206Z" fill="black"/>
<rect x="88.75" y="25.75" width="95.1" height="25.5" rx="12.75" stroke="black" stroke-width="1.5"/>
<path d="M96.845 33.25H98.405V39.945C98.405 41.258 98.886 41.7 99.705 41.7C100.511 41.7 101.005 41.258 101.005 39.945V33.25H102.565V39.945C102.565 42.077 101.486 43.13 99.705 43.13C97.924 43.13 96.845 42.077 96.845 39.945V33.25ZM105.364 39.425V43H103.804V36.5H105.364V37.436C105.767 36.747 106.43 36.37 107.236 36.37C108.614 36.37 109.654 37.28 109.654 39.113V43H108.094V39.425C108.094 38.333 107.574 37.735 106.729 37.735C105.884 37.735 105.364 38.333 105.364 39.425ZM112.449 43H110.889V33.25H112.449V43ZM114.526 35.2C113.967 35.2 113.551 34.771 113.551 34.225C113.551 33.666 113.967 33.25 114.526 33.25C115.098 33.25 115.501 33.666 115.501 34.225C115.501 34.771 115.098 35.2 114.526 35.2ZM115.306 43H113.746V36.5H115.306V43ZM118.162 39.295V43H116.602V36.5H118.162V37.345C118.539 36.721 119.163 36.37 119.904 36.37C120.788 36.37 121.529 36.773 121.906 37.566C122.296 36.799 123.037 36.37 123.934 36.37C125.247 36.37 126.222 37.241 126.222 38.983V43H124.662V39.295C124.662 38.281 124.194 37.735 123.427 37.735C122.66 37.735 122.192 38.281 122.192 39.295V43H120.632V39.295C120.632 38.281 120.164 37.735 119.397 37.735C118.63 37.735 118.162 38.281 118.162 39.295ZM128.237 35.2C127.678 35.2 127.262 34.771 127.262 34.225C127.262 33.666 127.678 33.25 128.237 33.25C128.809 33.25 129.212 33.666 129.212 34.225C129.212 34.771 128.809 35.2 128.237 35.2ZM129.017 43H127.457V36.5H129.017V43ZM132.264 40.777C132.264 41.414 132.563 41.7 133.239 41.7C133.46 41.7 133.733 41.661 133.954 41.583V42.974C133.72 43.052 133.304 43.13 132.927 43.13C131.64 43.13 130.704 42.623 130.704 40.881V37.865H129.664V36.5H130.704V34.55H132.264V36.5H133.954V37.865H132.264V40.777ZM140.789 39.75C140.789 39.932 140.776 40.101 140.763 40.27H135.875C136.044 41.219 136.668 41.765 137.63 41.765C138.319 41.765 138.722 41.505 138.93 41.05H140.62C140.23 42.402 139.099 43.13 137.565 43.13C135.706 43.13 134.341 41.739 134.341 39.75C134.341 37.761 135.706 36.37 137.565 36.37C139.424 36.37 140.789 37.761 140.789 39.75ZM137.565 37.735C136.655 37.735 136.057 38.255 135.888 39.165H139.242C139.073 38.255 138.475 37.735 137.565 37.735ZM146.255 43V42.181C145.774 42.779 145.085 43.13 144.305 43.13C142.524 43.13 141.185 41.739 141.185 39.75C141.185 37.761 142.524 36.37 144.305 36.37C145.085 36.37 145.774 36.721 146.255 37.319V33.25H147.815V43H146.255ZM144.5 37.8C143.499 37.8 142.745 38.58 142.745 39.75C142.745 40.92 143.499 41.7 144.5 41.7C145.501 41.7 146.255 40.92 146.255 39.75C146.255 38.58 145.501 37.8 144.5 37.8ZM154.389 33.25C156.209 33.25 157.314 34.329 157.314 36.5V39.75C157.314 41.921 156.209 43 154.389 43H151.594V33.25H154.389ZM154.389 41.57C155.234 41.57 155.754 41.115 155.754 39.75V36.5C155.754 35.135 155.247 34.68 154.389 34.68H153.154V41.57H154.389ZM162.414 43V42.038C161.998 42.805 161.244 43.13 160.347 43.13C159.229 43.13 158.163 42.571 158.163 41.258C158.163 38.463 162.388 39.711 162.388 38.411C162.388 37.904 161.868 37.605 161.192 37.605C160.477 37.605 159.983 37.982 159.983 38.71H158.358C158.358 37.02 159.736 36.37 161.192 36.37C162.622 36.37 163.948 36.955 163.948 38.476V43H162.414ZM159.762 41.154C159.762 41.609 160.152 41.83 160.672 41.83C161.582 41.83 162.414 41.31 162.414 40.322V40.023C161.374 40.452 159.762 40.322 159.762 41.154ZM167.065 40.777C167.065 41.414 167.364 41.7 168.04 41.7C168.261 41.7 168.534 41.661 168.755 41.583V42.974C168.521 43.052 168.105 43.13 167.728 43.13C166.441 43.13 165.505 42.623 165.505 40.881V37.865H164.465V36.5H165.505V34.55H167.065V36.5H168.755V37.865H167.065V40.777ZM173.587 43V42.038C173.171 42.805 172.417 43.13 171.52 43.13C170.402 43.13 169.336 42.571 169.336 41.258C169.336 38.463 173.561 39.711 173.561 38.411C173.561 37.904 173.041 37.605 172.365 37.605C171.65 37.605 171.156 37.982 171.156 38.71H169.531C169.531 37.02 170.909 36.37 172.365 36.37C173.795 36.37 175.121 36.955 175.121 38.476V43H173.587ZM170.935 41.154C170.935 41.609 171.325 41.83 171.845 41.83C172.755 41.83 173.587 41.31 173.587 40.322V40.023C172.547 40.452 170.935 40.322 170.935 41.154Z" fill="black"/>
</g>
<rect x="15.5" y="11.5" width="182" height="277" rx="15.5" stroke="black"/>
</g>
<g filter="url(#filter1_d_261_5089)">
<g clip-path="url(#clip2_261_5089)">
<rect x="207" y="11" width="183" height="278" rx="16" fill="white"/>
<g clip-path="url(#clip3_261_5089)">
<path d="M231.55 161.5C235.93 161.5 238.6 164.02 238.6 169.06V176.41C238.6 181.48 235.93 184 231.55 184H224.8V161.5H231.55ZM231.55 180.16C233.23 180.16 234.25 179.26 234.25 176.5V169C234.25 166.24 233.23 165.31 231.55 165.31H229.15V180.16H231.55ZM250.879 184V181.72C249.919 183.55 248.179 184.3 246.109 184.3C243.619 184.3 241.189 182.98 241.189 180.01C241.189 173.65 250.729 176.5 250.729 173.56C250.729 172.51 249.709 171.88 248.359 171.88C246.859 171.88 245.929 172.69 245.929 174.16H241.639C241.639 170.23 244.999 168.7 248.479 168.7C251.929 168.7 255.079 170.08 255.079 173.68V184H250.879ZM245.539 179.65C245.539 180.61 246.379 181.09 247.429 181.09C249.229 181.09 250.789 180.04 250.789 178.03V177.25C248.719 178.18 245.539 177.91 245.539 179.65ZM266.654 184.66C265.394 189.04 263.534 191.8 259.364 191.8C258.374 191.8 257.444 191.65 256.814 191.47V187.99C257.444 188.14 258.194 188.29 258.914 188.29C260.324 188.29 261.404 187.69 262.184 186.43L256.724 169H261.014L264.074 180.73L267.254 169H271.514L266.654 184.66ZM279.761 184V161.5H286.571C290.471 161.5 293.111 163.69 293.111 167.86V169.21C293.111 173.5 290.471 175.81 286.571 175.81H284.051V184H279.761ZM286.301 165.25H284.051V172.06H286.301C287.951 172.06 288.941 171.16 288.941 168.91V168.16C288.941 166.03 287.951 165.25 286.301 165.25ZM304.346 184V181.72C303.386 183.55 301.646 184.3 299.576 184.3C297.086 184.3 294.656 182.98 294.656 180.01C294.656 173.65 304.196 176.5 304.196 173.56C304.196 172.51 303.176 171.88 301.826 171.88C300.326 171.88 299.396 172.69 299.396 174.16H295.106C295.106 170.23 298.466 168.7 301.946 168.7C305.396 168.7 308.546 170.08 308.546 173.68V184H304.346ZM299.006 179.65C299.006 180.61 299.846 181.09 300.896 181.09C302.696 181.09 304.256 180.04 304.256 178.03V177.25C302.186 178.18 299.006 177.91 299.006 179.65ZM324.23 179.56C324.23 182.53 321.5 184.3 317.87 184.3C314 184.3 311.06 182.38 311.06 179.05H315.26C315.26 180.52 316.37 181.24 317.84 181.24C319.16 181.24 319.97 180.76 319.97 179.8C319.97 176.86 311.33 179.5 311.33 173.32C311.33 170.44 313.97 168.7 317.42 168.7C321.14 168.7 323.96 170.92 323.96 173.77H319.76C319.76 172.63 318.77 171.76 317.45 171.76C316.28 171.76 315.47 172.27 315.47 173.11C315.47 175.78 324.23 173.35 324.23 179.56ZM339.348 179.56C339.348 182.53 336.618 184.3 332.988 184.3C329.118 184.3 326.177 182.38 326.177 179.05H330.378C330.378 180.52 331.488 181.24 332.958 181.24C334.278 181.24 335.088 180.76 335.088 179.8C335.088 176.86 326.448 179.5 326.448 173.32C326.448 170.44 329.088 168.7 332.538 168.7C336.258 168.7 339.078 170.92 339.078 173.77H334.878C334.878 172.63 333.888 171.76 332.568 171.76C331.398 171.76 330.588 172.27 330.588 173.11C330.588 175.78 339.348 173.35 339.348 179.56Z" fill="black"/>
</g>
<path d="M373 206C373.552 206 374 205.552 374 205C374 204.448 373.552 204 373 204L373 206ZM223 206L373 206L373 204L223 204L223 206Z" fill="black"/>
<rect x="280.75" y="25.75" width="95.1" height="25.5" rx="12.75" stroke="black" stroke-width="1.5"/>
<path d="M288.845 33.25H290.405V39.945C290.405 41.258 290.886 41.7 291.705 41.7C292.511 41.7 293.005 41.258 293.005 39.945V33.25H294.565V39.945C294.565 42.077 293.486 43.13 291.705 43.13C289.924 43.13 288.845 42.077 288.845 39.945V33.25ZM297.364 39.425V43H295.804V36.5H297.364V37.436C297.767 36.747 298.43 36.37 299.236 36.37C300.614 36.37 301.654 37.28 301.654 39.113V43H300.094V39.425C300.094 38.333 299.574 37.735 298.729 37.735C297.884 37.735 297.364 38.333 297.364 39.425ZM304.449 43H302.889V33.25H304.449V43ZM306.526 35.2C305.967 35.2 305.551 34.771 305.551 34.225C305.551 33.666 305.967 33.25 306.526 33.25C307.098 33.25 307.501 33.666 307.501 34.225C307.501 34.771 307.098 35.2 306.526 35.2ZM307.306 43H305.746V36.5H307.306V43ZM310.162 39.295V43H308.602V36.5H310.162V37.345C310.539 36.721 311.163 36.37 311.904 36.37C312.788 36.37 313.529 36.773 313.906 37.566C314.296 36.799 315.037 36.37 315.934 36.37C317.247 36.37 318.222 37.241 318.222 38.983V43H316.662V39.295C316.662 38.281 316.194 37.735 315.427 37.735C314.66 37.735 314.192 38.281 314.192 39.295V43H312.632V39.295C312.632 38.281 312.164 37.735 311.397 37.735C310.63 37.735 310.162 38.281 310.162 39.295ZM320.237 35.2C319.678 35.2 319.262 34.771 319.262 34.225C319.262 33.666 319.678 33.25 320.237 33.25C320.809 33.25 321.212 33.666 321.212 34.225C321.212 34.771 320.809 35.2 320.237 35.2ZM321.017 43H319.457V36.5H321.017V43ZM324.264 40.777C324.264 41.414 324.563 41.7 325.239 41.7C325.46 41.7 325.733 41.661 325.954 41.583V42.974C325.72 43.052 325.304 43.13 324.927 43.13C323.64 43.13 322.704 42.623 322.704 40.881V37.865H321.664V36.5H322.704V34.55H324.264V36.5H325.954V37.865H324.264V40.777ZM332.789 39.75C332.789 39.932 332.776 40.101 332.763 40.27H327.875C328.044 41.219 328.668 41.765 329.63 41.765C330.319 41.765 330.722 41.505 330.93 41.05H332.62C332.23 42.402 331.099 43.13 329.565 43.13C327.706 43.13 326.341 41.739 326.341 39.75C326.341 37.761 327.706 36.37 329.565 36.37C331.424 36.37 332.789 37.761 332.789 39.75ZM329.565 37.735C328.655 37.735 328.057 38.255 327.888 39.165H331.242C331.073 38.255 330.475 37.735 329.565 37.735ZM338.255 43V42.181C337.774 42.779 337.085 43.13 336.305 43.13C334.524 43.13 333.185 41.739 333.185 39.75C333.185 37.761 334.524 36.37 336.305 36.37C337.085 36.37 337.774 36.721 338.255 37.319V33.25H339.815V43H338.255ZM336.5 37.8C335.499 37.8 334.745 38.58 334.745 39.75C334.745 40.92 335.499 41.7 336.5 41.7C337.501 41.7 338.255 40.92 338.255 39.75C338.255 38.58 337.501 37.8 336.5 37.8ZM346.389 33.25C348.209 33.25 349.314 34.329 349.314 36.5V39.75C349.314 41.921 348.209 43 346.389 43H343.594V33.25H346.389ZM346.389 41.57C347.234 41.57 347.754 41.115 347.754 39.75V36.5C347.754 35.135 347.247 34.68 346.389 34.68H345.154V41.57H346.389ZM354.414 43V42.038C353.998 42.805 353.244 43.13 352.347 43.13C351.229 43.13 350.163 42.571 350.163 41.258C350.163 38.463 354.388 39.711 354.388 38.411C354.388 37.904 353.868 37.605 353.192 37.605C352.477 37.605 351.983 37.982 351.983 38.71H350.358C350.358 37.02 351.736 36.37 353.192 36.37C354.622 36.37 355.948 36.955 355.948 38.476V43H354.414ZM351.762 41.154C351.762 41.609 352.152 41.83 352.672 41.83C353.582 41.83 354.414 41.31 354.414 40.322V40.023C353.374 40.452 351.762 40.322 351.762 41.154ZM359.065 40.777C359.065 41.414 359.364 41.7 360.04 41.7C360.261 41.7 360.534 41.661 360.755 41.583V42.974C360.521 43.052 360.105 43.13 359.728 43.13C358.441 43.13 357.505 42.623 357.505 40.881V37.865H356.465V36.5H357.505V34.55H359.065V36.5H360.755V37.865H359.065V40.777ZM365.587 43V42.038C365.171 42.805 364.417 43.13 363.52 43.13C362.402 43.13 361.336 42.571 361.336 41.258C361.336 38.463 365.561 39.711 365.561 38.411C365.561 37.904 365.041 37.605 364.365 37.605C363.65 37.605 363.156 37.982 363.156 38.71H361.531C361.531 37.02 362.909 36.37 364.365 36.37C365.795 36.37 367.121 36.955 367.121 38.476V43H365.587ZM362.935 41.154C362.935 41.609 363.325 41.83 363.845 41.83C364.755 41.83 365.587 41.31 365.587 40.322V40.023C364.547 40.452 362.935 40.322 362.935 41.154Z" fill="black"/>
</g>
<rect x="207.5" y="11.5" width="182" height="277" rx="15.5" stroke="black"/>
</g>
<g filter="url(#filter2_d_261_5089)">
<g clip-path="url(#clip4_261_5089)">
<rect x="399" y="11" width="183" height="278" rx="16" fill="white"/>
<path d="M430.55 184V164.47L426.98 184H422.21L418.64 164.32V184H414.8V161.5H421.82L424.7 178.66L427.49 161.5H434.6V184H430.55ZM445.108 184.3C440.638 184.3 437.308 181.12 437.308 176.5C437.308 171.88 440.638 168.7 445.108 168.7C449.578 168.7 452.908 171.88 452.908 176.5C452.908 181.12 449.578 184.3 445.108 184.3ZM445.108 180.43C447.178 180.43 448.678 178.84 448.678 176.5C448.678 174.13 447.178 172.57 445.108 172.57C443.068 172.57 441.538 174.13 441.538 176.5C441.538 178.84 443.068 180.43 445.108 180.43ZM459.961 175.72V184H455.611V169H459.901V171.13C460.801 169.57 462.391 168.7 464.251 168.7C467.371 168.7 469.711 170.71 469.711 174.73V184H465.361V175.72C465.361 173.47 464.371 172.3 462.661 172.3C460.951 172.3 459.961 173.47 459.961 175.72ZM478.409 178.63C478.409 180.01 479.039 180.61 480.449 180.61C480.959 180.61 481.589 180.52 482.099 180.34V183.94C481.499 184.12 480.479 184.3 479.579 184.3C476.399 184.3 474.059 183.07 474.059 178.87V172.51H471.899V169H474.059V164.56H478.409V169H482.099V172.51H478.409V178.63ZM489.199 175.72V184H484.849V161.5H489.199V171.01C490.129 169.54 491.659 168.7 493.489 168.7C496.609 168.7 498.949 170.71 498.949 174.73V184H494.599V175.72C494.599 173.47 493.609 172.3 491.899 172.3C490.189 172.3 489.199 173.47 489.199 175.72ZM509.312 184V161.5H516.122C520.022 161.5 522.662 163.69 522.662 167.86V169.21C522.662 173.5 520.022 175.81 516.122 175.81H513.602V184H509.312ZM515.852 165.25H513.602V172.06H515.852C517.502 172.06 518.492 171.16 518.492 168.91V168.16C518.492 166.03 517.502 165.25 515.852 165.25ZM533.897 184V181.72C532.937 183.55 531.197 184.3 529.127 184.3C526.637 184.3 524.207 182.98 524.207 180.01C524.207 173.65 533.747 176.5 533.747 173.56C533.747 172.51 532.727 171.88 531.377 171.88C529.877 171.88 528.947 172.69 528.947 174.16H524.657C524.657 170.23 528.017 168.7 531.497 168.7C534.947 168.7 538.097 170.08 538.097 173.68V184H533.897ZM528.557 179.65C528.557 180.61 529.397 181.09 530.447 181.09C532.247 181.09 533.807 180.04 533.807 178.03V177.25C531.737 178.18 528.557 177.91 528.557 179.65ZM553.781 179.56C553.781 182.53 551.051 184.3 547.421 184.3C543.551 184.3 540.611 182.38 540.611 179.05H544.811C544.811 180.52 545.921 181.24 547.391 181.24C548.711 181.24 549.521 180.76 549.521 179.8C549.521 176.86 540.881 179.5 540.881 173.32C540.881 170.44 543.521 168.7 546.971 168.7C550.691 168.7 553.511 170.92 553.511 173.77H549.311C549.311 172.63 548.321 171.76 547.001 171.76C545.831 171.76 545.021 172.27 545.021 173.11C545.021 175.78 553.781 173.35 553.781 179.56ZM568.898 179.56C568.898 182.53 566.168 184.3 562.538 184.3C558.668 184.3 555.728 182.38 555.728 179.05H559.928C559.928 180.52 561.038 181.24 562.508 181.24C563.828 181.24 564.638 180.76 564.638 179.8C564.638 176.86 555.998 179.5 555.998 173.32C555.998 170.44 558.638 168.7 562.088 168.7C565.808 168.7 568.628 170.92 568.628 173.77H564.428C564.428 172.63 563.438 171.76 562.118 171.76C560.948 171.76 560.138 172.27 560.138 173.11C560.138 175.78 568.898 173.35 568.898 179.56Z" fill="black"/>
<path d="M565 206C565.552 206 566 205.552 566 205C566 204.448 565.552 204 565 204L565 206ZM415 206L565 206L565 204L415 204L415 206Z" fill="black"/>
<rect x="472.75" y="25.75" width="95.1" height="25.5" rx="12.75" stroke="black" stroke-width="1.5"/>
<path d="M480.845 33.25H482.405V39.945C482.405 41.258 482.886 41.7 483.705 41.7C484.511 41.7 485.005 41.258 485.005 39.945V33.25H486.565V39.945C486.565 42.077 485.486 43.13 483.705 43.13C481.924 43.13 480.845 42.077 480.845 39.945V33.25ZM489.364 39.425V43H487.804V36.5H489.364V37.436C489.767 36.747 490.43 36.37 491.236 36.37C492.614 36.37 493.654 37.28 493.654 39.113V43H492.094V39.425C492.094 38.333 491.574 37.735 490.729 37.735C489.884 37.735 489.364 38.333 489.364 39.425ZM496.449 43H494.889V33.25H496.449V43ZM498.526 35.2C497.967 35.2 497.551 34.771 497.551 34.225C497.551 33.666 497.967 33.25 498.526 33.25C499.098 33.25 499.501 33.666 499.501 34.225C499.501 34.771 499.098 35.2 498.526 35.2ZM499.306 43H497.746V36.5H499.306V43ZM502.162 39.295V43H500.602V36.5H502.162V37.345C502.539 36.721 503.163 36.37 503.904 36.37C504.788 36.37 505.529 36.773 505.906 37.566C506.296 36.799 507.037 36.37 507.934 36.37C509.247 36.37 510.222 37.241 510.222 38.983V43H508.662V39.295C508.662 38.281 508.194 37.735 507.427 37.735C506.66 37.735 506.192 38.281 506.192 39.295V43H504.632V39.295C504.632 38.281 504.164 37.735 503.397 37.735C502.63 37.735 502.162 38.281 502.162 39.295ZM512.237 35.2C511.678 35.2 511.262 34.771 511.262 34.225C511.262 33.666 511.678 33.25 512.237 33.25C512.809 33.25 513.212 33.666 513.212 34.225C513.212 34.771 512.809 35.2 512.237 35.2ZM513.017 43H511.457V36.5H513.017V43ZM516.264 40.777C516.264 41.414 516.563 41.7 517.239 41.7C517.46 41.7 517.733 41.661 517.954 41.583V42.974C517.72 43.052 517.304 43.13 516.927 43.13C515.64 43.13 514.704 42.623 514.704 40.881V37.865H513.664V36.5H514.704V34.55H516.264V36.5H517.954V37.865H516.264V40.777ZM524.789 39.75C524.789 39.932 524.776 40.101 524.763 40.27H519.875C520.044 41.219 520.668 41.765 521.63 41.765C522.319 41.765 522.722 41.505 522.93 41.05H524.62C524.23 42.402 523.099 43.13 521.565 43.13C519.706 43.13 518.341 41.739 518.341 39.75C518.341 37.761 519.706 36.37 521.565 36.37C523.424 36.37 524.789 37.761 524.789 39.75ZM521.565 37.735C520.655 37.735 520.057 38.255 519.888 39.165H523.242C523.073 38.255 522.475 37.735 521.565 37.735ZM530.255 43V42.181C529.774 42.779 529.085 43.13 528.305 43.13C526.524 43.13 525.185 41.739 525.185 39.75C525.185 37.761 526.524 36.37 528.305 36.37C529.085 36.37 529.774 36.721 530.255 37.319V33.25H531.815V43H530.255ZM528.5 37.8C527.499 37.8 526.745 38.58 526.745 39.75C526.745 40.92 527.499 41.7 528.5 41.7C529.501 41.7 530.255 40.92 530.255 39.75C530.255 38.58 529.501 37.8 528.5 37.8ZM538.389 33.25C540.209 33.25 541.314 34.329 541.314 36.5V39.75C541.314 41.921 540.209 43 538.389 43H535.594V33.25H538.389ZM538.389 41.57C539.234 41.57 539.754 41.115 539.754 39.75V36.5C539.754 35.135 539.247 34.68 538.389 34.68H537.154V41.57H538.389ZM546.414 43V42.038C545.998 42.805 545.244 43.13 544.347 43.13C543.229 43.13 542.163 42.571 542.163 41.258C542.163 38.463 546.388 39.711 546.388 38.411C546.388 37.904 545.868 37.605 545.192 37.605C544.477 37.605 543.983 37.982 543.983 38.71H542.358C542.358 37.02 543.736 36.37 545.192 36.37C546.622 36.37 547.948 36.955 547.948 38.476V43H546.414ZM543.762 41.154C543.762 41.609 544.152 41.83 544.672 41.83C545.582 41.83 546.414 41.31 546.414 40.322V40.023C545.374 40.452 543.762 40.322 543.762 41.154ZM551.065 40.777C551.065 41.414 551.364 41.7 552.04 41.7C552.261 41.7 552.534 41.661 552.755 41.583V42.974C552.521 43.052 552.105 43.13 551.728 43.13C550.441 43.13 549.505 42.623 549.505 40.881V37.865H548.465V36.5H549.505V34.55H551.065V36.5H552.755V37.865H551.065V40.777ZM557.587 43V42.038C557.171 42.805 556.417 43.13 555.52 43.13C554.402 43.13 553.336 42.571 553.336 41.258C553.336 38.463 557.561 39.711 557.561 38.411C557.561 37.904 557.041 37.605 556.365 37.605C555.65 37.605 555.156 37.982 555.156 38.71H553.531C553.531 37.02 554.909 36.37 556.365 36.37C557.795 36.37 559.121 36.955 559.121 38.476V43H557.587ZM554.935 41.154C554.935 41.609 555.325 41.83 555.845 41.83C556.755 41.83 557.587 41.31 557.587 40.322V40.023C556.547 40.452 554.935 40.322 554.935 41.154Z" fill="black"/>
</g>
<rect x="399.5" y="11.5" width="182" height="277" rx="15.5" stroke="black"/>
</g>
<rect x="31" y="78" width="57" height="57" rx="28.5" fill="#A6BBED"/>
<g clip-path="url(#clip5_261_5089)">
<path d="M55.7502 115.708H64.2502M52.3502 92.3334H67.6502C68.4436 92.3334 68.8403 92.3334 69.1433 92.4878C69.4099 92.6236 69.6266 92.8403 69.7624 93.1069C69.9168 93.4099 69.9168 93.8066 69.9168 94.6V97.5389C69.9168 98.2319 69.9168 98.5784 69.8385 98.9045C69.7691 99.1936 69.6547 99.47 69.4993 99.7235C69.3241 100.009 69.0791 100.254 68.589 100.744L64.4363 104.897C63.8752 105.458 63.5947 105.739 63.4896 106.062C63.3972 106.347 63.3972 106.653 63.4896 106.938C63.5947 107.261 63.8752 107.542 64.4363 108.103L68.589 112.256C69.0791 112.746 69.3241 112.991 69.4993 113.277C69.6547 113.53 69.7691 113.806 69.8385 114.096C69.9168 114.422 69.9168 114.768 69.9168 115.461V118.4C69.9168 119.193 69.9168 119.59 69.7624 119.893C69.6266 120.16 69.4099 120.376 69.1433 120.512C68.8403 120.667 68.4436 120.667 67.6502 120.667H52.3502C51.5568 120.667 51.1601 120.667 50.857 120.512C50.5904 120.376 50.3737 120.16 50.2379 119.893C50.0835 119.59 50.0835 119.193 50.0835 118.4V115.461C50.0835 114.768 50.0835 114.422 50.1618 114.096C50.2312 113.806 50.3457 113.53 50.501 113.277C50.6762 112.991 50.9212 112.746 51.4113 112.256L55.5641 108.103C56.1251 107.542 56.4056 107.261 56.5107 106.938C56.6031 106.653 56.6031 106.347 56.5107 106.062C56.4056 105.739 56.1251 105.458 55.5641 104.897L51.4113 100.744C50.9213 100.254 50.6762 100.009 50.501 99.7235C50.3457 99.47 50.2312 99.1936 50.1618 98.9045C50.0835 98.5784 50.0835 98.2319 50.0835 97.5389V94.6C50.0835 93.8066 50.0835 93.4099 50.2379 93.1069C50.3737 92.8403 50.5904 92.6236 50.857 92.4878C51.1601 92.3334 51.5568 92.3334 52.3502 92.3334Z" stroke="black" stroke-width="2.3" stroke-linecap="round" stroke-linejoin="round"/>
</g>
<rect x="223" y="78" width="57" height="57" rx="28.5" fill="#A6BBED"/>
<g clip-path="url(#clip6_261_5089)">
<path d="M253 89.0472V92.6378M253 121.362V124.953M238.638 107H235.047M242.791 96.7909L240.254 94.2535M263.206 96.7909L265.747 94.2535M242.791 117.215L240.254 119.752M263.206 117.215L265.747 119.752M270.953 107H267.362M255.095 98.269C258.53 99.0918 261.199 101.638 261.833 105.151" stroke="black" stroke-width="2.3" stroke-linecap="round" stroke-linejoin="round"/>
<path d="M261.707 107.814C261.176 108.749 260.437 109.549 259.546 110.152C258.655 110.754 257.637 111.142 256.571 111.287C255.505 111.431 254.42 111.327 253.401 110.983C252.382 110.639 251.456 110.065 250.696 109.304C249.935 108.544 249.361 107.618 249.017 106.599C248.673 105.58 248.569 104.495 248.713 103.429C248.858 102.364 249.246 101.346 249.849 100.455C250.451 99.5637 251.251 98.8239 252.186 98.293C250.539 98.4509 248.97 99.0741 247.663 100.09C246.356 101.106 245.365 102.472 244.805 104.03C244.245 105.588 244.14 107.273 244.502 108.888C244.863 110.503 245.677 111.982 246.847 113.153C248.018 114.323 249.497 115.137 251.112 115.498C252.728 115.86 254.412 115.755 255.97 115.195C257.528 114.635 258.894 113.644 259.91 112.337C260.926 111.03 261.549 109.462 261.707 107.814Z" stroke="black" stroke-width="2.3" stroke-linecap="round" stroke-linejoin="round"/>
</g>
<rect x="415" y="78" width="57" height="57" rx="28.5" fill="#A6BBED"/>
<path d="M428.75 116.482V97.3889C428.75 95.1798 430.541 93.3889 432.75 93.3889H453.25C455.459 93.3889 457.25 95.1798 457.25 97.3889V116.482C457.25 118.691 455.459 120.482 453.25 120.482H432.75C430.541 120.482 428.75 118.691 428.75 116.482Z" stroke="black" stroke-width="2.3"/>
<path d="M428.75 101.13H457.25" stroke="black" stroke-width="2.3"/>
<path d="M436.491 96.0278L436.491 89.5186" stroke="black" stroke-width="2.4" stroke-linecap="round"/>
<path d="M449.509 96.0278L449.509 89.5186" stroke="black" stroke-width="2.4" stroke-linecap="round"/>
<path d="M438.08 116.541C435.909 116.541 434.077 114.804 433.983 112.632C433.964 112.066 434.398 111.575 434.964 111.537C435.55 111.518 436.022 111.952 436.06 112.519C436.116 113.614 437.042 114.483 438.137 114.445C438.798 114.426 439.364 114.181 439.704 113.746C440.025 113.35 440.158 112.859 440.063 112.292C439.912 111.367 439.289 110.97 437.91 110.895C437.457 110.876 437.079 110.593 436.91 110.196C436.74 109.8 436.815 109.365 437.079 109.025L438.571 107.099H435.871C435.323 107.099 434.832 106.684 434.795 106.136C434.757 105.513 435.248 105.022 435.833 105.022H440.8C441.612 105.022 442.065 105.947 441.574 106.589L439.629 109.139C441.347 109.686 441.951 110.951 442.121 112.009C442.31 113.161 442.008 114.256 441.309 115.106C440.573 115.993 439.44 116.503 438.194 116.541C438.156 116.541 438.118 116.541 438.08 116.541Z" fill="black"/>
<path d="M447.938 105.022H447.825C445.464 105.022 443.538 106.948 443.538 109.309V112.33C443.538 114.69 445.464 116.617 447.825 116.617H447.938C450.298 116.617 452.225 114.69 452.225 112.33V109.309C452.225 106.929 450.298 105.022 447.938 105.022ZM447.825 107.099H447.938C448.656 107.099 449.298 107.439 449.694 107.987L445.615 111.839V109.309C445.615 108.081 446.597 107.099 447.825 107.099ZM447.938 114.52H447.825C447.183 114.52 446.616 114.256 446.22 113.822L450.147 110.102V112.33C450.147 113.539 449.165 114.52 447.938 114.52Z" fill="black"/>
<path d="M112.224 254.631C112.224 258.69 109.551 260.934 106.053 261.363V265.125H103.743V261.363C100.179 261 97.4396 258.657 97.4396 254.796V252.75H101.928V254.565C101.928 256.182 102.621 257.073 103.743 257.403V250.407L101.598 248.922C99.3206 247.371 97.7036 245.457 97.7036 242.157C97.7036 238.296 100.311 236.217 103.743 235.887V232.125H106.053V235.887C109.386 236.349 111.894 238.659 111.894 242.685V244.401H107.439V242.784C107.439 241.2 106.911 240.309 106.053 239.946V246.447L108.297 247.965C110.508 249.516 112.224 251.463 112.224 254.631ZM102.192 242.058C102.192 243.279 102.786 244.038 103.743 244.797V239.88C102.786 240.177 102.192 240.903 102.192 242.058ZM107.703 255.093C107.703 253.806 107.076 252.948 106.053 252.09V257.37C107.076 257.007 107.703 256.215 107.703 255.093ZM122.942 261.429C118.388 261.429 115.616 258.69 115.616 253.146V244.071C115.616 238.56 118.388 235.821 122.942 235.821C127.529 235.821 130.301 238.56 130.301 244.071V253.146C130.301 258.69 127.529 261.429 122.942 261.429ZM122.942 257.106C124.592 257.106 125.582 256.149 125.582 253.245V244.005C125.582 241.101 124.592 240.111 122.942 240.111C121.325 240.111 120.302 241.101 120.302 244.005V253.245C120.302 256.149 121.292 257.106 122.942 257.106ZM135.872 261.33C134.321 261.33 133.166 260.142 133.166 258.657C133.166 257.106 134.321 255.984 135.872 255.984C137.423 255.984 138.545 257.106 138.545 258.657C138.545 260.142 137.423 261.33 135.872 261.33ZM156.147 253.476C156.147 258.69 152.979 261.429 148.788 261.429C144.894 261.429 141.693 258.987 141.693 254.433V253.575H146.412V254.103C146.412 256.347 147.336 257.205 148.788 257.205C150.405 257.205 151.428 256.116 151.428 253.311V249.714C150.438 251.166 149.019 251.76 147.402 251.76C144.201 251.76 141.462 249.285 141.462 244.467V243.411C141.462 238.494 144.63 235.821 148.788 235.821C152.979 235.821 156.147 238.56 156.147 243.741V253.476ZM151.428 244.071V243.51C151.428 241.035 150.372 240.045 148.755 240.045C147.105 240.045 146.082 241.035 146.082 243.51V244.071C146.082 246.612 147.105 247.536 148.755 247.536C150.372 247.536 151.428 246.645 151.428 244.071ZM174.29 253.476C174.29 258.69 171.122 261.429 166.931 261.429C163.037 261.429 159.836 258.987 159.836 254.433V253.575H164.555V254.103C164.555 256.347 165.479 257.205 166.931 257.205C168.548 257.205 169.571 256.116 169.571 253.311V249.714C168.581 251.166 167.162 251.76 165.545 251.76C162.344 251.76 159.605 249.285 159.605 244.467V243.411C159.605 238.494 162.773 235.821 166.931 235.821C171.122 235.821 174.29 238.56 174.29 243.741V253.476ZM169.571 244.071V243.51C169.571 241.035 168.515 240.045 166.898 240.045C165.248 240.045 164.225 241.035 164.225 243.51V244.071C164.225 246.612 165.248 247.536 166.898 247.536C168.515 247.536 169.571 246.645 169.571 244.071Z" fill="black"/>
<path d="M304.224 254.631C304.224 258.69 301.551 260.934 298.053 261.363V265.125H295.743V261.363C292.179 261 289.44 258.657 289.44 254.796V252.75H293.928V254.565C293.928 256.182 294.621 257.073 295.743 257.403V250.407L293.598 248.922C291.321 247.371 289.704 245.457 289.704 242.157C289.704 238.296 292.311 236.217 295.743 235.887V232.125H298.053V235.887C301.386 236.349 303.894 238.659 303.894 242.685V244.401H299.439V242.784C299.439 241.2 298.911 240.309 298.053 239.946V246.447L300.297 247.965C302.508 249.516 304.224 251.463 304.224 254.631ZM294.192 242.058C294.192 243.279 294.786 244.038 295.743 244.797V239.88C294.786 240.177 294.192 240.903 294.192 242.058ZM299.703 255.093C299.703 253.806 299.076 252.948 298.053 252.09V257.37C299.076 257.007 299.703 256.215 299.703 255.093ZM307.22 252.75L312.764 236.25H319.925V253.146H322.565V257.37H319.925V261H315.239V257.37H307.22V252.75ZM311.015 253.146H315.239V240.276L311.015 253.146ZM327.872 261.33C326.321 261.33 325.166 260.142 325.166 258.657C325.166 257.106 326.321 255.984 327.872 255.984C329.423 255.984 330.545 257.106 330.545 258.657C330.545 260.142 329.423 261.33 327.872 261.33ZM348.147 253.476C348.147 258.69 344.979 261.429 340.788 261.429C336.894 261.429 333.693 258.987 333.693 254.433V253.575H338.412V254.103C338.412 256.347 339.336 257.205 340.788 257.205C342.405 257.205 343.428 256.116 343.428 253.311V249.714C342.438 251.166 341.019 251.76 339.402 251.76C336.201 251.76 333.462 249.285 333.462 244.467V243.411C333.462 238.494 336.63 235.821 340.788 235.821C344.979 235.821 348.147 238.56 348.147 243.741V253.476ZM343.428 244.071V243.51C343.428 241.035 342.372 240.045 340.755 240.045C339.105 240.045 338.082 241.035 338.082 243.51V244.071C338.082 246.612 339.105 247.536 340.755 247.536C342.372 247.536 343.428 246.645 343.428 244.071ZM366.29 253.476C366.29 258.69 363.122 261.429 358.931 261.429C355.037 261.429 351.836 258.987 351.836 254.433V253.575H356.555V254.103C356.555 256.347 357.479 257.205 358.931 257.205C360.548 257.205 361.571 256.116 361.571 253.311V249.714C360.581 251.166 359.162 251.76 357.545 251.76C354.344 251.76 351.605 249.285 351.605 244.467V243.411C351.605 238.494 354.773 235.821 358.931 235.821C363.122 235.821 366.29 238.56 366.29 243.741V253.476ZM361.571 244.071V243.51C361.571 241.035 360.515 240.045 358.898 240.045C357.248 240.045 356.225 241.035 356.225 243.51V244.071C356.225 246.612 357.248 247.536 358.898 247.536C360.515 247.536 361.571 246.645 361.571 244.071Z" fill="black"/>
<path d="M478.08 254.631C478.08 258.69 475.407 260.934 471.909 261.363V265.125H469.599V261.363C466.035 261 463.296 258.657 463.296 254.796V252.75H467.784V254.565C467.784 256.182 468.477 257.073 469.599 257.403V250.407L467.454 248.922C465.177 247.371 463.56 245.457 463.56 242.157C463.56 238.296 466.167 236.217 469.599 235.887V232.125H471.909V235.887C475.242 236.349 477.75 238.659 477.75 242.685V244.401H473.295V242.784C473.295 241.2 472.767 240.309 471.909 239.946V246.447L474.153 247.965C476.364 249.516 478.08 251.463 478.08 254.631ZM468.048 242.058C468.048 243.279 468.642 244.038 469.599 244.797V239.88C468.642 240.177 468.048 240.903 468.048 242.058ZM473.559 255.093C473.559 253.806 472.932 252.948 471.909 252.09V257.37C472.932 257.007 473.559 256.215 473.559 255.093ZM496.488 254.73C496.488 259.053 493.188 261.429 489.129 261.429C485.07 261.429 481.803 259.053 481.803 254.73V252.915H486.423V254.235C486.423 256.38 487.512 257.205 489.129 257.205C490.779 257.205 491.868 256.347 491.868 254.202V253.41C491.868 251.265 490.713 250.473 488.964 250.473H487.149V246.216H488.964C490.383 246.216 491.307 245.457 491.307 243.477V242.421C491.307 240.705 490.449 240.045 489.129 240.045C487.842 240.045 486.951 240.705 486.951 242.388V243.477H482.331V242.124C482.331 237.933 485.367 235.821 489.129 235.821C492.891 235.821 495.927 237.966 495.927 241.926V243.18C495.927 245.325 494.904 246.942 493.32 247.899C495.234 248.889 496.488 250.638 496.488 253.08V254.73ZM514.301 253.476C514.301 258.69 511.133 261.429 506.942 261.429C503.048 261.429 499.847 258.987 499.847 254.433V253.575H504.566V254.103C504.566 256.347 505.49 257.205 506.942 257.205C508.559 257.205 509.582 256.116 509.582 253.311V249.714C508.592 251.166 507.173 251.76 505.556 251.76C502.355 251.76 499.616 249.285 499.616 244.467V243.411C499.616 238.494 502.784 235.821 506.942 235.821C511.133 235.821 514.301 238.56 514.301 243.741V253.476ZM509.582 244.071V243.51C509.582 241.035 508.526 240.045 506.909 240.045C505.259 240.045 504.236 241.035 504.236 243.51V244.071C504.236 246.612 505.259 247.536 506.909 247.536C508.526 247.536 509.582 246.645 509.582 244.071ZM519.872 261.33C518.321 261.33 517.166 260.142 517.166 258.657C517.166 257.106 518.321 255.984 519.872 255.984C521.423 255.984 522.545 257.106 522.545 258.657C522.545 260.142 521.423 261.33 519.872 261.33ZM540.147 253.476C540.147 258.69 536.979 261.429 532.788 261.429C528.894 261.429 525.693 258.987 525.693 254.433V253.575H530.412V254.103C530.412 256.347 531.336 257.205 532.788 257.205C534.405 257.205 535.428 256.116 535.428 253.311V249.714C534.438 251.166 533.019 251.76 531.402 251.76C528.201 251.76 525.462 249.285 525.462 244.467V243.411C525.462 238.494 528.63 235.821 532.788 235.821C536.979 235.821 540.147 238.56 540.147 243.741V253.476ZM535.428 244.071V243.51C535.428 241.035 534.372 240.045 532.755 240.045C531.105 240.045 530.082 241.035 530.082 243.51V244.071C530.082 246.612 531.105 247.536 532.755 247.536C534.372 247.536 535.428 246.645 535.428 244.071ZM558.29 253.476C558.29 258.69 555.122 261.429 550.931 261.429C547.037 261.429 543.836 258.987 543.836 254.433V253.575H548.555V254.103C548.555 256.347 549.479 257.205 550.931 257.205C552.548 257.205 553.571 256.116 553.571 253.311V249.714C552.581 251.166 551.162 251.76 549.545 251.76C546.344 251.76 543.605 249.285 543.605 244.467V243.411C543.605 238.494 546.773 235.821 550.931 235.821C555.122 235.821 558.29 238.56 558.29 243.741V253.476ZM553.571 244.071V243.51C553.571 241.035 552.515 240.045 550.898 240.045C549.248 240.045 548.225 241.035 548.225 243.51V244.071C548.225 246.612 549.248 247.536 550.898 247.536C552.515 247.536 553.571 246.645 553.571 244.071Z" fill="black"/>
<defs>
<filter id="filter0_d_261_5089" x="0" y="0" width="213" height="308" filterUnits="userSpaceOnUse" color-interpolation-filters="sRGB">
<feFlood flood-opacity="0" result="BackgroundImageFix"/>
<feColorMatrix in="SourceAlpha" type="matrix" values="0 0 0 0 0 0 0 0 0 0 0 0 0 0 0 0 0 0 127 0" result="hardAlpha"/>
<feOffset dy="4"/>
<feGaussianBlur stdDeviation="7.5"/>
<feComposite in2="hardAlpha" operator="out"/>
<feColorMatrix type="matrix" values="0 0 0 0 0 0 0 0 0 0 0 0 0 0 0 0 0 0 0.15 0"/>
<feBlend mode="normal" in2="BackgroundImageFix" result="effect1_dropShadow_261_5089"/>
<feBlend mode="normal" in="SourceGraphic" in2="effect1_dropShadow_261_5089" result="shape"/>
</filter>
<filter id="filter1_d_261_5089" x="192" y="0" width="213" height="308" filterUnits="userSpaceOnUse" color-interpolation-filters="sRGB">
<feFlood flood-opacity="0" result="BackgroundImageFix"/>
<feColorMatrix in="SourceAlpha" type="matrix" values="0 0 0 0 0 0 0 0 0 0 0 0 0 0 0 0 0 0 127 0" result="hardAlpha"/>
<feOffset dy="4"/>
<feGaussianBlur stdDeviation="7.5"/>
<feComposite in2="hardAlpha" operator="out"/>
<feColorMatrix type="matrix" values="0 0 0 0 0 0 0 0 0 0 0 0 0 0 0 0 0 0 0.15 0"/>
<feBlend mode="normal" in2="BackgroundImageFix" result="effect1_dropShadow_261_5089"/>
<feBlend mode="normal" in="SourceGraphic" in2="effect1_dropShadow_261_5089" result="shape"/>
</filter>
<filter id="filter2_d_261_5089" x="384" y="0" width="213" height="308" filterUnits="userSpaceOnUse" color-interpolation-filters="sRGB">
<feFlood flood-opacity="0" result="BackgroundImageFix"/>
<feColorMatrix in="SourceAlpha" type="matrix" values="0 0 0 0 0 0 0 0 0 0 0 0 0 0 0 0 0 0 127 0" result="hardAlpha"/>
<feOffset dy="4"/>
<feGaussianBlur stdDeviation="7.5"/>
<feComposite in2="hardAlpha" operator="out"/>
<feColorMatrix type="matrix" values="0 0 0 0 0 0 0 0 0 0 0 0 0 0 0 0 0 0 0.15 0"/>
<feBlend mode="normal" in2="BackgroundImageFix" result="effect1_dropShadow_261_5089"/>
<feBlend mode="normal" in="SourceGraphic" in2="effect1_dropShadow_261_5089" result="shape"/>
</filter>
<clipPath id="clip0_261_5089">
<rect x="15" y="11" width="183" height="278" rx="16" fill="white"/>
</clipPath>
<clipPath id="clip1_261_5089">
<rect width="154" height="54" fill="white" transform="translate(31 152)"/>
</clipPath>
<clipPath id="clip2_261_5089">
<rect x="207" y="11" width="183" height="278" rx="16" fill="white"/>
</clipPath>
<clipPath id="clip3_261_5089">
<rect width="154" height="54" fill="white" transform="translate(223 152)"/>
</clipPath>
<clipPath id="clip4_261_5089">
<rect x="399" y="11" width="183" height="278" rx="16" fill="white"/>
</clipPath>
<clipPath id="clip5_261_5089">
<rect width="34" height="34" fill="white" transform="translate(43 90)"/>
</clipPath>
<clipPath id="clip6_261_5089">
<rect width="38" height="38" fill="white" transform="translate(234 88)"/>
</clipPath>
</defs>
</svg>
