<svg width="864" height="312" viewBox="0 0 864 312" fill="none" xmlns="http://www.w3.org/2000/svg">
<path d="M826.8 2.2998H37.3C17.9701 2.2998 2.30005 17.9698 2.30005 37.2998V274.8C2.30005 294.13 17.9701 309.8 37.3001 309.8H826.8C846.13 309.8 861.8 294.13 861.8 274.8V37.2998C861.8 17.9698 846.13 2.2998 826.8 2.2998Z" fill="black"/>
<path d="M4.5 39.5C4.5 20.17 20.17 4.5 39.5 4.5H824.5C843.83 4.5 859.5 20.17 859.5 39.5V272.5C859.5 291.83 843.83 307.5 824.5 307.5H39.5C20.1701 307.5 4.5 291.83 4.5 272.5V39.5ZM0 277C0 296.33 15.67 312 35 312H829C848.33 312 864 296.33 864 277V35C864 15.67 848.33 0 829 0H35C15.6701 0 0 15.67 0 35V277Z" fill="black"/>
<path d="M154.3 68.6006H70.5V152.401H154.3V68.6006Z" fill="#F25022"/>
<path d="M246.8 68.6006H163V152.401H246.8V68.6006Z" fill="#7FBA00"/>
<path d="M154.3 161H70.5V244.8H154.3V161Z" fill="#00A4EF"/>
<path d="M246.8 161H163V244.8H246.8V161Z" fill="#FFB900"/>
<path d="M408.3 163C408.3 160.5 409.2 158.5 411 156.8C412.8 155.1 414.9 154.3 417.4 154.3C420 154.3 422.2 155.2 423.9 156.9C425.6 158.6 426.5 160.7 426.5 163C426.5 165.4 425.6 167.5 423.8 169.1C422 170.8 419.9 171.6 417.3 171.6C414.7 171.6 412.6 170.8 410.8 169.1C409.2 167.4 408.3 165.4 408.3 163ZM424.8 244.8H409.9V181.3H424.8V244.8Z" fill="white"/>
<path d="M470.2 233.9C472.4 233.9 474.9 233.4 477.6 232.4C480.3 231.4 482.7 230 485 228.3V242.2C482.6 243.6 479.9 244.6 476.9 245.3C473.9 246 470.5 246.4 466.9 246.4C457.6 246.4 450 243.4 444.1 237.5C438.2 231.6 435.3 224 435.3 214.9C435.3 204.7 438.3 196.3 444.3 189.7C450.3 183.1 458.7 179.8 469.7 179.8C472.5 179.8 475.3 180.2 478.2 180.9C481.1 181.6 483.3 182.5 485 183.4V197.7C482.7 196 480.3 194.7 477.9 193.8C475.5 192.9 473 192.4 470.5 192.4C464.6 192.4 459.9 194.3 456.2 198.1C452.6 201.9 450.8 207.1 450.8 213.6C450.8 220 452.5 225 456 228.6C459.5 232.2 464.2 233.9 470.2 233.9Z" fill="white"/>
<path d="M527.5 180.3C528.7 180.3 529.8 180.4 530.7 180.5C531.6 180.7 532.5 180.9 533.1 181.1V196.2C532.3 195.6 531.2 195.1 529.7 194.6C528.2 194.1 526.4 193.8 524.2 193.8C520.5 193.8 517.4 195.3 514.9 198.4C512.4 201.5 511.1 206.2 511.1 212.7V244.8H496.2V181.3H511.1V191.3H511.3C512.7 187.8 514.7 185.1 517.5 183.2C520.3 181.3 523.6 180.3 527.5 180.3Z" fill="white"/>
<path d="M533.9 214C533.9 203.5 536.9 195.2 542.8 189C548.7 182.9 557 179.8 567.5 179.8C577.4 179.8 585.2 182.8 590.8 188.7C596.4 194.6 599.2 202.6 599.2 212.6C599.2 222.9 596.2 231.1 590.3 237.2C584.4 243.3 576.3 246.3 566.1 246.3C556.3 246.3 548.4 243.4 542.7 237.6C536.8 231.9 533.9 224 533.9 214ZM549.5 213.5C549.5 220.1 551 225.2 554 228.7C557 232.2 561.3 233.9 566.9 233.9C572.3 233.9 576.5 232.2 579.3 228.7C582.1 225.2 583.6 220 583.6 213.1C583.6 206.3 582.1 201.1 579.2 197.6C576.3 194.1 572.1 192.4 566.8 192.4C561.3 192.4 557.1 194.2 554 197.9C551 201.6 549.5 206.7 549.5 213.5Z" fill="white"/>
<path d="M621.4 198C621.4 200.1 622.1 201.8 623.4 203C624.8 204.2 627.8 205.7 632.4 207.6C638.4 210 642.6 212.7 645 215.7C647.4 218.7 648.6 222.3 648.6 226.5C648.6 232.5 646.3 237.3 641.7 240.9C637.1 244.5 630.9 246.3 623.1 246.3C620.5 246.3 617.6 246 614.4 245.3C611.2 244.7 608.5 243.8 606.3 242.9V228.2C609 230.1 611.9 231.6 615.1 232.7C618.2 233.8 621.1 234.4 623.6 234.4C627 234.4 629.5 233.9 631.1 233C632.7 232.1 633.5 230.5 633.5 228.2C633.5 226.1 632.7 224.4 631 223C629.3 221.6 626.2 219.9 621.5 218.1C616 215.8 612.1 213.2 609.8 210.3C607.5 207.4 606.3 203.7 606.3 199.3C606.3 193.6 608.6 188.9 613.1 185.2C617.6 181.5 623.5 179.7 630.8 179.7C633 179.7 635.5 179.9 638.3 180.4C641.1 180.9 643.4 181.5 645.2 182.3V196.5C643.2 195.2 640.9 194.1 638.3 193.1C635.7 192.2 633 191.7 630.5 191.7C627.7 191.7 625.4 192.3 623.9 193.4C622.2 194.5 621.4 196.1 621.4 198Z" fill="white"/>
<path d="M655.2 214C655.2 203.5 658.2 195.2 664.1 189C670 182.9 678.3 179.8 688.8 179.8C698.7 179.8 706.5 182.8 712.1 188.7C717.7 194.6 720.5 202.6 720.5 212.6C720.5 222.9 717.5 231.1 711.6 237.2C705.7 243.3 697.6 246.3 687.4 246.3C677.6 246.3 669.7 243.4 664 237.6C658.1 231.9 655.2 224 655.2 214ZM670.7 213.5C670.7 220.1 672.2 225.2 675.2 228.7C678.2 232.2 682.5 233.9 688.1 233.9C693.5 233.9 697.7 232.2 700.5 228.7C703.3 225.2 704.8 220 704.8 213.1C704.8 206.3 703.3 201.1 700.4 197.6C697.5 194.1 693.3 192.4 688 192.4C682.5 192.4 678.3 194.2 675.2 197.9C672.2 201.6 670.7 206.7 670.7 213.5Z" fill="white"/>
<path d="M769.8 193.6V226.2C769.8 233 771.4 238 774.5 241.4C777.6 244.8 782.4 246.4 788.7 246.4C790.8 246.4 793 246.2 795.2 245.7C797.4 245.2 799 244.8 799.9 244.2V231.8C799 232.4 797.9 232.9 796.7 233.3C795.5 233.7 794.4 233.9 793.6 233.9C790.6 233.9 788.3 233.1 786.9 231.5C785.5 229.9 784.8 227.1 784.8 223.2V193.5H800V181.3H784.9V162.5L769.9 167.1V181.4H747.6V173.7C747.6 169.9 748.4 167 750.1 165C751.8 163 754.2 162.1 757.3 162.1C758.9 162.1 760.3 162.3 761.6 162.7C762.8 163.1 763.7 163.5 764.2 163.8V150.9C763.1 150.5 761.9 150.3 760.5 150.1C759.1 149.9 757.5 149.8 755.7 149.8C748.9 149.8 743.3 151.9 739 156.2C734.7 160.5 732.5 165.9 732.5 172.6V181.4H721.9V193.6H732.5V244.9H747.6V193.6H769.8V193.6Z" fill="white"/>
<path d="M395.5 156.2V244.8H380.1V175.4H379.9L352.4 244.8H342.2L314 175.4H313.8V244.8H299.6V156.2H321.6L347.1 221.9H347.5L374.4 156.2H395.5Z" fill="white"/>
<path d="M340 117.901C334.7 120.901 328.7 122.401 322 122.401C316.9 122.401 312.4 121.301 308.4 119.001C304.5 116.801 301.4 113.601 299.3 109.501C297.2 105.401 296.1 100.801 296.1 95.7006C296.1 90.3006 297.3 85.4006 299.6 81.2006C301.9 77.0006 305.2 73.6006 309.5 71.2006C313.8 68.8006 318.6 67.6006 324 67.6006C326.7 67.6006 329.4 67.9006 332.1 68.4006C334.8 68.9006 337 69.6006 338.7 70.4006V78.4006C334.7 75.7006 329.6 74.4006 323.4 74.4006C319.7 74.4006 316.4 75.3006 313.4 77.1006C310.4 78.9006 308.1 81.4006 306.5 84.5006C304.9 87.7006 304.1 91.3006 304.1 95.3006C304.1 101.601 305.8 106.601 309.1 110.301C312.4 114.001 317 115.801 322.8 115.801C326.5 115.801 329.8 115.101 332.6 113.601V99.9006H321.3V93.3006H340V117.901Z" fill="white"/>
<path d="M383.1 104.6H356.9C357 108.4 358.2 111.3 360.2 113.4C362.3 115.4 365 116.5 368.4 116.5C372.9 116.5 376.8 115.2 380.2 112.6V119C378.7 120 376.8 120.9 374.5 121.5C372.2 122.1 369.8 122.4 367.4 122.4C361.7 122.4 357.2 120.7 354.1 117.3C351 113.9 349.4 109.1 349.4 102.9C349.4 99.0998 350.2 95.5998 351.7 92.5998C353.2 89.4998 355.4 87.0998 358.1 85.3998C360.8 83.6998 363.9 82.7998 367.2 82.7998C372.1 82.7998 376 84.3998 378.8 87.5998C381.6 90.7998 383 95.1998 383 100.9V104.6H383.1ZM375.8 98.8998C375.8 95.5998 375 93.0998 373.5 91.3998C372 89.6998 369.9 88.7998 367.1 88.7998C364.6 88.7998 362.4 89.6998 360.5 91.4998C358.6 93.2998 357.5 95.7998 356.9 98.8998H375.8V98.8998Z" fill="white"/>
<path d="M411.5 121.1C410.8 121.5 409.9 121.8 408.6 122C407.4 122.2 406.3 122.3 405.3 122.3C398.3 122.3 394.8 118.4 394.8 110.7V89.7004H388.4V83.7004H394.8V74.7004L402.1 72.4004V83.6004H411.4V89.6004H402.1V109.4C402.1 111.9 402.5 113.7 403.3 114.7C404.1 115.7 405.5 116.2 407.6 116.2C409 116.2 410.3 115.8 411.4 115V121.1H411.5Z" fill="white"/>
<path d="M447.7 70.3002C447.7 71.5002 447.3 72.5002 446.4 73.4002C445.5 74.3002 444.4 74.7002 443.1 74.7002C441.8 74.7002 440.7 74.3002 439.8 73.4002C438.9 72.6002 438.5 71.5002 438.5 70.2002C438.5 68.9002 439 67.8002 439.9 67.0002C440.8 66.2002 441.9 65.7002 443.1 65.7002C444.3 65.7002 445.4 66.1002 446.3 67.0002C447.3 68.0002 447.7 69.0002 447.7 70.3002ZM446.7 121.5H439.4V83.7002H446.7V121.5Z" fill="white"/>
<path d="M478.4 121.1C477.7 121.5 476.8 121.8 475.5 122C474.3 122.2 473.2 122.3 472.2 122.3C465.2 122.3 461.7 118.4 461.7 110.7V89.7004H455.3V83.7004H461.7V74.7004L469 72.4004V83.6004H478.3V89.6004H469V109.4C469 111.9 469.4 113.7 470.2 114.7C471 115.7 472.4 116.2 474.5 116.2C475.9 116.2 477.2 115.8 478.3 115V121.1H478.4Z" fill="white"/>
<path d="M526.2 71.7002C525 71.1002 523.7 70.7002 522.2 70.7002C518.1 70.7002 516.1 73.2002 516.1 78.2002V83.6002H524.7V89.6002H516.1V121.4H508.8V89.7002H502.4V83.7002H508.8V77.9002C508.8 73.9002 509.9 70.7002 512.2 68.3002C514.5 65.9002 517.6 64.7002 521.6 64.7002C523.6 64.7002 525.1 64.9002 526.3 65.4002V71.7002H526.2Z" fill="white"/>
<path d="M553.1 91C552.7 90.7 551.9 90.4 550.9 90.1C549.9 89.9 549 89.7 548.3 89.7C545.7 89.7 543.6 90.9 542 93.2C540.4 95.5 539.6 98.5 539.6 102.2V121.5H532.3V83.7H539.6V91.3H539.8C540.6 88.7 541.9 86.7 543.6 85.2C545.3 83.7 547.3 83 549.5 83C551 83 552.2 83.2 553 83.5V91H553.1Z" fill="white"/>
<path d="M594.8 102.4C594.8 108.5 593 113.4 589.5 117C586 120.6 581.3 122.4 575.5 122.4C569.8 122.4 565.2 120.6 561.8 117.1C558.4 113.6 556.7 108.9 556.7 103C556.7 96.6998 558.5 91.7998 562 88.1998C565.5 84.5998 570.3 82.7998 576.4 82.7998C582.1 82.7998 586.6 84.4998 589.8 87.9998C593.2 91.4998 594.8 96.2998 594.8 102.4ZM587.3 102.6C587.3 98.0998 586.3 94.6998 584.4 92.3998C582.4 90.0998 579.7 88.8998 576.1 88.8998C572.5 88.8998 569.6 90.0998 567.5 92.5998C565.4 94.9998 564.4 98.4998 564.4 102.9C564.4 107.2 565.4 110.5 567.5 112.9C569.6 115.3 572.4 116.5 576.1 116.5C579.8 116.5 582.6 115.3 584.5 113C586.3 110.5 587.3 107.1 587.3 102.6Z" fill="white"/>
<path d="M660.1 121.5H652.8V100C652.8 96.1002 652.2 93.3002 651 91.5002C649.8 89.7002 647.7 88.9002 644.8 88.9002C642.4 88.9002 640.3 90.0002 638.7 92.2002C637 94.4002 636.2 97.1002 636.2 100.1V121.5H628.9V99.3002C628.9 92.4002 626.2 88.9002 620.9 88.9002C618.4 88.9002 616.3 90.0002 614.7 92.1002C613.1 94.2002 612.3 96.9002 612.3 100.2V121.6H605V83.7002H612.3V89.6002H612.4C615.1 85.0002 619.1 82.8002 624.2 82.8002C626.6 82.8002 628.8 83.5002 630.8 84.8002C632.7 86.1002 634.1 88.0002 635 90.4002C636.5 87.8002 638.2 85.9002 640.3 84.6002C642.4 83.4002 644.8 82.7002 647.6 82.7002C655.9 82.7002 660 87.8002 660 98.1002V121.5H660.1Z" fill="white"/>
</svg>
