<svg width="53" height="53" viewBox="0 0 53 53" fill="none" xmlns="http://www.w3.org/2000/svg">
<path fill-rule="evenodd" clip-rule="evenodd" d="M14.1354 41.6551C15.1204 40.9208 15.3178 39.5299 14.5813 38.5495C9.29289 31.4975 9.29289 21.6438 14.5813 14.5918C14.8786 14.1925 15.025 13.7267 15.025 13.263C15.025 12.5864 14.7189 11.921 14.1354 11.4862C13.1572 10.7497 11.7663 10.9493 11.032 11.9298C4.56569 20.5479 4.5679 32.5889 11.032 41.2114C11.7663 42.1919 13.1572 42.3893 14.1354 41.6551ZM17.685 34.5552C18.4192 35.5357 19.8101 35.7353 20.7906 35.0011C21.7711 34.2646 21.9685 32.8737 21.2387 31.8955C18.8895 28.761 18.8895 24.3821 21.2387 21.2454C21.5337 20.8461 21.6801 20.378 21.6801 19.9166C21.6801 19.2423 21.3718 18.5768 20.7906 18.1398C19.8101 17.4055 18.4192 17.6029 17.685 18.5856C14.1667 23.2884 14.1667 29.8546 17.685 34.5552ZM26.484 28.7887C25.2595 28.7887 24.2657 27.7949 24.2657 26.5704C24.2657 25.3437 25.2595 24.3521 26.484 24.3521C27.7108 24.3521 28.7023 25.3437 28.7023 26.5704C28.7023 27.7949 27.7108 28.7887 26.484 28.7887Z" fill="white"/>
<path fill-rule="evenodd" clip-rule="evenodd" d="M38.9192 11.4854C37.9343 12.2197 37.7369 13.6106 38.4734 14.591C43.7618 21.643 43.7618 31.4967 38.4734 38.5487C38.1761 38.948 38.0297 39.4139 38.0297 39.8775C38.0297 40.5541 38.3358 41.2196 38.9192 41.6543C39.8975 42.3908 41.2884 42.1912 42.0226 41.2107C48.489 32.5926 48.4868 20.5516 42.0226 11.9291C41.2884 10.9486 39.8975 10.7512 38.9192 11.4854ZM35.3699 18.5851C34.6357 17.6046 33.2448 17.4049 32.2643 18.1392C31.2838 18.8757 31.0864 20.2665 31.8162 21.2448C34.1654 24.3793 34.1654 28.7582 31.8162 31.8949C31.5212 32.2942 31.3748 32.7622 31.3748 33.2236C31.3748 33.898 31.6831 34.5635 32.2643 35.0005C33.2448 35.7348 34.6357 35.5373 35.3699 34.5546C38.8882 29.8518 38.8882 23.2856 35.3699 18.5851ZM26.5709 24.3516C27.7954 24.3516 28.7892 25.3454 28.7892 26.5699C28.7892 27.7966 27.7954 28.7882 26.5709 28.7882C25.3442 28.7882 24.3526 27.7966 24.3526 26.5699C24.3526 25.3454 25.3442 24.3516 26.5709 24.3516Z" fill="white"/>
</svg>
