<svg width="140" height="31" viewBox="0 0 140 31" fill="none" xmlns="http://www.w3.org/2000/svg">
<path d="M0 15.3749C0 6.88359 6.88359 0 15.3749 0H124.324C132.816 0 139.699 6.88359 139.699 15.3749V15.3749C139.699 23.8663 132.816 30.7499 124.324 30.7499H15.3749C6.8836 30.7499 0 23.8663 0 15.3749V15.3749Z" fill="#FF9FFC"/>
<path d="M19.8919 20.3421C19.5042 20.3421 19.1164 20.2716 18.7522 20.1189C18.3879 19.9661 18.0707 19.7429 17.7887 19.4726C17.5185 19.1906 17.2952 18.8734 17.1425 18.5091C16.9897 18.1449 16.9192 17.7571 16.9192 17.3694C16.9192 17.2989 16.978 17.2401 17.0485 17.2401C17.119 17.2401 17.1777 17.2989 17.1777 17.3694C17.1777 17.7219 17.2482 18.0744 17.3892 18.4034C17.5302 18.7324 17.7182 19.0261 17.9767 19.2846C18.2352 19.5431 18.5289 19.7311 18.8579 19.8721C19.1869 20.0131 19.5394 20.0836 19.8919 20.0836C20.6087 20.0836 21.2902 19.7664 21.8072 19.2024C22.3242 18.6619 22.6061 17.9334 22.6061 17.2049C22.6061 16.4412 22.3594 15.7597 21.9012 15.2779C21.4194 14.7609 20.7262 14.4907 19.8919 14.4907C19.0694 14.4672 18.2704 14.6787 17.5655 15.0899C17.5185 15.1252 17.4715 15.1252 17.4362 15.1017C17.3892 15.0782 17.3657 15.0312 17.3657 14.9842V11.5415C17.3657 11.471 17.4245 11.4122 17.495 11.4122H22.2184C22.2889 11.4122 22.3477 11.471 22.3477 11.5415C22.3477 11.612 22.2889 11.6707 22.2184 11.6707H17.6242V14.7609C18.3292 14.3967 19.1047 14.2087 19.8919 14.2322C20.7967 14.2322 21.5604 14.5259 22.1009 15.1017C22.5944 15.6304 22.8764 16.3824 22.8764 17.2049C22.8764 17.9921 22.5591 18.7911 22.0069 19.3904C21.7249 19.6841 21.4077 19.9191 21.0552 20.0836C20.6909 20.2599 20.2914 20.3421 19.8919 20.3421ZM29.379 20.3421C28.9913 20.3421 28.6035 20.2716 28.2393 20.1189C27.875 19.9661 27.5578 19.7429 27.2758 19.4726C27.0056 19.1906 26.7823 18.8734 26.6296 18.5091C26.4768 18.1449 26.4063 17.7571 26.4063 17.3694C26.4063 17.2989 26.4651 17.2401 26.5356 17.2401C26.6061 17.2401 26.6648 17.2989 26.6648 17.3694C26.6648 17.7219 26.7353 18.0744 26.8763 18.4034C27.0173 18.7324 27.2053 19.0261 27.4638 19.2846C27.7223 19.5431 28.016 19.7311 28.345 19.8721C28.674 20.0131 29.0265 20.0836 29.379 20.0836C30.0958 20.0836 30.7773 19.7664 31.2943 19.2024C31.8113 18.6619 32.0932 17.9334 32.0932 17.2049C32.0932 16.4412 31.8465 15.7597 31.3883 15.2779C30.9065 14.7609 30.2133 14.4907 29.379 14.4907C28.5565 14.4672 27.7575 14.6787 27.0526 15.0899C27.0056 15.1252 26.9586 15.1252 26.9233 15.1017C26.8763 15.0782 26.8528 15.0312 26.8528 14.9842V11.5415C26.8528 11.471 26.9116 11.4122 26.9821 11.4122H31.7055C31.776 11.4122 31.8348 11.471 31.8348 11.5415C31.8348 11.612 31.776 11.6707 31.7055 11.6707H27.1113V14.7609C27.8163 14.3967 28.5918 14.2087 29.379 14.2322C30.2838 14.2322 31.0475 14.5259 31.588 15.1017C32.0815 15.6304 32.3635 16.3824 32.3635 17.2049C32.3635 17.9921 32.0462 18.7911 31.494 19.3904C31.212 19.6841 30.8948 19.9191 30.5423 20.0836C30.178 20.2599 29.7785 20.3421 29.379 20.3421ZM41.6626 20.2246H36.1637C36.0932 20.2246 36.0344 20.1659 36.0344 20.0954V19.3551C36.0579 18.7089 36.3399 18.1684 36.9274 17.6866C37.4209 17.2754 38.1611 16.8994 39.2539 16.4882C40.1586 16.1592 40.7579 15.7479 41.0986 15.2309C41.4041 14.7727 41.4511 14.3027 41.4511 13.8914C41.4511 13.2334 41.2161 12.6694 40.7931 12.2464C40.3231 11.7882 39.6416 11.5415 38.8779 11.565C38.5371 11.565 38.1964 11.6355 37.8791 11.7647C37.5736 11.894 37.2916 12.0702 37.0566 12.2934C36.5514 12.7634 36.2694 13.3862 36.2694 14.0442V14.9724C36.2694 15.0429 36.2107 15.1017 36.1402 15.1017C36.0697 15.1017 36.0109 15.0429 36.0109 14.9724V14.0442C36.0109 13.3039 36.3164 12.6224 36.8686 12.1055C37.1389 11.8587 37.4444 11.659 37.7851 11.5297C38.1376 11.3887 38.5019 11.3065 38.8779 11.2947C39.7121 11.283 40.4524 11.5532 40.9694 12.0585C41.4511 12.5284 41.7096 13.1629 41.7096 13.8914C41.7096 14.3379 41.6626 14.8549 41.3218 15.3837C40.9459 15.9359 40.2996 16.3824 39.3361 16.7349C38.2786 17.1344 37.5736 17.4986 37.0919 17.8864C36.5632 18.3211 36.3047 18.7911 36.3047 19.3551V19.9661H41.6626C41.7331 19.9661 41.7918 20.0249 41.7918 20.0954C41.7918 20.1659 41.7331 20.2246 41.6626 20.2246Z" fill="black"/>
<path d="M18.7522 20.1189L18.5704 20.5523L18.7522 20.1189ZM17.7887 19.4726L17.4494 19.7978L17.4563 19.805L17.4635 19.8119L17.7887 19.4726ZM17.1425 18.5091L17.5759 18.3274L17.5759 18.3274L17.1425 18.5091ZM17.3892 18.4034L16.9572 18.5885L16.9572 18.5885L17.3892 18.4034ZM17.9767 19.2846L18.309 18.9523L18.309 18.9523L17.9767 19.2846ZM18.8579 19.8721L19.0431 19.4401L19.0431 19.4401L18.8579 19.8721ZM21.8072 19.2024L21.4674 18.8774L21.4607 18.8848L21.8072 19.2024ZM21.9012 15.2779L21.5573 15.5983L21.5606 15.6018L21.9012 15.2779ZM19.8919 14.4907L19.8785 14.9607H19.8919V14.4907ZM17.5655 15.0899L17.3286 14.6839L17.3052 14.6976L17.2835 14.7139L17.5655 15.0899ZM17.4362 15.1017L17.6969 14.7106L17.6726 14.6944L17.6464 14.6813L17.4362 15.1017ZM17.6242 11.6707V11.2007H17.1542V11.6707H17.6242ZM17.6242 14.7609H17.1542V15.5328L17.8399 15.1785L17.6242 14.7609ZM19.8919 14.2322L19.8779 14.7022H19.8919V14.2322ZM22.1009 15.1017L22.4445 14.781L22.4436 14.78L22.1009 15.1017ZM22.0069 19.3904L22.346 19.7159L22.3525 19.7089L22.0069 19.3904ZM21.0552 20.0836L20.8564 19.6577L20.8505 19.6605L21.0552 20.0836ZM19.8919 19.8721C19.561 19.8721 19.2357 19.812 18.934 19.6854L18.5704 20.5523C18.9972 20.7312 19.4474 20.8121 19.8919 20.8121V19.8721ZM18.934 19.6854C18.6318 19.5587 18.3618 19.3709 18.1139 19.1333L17.4635 19.8119C17.7796 20.1148 18.1441 20.3735 18.5704 20.5523L18.934 19.6854ZM18.128 19.1474C17.8904 18.8995 17.7026 18.6295 17.5759 18.3274L16.709 18.6909C16.8878 19.1172 17.1465 19.4818 17.4494 19.7978L18.128 19.1474ZM17.5759 18.3274C17.4493 18.0256 17.3892 17.7003 17.3892 17.3694H16.4492C16.4492 17.814 16.5301 18.2642 16.709 18.6909L17.5759 18.3274ZM17.3892 17.3694C17.3892 17.5585 17.2375 17.7101 17.0485 17.7101V16.7701C16.7184 16.7701 16.4492 17.0393 16.4492 17.3694H17.3892ZM17.0485 17.7101C16.8594 17.7101 16.7077 17.5585 16.7077 17.3694H17.6477C17.6477 17.0393 17.3785 16.7701 17.0485 16.7701V17.7101ZM16.7077 17.3694C16.7077 17.7844 16.7907 18.2 16.9572 18.5885L17.8212 18.2182C17.7057 17.9488 17.6477 17.6594 17.6477 17.3694H16.7077ZM16.9572 18.5885C17.1187 18.9654 17.3384 19.311 17.6444 19.617L18.309 18.9523C18.098 18.7412 17.9417 18.4994 17.8212 18.2182L16.9572 18.5885ZM17.6444 19.617C17.9503 19.9229 18.296 20.1426 18.6728 20.3041L19.0431 19.4401C18.7619 19.3196 18.5201 19.1634 18.309 18.9523L17.6444 19.617ZM18.6728 20.3041C19.0614 20.4706 19.4769 20.5536 19.8919 20.5536V19.6136C19.6019 19.6136 19.3125 19.5556 19.0431 19.4401L18.6728 20.3041ZM19.8919 20.5536C20.7525 20.5536 21.5561 20.1718 22.1536 19.52L21.4607 18.8848C21.0242 19.3609 20.4649 19.6136 19.8919 19.6136V20.5536ZM22.1468 19.5272C22.7493 18.8973 23.0761 18.0517 23.0761 17.2049H22.1362C22.1362 17.8151 21.899 18.4264 21.4675 18.8775L22.1468 19.5272ZM23.0761 17.2049C23.0761 16.3418 22.7966 15.5374 22.2417 14.954L21.5606 15.6018C21.9222 15.9819 22.1362 16.5405 22.1362 17.2049H23.0761ZM22.245 14.9575C21.6577 14.3272 20.83 14.0207 19.8919 14.0207V14.9607C20.6224 14.9607 21.1811 15.1946 21.5573 15.5983L22.245 14.9575ZM19.9054 14.0209C18.9925 13.9948 18.1072 14.2298 17.3286 14.6839L17.8023 15.4959C18.4337 15.1275 19.1464 14.9396 19.8785 14.9605L19.9054 14.0209ZM17.2835 14.7139C17.3204 14.6862 17.3821 14.6544 17.4652 14.6489C17.55 14.6432 17.6315 14.667 17.6969 14.7106L17.1755 15.4927C17.4007 15.6428 17.6655 15.6024 17.8475 15.4659L17.2835 14.7139ZM17.6464 14.6813C17.7807 14.7484 17.8357 14.8792 17.8357 14.9842H16.8957C16.8957 15.1831 16.9977 15.4079 17.226 15.522L17.6464 14.6813ZM17.8357 14.9842V11.5415H16.8957V14.9842H17.8357ZM17.8357 11.5415C17.8357 11.7305 17.684 11.8822 17.495 11.8822V10.9422C17.1649 10.9422 16.8957 11.2114 16.8957 11.5415H17.8357ZM17.495 11.8822H22.2184V10.9422H17.495V11.8822ZM22.2184 11.8822C22.0293 11.8822 21.8777 11.7305 21.8777 11.5415H22.8176C22.8176 11.2114 22.5485 10.9422 22.2184 10.9422V11.8822ZM21.8777 11.5415C21.8777 11.3524 22.0293 11.2007 22.2184 11.2007V12.1407C22.5485 12.1407 22.8176 11.8715 22.8176 11.5415H21.8777ZM22.2184 11.2007H17.6242V12.1407H22.2184V11.2007ZM17.1542 11.6707V14.7609H18.0942V11.6707H17.1542ZM17.8399 15.1785C18.4786 14.8485 19.1754 14.681 19.8779 14.702L19.906 13.7624C19.034 13.7364 18.1798 13.9448 17.4085 14.3434L17.8399 15.1785ZM19.8919 14.7022C20.6921 14.7022 21.3225 14.9592 21.7582 15.4233L22.4436 14.78C21.7983 14.0927 20.9012 13.7622 19.8919 13.7622V14.7022ZM21.7573 15.4224C22.1603 15.8541 22.4064 16.4871 22.4064 17.2049H23.3464C23.3464 16.2777 23.0285 15.4067 22.4445 14.781L21.7573 15.4224ZM22.4064 17.2049C22.4064 17.87 22.1364 18.5563 21.6613 19.0719L22.3525 19.7089C22.9819 19.0259 23.3464 18.1143 23.3464 17.2049H22.4064ZM21.6679 19.0649C21.4213 19.3217 21.1505 19.5204 20.8564 19.6577L21.2539 20.5095C21.6648 20.3178 22.0285 20.0466 22.346 19.7159L21.6679 19.0649ZM20.8505 19.6605C20.5561 19.803 20.2275 19.8721 19.8919 19.8721V20.8121C20.3553 20.8121 20.8258 20.7167 21.2599 20.5067L20.8505 19.6605ZM28.2393 20.1189L28.0575 20.5523L28.2393 20.1189ZM27.2758 19.4726L26.9365 19.7978L26.9434 19.805L26.9506 19.8119L27.2758 19.4726ZM26.6296 18.5091L27.063 18.3274L27.063 18.3274L26.6296 18.5091ZM26.8763 18.4034L26.4443 18.5885L26.4443 18.5885L26.8763 18.4034ZM27.4638 19.2846L27.7961 18.9523L27.7961 18.9523L27.4638 19.2846ZM28.345 19.8721L28.5302 19.4401L28.5302 19.4401L28.345 19.8721ZM31.2943 19.2024L30.9545 18.8774L30.9478 18.8848L31.2943 19.2024ZM31.3883 15.2779L31.0444 15.5983L31.0477 15.6018L31.3883 15.2779ZM29.379 14.4907L29.3656 14.9607H29.379V14.4907ZM27.0526 15.0899L26.8157 14.6839L26.7923 14.6976L26.7706 14.7139L27.0526 15.0899ZM26.9233 15.1017L27.184 14.7106L27.1597 14.6944L27.1335 14.6813L26.9233 15.1017ZM27.1113 11.6707V11.2007H26.6413V11.6707H27.1113ZM27.1113 14.7609H26.6413V15.5328L27.327 15.1785L27.1113 14.7609ZM29.379 14.2322L29.365 14.7022H29.379V14.2322ZM31.588 15.1017L31.9316 14.781L31.9307 14.78L31.588 15.1017ZM31.494 19.3904L31.8331 19.7159L31.8396 19.7089L31.494 19.3904ZM30.5423 20.0836L30.3435 19.6577L30.3376 19.6605L30.5423 20.0836ZM29.379 19.8721C29.0481 19.8721 28.7228 19.812 28.4211 19.6854L28.0575 20.5523C28.4843 20.7312 28.9345 20.8121 29.379 20.8121V19.8721ZM28.4211 19.6854C28.1189 19.5587 27.8489 19.3709 27.601 19.1333L26.9506 19.8119C27.2667 20.1148 27.6312 20.3735 28.0575 20.5523L28.4211 19.6854ZM27.6151 19.1474C27.3775 18.8995 27.1897 18.6295 27.063 18.3274L26.1961 18.6909C26.3749 19.1172 26.6336 19.4818 26.9365 19.7978L27.6151 19.1474ZM27.063 18.3274C26.9364 18.0256 26.8763 17.7003 26.8763 17.3694H25.9363C25.9363 17.814 26.0172 18.2642 26.1961 18.6909L27.063 18.3274ZM26.8763 17.3694C26.8763 17.5585 26.7246 17.7101 26.5356 17.7101V16.7701C26.2055 16.7701 25.9363 17.0393 25.9363 17.3694H26.8763ZM26.5356 17.7101C26.3465 17.7101 26.1948 17.5585 26.1948 17.3694H27.1348C27.1348 17.0393 26.8656 16.7701 26.5356 16.7701V17.7101ZM26.1948 17.3694C26.1948 17.7844 26.2778 18.2 26.4443 18.5885L27.3083 18.2182C27.1928 17.9488 27.1348 17.6594 27.1348 17.3694H26.1948ZM26.4443 18.5885C26.6058 18.9654 26.8255 19.311 27.1315 19.617L27.7961 18.9523C27.5851 18.7412 27.4288 18.4994 27.3083 18.2182L26.4443 18.5885ZM27.1315 19.617C27.4374 19.9229 27.7831 20.1426 28.1599 20.3041L28.5302 19.4401C28.249 19.3196 28.0072 19.1634 27.7961 18.9523L27.1315 19.617ZM28.1599 20.3041C28.5484 20.4706 28.964 20.5536 29.379 20.5536V19.6136C29.089 19.6136 28.7996 19.5556 28.5302 19.4401L28.1599 20.3041ZM29.379 20.5536C30.2396 20.5536 31.0432 20.1718 31.6407 19.52L30.9478 18.8848C30.5113 19.3609 29.952 19.6136 29.379 19.6136V20.5536ZM31.6339 19.5272C32.2364 18.8973 32.5632 18.0517 32.5632 17.2049H31.6233C31.6233 17.8151 31.3861 18.4264 30.9546 18.8775L31.6339 19.5272ZM32.5632 17.2049C32.5632 16.3418 32.2837 15.5374 31.7288 14.954L31.0477 15.6018C31.4093 15.9819 31.6233 16.5405 31.6233 17.2049H32.5632ZM31.7321 14.9575C31.1448 14.3272 30.3171 14.0207 29.379 14.0207V14.9607C30.1095 14.9607 30.6682 15.1946 31.0444 15.5983L31.7321 14.9575ZM29.3925 14.0209C28.4796 13.9948 27.5943 14.2298 26.8157 14.6839L27.2894 15.4959C27.9208 15.1275 28.6335 14.9396 29.3656 14.9605L29.3925 14.0209ZM26.7706 14.7139C26.8075 14.6862 26.8692 14.6544 26.9523 14.6489C27.0371 14.6432 27.1186 14.667 27.184 14.7106L26.6626 15.4927C26.8878 15.6428 27.1526 15.6024 27.3346 15.4659L26.7706 14.7139ZM27.1335 14.6813C27.2678 14.7484 27.3228 14.8792 27.3228 14.9842H26.3828C26.3828 15.1831 26.4848 15.4079 26.7131 15.522L27.1335 14.6813ZM27.3228 14.9842V11.5415H26.3828V14.9842H27.3228ZM27.3228 11.5415C27.3228 11.7305 27.1711 11.8822 26.9821 11.8822V10.9422C26.652 10.9422 26.3828 11.2114 26.3828 11.5415H27.3228ZM26.9821 11.8822H31.7055V10.9422H26.9821V11.8822ZM31.7055 11.8822C31.5164 11.8822 31.3648 11.7305 31.3648 11.5415H32.3047C32.3047 11.2114 32.0356 10.9422 31.7055 10.9422V11.8822ZM31.3648 11.5415C31.3648 11.3524 31.5164 11.2007 31.7055 11.2007V12.1407C32.0356 12.1407 32.3047 11.8715 32.3047 11.5415H31.3648ZM31.7055 11.2007H27.1113V12.1407H31.7055V11.2007ZM26.6413 11.6707V14.7609H27.5813V11.6707H26.6413ZM27.327 15.1785C27.9657 14.8485 28.6625 14.681 29.365 14.702L29.3931 13.7624C28.5211 13.7364 27.6669 13.9448 26.8956 14.3434L27.327 15.1785ZM29.379 14.7022C30.1792 14.7022 30.8096 14.9592 31.2453 15.4233L31.9307 14.78C31.2854 14.0927 30.3883 13.7622 29.379 13.7622V14.7022ZM31.2444 15.4224C31.6474 15.8541 31.8935 16.4871 31.8935 17.2049H32.8335C32.8335 16.2777 32.5156 15.4067 31.9316 14.781L31.2444 15.4224ZM31.8935 17.2049C31.8935 17.87 31.6235 18.5563 31.1484 19.0719L31.8396 19.7089C32.469 19.0259 32.8335 18.1143 32.8335 17.2049H31.8935ZM31.155 19.0649C30.9084 19.3217 30.6376 19.5204 30.3435 19.6577L30.741 20.5095C31.1519 20.3178 31.5156 20.0466 31.8331 19.7159L31.155 19.0649ZM30.3376 19.6605C30.0432 19.803 29.7146 19.8721 29.379 19.8721V20.8121C29.8424 20.8121 30.3129 20.7167 30.747 20.5067L30.3376 19.6605ZM36.0344 19.3551L35.5647 19.338L35.5644 19.3466V19.3551H36.0344ZM36.9274 17.6866L37.2254 18.0501L37.2283 18.0477L36.9274 17.6866ZM39.2539 16.4882L39.0932 16.0464L39.0883 16.0483L39.2539 16.4882ZM41.0986 15.2309L40.7075 14.9702L40.7062 14.9723L41.0986 15.2309ZM40.7931 12.2464L41.1255 11.9141L41.1212 11.9099L40.7931 12.2464ZM38.8779 11.565V12.035H38.8851L38.8923 12.0347L38.8779 11.565ZM37.8791 11.7647L37.7018 11.3294L37.696 11.3319L37.8791 11.7647ZM37.0566 12.2934L37.3768 12.6376L37.3804 12.6342L37.0566 12.2934ZM36.8686 12.1055L36.5517 11.7583L36.5474 11.7623L36.8686 12.1055ZM37.7851 11.5297L37.9519 11.9692L37.9597 11.9661L37.7851 11.5297ZM38.8779 11.2947L38.8713 10.8247L38.8632 10.8249L38.8779 11.2947ZM40.9694 12.0585L40.6409 12.3946L40.6411 12.3949L40.9694 12.0585ZM41.3218 15.3837L41.7105 15.6483L41.7169 15.6383L41.3218 15.3837ZM39.3361 16.7349L39.1746 16.2935L39.17 16.2952L39.3361 16.7349ZM37.0919 17.8864L36.7972 17.5202L36.7934 17.5233L37.0919 17.8864ZM36.3047 19.9661H35.8347V20.4361H36.3047V19.9661ZM41.6626 19.7546H36.1637V20.6946H41.6626V19.7546ZM36.1637 19.7546C36.3527 19.7546 36.5044 19.9063 36.5044 20.0954H35.5644C35.5644 20.4254 35.8336 20.6946 36.1637 20.6946V19.7546ZM36.5044 20.0954V19.3551H35.5644V20.0954H36.5044ZM36.5041 19.3722C36.522 18.8798 36.7264 18.4592 37.2254 18.0501L36.6294 17.3232C35.9534 17.8775 35.5938 18.538 35.5647 19.338L36.5041 19.3722ZM37.2283 18.0477C37.6596 17.6883 38.3394 17.3345 39.4194 16.928L39.0883 16.0483C37.9829 16.4643 37.1822 16.8625 36.6265 17.3256L37.2283 18.0477ZM39.4145 16.9298C40.3666 16.5836 41.0721 16.1251 41.491 15.4896L40.7062 14.9723C40.4436 15.3707 39.9506 15.7347 39.0933 16.0465L39.4145 16.9298ZM41.4897 15.4916C41.8709 14.9197 41.9211 14.3389 41.9211 13.8914H40.9811C40.9811 14.2664 40.9373 14.6256 40.7075 14.9702L41.4897 15.4916ZM41.9211 13.8914C41.9211 13.1146 41.6406 12.4293 41.1254 11.9141L40.4608 12.5788C40.7916 12.9096 40.9811 13.3522 40.9811 13.8914H41.9211ZM41.1212 11.9099C40.5468 11.3499 39.7353 11.0684 38.8634 11.0952L38.8923 12.0347C39.548 12.0146 40.0994 12.2265 40.465 12.583L41.1212 11.9099ZM38.8779 11.095C38.4728 11.095 38.072 11.1786 37.7018 11.3294L38.0565 12.2C38.3208 12.0923 38.6015 12.035 38.8779 12.035V11.095ZM37.696 11.3319C37.3457 11.4801 37.0142 11.6855 36.7329 11.9527L37.3804 12.6342C37.5691 12.4549 37.8016 12.3078 38.0623 12.1976L37.696 11.3319ZM36.7365 11.9493C36.1421 12.5023 35.7994 13.2472 35.7994 14.0442H36.7394C36.7394 13.5252 36.9608 13.0246 37.3768 12.6376L36.7365 11.9493ZM35.7994 14.0442V14.9724H36.7394V14.0442H35.7994ZM35.7994 14.9724C35.7994 14.7833 35.9511 14.6317 36.1402 14.6317V15.5717C36.4702 15.5717 36.7394 15.3025 36.7394 14.9724H35.7994ZM36.1402 14.6317C36.3292 14.6317 36.4809 14.7833 36.4809 14.9724H35.5409C35.5409 15.3025 35.8101 15.5717 36.1402 15.5717V14.6317ZM36.4809 14.9724V14.0442H35.5409V14.9724H36.4809ZM36.4809 14.0442C36.4809 13.4398 36.7282 12.8808 37.1899 12.4486L36.5474 11.7623C35.9046 12.3641 35.5409 13.1681 35.5409 14.0442H36.4809ZM37.1856 12.4525C37.419 12.2394 37.6747 12.0743 37.9518 11.9692L37.6185 11.0903C37.2141 11.2436 36.8588 11.478 36.5517 11.7584L37.1856 12.4525ZM37.9597 11.9661C38.2664 11.8434 38.5767 11.7743 38.8926 11.7645L38.8632 10.8249C38.4271 10.8386 38.0089 10.934 37.6106 11.0933L37.9597 11.9661ZM38.8845 11.7647C39.6146 11.7544 40.2273 11.9904 40.6409 12.3946L41.2978 11.7223C40.6775 11.116 39.8096 10.8115 38.8713 10.8248L38.8845 11.7647ZM40.6411 12.3949C41.0254 12.7697 41.2396 13.2797 41.2396 13.8914H42.1796C42.1796 13.0461 41.8768 12.2871 41.2976 11.722L40.6411 12.3949ZM41.2396 13.8914C41.2396 14.3013 41.196 14.7114 40.9268 15.1291L41.7169 15.6383C42.1292 14.9985 42.1796 14.3746 42.1796 13.8914H41.2396ZM40.9334 15.1192C40.6336 15.5594 40.0883 15.9593 39.1746 16.2935L39.4976 17.1763C40.5109 16.8056 41.2581 16.3124 41.7103 15.6482L40.9334 15.1192ZM39.17 16.2952C38.0963 16.7009 37.3367 17.0861 36.7972 17.5203L37.3866 18.2525C37.8106 17.9112 38.461 17.5679 39.5022 17.1746L39.17 16.2952ZM36.7934 17.5233C36.1862 18.0226 35.8347 18.6157 35.8347 19.3551H36.7747C36.7747 18.9666 36.9401 18.6197 37.3904 18.2494L36.7934 17.5233ZM35.8347 19.3551V19.9661H36.7747V19.3551H35.8347ZM36.3047 20.4361H41.6626V19.4961H36.3047V20.4361ZM41.6626 20.4361C41.4735 20.4361 41.3218 20.2844 41.3218 20.0954H42.2618C42.2618 19.7653 41.9927 19.4961 41.6626 19.4961V20.4361ZM41.3218 20.0954C41.3218 19.9063 41.4735 19.7546 41.6626 19.7546V20.6946C41.9927 20.6946 42.2618 20.4254 42.2618 20.0954H41.3218Z" fill="black"/>
<rect x="44.7988" y="15.375" width="4.69995" height="1.17499" rx="0.587493" fill="black"/>
<path d="M58.0183 20.2246H52.5664C52.4959 20.2246 52.4371 20.1659 52.4371 20.0954C52.4371 20.0249 52.4959 19.9661 52.5664 19.9661H55.1513V11.8L52.7073 13.7622C52.6486 13.8092 52.5664 13.7974 52.5194 13.7387C52.4724 13.6917 52.4841 13.6094 52.5429 13.5624L55.1983 11.424C55.2453 11.3887 55.2923 11.3887 55.3393 11.4122C55.3863 11.424 55.4098 11.471 55.4098 11.5297V19.9661H58.0183C58.0888 19.9661 58.1475 20.0249 58.1475 20.0954C58.1475 20.1659 58.0888 20.2246 58.0183 20.2246ZM64.386 20.3421C63.6222 20.3421 62.9172 20.0719 62.3885 19.5901C61.848 19.1084 61.5543 18.4621 61.5543 17.7806C61.5543 17.0874 61.848 16.4412 62.3885 15.9477C62.7175 15.6539 63.117 15.4424 63.5517 15.3249C62.6823 15.0312 62.0713 14.2674 62.0713 13.3744C62.0713 12.2229 63.1052 11.2947 64.386 11.2947C65.655 11.2947 66.689 12.2229 66.689 13.3744C66.689 14.2674 66.078 15.0312 65.2085 15.3249C65.6432 15.4424 66.0427 15.6539 66.3717 15.9477C66.9122 16.4412 67.206 17.0874 67.206 17.7806C67.206 18.4621 66.9122 19.1084 66.3717 19.5901C65.843 20.0719 65.138 20.3421 64.386 20.3421ZM64.386 11.565C63.258 11.565 62.3415 12.3757 62.3415 13.3862C62.3415 14.3967 63.258 15.2192 64.386 15.2192C65.514 15.2192 66.4305 14.3967 66.4305 13.3862C66.4305 12.3757 65.514 11.565 64.386 11.565ZM64.386 15.4659C62.976 15.4659 61.8245 16.5117 61.8245 17.7806C61.8245 19.0496 62.976 20.0836 64.386 20.0836C65.8077 20.0836 66.9592 19.0496 66.9592 17.7806C66.9592 16.5117 65.8077 15.4659 64.386 15.4659ZM75.7545 12.176C75.825 12.2464 75.8838 12.3052 75.9425 12.3874C75.9543 12.3874 75.966 12.3992 75.966 12.4109C76.4125 12.9397 76.6475 13.6094 76.6475 14.3027V17.3224C76.6475 18.1331 76.3303 18.8851 75.7545 19.4609C75.1905 20.0249 74.4268 20.3421 73.6278 20.3421C72.8171 20.3421 72.0651 20.0249 71.4893 19.4609C70.9253 18.8851 70.6081 18.1331 70.6081 17.3224V14.3027C70.6081 13.5037 70.9253 12.7399 71.4893 12.176C72.0651 11.6002 72.8171 11.2947 73.6278 11.2947C74.4268 11.2947 75.1905 11.6002 75.7545 12.176ZM71.6773 12.3639C71.1603 12.8809 70.8666 13.5742 70.8666 14.3027V17.3224C70.8666 18.0039 71.1133 18.6384 71.5598 19.1436L75.6958 12.4932C75.6605 12.4462 75.6135 12.3992 75.5783 12.3639C75.0495 11.8352 74.3563 11.5532 73.6278 11.5532C72.8876 11.5532 72.1943 11.8352 71.6773 12.3639ZM76.3773 14.3027C76.3773 13.7269 76.201 13.1629 75.8603 12.7047L71.7478 19.3434C72.2531 19.8134 72.9228 20.0836 73.6278 20.0836C74.3563 20.0836 75.0495 19.7899 75.5783 19.2729C76.0953 18.7559 76.3773 18.0626 76.3773 17.3224V14.3027Z" fill="black"/>
<path d="M55.1513 19.9661V20.4361H55.6213V19.9661H55.1513ZM55.1513 11.8H55.6213V10.8199L54.8571 11.4335L55.1513 11.8ZM52.7073 13.7622L53.001 14.1292L53.0016 14.1287L52.7073 13.7622ZM52.5194 13.7387L52.8864 13.4451L52.8701 13.4248L52.8517 13.4063L52.5194 13.7387ZM52.5429 13.5624L52.8365 13.9294L52.8376 13.9285L52.5429 13.5624ZM55.1983 11.424L54.9163 11.048L54.9098 11.0528L54.9035 11.0579L55.1983 11.424ZM55.3393 11.4122L55.1291 11.8326L55.1753 11.8557L55.2253 11.8682L55.3393 11.4122ZM55.4098 19.9661H54.9398V20.4361H55.4098V19.9661ZM58.0183 19.7546H52.5664V20.6946H58.0183V19.7546ZM52.5664 19.7546C52.7554 19.7546 52.9071 19.9063 52.9071 20.0954H51.9671C51.9671 20.4254 52.2363 20.6946 52.5664 20.6946V19.7546ZM52.9071 20.0954C52.9071 20.2844 52.7554 20.4361 52.5664 20.4361V19.4961C52.2363 19.4961 51.9671 19.7653 51.9671 20.0954H52.9071ZM52.5664 20.4361H55.1513V19.4961H52.5664V20.4361ZM55.6213 19.9661V11.8H54.6813V19.9661H55.6213ZM54.8571 11.4335L52.4131 13.3957L53.0016 14.1287L55.4456 12.1664L54.8571 11.4335ZM52.4137 13.3952C52.5707 13.2696 52.7818 13.3144 52.8864 13.4451L52.1523 14.0323C52.3509 14.2804 52.7265 14.3488 53.001 14.1292L52.4137 13.3952ZM52.8517 13.4063C52.946 13.5006 52.9697 13.6215 52.9571 13.7141C52.9448 13.8044 52.8988 13.8796 52.8365 13.9294L52.2492 13.1954C52.0327 13.3687 51.8906 13.7746 52.187 14.071L52.8517 13.4063ZM52.8376 13.9285L55.4931 11.79L54.9035 11.0579L52.2481 13.1964L52.8376 13.9285ZM55.4803 11.8C55.441 11.8295 55.3784 11.8601 55.2981 11.8651C55.2208 11.87 55.1617 11.8488 55.1291 11.8326L55.5495 10.9918C55.47 10.9521 55.3639 10.9192 55.2395 10.927C55.1122 10.9349 55.0027 10.9832 54.9163 11.048L55.4803 11.8ZM55.2253 11.8682C55.1108 11.8395 55.0286 11.7643 54.9841 11.6865C54.9448 11.6177 54.9398 11.558 54.9398 11.5297H55.8798C55.8798 11.3797 55.8098 11.0454 55.4533 10.9562L55.2253 11.8682ZM54.9398 11.5297V19.9661H55.8798V11.5297H54.9398ZM55.4098 20.4361H58.0183V19.4961H55.4098V20.4361ZM58.0183 20.4361C57.8292 20.4361 57.6775 20.2844 57.6775 20.0954H58.6175C58.6175 19.7653 58.3484 19.4961 58.0183 19.4961V20.4361ZM57.6775 20.0954C57.6775 19.9063 57.8292 19.7546 58.0183 19.7546V20.6946C58.3484 20.6946 58.6175 20.4254 58.6175 20.0954H57.6775ZM62.3885 19.5901L62.7051 19.2427L62.7012 19.2393L62.3885 19.5901ZM62.3885 15.9477L62.0755 15.597L62.0716 15.6006L62.3885 15.9477ZM63.5517 15.3249L63.6744 15.7786L65.1681 15.3749L63.7022 14.8796L63.5517 15.3249ZM65.2085 15.3249L65.058 14.8796L63.5921 15.3749L65.0858 15.7786L65.2085 15.3249ZM66.3717 15.9477L66.6886 15.6006L66.6847 15.5971L66.3717 15.9477ZM66.3717 19.5901L66.059 19.2392L66.0552 19.2427L66.3717 19.5901ZM64.386 19.8721C63.734 19.8721 63.1434 19.6421 62.705 19.2427L62.072 19.9375C62.6911 20.5017 63.5105 20.8121 64.386 20.8121V19.8721ZM62.7012 19.2393C62.256 18.8425 62.0243 18.3219 62.0243 17.7806H61.0843C61.0843 18.6024 61.44 19.3743 62.0758 19.941L62.7012 19.2393ZM62.0243 17.7806C62.0243 17.2273 62.2565 16.7046 62.7054 16.2947L62.0716 15.6006C61.4395 16.1777 61.0843 16.9475 61.0843 17.7806H62.0243ZM62.7015 16.2982C62.9731 16.0558 63.3064 15.8781 63.6744 15.7786L63.4291 14.8712C62.9276 15.0068 62.4619 15.252 62.0755 15.5971L62.7015 16.2982ZM63.7022 14.8796C62.9982 14.6418 62.5413 14.0402 62.5413 13.3744H61.6013C61.6013 14.4947 62.3663 15.4205 63.4013 15.7702L63.7022 14.8796ZM62.5413 13.3744C62.5413 12.5287 63.3161 11.7647 64.386 11.7647V10.8247C62.8944 10.8247 61.6013 11.9172 61.6013 13.3744H62.5413ZM64.386 11.7647C65.4425 11.7647 66.219 12.5272 66.219 13.3744H67.159C67.159 11.9187 65.8675 10.8247 64.386 10.8247V11.7647ZM66.219 13.3744C66.219 14.0402 65.762 14.6418 65.058 14.8796L65.3589 15.7702C66.3939 15.4205 67.159 14.4947 67.159 13.3744H66.219ZM65.0858 15.7786C65.4538 15.8781 65.7871 16.0558 66.0587 16.2982L66.6847 15.5971C66.2983 15.252 65.8327 15.0068 65.3311 14.8712L65.0858 15.7786ZM66.0548 16.2947C66.5037 16.7046 66.736 17.2273 66.736 17.7806H67.6759C67.6759 16.9475 67.3207 16.1777 66.6886 15.6006L66.0548 16.2947ZM66.736 17.7806C66.736 18.3219 66.5042 18.8425 66.059 19.2393L66.6844 19.941C67.3202 19.3743 67.6759 18.6024 67.6759 17.7806H66.736ZM66.0552 19.2427C65.6161 19.6427 65.0252 19.8721 64.386 19.8721V20.8121C65.2507 20.8121 66.0698 20.501 66.6882 19.9375L66.0552 19.2427ZM64.386 11.095C63.052 11.095 61.8715 12.0656 61.8715 13.3862H62.8115C62.8115 12.6858 63.464 12.035 64.386 12.035V11.095ZM61.8715 13.3862C61.8715 14.7031 63.0479 15.6892 64.386 15.6892V14.7492C63.4681 14.7492 62.8115 14.0903 62.8115 13.3862H61.8715ZM64.386 15.6892C65.7241 15.6892 66.9005 14.7031 66.9005 13.3862H65.9605C65.9605 14.0903 65.3038 14.7492 64.386 14.7492V15.6892ZM66.9005 13.3862C66.9005 12.0656 65.72 11.095 64.386 11.095V12.035C65.308 12.035 65.9605 12.6858 65.9605 13.3862H66.9005ZM64.386 14.9959C62.7616 14.9959 61.3545 16.2091 61.3545 17.7806H62.2945C62.2945 16.8142 63.1904 15.9359 64.386 15.9359V14.9959ZM61.3545 17.7806C61.3545 19.3551 62.7649 20.5536 64.386 20.5536V19.6136C63.1871 19.6136 62.2945 18.7441 62.2945 17.7806H61.3545ZM64.386 20.5536C66.0174 20.5536 67.4292 19.3564 67.4292 17.7806H66.4892C66.4892 18.7428 65.5981 19.6136 64.386 19.6136V20.5536ZM67.4292 17.7806C67.4292 16.2077 66.0206 14.9959 64.386 14.9959V15.9359C65.5948 15.9359 66.4892 16.8156 66.4892 17.7806H67.4292ZM75.7545 12.176L75.4188 12.5049L75.4222 12.5083L75.7545 12.176ZM75.9425 12.3874L75.5601 12.6606L75.7007 12.8574H75.9425V12.3874ZM75.966 12.4109H75.496V12.5828L75.6069 12.7142L75.966 12.4109ZM75.7545 19.4609L76.0869 19.7932L76.0869 19.7932L75.7545 19.4609ZM71.4893 19.4609L71.1535 19.7898L71.1604 19.7966L71.4893 19.4609ZM71.4893 12.176L71.157 11.8436L71.157 11.8436L71.4893 12.176ZM71.6773 12.3639L72.0097 12.6963L72.0134 12.6925L71.6773 12.3639ZM71.5598 19.1436L71.2076 19.4549L71.6256 19.9278L71.9589 19.3918L71.5598 19.1436ZM75.6958 12.4932L76.0949 12.7414L76.2647 12.4684L76.0718 12.2112L75.6958 12.4932ZM75.5783 12.3639L75.9106 12.0316L75.9106 12.0316L75.5783 12.3639ZM75.8603 12.7047L76.2374 12.4242L75.8249 11.8694L75.4607 12.4572L75.8603 12.7047ZM71.7478 19.3434L71.3483 19.0959L71.1448 19.4243L71.4277 19.6875L71.7478 19.3434ZM75.5783 19.2729L75.9069 19.6089L75.9106 19.6052L75.5783 19.2729ZM75.4222 12.5083C75.4946 12.5807 75.5269 12.6142 75.5601 12.6606L76.325 12.1143C76.2407 11.9962 76.1554 11.9122 76.0869 11.8436L75.4222 12.5083ZM75.9425 12.8574C75.7955 12.8574 75.6879 12.7887 75.6263 12.7271C75.5648 12.6656 75.496 12.5579 75.496 12.4109H76.436C76.436 12.2522 76.3614 12.1328 76.291 12.0625C76.2207 11.9921 76.1013 11.9175 75.9425 11.9175V12.8574ZM75.6069 12.7142C75.9788 13.1546 76.1775 13.7157 76.1775 14.3027H77.1175C77.1175 13.5032 76.8462 12.7248 76.3251 12.1077L75.6069 12.7142ZM76.1775 14.3027V17.3224H77.1175V14.3027H76.1775ZM76.1775 17.3224C76.1775 18.0059 75.9116 18.6391 75.4222 19.1285L76.0869 19.7932C76.7489 19.1312 77.1175 18.2604 77.1175 17.3224H76.1775ZM75.4222 19.1285C74.9462 19.6046 74.3019 19.8721 73.6278 19.8721V20.8121C74.5517 20.8121 75.4349 20.4452 76.0869 19.7932L75.4222 19.1285ZM73.6278 19.8721C72.9437 19.8721 72.3088 19.6057 71.8182 19.1251L71.1604 19.7966C71.8213 20.444 72.6904 20.8121 73.6278 20.8121V19.8721ZM71.8251 19.132C71.3445 18.6414 71.0781 18.0065 71.0781 17.3224H70.1381C70.1381 18.2598 70.5062 19.1289 71.1536 19.7898L71.8251 19.132ZM71.0781 17.3224V14.3027H70.1381V17.3224H71.0781ZM71.0781 14.3027C71.0781 13.6286 71.3456 12.9843 71.8217 12.5083L71.157 11.8436C70.505 12.4956 70.1381 13.3788 70.1381 14.3027H71.0781ZM71.8217 12.5083C72.3078 12.0222 72.9396 11.7647 73.6278 11.7647V10.8247C72.6945 10.8247 71.8224 11.1782 71.157 11.8436L71.8217 12.5083ZM73.6278 11.7647C74.3061 11.7647 74.9471 12.0233 75.4188 12.5048L76.0903 11.8471C75.434 11.1771 74.5474 10.8247 73.6278 10.8247V11.7647ZM71.345 12.0316C70.7421 12.6345 70.3966 13.4464 70.3966 14.3027H71.3366C71.3366 13.702 71.5786 13.1274 72.0097 12.6963L71.345 12.0316ZM70.3966 14.3027V17.3224H71.3366V14.3027H70.3966ZM70.3966 17.3224C70.3966 18.121 70.6869 18.8656 71.2076 19.4549L71.912 18.8324C71.5398 18.4112 71.3366 17.8868 71.3366 17.3224H70.3966ZM71.9589 19.3918L76.0949 12.7414L75.2967 12.245L71.1607 18.8954L71.9589 19.3918ZM76.0718 12.2112C76.013 12.1328 75.9412 12.0622 75.9106 12.0316L75.2459 12.6963C75.2642 12.7145 75.2792 12.7296 75.2934 12.7449C75.3079 12.7604 75.3161 12.7703 75.3198 12.7752L76.0718 12.2112ZM75.9106 12.0316C75.2934 11.4144 74.4804 11.0832 73.6278 11.0832V12.0232C74.2322 12.0232 74.8057 12.256 75.2459 12.6963L75.9106 12.0316ZM73.6278 11.0832C72.7654 11.0832 71.9497 11.4131 71.3413 12.0354L72.0134 12.6925C72.4389 12.2573 73.0097 12.0232 73.6278 12.0232V11.0832ZM76.8473 14.3027C76.8473 13.6322 76.6421 12.9685 76.2374 12.4242L75.4831 12.9851C75.7599 13.3574 75.9073 13.8217 75.9073 14.3027H76.8473ZM75.4607 12.4572L71.3483 19.0959L72.1474 19.5909L76.2598 12.9522L75.4607 12.4572ZM71.4277 19.6875C72.0186 20.2371 72.8022 20.5536 73.6278 20.5536V19.6136C73.0434 19.6136 72.4875 19.3896 72.0679 18.9992L71.4277 19.6875ZM73.6278 20.5536C74.4849 20.5536 75.2945 20.2076 75.9069 19.6089L75.2497 18.9368C74.8045 19.3721 74.2277 19.6136 73.6278 19.6136V20.5536ZM75.9106 19.6052C76.5179 18.9979 76.8473 18.1842 76.8473 17.3224H75.9073C75.9073 17.9411 75.6726 18.5139 75.2459 18.9405L75.9106 19.6052ZM76.8473 17.3224V14.3027H75.9073V17.3224H76.8473Z" fill="black"/>
<rect x="80.1992" y="15.375" width="4.69995" height="1.17499" rx="0.587493" fill="black"/>
<path d="M90.6927 20.3421C90.305 20.3421 89.9172 20.2716 89.553 20.1189C89.1887 19.9661 88.8715 19.7429 88.5895 19.4726C88.3192 19.1906 88.096 18.8734 87.9432 18.5091C87.7905 18.1449 87.72 17.7571 87.72 17.3694C87.72 17.2989 87.7787 17.2401 87.8492 17.2401C87.9197 17.2401 87.9785 17.2989 87.9785 17.3694C87.9785 17.7219 88.049 18.0744 88.19 18.4034C88.331 18.7324 88.519 19.0261 88.7775 19.2846C89.036 19.5431 89.3297 19.7311 89.6587 19.8721C89.9877 20.0131 90.3402 20.0836 90.6927 20.0836C91.4095 20.0836 92.0909 19.7664 92.6079 19.2024C93.1249 18.6619 93.4069 17.9334 93.4069 17.2049C93.4069 16.4412 93.1602 15.7597 92.7019 15.2779C92.2202 14.7609 91.527 14.4907 90.6927 14.4907C89.8702 14.4672 89.0712 14.6787 88.3662 15.0899C88.3192 15.1252 88.2722 15.1252 88.237 15.1017C88.19 15.0782 88.1665 15.0312 88.1665 14.9842V11.5415C88.1665 11.471 88.2252 11.4122 88.2957 11.4122H93.0192C93.0897 11.4122 93.1484 11.471 93.1484 11.5415C93.1484 11.612 93.0897 11.6707 93.0192 11.6707H88.425V14.7609C89.13 14.3967 89.9055 14.2087 90.6927 14.2322C91.5975 14.2322 92.3612 14.5259 92.9017 15.1017C93.3952 15.6304 93.6772 16.3824 93.6772 17.2049C93.6772 17.9921 93.3599 18.7911 92.8077 19.3904C92.5257 19.6841 92.2084 19.9191 91.8559 20.0836C91.4917 20.2599 91.0922 20.3421 90.6927 20.3421ZM102.976 20.2246H97.4773C97.4068 20.2246 97.3481 20.1659 97.3481 20.0954V19.3551C97.3716 18.7089 97.6536 18.1684 98.2411 17.6866C98.7346 17.2754 99.4748 16.8994 100.568 16.4882C101.472 16.1592 102.072 15.7479 102.412 15.2309C102.718 14.7727 102.765 14.3027 102.765 13.8914C102.765 13.2334 102.53 12.6694 102.107 12.2464C101.637 11.7882 100.955 11.5415 100.192 11.565C99.8508 11.565 99.5101 11.6355 99.1928 11.7647C98.8873 11.894 98.6053 12.0702 98.3703 12.2934C97.8651 12.7634 97.5831 13.3862 97.5831 14.0442V14.9724C97.5831 15.0429 97.5243 15.1017 97.4538 15.1017C97.3833 15.1017 97.3246 15.0429 97.3246 14.9724V14.0442C97.3246 13.3039 97.6301 12.6224 98.1823 12.1055C98.4526 11.8587 98.7581 11.659 99.0988 11.5297C99.4513 11.3887 99.8156 11.3065 100.192 11.2947C101.026 11.283 101.766 11.5532 102.283 12.0585C102.765 12.5284 103.023 13.1629 103.023 13.8914C103.023 14.3379 102.976 14.8549 102.636 15.3837C102.26 15.9359 101.613 16.3824 100.65 16.7349C99.5923 17.1344 98.8873 17.4986 98.4056 17.8864C97.8768 18.3211 97.6183 18.7911 97.6183 19.3551V19.9661H102.976C103.047 19.9661 103.106 20.0249 103.106 20.0954C103.106 20.1659 103.047 20.2246 102.976 20.2246ZM111.775 12.176C111.845 12.2464 111.904 12.3052 111.963 12.3874C111.974 12.3874 111.986 12.3992 111.986 12.4109C112.433 12.9397 112.668 13.6094 112.668 14.3027V17.3224C112.668 18.1331 112.35 18.8851 111.775 19.4609C111.211 20.0249 110.447 20.3421 109.648 20.3421C108.837 20.3421 108.085 20.0249 107.509 19.4609C106.945 18.8851 106.628 18.1331 106.628 17.3224V14.3027C106.628 13.5037 106.945 12.7399 107.509 12.176C108.085 11.6002 108.837 11.2947 109.648 11.2947C110.447 11.2947 111.211 11.6002 111.775 12.176ZM107.697 12.3639C107.18 12.8809 106.887 13.5742 106.887 14.3027V17.3224C106.887 18.0039 107.133 18.6384 107.58 19.1436L111.716 12.4932C111.681 12.4462 111.634 12.3992 111.598 12.3639C111.07 11.8352 110.376 11.5532 109.648 11.5532C108.908 11.5532 108.214 11.8352 107.697 12.3639ZM112.397 14.3027C112.397 13.7269 112.221 13.1629 111.88 12.7047L107.768 19.3434C108.273 19.8134 108.943 20.0836 109.648 20.0836C110.376 20.0836 111.07 19.7899 111.598 19.2729C112.115 18.7559 112.397 18.0626 112.397 17.3224V14.3027ZM119.168 20.3421C118.404 20.3421 117.664 20.0484 117.112 19.5196C116.56 18.9791 116.231 18.2624 116.196 17.4986C116.196 17.4281 116.243 17.3694 116.325 17.3576C116.395 17.3576 116.454 17.4164 116.454 17.4869C116.489 18.1919 116.783 18.8381 117.288 19.3316C117.805 19.8134 118.463 20.0836 119.168 20.0836C119.873 20.0836 120.543 19.8134 121.048 19.3316C121.553 18.8381 121.847 18.1919 121.882 17.4869C121.882 16.7466 121.6 16.0652 121.083 15.5599C120.813 15.3132 120.508 15.1134 120.143 14.9724C119.767 14.8314 119.356 14.7609 118.921 14.7609C118.863 14.7609 118.816 14.7257 118.804 14.6787C118.78 14.6317 118.78 14.5847 118.816 14.5377L121.295 11.6825H116.783C116.713 11.6825 116.654 11.6237 116.654 11.5415C116.654 11.471 116.713 11.4122 116.783 11.4122H121.577C121.636 11.4122 121.683 11.4475 121.706 11.4945C121.718 11.5415 121.718 11.5885 121.683 11.6355L119.192 14.5024C119.568 14.5259 119.92 14.6082 120.237 14.7374C120.625 14.8784 120.978 15.1017 121.26 15.3719C121.824 15.9242 122.141 16.6761 122.141 17.4986C122.106 18.2624 121.788 18.9791 121.224 19.5196C120.672 20.0484 119.944 20.3421 119.168 20.3421Z" fill="black"/>
<path d="M89.553 20.1189L89.3712 20.5523L89.553 20.1189ZM88.5895 19.4726L88.2502 19.7978L88.2571 19.805L88.2643 19.8119L88.5895 19.4726ZM87.9432 18.5091L88.3767 18.3274L88.3767 18.3274L87.9432 18.5091ZM88.19 18.4034L87.758 18.5885L87.758 18.5885L88.19 18.4034ZM88.7775 19.2846L89.1098 18.9523L89.1098 18.9523L88.7775 19.2846ZM89.6587 19.8721L89.8439 19.4401L89.8439 19.4401L89.6587 19.8721ZM92.6079 19.2024L92.2682 18.8774L92.2615 18.8848L92.6079 19.2024ZM92.7019 15.2779L92.3581 15.5983L92.3614 15.6018L92.7019 15.2779ZM90.6927 14.4907L90.6793 14.9607H90.6927V14.4907ZM88.3662 15.0899L88.1294 14.6839L88.106 14.6976L88.0842 14.7139L88.3662 15.0899ZM88.237 15.1017L88.4977 14.7106L88.4733 14.6944L88.4472 14.6813L88.237 15.1017ZM88.425 11.6707V11.2007H87.955V11.6707H88.425ZM88.425 14.7609H87.955V15.5328L88.6407 15.1785L88.425 14.7609ZM90.6927 14.2322L90.6787 14.7022H90.6927V14.2322ZM92.9017 15.1017L93.2453 14.781L93.2443 14.78L92.9017 15.1017ZM92.8077 19.3904L93.1468 19.7159L93.1533 19.7089L92.8077 19.3904ZM91.8559 20.0836L91.6572 19.6577L91.6512 19.6605L91.8559 20.0836ZM90.6927 19.8721C90.3618 19.8721 90.0365 19.812 89.7347 19.6854L89.3712 20.5523C89.798 20.7312 90.2481 20.8121 90.6927 20.8121V19.8721ZM89.7347 19.6854C89.4326 19.5587 89.1626 19.3709 88.9147 19.1333L88.2643 19.8119C88.5803 20.1148 88.9449 20.3735 89.3712 20.5523L89.7347 19.6854ZM88.9288 19.1474C88.6912 18.8995 88.5034 18.6295 88.3767 18.3274L87.5098 18.6909C87.6886 19.1172 87.9473 19.4818 88.2502 19.7978L88.9288 19.1474ZM88.3767 18.3274C88.2501 18.0256 88.19 17.7003 88.19 17.3694H87.25C87.25 17.814 87.3309 18.2642 87.5098 18.6909L88.3767 18.3274ZM88.19 17.3694C88.19 17.5585 88.0383 17.7101 87.8492 17.7101V16.7701C87.5192 16.7701 87.25 17.0393 87.25 17.3694H88.19ZM87.8492 17.7101C87.6602 17.7101 87.5085 17.5585 87.5085 17.3694H88.4485C88.4485 17.0393 88.1793 16.7701 87.8492 16.7701V17.7101ZM87.5085 17.3694C87.5085 17.7844 87.5915 18.2 87.758 18.5885L88.622 18.2182C88.5065 17.9488 88.4485 17.6594 88.4485 17.3694H87.5085ZM87.758 18.5885C87.9195 18.9654 88.1392 19.311 88.4451 19.617L89.1098 18.9523C88.8988 18.7412 88.7425 18.4994 88.622 18.2182L87.758 18.5885ZM88.4451 19.617C88.7511 19.9229 89.0967 20.1426 89.4736 20.3041L89.8439 19.4401C89.5627 19.3196 89.3209 19.1634 89.1098 18.9523L88.4451 19.617ZM89.4736 20.3041C89.8621 20.4706 90.2777 20.5536 90.6927 20.5536V19.6136C90.4027 19.6136 90.1133 19.5556 89.8439 19.4401L89.4736 20.3041ZM90.6927 20.5536C91.5533 20.5536 92.3569 20.1718 92.9544 19.52L92.2615 18.8848C91.825 19.3609 91.2657 19.6136 90.6927 19.6136V20.5536ZM92.9476 19.5272C93.5501 18.8973 93.8769 18.0517 93.8769 17.2049H92.9369C92.9369 17.8151 92.6997 18.4264 92.2683 18.8775L92.9476 19.5272ZM93.8769 17.2049C93.8769 16.3418 93.5974 15.5374 93.0425 14.954L92.3614 15.6018C92.723 15.9819 92.9369 16.5405 92.9369 17.2049H93.8769ZM93.0458 14.9575C92.4585 14.3272 91.6307 14.0207 90.6927 14.0207V14.9607C91.4232 14.9607 91.9819 15.1946 92.3581 15.5983L93.0458 14.9575ZM90.7061 14.0209C89.7933 13.9948 88.9079 14.2298 88.1294 14.6839L88.6031 15.4959C89.2345 15.1275 89.9472 14.9396 90.6793 14.9605L90.7061 14.0209ZM88.0842 14.7139C88.1212 14.6862 88.1829 14.6544 88.2659 14.6489C88.3508 14.6432 88.4323 14.667 88.4977 14.7106L87.9763 15.4927C88.2014 15.6428 88.4663 15.6024 88.6482 15.4659L88.0842 14.7139ZM88.4472 14.6813C88.5815 14.7484 88.6365 14.8792 88.6365 14.9842H87.6965C87.6965 15.1831 87.7985 15.4079 88.0268 15.522L88.4472 14.6813ZM88.6365 14.9842V11.5415H87.6965V14.9842H88.6365ZM88.6365 11.5415C88.6365 11.7305 88.4848 11.8822 88.2957 11.8822V10.9422C87.9657 10.9422 87.6965 11.2114 87.6965 11.5415H88.6365ZM88.2957 11.8822H93.0192V10.9422H88.2957V11.8822ZM93.0192 11.8822C92.8301 11.8822 92.6784 11.7305 92.6784 11.5415H93.6184C93.6184 11.2114 93.3493 10.9422 93.0192 10.9422V11.8822ZM92.6784 11.5415C92.6784 11.3524 92.8301 11.2007 93.0192 11.2007V12.1407C93.3493 12.1407 93.6184 11.8715 93.6184 11.5415H92.6784ZM93.0192 11.2007H88.425V12.1407H93.0192V11.2007ZM87.955 11.6707V14.7609H88.895V11.6707H87.955ZM88.6407 15.1785C89.2793 14.8485 89.9762 14.681 90.6787 14.702L90.7067 13.7624C89.8348 13.7364 88.9806 13.9448 88.2092 14.3434L88.6407 15.1785ZM90.6927 14.7022C91.4929 14.7022 92.1233 14.9592 92.559 15.4233L93.2443 14.78C92.5991 14.0927 91.702 13.7622 90.6927 13.7622V14.7022ZM92.5581 15.4224C92.9611 15.8541 93.2072 16.4871 93.2072 17.2049H94.1472C94.1472 16.2777 93.8293 15.4067 93.2453 14.781L92.5581 15.4224ZM93.2072 17.2049C93.2072 17.87 92.9372 18.5563 92.4621 19.0719L93.1533 19.7089C93.7827 19.0259 94.1472 18.1143 94.1472 17.2049H93.2072ZM92.4686 19.0649C92.2221 19.3217 91.9513 19.5204 91.6572 19.6577L92.0547 20.5095C92.4656 20.3178 92.8293 20.0466 93.1467 19.7159L92.4686 19.0649ZM91.6512 19.6605C91.3568 19.803 91.0283 19.8721 90.6927 19.8721V20.8121C91.1561 20.8121 91.6266 20.7167 92.0607 20.5067L91.6512 19.6605ZM97.3481 19.3551L96.8784 19.338L96.8781 19.3466V19.3551H97.3481ZM98.2411 17.6866L98.5391 18.0501L98.542 18.0477L98.2411 17.6866ZM100.568 16.4882L100.407 16.0464L100.402 16.0483L100.568 16.4882ZM102.412 15.2309L102.021 14.9702L102.02 14.9723L102.412 15.2309ZM102.107 12.2464L102.439 11.9141L102.435 11.9099L102.107 12.2464ZM100.192 11.565V12.035H100.199L100.206 12.0347L100.192 11.565ZM99.1928 11.7647L99.0155 11.3294L99.0097 11.3319L99.1928 11.7647ZM98.3703 12.2934L98.6905 12.6376L98.694 12.6342L98.3703 12.2934ZM98.1823 12.1055L97.8654 11.7583L97.8611 11.7623L98.1823 12.1055ZM99.0988 11.5297L99.2655 11.9692L99.2734 11.9661L99.0988 11.5297ZM100.192 11.2947L100.185 10.8247L100.177 10.8249L100.192 11.2947ZM102.283 12.0585L101.955 12.3946L101.955 12.3949L102.283 12.0585ZM102.636 15.3837L103.024 15.6483L103.031 15.6383L102.636 15.3837ZM100.65 16.7349L100.488 16.2935L100.484 16.2952L100.65 16.7349ZM98.4056 17.8864L98.1109 17.5202L98.1071 17.5233L98.4056 17.8864ZM97.6183 19.9661H97.1483V20.4361H97.6183V19.9661ZM102.976 19.7546H97.4773V20.6946H102.976V19.7546ZM97.4773 19.7546C97.6664 19.7546 97.8181 19.9063 97.8181 20.0954H96.8781C96.8781 20.4254 97.1473 20.6946 97.4773 20.6946V19.7546ZM97.8181 20.0954V19.3551H96.8781V20.0954H97.8181ZM97.8178 19.3722C97.8357 18.8798 98.0401 18.4592 98.5391 18.0501L97.9431 17.3232C97.2671 17.8775 96.9075 18.538 96.8784 19.338L97.8178 19.3722ZM98.542 18.0477C98.9733 17.6883 99.6531 17.3345 100.733 16.928L100.402 16.0483C99.2965 16.4643 98.4959 16.8625 97.9402 17.3256L98.542 18.0477ZM100.728 16.9298C101.68 16.5836 102.386 16.1251 102.805 15.4896L102.02 14.9723C101.757 15.3707 101.264 15.7347 100.407 16.0465L100.728 16.9298ZM102.803 15.4916C103.185 14.9197 103.235 14.3389 103.235 13.8914H102.295C102.295 14.2664 102.251 14.6256 102.021 14.9702L102.803 15.4916ZM103.235 13.8914C103.235 13.1146 102.954 12.4293 102.439 11.9141L101.774 12.5788C102.105 12.9096 102.295 13.3522 102.295 13.8914H103.235ZM102.435 11.9099C101.86 11.3499 101.049 11.0684 100.177 11.0952L100.206 12.0347C100.862 12.0146 101.413 12.2265 101.779 12.583L102.435 11.9099ZM100.192 11.095C99.7865 11.095 99.3857 11.1786 99.0155 11.3294L99.3701 12.2C99.6345 12.0923 99.9152 12.035 100.192 12.035V11.095ZM99.0097 11.3319C98.6594 11.4801 98.3279 11.6855 98.0466 11.9527L98.694 12.6342C98.8828 12.4549 99.1153 12.3078 99.3759 12.1976L99.0097 11.3319ZM98.0502 11.9493C97.4557 12.5023 97.1131 13.2472 97.1131 14.0442H98.0531C98.0531 13.5252 98.2744 13.0246 98.6904 12.6376L98.0502 11.9493ZM97.1131 14.0442V14.9724H98.0531V14.0442H97.1131ZM97.1131 14.9724C97.1131 14.7833 97.2648 14.6317 97.4538 14.6317V15.5717C97.7839 15.5717 98.0531 15.3025 98.0531 14.9724H97.1131ZM97.4538 14.6317C97.6429 14.6317 97.7946 14.7833 97.7946 14.9724H96.8546C96.8546 15.3025 97.1238 15.5717 97.4538 15.5717V14.6317ZM97.7946 14.9724V14.0442H96.8546V14.9724H97.7946ZM97.7946 14.0442C97.7946 13.4398 98.0419 12.8808 98.5035 12.4486L97.8611 11.7623C97.2183 12.3641 96.8546 13.1681 96.8546 14.0442H97.7946ZM98.4992 12.4525C98.7326 12.2394 98.9884 12.0743 99.2655 11.9692L98.9321 11.0903C98.5278 11.2436 98.1725 11.478 97.8654 11.7584L98.4992 12.4525ZM99.2734 11.9661C99.5801 11.8434 99.8904 11.7743 100.206 11.7645L100.177 10.8249C99.7408 10.8386 99.3225 10.934 98.9243 11.0933L99.2734 11.9661ZM100.198 11.7647C100.928 11.7544 101.541 11.9904 101.955 12.3946L102.612 11.7223C101.991 11.116 101.123 10.8115 100.185 10.8248L100.198 11.7647ZM101.955 12.3949C102.339 12.7697 102.553 13.2797 102.553 13.8914H103.493C103.493 13.0461 103.19 12.2871 102.611 11.722L101.955 12.3949ZM102.553 13.8914C102.553 14.3013 102.51 14.7114 102.24 15.1291L103.031 15.6383C103.443 14.9985 103.493 14.3746 103.493 13.8914H102.553ZM102.247 15.1192C101.947 15.5594 101.402 15.9593 100.488 16.2935L100.811 17.1763C101.825 16.8056 102.572 16.3124 103.024 15.6482L102.247 15.1192ZM100.484 16.2952C99.41 16.7009 98.6503 17.0861 98.1109 17.5203L98.7003 18.2525C99.1243 17.9112 99.7746 17.5679 100.816 17.1746L100.484 16.2952ZM98.1071 17.5233C97.4999 18.0226 97.1483 18.6157 97.1483 19.3551H98.0883C98.0883 18.9666 98.2538 18.6197 98.7041 18.2494L98.1071 17.5233ZM97.1483 19.3551V19.9661H98.0883V19.3551H97.1483ZM97.6183 20.4361H102.976V19.4961H97.6183V20.4361ZM102.976 20.4361C102.787 20.4361 102.636 20.2844 102.636 20.0954H103.576C103.576 19.7653 103.306 19.4961 102.976 19.4961V20.4361ZM102.636 20.0954C102.636 19.9063 102.787 19.7546 102.976 19.7546V20.6946C103.306 20.6946 103.576 20.4254 103.576 20.0954H102.636ZM111.775 12.176L111.439 12.5049L111.442 12.5083L111.775 12.176ZM111.963 12.3874L111.58 12.6606L111.721 12.8574H111.963V12.3874ZM111.986 12.4109H111.516V12.5828L111.627 12.7142L111.986 12.4109ZM111.775 19.4609L112.107 19.7932L112.107 19.7932L111.775 19.4609ZM107.509 19.4609L107.174 19.7898L107.18 19.7966L107.509 19.4609ZM107.509 12.176L107.177 11.8436L107.177 11.8436L107.509 12.176ZM107.697 12.3639L108.03 12.6963L108.033 12.6925L107.697 12.3639ZM107.58 19.1436L107.228 19.4549L107.646 19.9278L107.979 19.3918L107.58 19.1436ZM111.716 12.4932L112.115 12.7414L112.285 12.4684L112.092 12.2112L111.716 12.4932ZM111.598 12.3639L111.931 12.0316L111.931 12.0316L111.598 12.3639ZM111.88 12.7047L112.257 12.4242L111.845 11.8694L111.481 12.4572L111.88 12.7047ZM107.768 19.3434L107.368 19.0959L107.165 19.4243L107.448 19.6875L107.768 19.3434ZM111.598 19.2729L111.927 19.6089L111.931 19.6052L111.598 19.2729ZM111.442 12.5083C111.515 12.5807 111.547 12.6142 111.58 12.6606L112.345 12.1143C112.261 11.9962 112.175 11.9122 112.107 11.8436L111.442 12.5083ZM111.963 12.8574C111.816 12.8574 111.708 12.7887 111.646 12.7271C111.585 12.6656 111.516 12.5579 111.516 12.4109H112.456C112.456 12.2522 112.381 12.1328 112.311 12.0625C112.241 11.9921 112.121 11.9175 111.963 11.9175V12.8574ZM111.627 12.7142C111.999 13.1546 112.198 13.7157 112.198 14.3027H113.138C113.138 13.5032 112.866 12.7248 112.345 12.1077L111.627 12.7142ZM112.198 14.3027V17.3224H113.138V14.3027H112.198ZM112.198 17.3224C112.198 18.0059 111.932 18.6391 111.442 19.1285L112.107 19.7932C112.769 19.1312 113.138 18.2604 113.138 17.3224H112.198ZM111.442 19.1285C110.966 19.6046 110.322 19.8721 109.648 19.8721V20.8121C110.572 20.8121 111.455 20.4452 112.107 19.7932L111.442 19.1285ZM109.648 19.8721C108.964 19.8721 108.329 19.6057 107.838 19.1251L107.18 19.7966C107.841 20.444 108.71 20.8121 109.648 20.8121V19.8721ZM107.845 19.132C107.365 18.6414 107.098 18.0065 107.098 17.3224H106.158C106.158 18.2598 106.526 19.1289 107.174 19.7898L107.845 19.132ZM107.098 17.3224V14.3027H106.158V17.3224H107.098ZM107.098 14.3027C107.098 13.6286 107.366 12.9843 107.842 12.5083L107.177 11.8436C106.525 12.4956 106.158 13.3788 106.158 14.3027H107.098ZM107.842 12.5083C108.328 12.0222 108.96 11.7647 109.648 11.7647V10.8247C108.715 10.8247 107.842 11.1782 107.177 11.8436L107.842 12.5083ZM109.648 11.7647C110.326 11.7647 110.967 12.0233 111.439 12.5048L112.11 11.8471C111.454 11.1771 110.567 10.8247 109.648 10.8247V11.7647ZM107.365 12.0316C106.762 12.6345 106.417 13.4464 106.417 14.3027H107.357C107.357 13.702 107.599 13.1274 108.03 12.6963L107.365 12.0316ZM106.417 14.3027V17.3224H107.357V14.3027H106.417ZM106.417 17.3224C106.417 18.121 106.707 18.8656 107.228 19.4549L107.932 18.8324C107.56 18.4112 107.357 17.8868 107.357 17.3224H106.417ZM107.979 19.3918L112.115 12.7414L111.317 12.245L107.181 18.8954L107.979 19.3918ZM112.092 12.2112C112.033 12.1328 111.961 12.0622 111.931 12.0316L111.266 12.6963C111.284 12.7145 111.299 12.7296 111.313 12.7449C111.328 12.7604 111.336 12.7703 111.34 12.7752L112.092 12.2112ZM111.931 12.0316C111.313 11.4144 110.5 11.0832 109.648 11.0832V12.0232C110.252 12.0232 110.826 12.256 111.266 12.6963L111.931 12.0316ZM109.648 11.0832C108.785 11.0832 107.97 11.4131 107.361 12.0354L108.033 12.6925C108.459 12.2573 109.03 12.0232 109.648 12.0232V11.0832ZM112.867 14.3027C112.867 13.6322 112.662 12.9685 112.257 12.4242L111.503 12.9851C111.78 13.3574 111.927 13.8217 111.927 14.3027H112.867ZM111.481 12.4572L107.368 19.0959L108.167 19.5909L112.28 12.9522L111.481 12.4572ZM107.448 19.6875C108.039 20.2371 108.822 20.5536 109.648 20.5536V19.6136C109.063 19.6136 108.508 19.3896 108.088 18.9992L107.448 19.6875ZM109.648 20.5536C110.505 20.5536 111.315 20.2076 111.927 19.6089L111.27 18.9368C110.825 19.3721 110.248 19.6136 109.648 19.6136V20.5536ZM111.931 19.6052C112.538 18.9979 112.867 18.1842 112.867 17.3224H111.927C111.927 17.9411 111.693 18.5139 111.266 18.9405L111.931 19.6052ZM112.867 17.3224V14.3027H111.927V17.3224H112.867ZM117.112 19.5196L116.783 19.8555L116.787 19.8591L117.112 19.5196ZM116.196 17.4986H115.726V17.5095L115.726 17.5203L116.196 17.4986ZM116.325 17.3576V16.8876H116.291L116.258 16.8924L116.325 17.3576ZM116.454 17.4869H115.984V17.4986L115.985 17.5104L116.454 17.4869ZM117.288 19.3316L116.96 19.6679L116.968 19.6755L117.288 19.3316ZM121.048 19.3316L121.373 19.6718L121.377 19.6678L121.048 19.3316ZM121.882 17.4869L122.352 17.5104L122.352 17.4986V17.4869H121.882ZM121.083 15.5599L121.412 15.2238L121.406 15.2182L121.4 15.2128L121.083 15.5599ZM120.143 14.9724L120.313 14.5341L120.309 14.5323L120.143 14.9724ZM118.804 14.6787L119.26 14.5647L119.247 14.5146L119.224 14.4685L118.804 14.6787ZM118.816 14.5377L118.461 14.2295L118.45 14.2422L118.44 14.2557L118.816 14.5377ZM121.295 11.6825L121.65 11.9906L122.326 11.2125H121.295V11.6825ZM121.706 11.4945L122.162 11.3805L122.15 11.3304L122.127 11.2843L121.706 11.4945ZM121.683 11.6355L122.037 11.9437L122.049 11.931L122.059 11.9175L121.683 11.6355ZM119.192 14.5024L118.837 14.1942L118.213 14.9122L119.162 14.9715L119.192 14.5024ZM120.237 14.7374L120.06 15.1727L120.068 15.1761L120.077 15.1791L120.237 14.7374ZM121.26 15.3719L121.589 15.0361L121.585 15.0326L121.26 15.3719ZM122.141 17.4986L122.61 17.5203L122.611 17.5095V17.4986H122.141ZM121.224 19.5196L121.549 19.8591L121.55 19.8589L121.224 19.5196ZM119.168 19.8721C118.524 19.8721 117.901 19.6242 117.437 19.1801L116.787 19.8591C117.428 20.4726 118.285 20.8121 119.168 20.8121V19.8721ZM117.441 19.1837C116.971 18.7236 116.695 18.1181 116.665 17.477L115.726 17.5203C115.767 18.4067 116.149 19.2346 116.783 19.8555L117.441 19.1837ZM116.666 17.4986C116.666 17.5699 116.641 17.6503 116.582 17.7171C116.522 17.7845 116.449 17.8147 116.391 17.8229L116.258 16.8924C115.952 16.9362 115.726 17.1872 115.726 17.4986H116.666ZM116.325 17.8276C116.136 17.8276 115.984 17.676 115.984 17.4869H116.924C116.924 17.1568 116.655 16.8876 116.325 16.8876V17.8276ZM115.985 17.5104C116.026 18.3347 116.371 19.0924 116.96 19.6678L117.617 18.9954C117.195 18.5839 116.953 18.049 116.923 17.4634L115.985 17.5104ZM116.968 19.6755C117.568 20.2346 118.339 20.5536 119.168 20.5536V19.6136C118.587 19.6136 118.043 19.3921 117.609 18.9878L116.968 19.6755ZM119.168 20.5536C119.994 20.5536 120.78 20.2366 121.373 19.6718L120.724 18.9915C120.306 19.3901 119.752 19.6136 119.168 19.6136V20.5536ZM121.377 19.6678C121.966 19.0924 122.311 18.3347 122.352 17.5104L121.413 17.4634C121.384 18.049 121.141 18.5839 120.72 18.9954L121.377 19.6678ZM122.352 17.4869C122.352 16.6239 122.022 15.8201 121.412 15.2238L120.755 15.896C121.179 16.3102 121.412 16.8694 121.412 17.4869H122.352ZM121.4 15.2128C121.091 14.9308 120.737 14.6982 120.313 14.5341L119.974 15.4107C120.279 15.5287 120.535 15.6955 120.767 15.907L121.4 15.2128ZM120.309 14.5323C119.875 14.3697 119.407 14.2909 118.921 14.2909V15.2309C119.305 15.2309 119.66 15.2931 119.978 15.4125L120.309 14.5323ZM118.921 14.2909C119.044 14.2909 119.211 14.3705 119.26 14.5647L118.348 14.7927C118.42 15.0809 118.682 15.2309 118.921 15.2309V14.2909ZM119.224 14.4685C119.241 14.501 119.262 14.5601 119.257 14.6375C119.252 14.7178 119.221 14.7803 119.192 14.8197L118.44 14.2557C118.375 14.342 118.327 14.4516 118.319 14.5789C118.311 14.7032 118.344 14.8093 118.384 14.8889L119.224 14.4685ZM119.171 14.8458L121.65 11.9906L120.94 11.3743L118.461 14.2295L119.171 14.8458ZM121.295 11.2125H116.783V12.1525H121.295V11.2125ZM116.783 11.2125C116.999 11.2125 117.124 11.3914 117.124 11.5415H116.184C116.184 11.856 116.427 12.1525 116.783 12.1525V11.2125ZM117.124 11.5415C117.124 11.7305 116.972 11.8822 116.783 11.8822V10.9422C116.453 10.9422 116.184 11.2114 116.184 11.5415H117.124ZM116.783 11.8822H121.577V10.9422H116.783V11.8822ZM121.577 11.8822C121.433 11.8822 121.33 11.7936 121.286 11.7046L122.127 11.2843C122.035 11.1014 121.838 10.9422 121.577 10.9422V11.8822ZM121.25 11.6084C121.248 11.598 121.239 11.5599 121.246 11.5067C121.253 11.4477 121.276 11.3944 121.307 11.3535L122.059 11.9175C122.208 11.719 122.195 11.5104 122.162 11.3805L121.25 11.6084ZM121.328 11.3272L118.837 14.1942L119.547 14.8107L122.037 11.9437L121.328 11.3272ZM119.162 14.9715C119.489 14.9919 119.791 15.063 120.06 15.1727L120.415 14.3022C120.049 14.1533 119.647 14.06 119.221 14.0333L119.162 14.9715ZM120.077 15.1791C120.402 15.2975 120.699 15.4856 120.935 15.7112L121.585 15.0326C121.256 14.7178 120.848 14.4593 120.398 14.2957L120.077 15.1791ZM120.931 15.7077C121.403 16.1699 121.671 16.8002 121.671 17.4986H122.611C122.611 16.5521 122.244 15.6784 121.589 15.0361L120.931 15.7077ZM121.671 17.477C121.642 18.1223 121.375 18.7246 120.899 19.1803L121.55 19.8589C122.202 19.2336 122.57 18.4025 122.61 17.5203L121.671 17.477ZM120.899 19.1801C120.435 19.6248 119.823 19.8721 119.168 19.8721V20.8121C120.064 20.8121 120.909 20.4719 121.549 19.8591L120.899 19.1801Z" fill="black"/>
</svg>
