<svg width="140" height="31" viewBox="0 0 140 31" fill="none" xmlns="http://www.w3.org/2000/svg">
<path d="M0 15.3749C0 6.88359 6.88359 0 15.3749 0H124.324C132.816 0 139.699 6.88359 139.699 15.3749V15.3749C139.699 23.8663 132.816 30.7499 124.324 30.7499H15.3749C6.8836 30.7499 0 23.8663 0 15.3749V15.3749Z" fill="#ABDD4B"/>
<path d="M19.6804 20.3421C18.9754 20.3421 18.3057 20.0719 17.8122 19.5666C17.307 19.0731 17.0367 18.4034 17.0367 17.6984V17.6866V14.4084C17.0367 13.3509 17.307 12.5402 17.8357 12.0115C18.0825 11.7647 18.3762 11.5767 18.7169 11.4592C19.0342 11.3535 19.3867 11.2947 19.7744 11.2947H19.7862C20.2092 11.2947 20.6322 11.4005 21.0199 11.5885C21.3959 11.7882 21.7367 12.0702 21.9834 12.4109C22.0304 12.4697 22.0187 12.5519 21.9599 12.5989C21.9012 12.6459 21.8189 12.6342 21.7719 12.5754C21.5487 12.2582 21.2432 11.9997 20.9024 11.8235C20.5499 11.6472 20.1622 11.5532 19.7862 11.5532H19.7744C19.4219 11.5532 19.0929 11.612 18.7992 11.706C18.5054 11.8117 18.2352 11.9762 18.0237 12.1995C17.542 12.6812 17.2952 13.4214 17.2952 14.4084V16.5469C17.4245 16.2884 17.6007 16.0417 17.8122 15.8302C18.3057 15.3249 18.9754 15.0547 19.6804 15.0547C20.3854 15.0547 21.0552 15.3249 21.5487 15.8302C22.0539 16.3237 22.3242 16.9934 22.3242 17.6984C22.3242 18.4034 22.0539 19.0731 21.5487 19.5666C21.0552 20.0719 20.3854 20.3421 19.6804 20.3421ZM19.6804 15.3132C18.3644 15.3132 17.2952 16.3824 17.2952 17.6984C17.2952 19.0144 18.3644 20.0836 19.6804 20.0836C20.9964 20.0836 22.0657 19.0144 22.0657 17.6984C22.0657 16.3824 20.9964 15.3132 19.6804 15.3132ZM27.1276 20.2129C27.0688 20.1894 27.0453 20.1071 27.0688 20.0484L30.6643 11.659H25.7411C25.6823 11.659 25.6118 11.6002 25.6118 11.5297C25.6118 11.4592 25.6706 11.3887 25.7411 11.3887H30.864C30.8993 11.3887 30.9463 11.4122 30.9698 11.4475C30.9933 11.4827 31.005 11.5297 30.9815 11.5767L27.3038 20.1424C27.2803 20.2011 27.2098 20.2364 27.1276 20.2129ZM40.5817 16.7936C40.6522 16.7936 40.7109 16.8524 40.7109 16.9229C40.7109 16.9934 40.6522 17.0521 40.5817 17.0521H38.643V20.0954C38.643 20.1659 38.5842 20.2246 38.5137 20.2246C38.4432 20.2246 38.3845 20.1659 38.3845 20.0954V17.0521H34.178C34.131 17.0521 34.084 17.0286 34.0605 16.9816C34.037 16.9346 34.0488 16.8876 34.0723 16.8406L38.408 11.3182C38.4432 11.2712 38.502 11.2595 38.549 11.2712C38.6077 11.2947 38.643 11.3417 38.643 11.4005V16.7936H40.5817ZM34.4483 16.7936H38.3845V11.7765L34.4483 16.7936Z" fill="black"/>
<path d="M17.8122 19.5666L18.1485 19.2381L18.1406 19.2304L17.8122 19.5666ZM17.8357 12.0115L17.5034 11.6791L17.5034 11.6791L17.8357 12.0115ZM18.7169 11.4592L18.5683 11.0133L18.5637 11.0149L18.7169 11.4592ZM21.0199 11.5885L21.2404 11.1734L21.2328 11.1693L21.225 11.1655L21.0199 11.5885ZM21.9834 12.4109L21.6027 12.6866L21.6094 12.6957L21.6164 12.7046L21.9834 12.4109ZM21.9599 12.5989L21.6663 12.2319L21.6663 12.2319L21.9599 12.5989ZM21.7719 12.5754L21.3875 12.8459L21.3959 12.8578L21.4049 12.869L21.7719 12.5754ZM20.9024 11.8235L21.1184 11.406L21.1126 11.4031L20.9024 11.8235ZM18.7992 11.706L18.6559 11.2583L18.6479 11.2609L18.64 11.2637L18.7992 11.706ZM18.0237 12.1995L18.3562 12.5319L18.3649 12.5227L18.0237 12.1995ZM17.2952 16.5469H16.8252L17.7156 16.7571L17.2952 16.5469ZM17.8122 15.8302L18.1446 16.1625L18.1484 16.1586L17.8122 15.8302ZM21.5487 15.8302L21.2123 16.1587L21.2203 16.1664L21.5487 15.8302ZM21.5487 19.5666L21.2202 19.2303L21.2124 19.2382L21.5487 19.5666ZM19.6804 19.8721C19.0967 19.8721 18.5498 19.6492 18.1484 19.2382L17.476 19.895C18.0616 20.4945 18.8542 20.8121 19.6804 20.8121V19.8721ZM18.1406 19.2304C17.7296 18.829 17.5067 18.2821 17.5067 17.6984H16.5667C16.5667 18.5246 16.8843 19.3173 17.4838 19.9028L18.1406 19.2304ZM17.5067 17.6984V17.6866H16.5667V17.6984H17.5067ZM17.5067 17.6866V14.4084H16.5667V17.6866H17.5067ZM17.5067 14.4084C17.5067 13.4234 17.7585 12.7533 18.168 12.3438L17.5034 11.6791C16.8554 12.3271 16.5667 13.2785 16.5667 14.4084H17.5067ZM18.168 12.3438C18.3659 12.1459 18.5989 11.9971 18.8702 11.9035L18.5637 11.0149C18.1535 11.1564 17.799 11.3835 17.5034 11.6791L18.168 12.3438ZM18.8656 11.9051C19.1326 11.8161 19.4347 11.7647 19.7744 11.7647V10.8247C19.3386 10.8247 18.9358 10.8908 18.5683 11.0133L18.8656 11.9051ZM19.7744 11.7647H19.7862V10.8247H19.7744V11.7647ZM19.7862 11.7647C20.1313 11.7647 20.4846 11.8512 20.8149 12.0114L21.225 11.1655C20.7798 10.9497 20.287 10.8247 19.7862 10.8247V11.7647ZM20.7994 12.0035C21.12 12.1738 21.403 12.4108 21.6027 12.6866L22.3641 12.1353C22.0703 11.7296 21.6718 11.4026 21.2404 11.1734L20.7994 12.0035ZM21.6164 12.7046C21.4908 12.5476 21.5357 12.3365 21.6663 12.2319L22.2535 12.966C22.5016 12.7674 22.57 12.3918 22.3504 12.1173L21.6164 12.7046ZM21.6663 12.2319C21.8233 12.1063 22.0344 12.1512 22.1389 12.2818L21.4049 12.869C21.6034 13.1172 21.979 13.1855 22.2535 12.9659L21.6663 12.2319ZM22.1563 12.305C21.8869 11.9222 21.5221 11.6148 21.1183 11.406L20.6865 12.2409C20.9643 12.3846 21.2104 12.5942 21.3875 12.8459L22.1563 12.305ZM21.1126 11.4031C20.6982 11.1959 20.2388 11.0832 19.7862 11.0832V12.0232C20.0855 12.0232 20.4016 12.0985 20.6922 12.2438L21.1126 11.4031ZM19.7862 11.0832H19.7744V12.0232H19.7862V11.0832ZM19.7744 11.0832C19.3696 11.0832 18.9924 11.1507 18.6559 11.2583L18.9424 12.1536C19.1935 12.0732 19.4742 12.0232 19.7744 12.0232V11.0832ZM18.64 11.2637C18.288 11.3905 17.9519 11.5918 17.6825 11.8762L18.3649 12.5227C18.5184 12.3606 18.7229 12.233 18.9584 12.1482L18.64 11.2637ZM17.6914 11.8671C17.0894 12.469 16.8252 13.3509 16.8252 14.4084H17.7652C17.7652 13.492 17.9945 12.8934 18.356 12.5318L17.6914 11.8671ZM16.8252 14.4084V16.5469H17.7652V14.4084H16.8252ZM17.7156 16.7571C17.8225 16.5433 17.9691 16.3379 18.1445 16.1625L17.4799 15.4978C17.2323 15.7454 17.0264 16.0335 16.8748 16.3367L17.7156 16.7571ZM18.1484 16.1586C18.5498 15.7476 19.0967 15.5247 19.6804 15.5247V14.5847C18.8542 14.5847 18.0616 14.9022 17.476 15.5018L18.1484 16.1586ZM19.6804 15.5247C20.2642 15.5247 20.811 15.7476 21.2124 16.1586L21.8849 15.5018C21.2993 14.9022 20.5067 14.5847 19.6804 14.5847V15.5247ZM21.2203 16.1664C21.6312 16.5678 21.8542 17.1147 21.8542 17.6984H22.7941C22.7941 16.8721 22.4766 16.0795 21.8771 15.4939L21.2203 16.1664ZM21.8542 17.6984C21.8542 18.2821 21.6312 18.829 21.2203 19.2304L21.8771 19.9028C22.4766 19.3173 22.7941 18.5246 22.7941 17.6984H21.8542ZM21.2124 19.2382C20.811 19.6492 20.2642 19.8721 19.6804 19.8721V20.8121C20.5067 20.8121 21.2993 20.4945 21.8849 19.895L21.2124 19.2382ZM19.6804 14.8432C18.1049 14.8432 16.8252 16.1228 16.8252 17.6984H17.7652C17.7652 16.642 18.624 15.7832 19.6804 15.7832V14.8432ZM16.8252 17.6984C16.8252 19.2739 18.1049 20.5536 19.6804 20.5536V19.6136C18.624 19.6136 17.7652 18.7548 17.7652 17.6984H16.8252ZM19.6804 20.5536C21.256 20.5536 22.5356 19.2739 22.5356 17.6984H21.5957C21.5957 18.7548 20.7368 19.6136 19.6804 19.6136V20.5536ZM22.5356 17.6984C22.5356 16.1228 21.256 14.8432 19.6804 14.8432V15.7832C20.7368 15.7832 21.5957 16.642 21.5957 17.6984H22.5356ZM27.1276 20.2129L26.953 20.6492L26.9753 20.6582L26.9984 20.6648L27.1276 20.2129ZM27.0688 20.0484L26.6367 19.8632L26.6324 19.8738L27.0688 20.0484ZM30.6643 11.659L31.0963 11.8441L31.377 11.189H30.6643V11.659ZM30.9815 11.5767L30.5611 11.3665L30.555 11.3787L30.5496 11.3913L30.9815 11.5767ZM27.3038 20.1424L26.8718 19.9569L26.8674 19.9678L27.3038 20.1424ZM27.3021 19.7765C27.4336 19.8291 27.4922 19.9321 27.5132 19.9952C27.5342 20.058 27.5391 20.1381 27.5052 20.2229L26.6324 19.8738C26.575 20.0174 26.5799 20.1679 26.6215 20.2925C26.663 20.4172 26.7628 20.5732 26.953 20.6492L27.3021 19.7765ZM27.5008 20.2335L31.0963 11.8441L30.2323 11.4738L26.6368 19.8632L27.5008 20.2335ZM30.6643 11.189H25.7411V12.129H30.6643V11.189ZM25.7411 11.189C25.8574 11.189 25.9353 11.2397 25.9765 11.2785C26.0217 11.3211 26.0818 11.4055 26.0818 11.5297H25.1418C25.1418 11.7244 25.2372 11.8735 25.3323 11.963C25.4235 12.0488 25.566 12.129 25.7411 12.129V11.189ZM26.0818 11.5297C26.0818 11.6208 26.0464 11.6942 26.0013 11.745C25.9554 11.7966 25.8673 11.8587 25.7411 11.8587V10.9187C25.5443 10.9187 25.3916 11.0161 25.2987 11.1205C25.2066 11.2242 25.1418 11.3681 25.1418 11.5297H26.0818ZM25.7411 11.8587H30.864V10.9187H25.7411V11.8587ZM30.864 11.8587C30.7863 11.8587 30.7305 11.8359 30.6985 11.8187C30.6643 11.8003 30.6179 11.767 30.5787 11.7082L31.3608 11.1868C31.2981 11.0927 31.2165 11.03 31.1441 10.991C31.0739 10.9532 30.977 10.9187 30.864 10.9187V11.8587ZM30.5787 11.7082C30.5582 11.6775 30.5356 11.6311 30.5274 11.5698C30.5186 11.5039 30.5284 11.4319 30.5611 11.3665L31.4019 11.7869C31.5222 11.5462 31.4479 11.3174 31.3608 11.1868L30.5787 11.7082ZM30.5496 11.3913L26.8719 19.9569L27.7357 20.3278L31.4134 11.7621L30.5496 11.3913ZM26.8674 19.9678C26.949 19.7639 27.1498 19.7304 27.2567 19.7609L26.9984 20.6648C27.2698 20.7423 27.6116 20.6383 27.7402 20.3169L26.8674 19.9678ZM38.643 17.0521V16.5822H38.173V17.0521H38.643ZM38.3845 17.0521H38.8545V16.5822H38.3845V17.0521ZM34.0605 16.9816L34.4809 16.7715L34.4809 16.7715L34.0605 16.9816ZM34.0723 16.8406L33.7026 16.5504L33.6732 16.5879L33.6519 16.6305L34.0723 16.8406ZM38.408 11.3182L38.7777 11.6085L38.784 11.6002L38.408 11.3182ZM38.549 11.2712L38.7235 10.8348L38.6939 10.823L38.663 10.8152L38.549 11.2712ZM38.643 16.7936H38.173V17.2636H38.643V16.7936ZM34.4483 16.7936L34.0785 16.5035L33.4822 17.2636H34.4483V16.7936ZM38.3845 16.7936V17.2636H38.8545V16.7936H38.3845ZM38.3845 11.7765H38.8545V10.416L38.0147 11.4863L38.3845 11.7765ZM40.5817 17.2636C40.3926 17.2636 40.241 17.112 40.241 16.9229H41.1809C41.1809 16.5928 40.9118 16.3237 40.5817 16.3237V17.2636ZM40.241 16.9229C40.241 16.7338 40.3926 16.5822 40.5817 16.5822V17.5221C40.9118 17.5221 41.1809 17.253 41.1809 16.9229H40.241ZM40.5817 16.5822H38.643V17.5221H40.5817V16.5822ZM38.173 17.0521V20.0954H39.113V17.0521H38.173ZM38.173 20.0954C38.173 19.9063 38.3247 19.7546 38.5137 19.7546V20.6946C38.8438 20.6946 39.113 20.4254 39.113 20.0954H38.173ZM38.5137 19.7546C38.7028 19.7546 38.8545 19.9063 38.8545 20.0954H37.9145C37.9145 20.4254 38.1837 20.6946 38.5137 20.6946V19.7546ZM38.8545 20.0954V17.0521H37.9145V20.0954H38.8545ZM38.3845 16.5822H34.178V17.5221H38.3845V16.5822ZM34.178 16.5822C34.283 16.5822 34.4138 16.6372 34.4809 16.7715L33.6401 17.1918C33.7543 17.4201 33.9791 17.5221 34.178 17.5221V16.5822ZM34.4809 16.7715C34.5148 16.8393 34.5225 16.9106 34.5151 16.9694C34.5089 17.0197 34.493 17.0501 34.4927 17.0508L33.6519 16.6305C33.6059 16.7224 33.5165 16.9445 33.6401 17.1918L34.4809 16.7715ZM34.4419 17.1309L38.7776 11.6084L38.0383 11.028L33.7026 16.5504L34.4419 17.1309ZM38.784 11.6002C38.6819 11.7363 38.5296 11.7508 38.435 11.7272L38.663 10.8152C38.4744 10.7681 38.2045 10.8062 38.032 11.0362L38.784 11.6002ZM38.3744 11.7076C38.3336 11.6913 38.2817 11.6587 38.239 11.6006C38.1948 11.5403 38.173 11.469 38.173 11.4005H39.113C39.113 11.1219 38.9336 10.9188 38.7235 10.8348L38.3744 11.7076ZM38.173 11.4005V16.7936H39.113V11.4005H38.173ZM38.643 17.2636H40.5817V16.3237H38.643V17.2636ZM34.4483 17.2636H38.3845V16.3237H34.4483V17.2636ZM38.8545 16.7936V11.7765H37.9145V16.7936H38.8545ZM38.0147 11.4863L34.0785 16.5035L34.818 17.0838L38.7543 12.0666L38.0147 11.4863Z" fill="black"/>
<rect x="43.7988" y="15.375" width="4.69995" height="1.17499" rx="0.587493" fill="black"/>
<path d="M54.2923 20.3421C53.9046 20.3421 53.5168 20.2716 53.1526 20.1189C52.7883 19.9661 52.4711 19.7429 52.1891 19.4726C51.9188 19.1906 51.6956 18.8734 51.5429 18.5091C51.3901 18.1449 51.3196 17.7571 51.3196 17.3694C51.3196 17.2989 51.3784 17.2401 51.4489 17.2401C51.5194 17.2401 51.5781 17.2989 51.5781 17.3694C51.5781 17.7219 51.6486 18.0744 51.7896 18.4034C51.9306 18.7324 52.1186 19.0261 52.3771 19.2846C52.6356 19.5431 52.9293 19.7311 53.2583 19.8721C53.5873 20.0131 53.9398 20.0836 54.2923 20.0836C55.0091 20.0836 55.6906 19.7664 56.2075 19.2024C56.7245 18.6619 57.0065 17.9334 57.0065 17.2049C57.0065 16.4412 56.7598 15.7597 56.3015 15.2779C55.8198 14.7609 55.1266 14.4907 54.2923 14.4907C53.4698 14.4672 52.6708 14.6787 51.9658 15.0899C51.9188 15.1252 51.8718 15.1252 51.8366 15.1017C51.7896 15.0782 51.7661 15.0312 51.7661 14.9842V11.5415C51.7661 11.471 51.8248 11.4122 51.8953 11.4122H56.6188C56.6893 11.4122 56.748 11.471 56.748 11.5415C56.748 11.612 56.6893 11.6707 56.6188 11.6707H52.0246V14.7609C52.7296 14.3967 53.5051 14.2087 54.2923 14.2322C55.1971 14.2322 55.9608 14.5259 56.5013 15.1017C56.9948 15.6304 57.2768 16.3824 57.2768 17.2049C57.2768 17.9921 56.9595 18.7911 56.4073 19.3904C56.1253 19.6841 55.8081 19.9191 55.4556 20.0836C55.0913 20.2599 54.6918 20.3421 54.2923 20.3421ZM63.7794 20.3421C63.3917 20.3421 63.0039 20.2716 62.6397 20.1189C62.2754 19.9661 61.9582 19.7429 61.6762 19.4726C61.4059 19.1906 61.1827 18.8734 61.03 18.5091C60.8772 18.1449 60.8067 17.7571 60.8067 17.3694C60.8067 17.2989 60.8655 17.2401 60.936 17.2401C61.0065 17.2401 61.0652 17.2989 61.0652 17.3694C61.0652 17.7219 61.1357 18.0744 61.2767 18.4034C61.4177 18.7324 61.6057 19.0261 61.8642 19.2846C62.1227 19.5431 62.4164 19.7311 62.7454 19.8721C63.0744 20.0131 63.4269 20.0836 63.7794 20.0836C64.4962 20.0836 65.1777 19.7664 65.6946 19.2024C66.2116 18.6619 66.4936 17.9334 66.4936 17.2049C66.4936 16.4412 66.2469 15.7597 65.7886 15.2779C65.3069 14.7609 64.6137 14.4907 63.7794 14.4907C62.9569 14.4672 62.1579 14.6787 61.4529 15.0899C61.4059 15.1252 61.3589 15.1252 61.3237 15.1017C61.2767 15.0782 61.2532 15.0312 61.2532 14.9842V11.5415C61.2532 11.471 61.3119 11.4122 61.3824 11.4122H66.1059C66.1764 11.4122 66.2351 11.471 66.2351 11.5415C66.2351 11.612 66.1764 11.6707 66.1059 11.6707H61.5117V14.7609C62.2167 14.3967 62.9922 14.2087 63.7794 14.2322C64.6842 14.2322 65.4479 14.5259 65.9884 15.1017C66.4819 15.6304 66.7639 16.3824 66.7639 17.2049C66.7639 17.9921 66.4466 18.7911 65.8944 19.3904C65.6124 19.6841 65.2952 19.9191 64.9427 20.0836C64.5784 20.2599 64.1789 20.3421 63.7794 20.3421ZM73.2665 20.3421C72.8788 20.3421 72.491 20.2716 72.1268 20.1189C71.7625 19.9661 71.4453 19.7429 71.1633 19.4726C70.893 19.1906 70.6698 18.8734 70.517 18.5091C70.3643 18.1449 70.2938 17.7571 70.2938 17.3694C70.2938 17.2989 70.3526 17.2401 70.423 17.2401C70.4935 17.2401 70.5523 17.2989 70.5523 17.3694C70.5523 17.7219 70.6228 18.0744 70.7638 18.4034C70.9048 18.7324 71.0928 19.0261 71.3513 19.2846C71.6098 19.5431 71.9035 19.7311 72.2325 19.8721C72.5615 20.0131 72.914 20.0836 73.2665 20.0836C73.9833 20.0836 74.6648 19.7664 75.1817 19.2024C75.6987 18.6619 75.9807 17.9334 75.9807 17.2049C75.9807 16.4412 75.734 15.7597 75.2757 15.2779C74.794 14.7609 74.1008 14.4907 73.2665 14.4907C72.444 14.4672 71.645 14.6787 70.94 15.0899C70.893 15.1252 70.846 15.1252 70.8108 15.1017C70.7638 15.0782 70.7403 15.0312 70.7403 14.9842V11.5415C70.7403 11.471 70.799 11.4122 70.8695 11.4122H75.593C75.6635 11.4122 75.7222 11.471 75.7222 11.5415C75.7222 11.612 75.6635 11.6707 75.593 11.6707H70.9988V14.7609C71.7038 14.3967 72.4793 14.2087 73.2665 14.2322C74.1713 14.2322 74.935 14.5259 75.4755 15.1017C75.969 15.6304 76.251 16.3824 76.251 17.2049C76.251 17.9921 75.9337 18.7911 75.3815 19.3904C75.0995 19.6841 74.7823 19.9191 74.4298 20.0836C74.0655 20.2599 73.666 20.3421 73.2665 20.3421Z" fill="black"/>
<path d="M53.1526 20.1189L52.9708 20.5523L53.1526 20.1189ZM52.1891 19.4726L51.8498 19.7978L51.8567 19.805L51.8639 19.8119L52.1891 19.4726ZM51.5429 18.5091L51.9763 18.3274L51.9763 18.3274L51.5429 18.5091ZM51.7896 18.4034L51.3576 18.5885L51.3576 18.5885L51.7896 18.4034ZM52.3771 19.2846L52.7094 18.9523L52.7094 18.9523L52.3771 19.2846ZM53.2583 19.8721L53.4435 19.4401L53.4435 19.4401L53.2583 19.8721ZM56.2075 19.2024L55.8678 18.8774L55.8611 18.8848L56.2075 19.2024ZM56.3015 15.2779L55.9577 15.5983L55.961 15.6018L56.3015 15.2779ZM54.2923 14.4907L54.2789 14.9607H54.2923V14.4907ZM51.9658 15.0899L51.729 14.6839L51.7056 14.6976L51.6839 14.7139L51.9658 15.0899ZM51.8366 15.1017L52.0973 14.7106L52.073 14.6944L52.0468 14.6813L51.8366 15.1017ZM52.0246 11.6707V11.2007H51.5546V11.6707H52.0246ZM52.0246 14.7609H51.5546V15.5328L52.2403 15.1785L52.0246 14.7609ZM54.2923 14.2322L54.2783 14.7022H54.2923V14.2322ZM56.5013 15.1017L56.8449 14.781L56.844 14.78L56.5013 15.1017ZM56.4073 19.3904L56.7464 19.7159L56.7529 19.7089L56.4073 19.3904ZM55.4556 20.0836L55.2568 19.6577L55.2508 19.6605L55.4556 20.0836ZM54.2923 19.8721C53.9614 19.8721 53.6361 19.812 53.3343 19.6854L52.9708 20.5523C53.3976 20.7312 53.8477 20.8121 54.2923 20.8121V19.8721ZM53.3343 19.6854C53.0322 19.5587 52.7622 19.3709 52.5143 19.1333L51.8639 19.8119C52.1799 20.1148 52.5445 20.3735 52.9708 20.5523L53.3343 19.6854ZM52.5284 19.1474C52.2908 18.8995 52.103 18.6295 51.9763 18.3274L51.1094 18.6909C51.2882 19.1172 51.5469 19.4818 51.8498 19.7978L52.5284 19.1474ZM51.9763 18.3274C51.8497 18.0256 51.7896 17.7003 51.7896 17.3694H50.8496C50.8496 17.814 50.9305 18.2642 51.1094 18.6909L51.9763 18.3274ZM51.7896 17.3694C51.7896 17.5585 51.6379 17.7101 51.4489 17.7101V16.7701C51.1188 16.7701 50.8496 17.0393 50.8496 17.3694H51.7896ZM51.4489 17.7101C51.2598 17.7101 51.1081 17.5585 51.1081 17.3694H52.0481C52.0481 17.0393 51.7789 16.7701 51.4489 16.7701V17.7101ZM51.1081 17.3694C51.1081 17.7844 51.1911 18.2 51.3576 18.5885L52.2216 18.2182C52.1061 17.9488 52.0481 17.6594 52.0481 17.3694H51.1081ZM51.3576 18.5885C51.5191 18.9654 51.7388 19.311 52.0448 19.617L52.7094 18.9523C52.4984 18.7412 52.3421 18.4994 52.2216 18.2182L51.3576 18.5885ZM52.0448 19.617C52.3507 19.9229 52.6964 20.1426 53.0732 20.3041L53.4435 19.4401C53.1623 19.3196 52.9205 19.1634 52.7094 18.9523L52.0448 19.617ZM53.0732 20.3041C53.4617 20.4706 53.8773 20.5536 54.2923 20.5536V19.6136C54.0023 19.6136 53.7129 19.5556 53.4435 19.4401L53.0732 20.3041ZM54.2923 20.5536C55.1529 20.5536 55.9565 20.1718 56.554 19.52L55.8611 18.8848C55.4246 19.3609 54.8653 19.6136 54.2923 19.6136V20.5536ZM56.5472 19.5272C57.1497 18.8973 57.4765 18.0517 57.4765 17.2049H56.5365C56.5365 17.8151 56.2994 18.4264 55.8679 18.8775L56.5472 19.5272ZM57.4765 17.2049C57.4765 16.3418 57.197 15.5374 56.6421 14.954L55.961 15.6018C56.3226 15.9819 56.5365 16.5405 56.5365 17.2049H57.4765ZM56.6454 14.9575C56.0581 14.3272 55.2304 14.0207 54.2923 14.0207V14.9607C55.0228 14.9607 55.5815 15.1946 55.9577 15.5983L56.6454 14.9575ZM54.3057 14.0209C53.3929 13.9948 52.5075 14.2298 51.729 14.6839L52.2027 15.4959C52.8341 15.1275 53.5468 14.9396 54.2789 14.9605L54.3057 14.0209ZM51.6839 14.7139C51.7208 14.6862 51.7825 14.6544 51.8656 14.6489C51.9504 14.6432 52.0319 14.667 52.0973 14.7106L51.5759 15.4927C51.8011 15.6428 52.0659 15.6024 52.2478 15.4659L51.6839 14.7139ZM52.0468 14.6813C52.1811 14.7484 52.2361 14.8792 52.2361 14.9842H51.2961C51.2961 15.1831 51.3981 15.4079 51.6264 15.522L52.0468 14.6813ZM52.2361 14.9842V11.5415H51.2961V14.9842H52.2361ZM52.2361 11.5415C52.2361 11.7305 52.0844 11.8822 51.8953 11.8822V10.9422C51.5653 10.9422 51.2961 11.2114 51.2961 11.5415H52.2361ZM51.8953 11.8822H56.6188V10.9422H51.8953V11.8822ZM56.6188 11.8822C56.4297 11.8822 56.278 11.7305 56.278 11.5415H57.218C57.218 11.2114 56.9489 10.9422 56.6188 10.9422V11.8822ZM56.278 11.5415C56.278 11.3524 56.4297 11.2007 56.6188 11.2007V12.1407C56.9489 12.1407 57.218 11.8715 57.218 11.5415H56.278ZM56.6188 11.2007H52.0246V12.1407H56.6188V11.2007ZM51.5546 11.6707V14.7609H52.4946V11.6707H51.5546ZM52.2403 15.1785C52.879 14.8485 53.5758 14.681 54.2783 14.702L54.3063 13.7624C53.4344 13.7364 52.5802 13.9448 51.8089 14.3434L52.2403 15.1785ZM54.2923 14.7022C55.0925 14.7022 55.7229 14.9592 56.1586 15.4233L56.844 14.78C56.1987 14.0927 55.3016 13.7622 54.2923 13.7622V14.7022ZM56.1577 15.4224C56.5607 15.8541 56.8068 16.4871 56.8068 17.2049H57.7468C57.7468 16.2777 57.4289 15.4067 56.8449 14.781L56.1577 15.4224ZM56.8068 17.2049C56.8068 17.87 56.5368 18.5563 56.0617 19.0719L56.7529 19.7089C57.3823 19.0259 57.7468 18.1143 57.7468 17.2049H56.8068ZM56.0682 19.0649C55.8217 19.3217 55.5509 19.5204 55.2568 19.6577L55.6543 20.5095C56.0652 20.3178 56.4289 20.0466 56.7463 19.7159L56.0682 19.0649ZM55.2508 19.6605C54.9564 19.803 54.6279 19.8721 54.2923 19.8721V20.8121C54.7557 20.8121 55.2262 20.7167 55.6603 20.5067L55.2508 19.6605ZM62.6397 20.1189L62.4579 20.5523L62.6397 20.1189ZM61.6762 19.4726L61.3369 19.7978L61.3438 19.805L61.351 19.8119L61.6762 19.4726ZM61.03 18.5091L61.4634 18.3274L61.4634 18.3274L61.03 18.5091ZM61.2767 18.4034L60.8447 18.5885L60.8447 18.5885L61.2767 18.4034ZM61.8642 19.2846L62.1965 18.9523L62.1965 18.9523L61.8642 19.2846ZM62.7454 19.8721L62.9306 19.4401L62.9306 19.4401L62.7454 19.8721ZM65.6946 19.2024L65.3549 18.8774L65.3482 18.8848L65.6946 19.2024ZM65.7886 15.2779L65.4448 15.5983L65.4481 15.6018L65.7886 15.2779ZM63.7794 14.4907L63.766 14.9607H63.7794V14.4907ZM61.4529 15.0899L61.2161 14.6839L61.1927 14.6976L61.1709 14.7139L61.4529 15.0899ZM61.3237 15.1017L61.5844 14.7106L61.5601 14.6944L61.5339 14.6813L61.3237 15.1017ZM61.5117 11.6707V11.2007H61.0417V11.6707H61.5117ZM61.5117 14.7609H61.0417V15.5328L61.7274 15.1785L61.5117 14.7609ZM63.7794 14.2322L63.7654 14.7022H63.7794V14.2322ZM65.9884 15.1017L66.332 14.781L66.3311 14.78L65.9884 15.1017ZM65.8944 19.3904L66.2335 19.7159L66.24 19.7089L65.8944 19.3904ZM64.9427 20.0836L64.7439 19.6577L64.7379 19.6605L64.9427 20.0836ZM63.7794 19.8721C63.4485 19.8721 63.1232 19.812 62.8214 19.6854L62.4579 20.5523C62.8847 20.7312 63.3348 20.8121 63.7794 20.8121V19.8721ZM62.8214 19.6854C62.5193 19.5587 62.2493 19.3709 62.0014 19.1333L61.351 19.8119C61.667 20.1148 62.0316 20.3735 62.4579 20.5523L62.8214 19.6854ZM62.0155 19.1474C61.7779 18.8995 61.5901 18.6295 61.4634 18.3274L60.5965 18.6909C60.7753 19.1172 61.034 19.4818 61.3369 19.7978L62.0155 19.1474ZM61.4634 18.3274C61.3368 18.0256 61.2767 17.7003 61.2767 17.3694H60.3367C60.3367 17.814 60.4176 18.2642 60.5965 18.6909L61.4634 18.3274ZM61.2767 17.3694C61.2767 17.5585 61.125 17.7101 60.936 17.7101V16.7701C60.6059 16.7701 60.3367 17.0393 60.3367 17.3694H61.2767ZM60.936 17.7101C60.7469 17.7101 60.5952 17.5585 60.5952 17.3694H61.5352C61.5352 17.0393 61.266 16.7701 60.936 16.7701V17.7101ZM60.5952 17.3694C60.5952 17.7844 60.6782 18.2 60.8447 18.5885L61.7087 18.2182C61.5932 17.9488 61.5352 17.6594 61.5352 17.3694H60.5952ZM60.8447 18.5885C61.0062 18.9654 61.2259 19.311 61.5319 19.617L62.1965 18.9523C61.9855 18.7412 61.8292 18.4994 61.7087 18.2182L60.8447 18.5885ZM61.5319 19.617C61.8378 19.9229 62.1835 20.1426 62.5603 20.3041L62.9306 19.4401C62.6494 19.3196 62.4076 19.1634 62.1965 18.9523L61.5319 19.617ZM62.5603 20.3041C62.9488 20.4706 63.3644 20.5536 63.7794 20.5536V19.6136C63.4894 19.6136 63.2 19.5556 62.9306 19.4401L62.5603 20.3041ZM63.7794 20.5536C64.64 20.5536 65.4436 20.1718 66.0411 19.52L65.3482 18.8848C64.9117 19.3609 64.3524 19.6136 63.7794 19.6136V20.5536ZM66.0343 19.5272C66.6368 18.8973 66.9636 18.0517 66.9636 17.2049H66.0236C66.0236 17.8151 65.7865 18.4264 65.355 18.8775L66.0343 19.5272ZM66.9636 17.2049C66.9636 16.3418 66.6841 15.5374 66.1292 14.954L65.4481 15.6018C65.8097 15.9819 66.0236 16.5405 66.0236 17.2049H66.9636ZM66.1325 14.9575C65.5452 14.3272 64.7175 14.0207 63.7794 14.0207V14.9607C64.5099 14.9607 65.0686 15.1946 65.4448 15.5983L66.1325 14.9575ZM63.7928 14.0209C62.88 13.9948 61.9946 14.2298 61.2161 14.6839L61.6898 15.4959C62.3212 15.1275 63.0339 14.9396 63.766 14.9605L63.7928 14.0209ZM61.1709 14.7139C61.2079 14.6862 61.2696 14.6544 61.3527 14.6489C61.4375 14.6432 61.519 14.667 61.5844 14.7106L61.063 15.4927C61.2882 15.6428 61.553 15.6024 61.7349 15.4659L61.1709 14.7139ZM61.5339 14.6813C61.6682 14.7484 61.7232 14.8792 61.7232 14.9842H60.7832C60.7832 15.1831 60.8852 15.4079 61.1135 15.522L61.5339 14.6813ZM61.7232 14.9842V11.5415H60.7832V14.9842H61.7232ZM61.7232 11.5415C61.7232 11.7305 61.5715 11.8822 61.3824 11.8822V10.9422C61.0524 10.9422 60.7832 11.2114 60.7832 11.5415H61.7232ZM61.3824 11.8822H66.1059V10.9422H61.3824V11.8822ZM66.1059 11.8822C65.9168 11.8822 65.7651 11.7305 65.7651 11.5415H66.7051C66.7051 11.2114 66.436 10.9422 66.1059 10.9422V11.8822ZM65.7651 11.5415C65.7651 11.3524 65.9168 11.2007 66.1059 11.2007V12.1407C66.436 12.1407 66.7051 11.8715 66.7051 11.5415H65.7651ZM66.1059 11.2007H61.5117V12.1407H66.1059V11.2007ZM61.0417 11.6707V14.7609H61.9817V11.6707H61.0417ZM61.7274 15.1785C62.3661 14.8485 63.0629 14.681 63.7654 14.702L63.7934 13.7624C62.9215 13.7364 62.0673 13.9448 61.296 14.3434L61.7274 15.1785ZM63.7794 14.7022C64.5796 14.7022 65.21 14.9592 65.6457 15.4233L66.3311 14.78C65.6858 14.0927 64.7887 13.7622 63.7794 13.7622V14.7022ZM65.6448 15.4224C66.0478 15.8541 66.2939 16.4871 66.2939 17.2049H67.2339C67.2339 16.2777 66.916 15.4067 66.332 14.781L65.6448 15.4224ZM66.2939 17.2049C66.2939 17.87 66.0239 18.5563 65.5488 19.0719L66.24 19.7089C66.8694 19.0259 67.2339 18.1143 67.2339 17.2049H66.2939ZM65.5553 19.0649C65.3088 19.3217 65.038 19.5204 64.7439 19.6577L65.1414 20.5095C65.5523 20.3178 65.916 20.0466 66.2334 19.7159L65.5553 19.0649ZM64.7379 19.6605C64.4435 19.803 64.115 19.8721 63.7794 19.8721V20.8121C64.2428 20.8121 64.7133 20.7167 65.1474 20.5067L64.7379 19.6605ZM72.1268 20.1189L71.945 20.5523L72.1268 20.1189ZM71.1633 19.4726L70.824 19.7978L70.8309 19.805L70.8381 19.8119L71.1633 19.4726ZM70.517 18.5091L70.9505 18.3274L70.9505 18.3274L70.517 18.5091ZM70.7638 18.4034L70.3318 18.5885L70.3318 18.5885L70.7638 18.4034ZM71.3513 19.2846L71.6836 18.9523L71.6836 18.9523L71.3513 19.2846ZM72.2325 19.8721L72.4177 19.4401L72.4177 19.4401L72.2325 19.8721ZM75.1817 19.2024L74.842 18.8774L74.8353 18.8848L75.1817 19.2024ZM75.2757 15.2779L74.9319 15.5983L74.9352 15.6018L75.2757 15.2779ZM73.2665 14.4907L73.2531 14.9607H73.2665V14.4907ZM70.94 15.0899L70.7032 14.6839L70.6798 14.6976L70.658 14.7139L70.94 15.0899ZM70.8108 15.1017L71.0715 14.7106L71.0472 14.6944L71.021 14.6813L70.8108 15.1017ZM70.9988 11.6707V11.2007H70.5288V11.6707H70.9988ZM70.9988 14.7609H70.5288V15.5328L71.2145 15.1785L70.9988 14.7609ZM73.2665 14.2322L73.2525 14.7022H73.2665V14.2322ZM75.4755 15.1017L75.8191 14.781L75.8182 14.78L75.4755 15.1017ZM75.3815 19.3904L75.7206 19.7159L75.7271 19.7089L75.3815 19.3904ZM74.4298 20.0836L74.231 19.6577L74.225 19.6605L74.4298 20.0836ZM73.2665 19.8721C72.9356 19.8721 72.6103 19.812 72.3085 19.6854L71.945 20.5523C72.3718 20.7312 72.8219 20.8121 73.2665 20.8121V19.8721ZM72.3085 19.6854C72.0064 19.5587 71.7364 19.3709 71.4885 19.1333L70.8381 19.8119C71.1541 20.1148 71.5187 20.3735 71.945 20.5523L72.3085 19.6854ZM71.5026 19.1474C71.265 18.8995 71.0772 18.6295 70.9505 18.3274L70.0836 18.6909C70.2624 19.1172 70.5211 19.4818 70.824 19.7978L71.5026 19.1474ZM70.9505 18.3274C70.8239 18.0256 70.7638 17.7003 70.7638 17.3694H69.8238C69.8238 17.814 69.9047 18.2642 70.0836 18.6909L70.9505 18.3274ZM70.7638 17.3694C70.7638 17.5585 70.6121 17.7101 70.423 17.7101V16.7701C70.093 16.7701 69.8238 17.0393 69.8238 17.3694H70.7638ZM70.423 17.7101C70.234 17.7101 70.0823 17.5585 70.0823 17.3694H71.0223C71.0223 17.0393 70.7531 16.7701 70.423 16.7701V17.7101ZM70.0823 17.3694C70.0823 17.7844 70.1653 18.2 70.3318 18.5885L71.1958 18.2182C71.0803 17.9488 71.0223 17.6594 71.0223 17.3694H70.0823ZM70.3318 18.5885C70.4933 18.9654 70.713 19.311 71.019 19.617L71.6836 18.9523C71.4726 18.7412 71.3163 18.4994 71.1958 18.2182L70.3318 18.5885ZM71.019 19.617C71.3249 19.9229 71.6706 20.1426 72.0474 20.3041L72.4177 19.4401C72.1365 19.3196 71.8947 19.1634 71.6836 18.9523L71.019 19.617ZM72.0474 20.3041C72.4359 20.4706 72.8515 20.5536 73.2665 20.5536V19.6136C72.9765 19.6136 72.6871 19.5556 72.4177 19.4401L72.0474 20.3041ZM73.2665 20.5536C74.1271 20.5536 74.9307 20.1718 75.5282 19.52L74.8353 18.8848C74.3988 19.3609 73.8395 19.6136 73.2665 19.6136V20.5536ZM75.5214 19.5272C76.1239 18.8973 76.4507 18.0517 76.4507 17.2049H75.5107C75.5107 17.8151 75.2736 18.4264 74.8421 18.8775L75.5214 19.5272ZM76.4507 17.2049C76.4507 16.3418 76.1712 15.5374 75.6163 14.954L74.9352 15.6018C75.2968 15.9819 75.5107 16.5405 75.5107 17.2049H76.4507ZM75.6196 14.9575C75.0323 14.3272 74.2045 14.0207 73.2665 14.0207V14.9607C73.997 14.9607 74.5557 15.1946 74.9319 15.5983L75.6196 14.9575ZM73.2799 14.0209C72.3671 13.9948 71.4817 14.2298 70.7032 14.6839L71.1769 15.4959C71.8083 15.1275 72.521 14.9396 73.2531 14.9605L73.2799 14.0209ZM70.658 14.7139C70.695 14.6862 70.7567 14.6544 70.8398 14.6489C70.9246 14.6432 71.0061 14.667 71.0715 14.7106L70.5501 15.4927C70.7752 15.6428 71.0401 15.6024 71.222 15.4659L70.658 14.7139ZM71.021 14.6813C71.1553 14.7484 71.2103 14.8792 71.2103 14.9842H70.2703C70.2703 15.1831 70.3723 15.4079 70.6006 15.522L71.021 14.6813ZM71.2103 14.9842V11.5415H70.2703V14.9842H71.2103ZM71.2103 11.5415C71.2103 11.7305 71.0586 11.8822 70.8695 11.8822V10.9422C70.5395 10.9422 70.2703 11.2114 70.2703 11.5415H71.2103ZM70.8695 11.8822H75.593V10.9422H70.8695V11.8822ZM75.593 11.8822C75.4039 11.8822 75.2522 11.7305 75.2522 11.5415H76.1922C76.1922 11.2114 75.9231 10.9422 75.593 10.9422V11.8822ZM75.2522 11.5415C75.2522 11.3524 75.4039 11.2007 75.593 11.2007V12.1407C75.9231 12.1407 76.1922 11.8715 76.1922 11.5415H75.2522ZM75.593 11.2007H70.9988V12.1407H75.593V11.2007ZM70.5288 11.6707V14.7609H71.4688V11.6707H70.5288ZM71.2145 15.1785C71.8532 14.8485 72.55 14.681 73.2525 14.702L73.2805 13.7624C72.4086 13.7364 71.5544 13.9448 70.7831 14.3434L71.2145 15.1785ZM73.2665 14.7022C74.0667 14.7022 74.6971 14.9592 75.1328 15.4233L75.8182 14.78C75.1729 14.0927 74.2758 13.7622 73.2665 13.7622V14.7022ZM75.1319 15.4224C75.5349 15.8541 75.781 16.4871 75.781 17.2049H76.721C76.721 16.2777 76.4031 15.4067 75.8191 14.781L75.1319 15.4224ZM75.781 17.2049C75.781 17.87 75.511 18.5563 75.0359 19.0719L75.7271 19.7089C76.3565 19.0259 76.721 18.1143 76.721 17.2049H75.781ZM75.0424 19.0649C74.7959 19.3217 74.5251 19.5204 74.231 19.6577L74.6285 20.5095C75.0394 20.3178 75.4031 20.0466 75.7205 19.7159L75.0424 19.0649ZM74.225 19.6605C73.9306 19.803 73.6021 19.8721 73.2665 19.8721V20.8121C73.7299 20.8121 74.2004 20.7167 74.6345 20.5067L74.225 19.6605Z" fill="black"/>
<rect x="80.1992" y="15.375" width="4.69995" height="1.17499" rx="0.587493" fill="black"/>
<path d="M92.9839 12.176C93.0544 12.2464 93.1132 12.3052 93.1719 12.3874C93.1837 12.3874 93.1954 12.3992 93.1954 12.4109C93.6419 12.9397 93.8769 13.6094 93.8769 14.3027V17.3224C93.8769 18.1331 93.5597 18.8851 92.9839 19.4609C92.4199 20.0249 91.6562 20.3421 90.8572 20.3421C90.0465 20.3421 89.2945 20.0249 88.7187 19.4609C88.1547 18.8851 87.8375 18.1331 87.8375 17.3224V14.3027C87.8375 13.5037 88.1547 12.7399 88.7187 12.176C89.2945 11.6002 90.0465 11.2947 90.8572 11.2947C91.6562 11.2947 92.4199 11.6002 92.9839 12.176ZM88.9067 12.3639C88.3897 12.8809 88.096 13.5742 88.096 14.3027V17.3224C88.096 18.0039 88.3427 18.6384 88.7892 19.1436L92.9252 12.4932C92.8899 12.4462 92.8429 12.3992 92.8077 12.3639C92.2789 11.8352 91.5857 11.5532 90.8572 11.5532C90.117 11.5532 89.4237 11.8352 88.9067 12.3639ZM93.6067 14.3027C93.6067 13.7269 93.4304 13.1629 93.0897 12.7047L88.9772 19.3434C89.4825 19.8134 90.1522 20.0836 90.8572 20.0836C91.5857 20.0836 92.2789 19.7899 92.8077 19.2729C93.3247 18.7559 93.6067 18.0626 93.6067 17.3224V14.3027ZM102.986 20.2246H97.5342C97.4637 20.2246 97.4049 20.1659 97.4049 20.0954C97.4049 20.0249 97.4637 19.9661 97.5342 19.9661H100.119V11.8L97.6752 13.7622C97.6164 13.8092 97.5342 13.7974 97.4872 13.7387C97.4402 13.6917 97.4519 13.6094 97.5107 13.5624L100.166 11.424C100.213 11.3887 100.26 11.3887 100.307 11.4122C100.354 11.424 100.378 11.471 100.378 11.5297V19.9661H102.986C103.057 19.9661 103.115 20.0249 103.115 20.0954C103.115 20.1659 103.057 20.2246 102.986 20.2246ZM109.283 20.3421C108.578 20.3421 107.909 20.0719 107.415 19.5666C106.91 19.0731 106.64 18.4034 106.64 17.6984V17.6866V14.4084C106.64 13.3509 106.91 12.5402 107.439 12.0115C107.685 11.7647 107.979 11.5767 108.32 11.4592C108.637 11.3535 108.99 11.2947 109.377 11.2947H109.389C109.812 11.2947 110.235 11.4005 110.623 11.5885C110.999 11.7882 111.34 12.0702 111.586 12.4109C111.633 12.4697 111.622 12.5519 111.563 12.5989C111.504 12.6459 111.422 12.6342 111.375 12.5754C111.152 12.2582 110.846 11.9997 110.505 11.8235C110.153 11.6472 109.765 11.5532 109.389 11.5532H109.377C109.025 11.5532 108.696 11.612 108.402 11.706C108.108 11.8117 107.838 11.9762 107.627 12.1995C107.145 12.6812 106.898 13.4214 106.898 14.4084V16.5469C107.027 16.2884 107.204 16.0417 107.415 15.8302C107.909 15.3249 108.578 15.0547 109.283 15.0547C109.988 15.0547 110.658 15.3249 111.152 15.8302C111.657 16.3237 111.927 16.9934 111.927 17.6984C111.927 18.4034 111.657 19.0731 111.152 19.5666C110.658 20.0719 109.988 20.3421 109.283 20.3421ZM109.283 15.3132C107.967 15.3132 106.898 16.3824 106.898 17.6984C106.898 19.0144 107.967 20.0836 109.283 20.0836C110.599 20.0836 111.669 19.0144 111.669 17.6984C111.669 16.3824 110.599 15.3132 109.283 15.3132ZM121.983 16.7936C122.053 16.7936 122.112 16.8524 122.112 16.9229C122.112 16.9934 122.053 17.0521 121.983 17.0521H120.044V20.0954C120.044 20.1659 119.985 20.2246 119.915 20.2246C119.844 20.2246 119.785 20.1659 119.785 20.0954V17.0521H115.579C115.532 17.0521 115.485 17.0286 115.461 16.9816C115.438 16.9346 115.45 16.8876 115.473 16.8406L119.809 11.3182C119.844 11.2712 119.903 11.2595 119.95 11.2712C120.009 11.2947 120.044 11.3417 120.044 11.4005V16.7936H121.983ZM115.849 16.7936H119.785V11.7765L115.849 16.7936Z" fill="black"/>
<path d="M92.9839 12.176L92.6482 12.5049L92.6516 12.5083L92.9839 12.176ZM93.1719 12.3874L92.7895 12.6606L92.9301 12.8574H93.1719V12.3874ZM93.1954 12.4109H92.7254V12.5828L92.8363 12.7142L93.1954 12.4109ZM92.9839 19.4609L93.3163 19.7932L93.3163 19.7932L92.9839 19.4609ZM88.7187 19.4609L88.3829 19.7898L88.3898 19.7966L88.7187 19.4609ZM88.7187 12.176L88.3864 11.8436L88.3864 11.8436L88.7187 12.176ZM88.9067 12.3639L89.2391 12.6963L89.2428 12.6925L88.9067 12.3639ZM88.7892 19.1436L88.4371 19.4549L88.855 19.9278L89.1883 19.3918L88.7892 19.1436ZM92.9252 12.4932L93.3243 12.7414L93.4941 12.4684L93.3012 12.2112L92.9252 12.4932ZM92.8077 12.3639L93.14 12.0316L93.14 12.0316L92.8077 12.3639ZM93.0897 12.7047L93.4668 12.4242L93.0543 11.8694L92.6901 12.4572L93.0897 12.7047ZM88.9772 19.3434L88.5777 19.0959L88.3742 19.4243L88.6571 19.6875L88.9772 19.3434ZM92.8077 19.2729L93.1363 19.6089L93.14 19.6052L92.8077 19.2729ZM92.6516 12.5083C92.724 12.5807 92.7563 12.6142 92.7895 12.6606L93.5544 12.1143C93.4701 11.9962 93.3849 11.9122 93.3163 11.8436L92.6516 12.5083ZM93.1719 12.8574C93.0249 12.8574 92.9173 12.7887 92.8558 12.7271C92.7942 12.6656 92.7254 12.5579 92.7254 12.4109H93.6654C93.6654 12.2522 93.5908 12.1328 93.5204 12.0625C93.4501 11.9921 93.3307 11.9175 93.1719 11.9175V12.8574ZM92.8363 12.7142C93.2082 13.1546 93.4069 13.7157 93.4069 14.3027H94.3469C94.3469 13.5032 94.0756 12.7248 93.5545 12.1077L92.8363 12.7142ZM93.4069 14.3027V17.3224H94.3469V14.3027H93.4069ZM93.4069 17.3224C93.4069 18.0059 93.141 18.6391 92.6516 19.1285L93.3163 19.7932C93.9783 19.1312 94.3469 18.2604 94.3469 17.3224H93.4069ZM92.6516 19.1285C92.1756 19.6046 91.5313 19.8721 90.8572 19.8721V20.8121C91.7811 20.8121 92.6643 20.4452 93.3163 19.7932L92.6516 19.1285ZM90.8572 19.8721C90.1731 19.8721 89.5382 19.6057 89.0476 19.1251L88.3898 19.7966C89.0507 20.444 89.9198 20.8121 90.8572 20.8121V19.8721ZM89.0545 19.132C88.5739 18.6414 88.3075 18.0065 88.3075 17.3224H87.3675C87.3675 18.2598 87.7356 19.1289 88.383 19.7898L89.0545 19.132ZM88.3075 17.3224V14.3027H87.3675V17.3224H88.3075ZM88.3075 14.3027C88.3075 13.6286 88.575 12.9843 89.0511 12.5083L88.3864 11.8436C87.7344 12.4956 87.3675 13.3788 87.3675 14.3027H88.3075ZM89.0511 12.5083C89.5372 12.0222 90.169 11.7647 90.8572 11.7647V10.8247C89.9239 10.8247 89.0518 11.1782 88.3864 11.8436L89.0511 12.5083ZM90.8572 11.7647C91.5355 11.7647 92.1765 12.0233 92.6482 12.5048L93.3197 11.8471C92.6634 11.1771 91.7769 10.8247 90.8572 10.8247V11.7647ZM88.5744 12.0316C87.9715 12.6345 87.626 13.4464 87.626 14.3027H88.566C88.566 13.702 88.808 13.1274 89.2391 12.6963L88.5744 12.0316ZM87.626 14.3027V17.3224H88.566V14.3027H87.626ZM87.626 17.3224C87.626 18.121 87.9163 18.8656 88.4371 19.4549L89.1414 18.8324C88.7692 18.4112 88.566 17.8868 88.566 17.3224H87.626ZM89.1883 19.3918L93.3243 12.7414L92.5261 12.245L88.3901 18.8954L89.1883 19.3918ZM93.3012 12.2112C93.2424 12.1328 93.1706 12.0622 93.14 12.0316L92.4753 12.6963C92.4936 12.7145 92.5086 12.7296 92.5228 12.7449C92.5373 12.7604 92.5455 12.7703 92.5492 12.7752L93.3012 12.2112ZM93.14 12.0316C92.5228 11.4144 91.7098 11.0832 90.8572 11.0832V12.0232C91.4616 12.0232 92.0351 12.256 92.4754 12.6963L93.14 12.0316ZM90.8572 11.0832C89.9948 11.0832 89.1791 11.4131 88.5707 12.0354L89.2428 12.6925C89.6683 12.2573 90.2391 12.0232 90.8572 12.0232V11.0832ZM94.0767 14.3027C94.0767 13.6322 93.8715 12.9685 93.4668 12.4242L92.7125 12.9851C92.9893 13.3574 93.1367 13.8217 93.1367 14.3027H94.0767ZM92.6901 12.4572L88.5777 19.0959L89.3768 19.5909L93.4892 12.9522L92.6901 12.4572ZM88.6571 19.6875C89.248 20.2371 90.0316 20.5536 90.8572 20.5536V19.6136C90.2728 19.6136 89.717 19.3896 89.2973 18.9992L88.6571 19.6875ZM90.8572 20.5536C91.7143 20.5536 92.5239 20.2076 93.1363 19.6089L92.4791 18.9368C92.0339 19.3721 91.4571 19.6136 90.8572 19.6136V20.5536ZM93.14 19.6052C93.7473 18.9979 94.0767 18.1842 94.0767 17.3224H93.1367C93.1367 17.9411 92.902 18.5139 92.4754 18.9405L93.14 19.6052ZM94.0767 17.3224V14.3027H93.1367V17.3224H94.0767ZM100.119 19.9661V20.4361H100.589V19.9661H100.119ZM100.119 11.8H100.589V10.8199L99.8249 11.4335L100.119 11.8ZM97.6752 13.7622L97.9688 14.1292L97.9694 14.1287L97.6752 13.7622ZM97.4872 13.7387L97.8542 13.4451L97.8379 13.4248L97.8195 13.4063L97.4872 13.7387ZM97.5107 13.5624L97.8043 13.9294L97.8055 13.9285L97.5107 13.5624ZM100.166 11.424L99.8841 11.048L99.8777 11.0528L99.8713 11.0579L100.166 11.424ZM100.307 11.4122L100.097 11.8326L100.143 11.8557L100.193 11.8682L100.307 11.4122ZM100.378 19.9661H99.9076V20.4361H100.378V19.9661ZM102.986 19.7546H97.5342V20.6946H102.986V19.7546ZM97.5342 19.7546C97.7232 19.7546 97.8749 19.9063 97.8749 20.0954H96.9349C96.9349 20.4254 97.2041 20.6946 97.5342 20.6946V19.7546ZM97.8749 20.0954C97.8749 20.2844 97.7232 20.4361 97.5342 20.4361V19.4961C97.2041 19.4961 96.9349 19.7653 96.9349 20.0954H97.8749ZM97.5342 20.4361H100.119V19.4961H97.5342V20.4361ZM100.589 19.9661V11.8H99.6491V19.9661H100.589ZM99.8249 11.4335L97.3809 13.3957L97.9694 14.1287L100.413 12.1664L99.8249 11.4335ZM97.3816 13.3952C97.5386 13.2696 97.7497 13.3144 97.8542 13.4451L97.1202 14.0323C97.3187 14.2804 97.6943 14.3488 97.9688 14.1292L97.3816 13.3952ZM97.8195 13.4063C97.9138 13.5006 97.9376 13.6215 97.9249 13.7141C97.9126 13.8044 97.8666 13.8796 97.8043 13.9294L97.2171 13.1954C97.0005 13.3687 96.8584 13.7746 97.1548 14.071L97.8195 13.4063ZM97.8055 13.9285L100.461 11.79L99.8713 11.0579L97.2159 13.1964L97.8055 13.9285ZM100.448 11.8C100.409 11.8295 100.346 11.8601 100.266 11.8651C100.189 11.87 100.129 11.8488 100.097 11.8326L100.517 10.9918C100.438 10.9521 100.332 10.9192 100.207 10.927C100.08 10.9349 99.9705 10.9832 99.8841 11.048L100.448 11.8ZM100.193 11.8682C100.079 11.8395 99.9964 11.7643 99.9519 11.6865C99.9126 11.6177 99.9076 11.558 99.9076 11.5297H100.848C100.848 11.3797 100.778 11.0454 100.421 10.9562L100.193 11.8682ZM99.9076 11.5297V19.9661H100.848V11.5297H99.9076ZM100.378 20.4361H102.986V19.4961H100.378V20.4361ZM102.986 20.4361C102.797 20.4361 102.645 20.2844 102.645 20.0954H103.585C103.585 19.7653 103.316 19.4961 102.986 19.4961V20.4361ZM102.645 20.0954C102.645 19.9063 102.797 19.7546 102.986 19.7546V20.6946C103.316 20.6946 103.585 20.4254 103.585 20.0954H102.645ZM107.415 19.5666L107.751 19.2381L107.743 19.2304L107.415 19.5666ZM107.439 12.0115L107.106 11.6791L107.106 11.6791L107.439 12.0115ZM108.32 11.4592L108.171 11.0133L108.167 11.0149L108.32 11.4592ZM110.623 11.5885L110.843 11.1734L110.836 11.1693L110.828 11.1655L110.623 11.5885ZM111.586 12.4109L111.206 12.6866L111.212 12.6957L111.219 12.7046L111.586 12.4109ZM111.563 12.5989L111.269 12.2319L111.269 12.2319L111.563 12.5989ZM111.375 12.5754L110.99 12.8459L110.999 12.8578L111.008 12.869L111.375 12.5754ZM110.505 11.8235L110.721 11.406L110.715 11.4031L110.505 11.8235ZM108.402 11.706L108.259 11.2583L108.251 11.2609L108.243 11.2637L108.402 11.706ZM107.627 12.1995L107.959 12.5319L107.968 12.5227L107.627 12.1995ZM106.898 16.5469H106.428L107.318 16.7571L106.898 16.5469ZM107.415 15.8302L107.747 16.1625L107.751 16.1586L107.415 15.8302ZM111.152 15.8302L110.815 16.1587L110.823 16.1664L111.152 15.8302ZM111.152 19.5666L110.823 19.2303L110.815 19.2382L111.152 19.5666ZM109.283 19.8721C108.7 19.8721 108.153 19.6492 107.751 19.2382L107.079 19.895C107.664 20.4945 108.457 20.8121 109.283 20.8121V19.8721ZM107.743 19.2304C107.333 18.829 107.11 18.2821 107.11 17.6984H106.17C106.17 18.5246 106.487 19.3173 107.087 19.9028L107.743 19.2304ZM107.11 17.6984V17.6866H106.17V17.6984H107.11ZM107.11 17.6866V14.4084H106.17V17.6866H107.11ZM107.11 14.4084C107.11 13.4234 107.361 12.7533 107.771 12.3438L107.106 11.6791C106.458 12.3271 106.17 13.2785 106.17 14.4084H107.11ZM107.771 12.3438C107.969 12.1459 108.202 11.9971 108.473 11.9035L108.167 11.0149C107.756 11.1564 107.402 11.3835 107.106 11.6791L107.771 12.3438ZM108.468 11.9051C108.735 11.8161 109.038 11.7647 109.377 11.7647V10.8247C108.942 10.8247 108.539 10.8908 108.171 11.0133L108.468 11.9051ZM109.377 11.7647H109.389V10.8247H109.377V11.7647ZM109.389 11.7647C109.734 11.7647 110.087 11.8512 110.418 12.0114L110.828 11.1655C110.383 10.9497 109.89 10.8247 109.389 10.8247V11.7647ZM110.402 12.0035C110.723 12.1738 111.006 12.4108 111.206 12.6866L111.967 12.1353C111.673 11.7296 111.275 11.4026 110.843 11.1734L110.402 12.0035ZM111.219 12.7046C111.094 12.5476 111.139 12.3365 111.269 12.2319L111.856 12.966C112.105 12.7674 112.173 12.3918 111.953 12.1173L111.219 12.7046ZM111.269 12.2319C111.426 12.1063 111.637 12.1512 111.742 12.2818L111.008 12.869C111.206 13.1172 111.582 13.1855 111.856 12.9659L111.269 12.2319ZM111.759 12.305C111.49 11.9222 111.125 11.6148 110.721 11.406L110.289 12.2409C110.567 12.3846 110.813 12.5942 110.99 12.8459L111.759 12.305ZM110.715 11.4031C110.301 11.1959 109.842 11.0832 109.389 11.0832V12.0232C109.688 12.0232 110.004 12.0985 110.295 12.2438L110.715 11.4031ZM109.389 11.0832H109.377V12.0232H109.389V11.0832ZM109.377 11.0832C108.973 11.0832 108.595 11.1507 108.259 11.2583L108.545 12.1536C108.796 12.0732 109.077 12.0232 109.377 12.0232V11.0832ZM108.243 11.2637C107.891 11.3905 107.555 11.5918 107.285 11.8762L107.968 12.5227C108.121 12.3606 108.326 12.233 108.561 12.1482L108.243 11.2637ZM107.294 11.8671C106.692 12.469 106.428 13.3509 106.428 14.4084H107.368C107.368 13.492 107.597 12.8934 107.959 12.5318L107.294 11.8671ZM106.428 14.4084V16.5469H107.368V14.4084H106.428ZM107.318 16.7571C107.425 16.5433 107.572 16.3379 107.747 16.1625L107.083 15.4978C106.835 15.7454 106.629 16.0335 106.478 16.3367L107.318 16.7571ZM107.751 16.1586C108.153 15.7476 108.7 15.5247 109.283 15.5247V14.5847C108.457 14.5847 107.664 14.9022 107.079 15.5018L107.751 16.1586ZM109.283 15.5247C109.867 15.5247 110.414 15.7476 110.815 16.1586L111.488 15.5018C110.902 14.9022 110.11 14.5847 109.283 14.5847V15.5247ZM110.823 16.1664C111.234 16.5678 111.457 17.1147 111.457 17.6984H112.397C112.397 16.8721 112.079 16.0795 111.48 15.4939L110.823 16.1664ZM111.457 17.6984C111.457 18.2821 111.234 18.829 110.823 19.2304L111.48 19.9028C112.079 19.3173 112.397 18.5246 112.397 17.6984H111.457ZM110.815 19.2382C110.414 19.6492 109.867 19.8721 109.283 19.8721V20.8121C110.11 20.8121 110.902 20.4945 111.488 19.895L110.815 19.2382ZM109.283 14.8432C107.708 14.8432 106.428 16.1228 106.428 17.6984H107.368C107.368 16.642 108.227 15.7832 109.283 15.7832V14.8432ZM106.428 17.6984C106.428 19.2739 107.708 20.5536 109.283 20.5536V19.6136C108.227 19.6136 107.368 18.7548 107.368 17.6984H106.428ZM109.283 20.5536C110.859 20.5536 112.139 19.2739 112.139 17.6984H111.199C111.199 18.7548 110.34 19.6136 109.283 19.6136V20.5536ZM112.139 17.6984C112.139 16.1228 110.859 14.8432 109.283 14.8432V15.7832C110.34 15.7832 111.199 16.642 111.199 17.6984H112.139ZM120.044 17.0521V16.5822H119.574V17.0521H120.044ZM119.785 17.0521H120.255V16.5822H119.785V17.0521ZM115.461 16.9816L115.882 16.7715L115.882 16.7715L115.461 16.9816ZM115.473 16.8406L115.104 16.5504L115.074 16.5879L115.053 16.6305L115.473 16.8406ZM119.809 11.3182L120.179 11.6085L120.185 11.6002L119.809 11.3182ZM119.95 11.2712L120.124 10.8348L120.095 10.823L120.064 10.8152L119.95 11.2712ZM120.044 16.7936H119.574V17.2636H120.044V16.7936ZM115.849 16.7936L115.479 16.5035L114.883 17.2636H115.849V16.7936ZM119.785 16.7936V17.2636H120.255V16.7936H119.785ZM119.785 11.7765H120.255V10.416L119.416 11.4863L119.785 11.7765ZM121.983 17.2636C121.794 17.2636 121.642 17.112 121.642 16.9229H122.582C122.582 16.5928 122.313 16.3237 121.983 16.3237V17.2636ZM121.642 16.9229C121.642 16.7338 121.794 16.5822 121.983 16.5822V17.5221C122.313 17.5221 122.582 17.253 122.582 16.9229H121.642ZM121.983 16.5822H120.044V17.5221H121.983V16.5822ZM119.574 17.0521V20.0954H120.514V17.0521H119.574ZM119.574 20.0954C119.574 19.9063 119.726 19.7546 119.915 19.7546V20.6946C120.245 20.6946 120.514 20.4254 120.514 20.0954H119.574ZM119.915 19.7546C120.104 19.7546 120.255 19.9063 120.255 20.0954H119.315C119.315 20.4254 119.585 20.6946 119.915 20.6946V19.7546ZM120.255 20.0954V17.0521H119.315V20.0954H120.255ZM119.785 16.5822H115.579V17.5221H119.785V16.5822ZM115.579 16.5822C115.684 16.5822 115.815 16.6372 115.882 16.7715L115.041 17.1918C115.155 17.4201 115.38 17.5221 115.579 17.5221V16.5822ZM115.882 16.7715C115.916 16.8393 115.923 16.9106 115.916 16.9694C115.91 17.0197 115.894 17.0501 115.894 17.0508L115.053 16.6305C115.007 16.7224 114.917 16.9445 115.041 17.1918L115.882 16.7715ZM115.843 17.1309L120.179 11.6084L119.439 11.028L115.104 16.5504L115.843 17.1309ZM120.185 11.6002C120.083 11.7363 119.93 11.7508 119.836 11.7272L120.064 10.8152C119.875 10.7681 119.605 10.8062 119.433 11.0362L120.185 11.6002ZM119.775 11.7076C119.735 11.6913 119.683 11.6587 119.64 11.6006C119.596 11.5403 119.574 11.469 119.574 11.4005H120.514C120.514 11.1219 120.334 10.9188 120.124 10.8348L119.775 11.7076ZM119.574 11.4005V16.7936H120.514V11.4005H119.574ZM120.044 17.2636H121.983V16.3237H120.044V17.2636ZM115.849 17.2636H119.785V16.3237H115.849V17.2636ZM120.255 16.7936V11.7765H119.315V16.7936H120.255ZM119.416 11.4863L115.479 16.5035L116.219 17.0838L120.155 12.0666L119.416 11.4863Z" fill="black"/>
</svg>
