<svg width="141" height="31" viewBox="0 0 141 31" fill="none" xmlns="http://www.w3.org/2000/svg">
<path d="M0 15.3716C0 6.88208 6.88208 0 15.3716 0H124.647C133.136 0 140.018 6.88208 140.018 15.3716V15.3716C140.018 23.861 133.136 30.7431 124.647 30.7431H15.3716C6.88207 30.7431 0 23.861 0 15.3716V15.3716Z" fill="#2E1759"/>
<path d="M19.6688 11.294C20.3734 11.294 21.0428 11.5641 21.536 12.069C22.0409 12.5622 22.311 13.2316 22.311 13.9362V13.9479V17.2243C22.311 18.2811 22.0409 19.0914 21.5125 19.6199C21.2659 19.8665 20.9723 20.0543 20.6317 20.1718C20.3147 20.2775 19.9624 20.3362 19.5749 20.3362H19.5631C19.1404 20.3362 18.7176 20.2305 18.3301 20.0426C17.9543 19.843 17.6138 19.5611 17.3672 19.2206C17.3202 19.1619 17.3319 19.0797 17.3906 19.0327C17.4494 18.9857 17.5316 18.9975 17.5785 19.0562C17.8017 19.3732 18.107 19.6316 18.4475 19.8077C18.7998 19.9839 19.1873 20.0778 19.5631 20.0778H19.5749C19.9272 20.0778 20.256 20.0191 20.5495 19.9252C20.8431 19.8195 21.1132 19.6551 21.3246 19.432C21.8061 18.9505 22.0527 18.2107 22.0527 17.2243V15.087C21.9235 15.3454 21.7473 15.592 21.536 15.8033C21.0428 16.3083 20.3734 16.5784 19.6688 16.5784C18.9642 16.5784 18.2949 16.3083 17.8017 15.8033C17.2967 15.3101 17.0266 14.6408 17.0266 13.9362C17.0266 13.2316 17.2967 12.5622 17.8017 12.069C18.2949 11.5641 18.9642 11.294 19.6688 11.294ZM19.6688 16.32C20.984 16.32 22.0527 15.2514 22.0527 13.9362C22.0527 12.621 20.984 11.5523 19.6688 11.5523C18.3536 11.5523 17.285 12.621 17.285 13.9362C17.285 15.2514 18.3536 16.32 19.6688 16.32ZM28.4739 11.294C29.1784 11.294 29.8478 11.5641 30.341 12.069C30.846 12.5622 31.1161 13.2316 31.1161 13.9362V13.9479V17.2243C31.1161 18.2811 30.846 19.0914 30.3175 19.6199C30.0709 19.8665 29.7773 20.0543 29.4368 20.1718C29.1197 20.2775 28.7674 20.3362 28.3799 20.3362H28.3682C27.9454 20.3362 27.5227 20.2305 27.1351 20.0426C26.7594 19.843 26.4188 19.5611 26.1722 19.2206C26.1252 19.1619 26.137 19.0797 26.1957 19.0327C26.2544 18.9857 26.3366 18.9975 26.3836 19.0562C26.6067 19.3732 26.912 19.6316 27.2526 19.8077C27.6049 19.9839 27.9924 20.0778 28.3682 20.0778H28.3799C28.7322 20.0778 29.061 20.0191 29.3546 19.9252C29.6482 19.8195 29.9183 19.6551 30.1296 19.432C30.6111 18.9505 30.8577 18.2107 30.8577 17.2243V15.087C30.7285 15.3454 30.5524 15.592 30.341 15.8033C29.8478 16.3083 29.1784 16.5784 28.4739 16.5784C27.7693 16.5784 27.0999 16.3083 26.6067 15.8033C26.1017 15.3101 25.8317 14.6408 25.8317 13.9362C25.8317 13.2316 26.1017 12.5622 26.6067 12.069C27.0999 11.5641 27.7693 11.294 28.4739 11.294ZM28.4739 16.32C29.7891 16.32 30.8577 15.2514 30.8577 13.9362C30.8577 12.621 29.7891 11.5523 28.4739 11.5523C27.1586 11.5523 26.09 12.621 26.09 13.9362C26.09 15.2514 27.1586 16.32 28.4739 16.32ZM35.9167 20.207C35.858 20.1835 35.8345 20.1013 35.858 20.0426L39.4514 11.658H34.531C34.4723 11.658 34.4018 11.5993 34.4018 11.5288C34.4018 11.4584 34.4606 11.3879 34.531 11.3879H39.651C39.6862 11.3879 39.7332 11.4114 39.7567 11.4466C39.7802 11.4819 39.7919 11.5288 39.7684 11.5758L36.0928 20.1365C36.0694 20.1953 35.9989 20.2305 35.9167 20.207Z" fill="white"/>
<path d="M21.536 12.069L21.1998 12.3973L21.2078 12.4051L21.536 12.069ZM21.5125 19.6199L21.1803 19.2877L21.1803 19.2877L21.5125 19.6199ZM20.6317 20.1718L20.7803 20.6174L20.7849 20.6158L20.6317 20.1718ZM18.3301 20.0426L18.1097 20.4574L18.1174 20.4615L18.1252 20.4653L18.3301 20.0426ZM17.3672 19.2206L17.7476 18.9451L17.741 18.936L17.734 18.9272L17.3672 19.2206ZM17.3906 19.0327L17.0972 18.6659L17.0972 18.6659L17.3906 19.0327ZM17.5785 19.0562L17.9627 18.7859L17.9544 18.774L17.9453 18.7627L17.5785 19.0562ZM18.4475 19.8077L18.2317 20.225L18.2375 20.2279L18.4475 19.8077ZM20.5495 19.9252L20.6927 20.3725L20.7007 20.37L20.7087 20.3671L20.5495 19.9252ZM21.3246 19.432L20.9923 19.0997L20.9836 19.1089L21.3246 19.432ZM22.0527 15.087H22.5224L21.6325 14.8769L22.0527 15.087ZM21.536 15.8033L21.2038 15.4712L21.1999 15.4751L21.536 15.8033ZM17.8017 15.8033L18.1378 15.475L18.1299 15.4673L17.8017 15.8033ZM17.8017 12.069L18.13 12.4051L18.1377 12.3972L17.8017 12.069ZM19.6688 11.7637C20.2522 11.7637 20.7988 11.9865 21.1999 12.3972L21.872 11.7408C21.2868 11.1416 20.4946 10.8243 19.6688 10.8243V11.7637ZM21.2078 12.4051C21.6185 12.8062 21.8413 13.3528 21.8413 13.9362H22.7807C22.7807 13.1104 22.4634 12.3182 21.8642 11.733L21.2078 12.4051ZM21.8413 13.9362V13.9479H22.7807V13.9362H21.8413ZM21.8413 13.9479V17.2243H22.7807V13.9479H21.8413ZM21.8413 17.2243C21.8413 18.2087 21.5896 18.8784 21.1803 19.2877L21.8446 19.952C22.4922 19.3044 22.7807 18.3535 22.7807 17.2243H21.8413ZM21.1803 19.2877C20.9826 19.4855 20.7497 19.6342 20.4786 19.7277L20.7849 20.6158C21.1949 20.4745 21.5492 20.2474 21.8446 19.952L21.1803 19.2877ZM20.4832 19.7262C20.2163 19.8151 19.9144 19.8665 19.5749 19.8665V20.8059C20.0104 20.8059 20.413 20.7398 20.7803 20.6174L20.4832 19.7262ZM19.5749 19.8665H19.5631V20.8059H19.5749V19.8665ZM19.5631 19.8665C19.2182 19.8665 18.8651 19.78 18.535 19.6199L18.1252 20.4653C18.5701 20.681 19.0626 20.8059 19.5631 20.8059V19.8665ZM18.5505 19.6278C18.2301 19.4576 17.9472 19.2208 17.7476 18.9451L16.9867 19.4961C17.2803 19.9015 17.6786 20.2284 18.1097 20.4574L18.5505 19.6278ZM17.734 18.9272C17.8595 19.0841 17.8146 19.295 17.6841 19.3995L17.0972 18.6659C16.8492 18.8643 16.7809 19.2397 17.0004 19.514L17.734 18.9272ZM17.6841 19.3995C17.5272 19.525 17.3162 19.4802 17.2117 19.3496L17.9453 18.7627C17.7469 18.5148 17.3715 18.4464 17.0972 18.6659L17.6841 19.3995ZM17.1944 19.3265C17.4636 19.7091 17.8282 20.0163 18.2317 20.225L18.6633 19.3905C18.3857 19.2469 18.1397 19.0374 17.9627 18.7859L17.1944 19.3265ZM18.2375 20.2279C18.6516 20.4349 19.1107 20.5476 19.5631 20.5476V19.6081C19.2639 19.6081 18.948 19.5328 18.6576 19.3876L18.2375 20.2279ZM19.5631 20.5476H19.5749V19.6081H19.5631V20.5476ZM19.5749 20.5476C19.9794 20.5476 20.3565 20.4801 20.6927 20.3725L20.4064 19.4778C20.1554 19.5581 19.8749 19.6081 19.5749 19.6081V20.5476ZM20.7087 20.3671C21.0604 20.2405 21.3963 20.0393 21.6656 19.755L20.9836 19.1089C20.8301 19.2709 20.6258 19.3985 20.3904 19.4832L20.7087 20.3671ZM21.6567 19.7641C22.2583 19.1625 22.5224 18.2812 22.5224 17.2243H21.5829C21.5829 18.1402 21.3538 18.7385 20.9924 19.0998L21.6567 19.7641ZM22.5224 17.2243V15.087H21.5829V17.2243H22.5224ZM21.6325 14.8769C21.5257 15.0906 21.3791 15.2959 21.2038 15.4712L21.8681 16.1355C22.1156 15.888 22.3213 15.6001 22.4728 15.2971L21.6325 14.8769ZM21.1999 15.4751C20.7988 15.8859 20.2522 16.1087 19.6688 16.1087V17.0481C20.4946 17.0481 21.2868 16.7307 21.872 16.1316L21.1999 15.4751ZM19.6688 16.1087C19.0854 16.1087 18.5389 15.8859 18.1377 15.4751L17.4656 16.1316C18.0509 16.7307 18.843 17.0481 19.6688 17.0481V16.1087ZM18.1299 15.4673C17.7191 15.0661 17.4963 14.5196 17.4963 13.9362H16.5569C16.5569 14.762 16.8743 15.5541 17.4734 16.1394L18.1299 15.4673ZM17.4963 13.9362C17.4963 13.3528 17.7191 12.8062 18.1299 12.4051L17.4734 11.733C16.8743 12.3182 16.5569 13.1104 16.5569 13.9362H17.4963ZM18.1377 12.3972C18.5389 11.9865 19.0854 11.7637 19.6688 11.7637V10.8243C18.843 10.8243 18.0509 11.1416 17.4656 11.7408L18.1377 12.3972ZM19.6688 16.7898C21.2435 16.7898 22.5224 15.5108 22.5224 13.9362H21.5829C21.5829 14.992 20.7246 15.8503 19.6688 15.8503V16.7898ZM22.5224 13.9362C22.5224 12.3615 21.2435 11.0826 19.6688 11.0826V12.0221C20.7246 12.0221 21.5829 12.8804 21.5829 13.9362H22.5224ZM19.6688 11.0826C18.0942 11.0826 16.8152 12.3615 16.8152 13.9362H17.7547C17.7547 12.8804 18.613 12.0221 19.6688 12.0221V11.0826ZM16.8152 13.9362C16.8152 15.5108 18.0942 16.7898 19.6688 16.7898V15.8503C18.613 15.8503 17.7547 14.992 17.7547 13.9362H16.8152ZM30.341 12.069L30.0049 12.3973L30.0128 12.4051L30.341 12.069ZM30.3175 19.6199L29.9854 19.2877L29.9854 19.2877L30.3175 19.6199ZM29.4368 20.1718L29.5853 20.6174L29.5899 20.6158L29.4368 20.1718ZM27.1351 20.0426L26.9148 20.4574L26.9224 20.4615L26.9302 20.4653L27.1351 20.0426ZM26.1722 19.2206L26.5527 18.9451L26.546 18.936L26.539 18.9272L26.1722 19.2206ZM26.1957 19.0327L25.9023 18.6659L25.9023 18.6659L26.1957 19.0327ZM26.3836 19.0562L26.7677 18.7859L26.7594 18.774L26.7504 18.7627L26.3836 19.0562ZM27.2526 19.8077L27.0368 20.225L27.0425 20.2279L27.2526 19.8077ZM29.3546 19.9252L29.4978 20.3725L29.5058 20.37L29.5137 20.3671L29.3546 19.9252ZM30.1296 19.432L29.7974 19.0997L29.7886 19.1089L30.1296 19.432ZM30.8577 15.087H31.3274L30.4376 14.8769L30.8577 15.087ZM30.341 15.8033L30.0088 15.4712L30.005 15.4751L30.341 15.8033ZM26.6067 15.8033L26.9428 15.475L26.9349 15.4673L26.6067 15.8033ZM26.6067 12.069L26.935 12.4051L26.9427 12.3972L26.6067 12.069ZM28.4739 11.7637C29.0573 11.7637 29.6038 11.9865 30.005 12.3972L30.677 11.7408C30.0918 11.1416 29.2996 10.8243 28.4739 10.8243V11.7637ZM30.0128 12.4051C30.4235 12.8062 30.6463 13.3528 30.6463 13.9362H31.5858C31.5858 13.1104 31.2684 12.3182 30.6692 11.733L30.0128 12.4051ZM30.6463 13.9362V13.9479H31.5858V13.9362H30.6463ZM30.6463 13.9479V17.2243H31.5858V13.9479H30.6463ZM30.6463 17.2243C30.6463 18.2087 30.3947 18.8784 29.9854 19.2877L30.6497 19.952C31.2973 19.3044 31.5858 18.3535 31.5858 17.2243H30.6463ZM29.9854 19.2877C29.7876 19.4855 29.5547 19.6342 29.2837 19.7277L29.5899 20.6158C29.9999 20.4745 30.3542 20.2474 30.6497 19.952L29.9854 19.2877ZM29.2883 19.7262C29.0214 19.8151 28.7194 19.8665 28.3799 19.8665V20.8059C28.8155 20.8059 29.2181 20.7398 29.5853 20.6174L29.2883 19.7262ZM28.3799 19.8665H28.3682V20.8059H28.3799V19.8665ZM28.3682 19.8665C28.0232 19.8665 27.6702 19.78 27.3401 19.6199L26.9302 20.4653C27.3752 20.681 27.8676 20.8059 28.3682 20.8059V19.8665ZM27.3555 19.6278C27.0351 19.4576 26.7523 19.2208 26.5527 18.9451L25.7918 19.4961C26.0853 19.9015 26.4836 20.2284 26.9148 20.4574L27.3555 19.6278ZM26.539 18.9272C26.6645 19.0841 26.6197 19.295 26.4891 19.3995L25.9023 18.6659C25.6543 18.8643 25.5859 19.2397 25.8054 19.514L26.539 18.9272ZM26.4891 19.3995C26.3322 19.525 26.1212 19.4802 26.0168 19.3496L26.7504 18.7627C26.552 18.5148 26.1766 18.4464 25.9023 18.6659L26.4891 19.3995ZM25.9994 19.3265C26.2687 19.7091 26.6333 20.0163 27.0368 20.225L27.4684 19.3905C27.1908 19.2469 26.9447 19.0374 26.7677 18.7859L25.9994 19.3265ZM27.0425 20.2279C27.4567 20.4349 27.9158 20.5476 28.3682 20.5476V19.6081C28.069 19.6081 27.7531 19.5328 27.4626 19.3876L27.0425 20.2279ZM28.3682 20.5476H28.3799V19.6081H28.3682V20.5476ZM28.3799 20.5476C28.7845 20.5476 29.1615 20.4801 29.4978 20.3725L29.2114 19.4778C28.9605 19.5581 28.6799 19.6081 28.3799 19.6081V20.5476ZM29.5137 20.3671C29.8655 20.2405 30.2013 20.0393 30.4706 19.755L29.7886 19.1089C29.6352 19.2709 29.4309 19.3985 29.1955 19.4832L29.5137 20.3671ZM30.4618 19.7641C31.0634 19.1625 31.3274 18.2812 31.3274 17.2243H30.388C30.388 18.1402 30.1589 18.7385 29.7975 19.0998L30.4618 19.7641ZM31.3274 17.2243V15.087H30.388V17.2243H31.3274ZM30.4376 14.8769C30.3307 15.0906 30.1842 15.2959 30.0089 15.4712L30.6732 16.1355C30.9206 15.888 31.1263 15.6001 31.2778 15.2971L30.4376 14.8769ZM30.005 15.4751C29.6038 15.8859 29.0573 16.1087 28.4739 16.1087V17.0481C29.2996 17.0481 30.0918 16.7307 30.677 16.1316L30.005 15.4751ZM28.4739 16.1087C27.8905 16.1087 27.3439 15.8859 26.9427 15.4751L26.2707 16.1316C26.8559 16.7307 27.6481 17.0481 28.4739 17.0481V16.1087ZM26.9349 15.4673C26.5242 15.0661 26.3014 14.5196 26.3014 13.9362H25.3619C25.3619 14.762 25.6793 15.5541 26.2785 16.1394L26.9349 15.4673ZM26.3014 13.9362C26.3014 13.3528 26.5242 12.8062 26.9349 12.4051L26.2785 11.733C25.6793 12.3182 25.3619 13.1104 25.3619 13.9362H26.3014ZM26.9427 12.3972C27.3439 11.9865 27.8905 11.7637 28.4739 11.7637V10.8243C27.6481 10.8243 26.8559 11.1416 26.2707 11.7408L26.9427 12.3972ZM28.4739 16.7898C30.0485 16.7898 31.3274 15.5108 31.3274 13.9362H30.388C30.388 14.992 29.5297 15.8503 28.4739 15.8503V16.7898ZM31.3274 13.9362C31.3274 12.3615 30.0485 11.0826 28.4739 11.0826V12.0221C29.5297 12.0221 30.388 12.8804 30.388 13.9362H31.3274ZM28.4739 11.0826C26.8992 11.0826 25.6203 12.3615 25.6203 13.9362H26.5597C26.5597 12.8804 27.418 12.0221 28.4739 12.0221V11.0826ZM25.6203 13.9362C25.6203 15.5108 26.8992 16.7898 28.4739 16.7898V15.8503C27.418 15.8503 26.5597 14.992 26.5597 13.9362H25.6203ZM35.9167 20.207L35.7422 20.6431L35.7646 20.6521L35.7877 20.6587L35.9167 20.207ZM35.858 20.0426L35.4261 19.8575L35.4219 19.8682L35.858 20.0426ZM39.4514 11.658L39.8831 11.843L40.1637 11.1883H39.4514V11.658ZM39.7684 11.5758L39.3483 11.3657L39.3422 11.378L39.3368 11.3905L39.7684 11.5758ZM36.0928 20.1365L35.6611 19.9512L35.6567 19.9621L36.0928 20.1365ZM36.0912 19.7709C36.2225 19.8234 36.2811 19.9265 36.3021 19.9895C36.3231 20.0523 36.328 20.1323 36.2941 20.2171L35.4219 19.8682C35.3645 20.0116 35.3694 20.1621 35.4109 20.2866C35.4525 20.4112 35.5522 20.5671 35.7422 20.6431L36.0912 19.7709ZM36.2897 20.2276L39.8831 11.843L39.0196 11.473L35.4262 19.8576L36.2897 20.2276ZM39.4514 11.1883H34.531V12.1277H39.4514V11.1883ZM34.531 11.1883C34.6473 11.1883 34.7251 11.239 34.7663 11.2778C34.8115 11.3203 34.8716 11.4047 34.8716 11.5288H33.9321C33.9321 11.7234 34.0274 11.8724 34.1225 11.9619C34.2136 12.0477 34.356 12.1277 34.531 12.1277V11.1883ZM34.8716 11.5288C34.8716 11.6199 34.8362 11.6933 34.7911 11.744C34.7453 11.7956 34.6572 11.8576 34.531 11.8576V10.9182C34.3344 10.9182 34.1817 11.0155 34.0889 11.1199C33.9968 11.2235 33.9321 11.3673 33.9321 11.5288H34.8716ZM34.531 11.8576H39.651V10.9182H34.531V11.8576ZM39.651 11.8576C39.5733 11.8576 39.5176 11.8349 39.4856 11.8176C39.4514 11.7992 39.4051 11.766 39.3659 11.7072L40.1475 11.1861C40.0849 11.0921 40.0033 11.0294 39.931 10.9905C39.8608 10.9527 39.7639 10.9182 39.651 10.9182V11.8576ZM39.3659 11.7072C39.3454 11.6765 39.3228 11.6302 39.3146 11.5689C39.3058 11.503 39.3156 11.4311 39.3483 11.3657L40.1886 11.7859C40.3088 11.5454 40.2346 11.3166 40.1475 11.1861L39.3659 11.7072ZM39.3368 11.3905L35.6612 19.9512L36.5245 20.3219L40.2001 11.7611L39.3368 11.3905ZM35.6567 19.9621C35.7382 19.7583 35.939 19.7248 36.0457 19.7554L35.7877 20.6587C36.0588 20.7361 36.4005 20.6322 36.529 20.311L35.6567 19.9621Z" fill="white"/>
<rect x="42.7891" y="15.3711" width="4.69725" height="1.17431" rx="0.587156" fill="white"/>
<path d="M54.4505 20.3362C54.063 20.3362 53.6755 20.2657 53.3114 20.1131C52.9474 19.9604 52.6303 19.7373 52.3485 19.4672C52.0784 19.1854 51.8553 18.8683 51.7026 18.5043C51.5499 18.1402 51.4795 17.7527 51.4795 17.3652C51.4795 17.2947 51.5382 17.236 51.6087 17.236C51.6791 17.236 51.7378 17.2947 51.7378 17.3652C51.7378 17.7175 51.8083 18.0698 51.9492 18.3986C52.0901 18.7274 52.278 19.021 52.5364 19.2793C52.7947 19.5376 53.0883 19.7255 53.4171 19.8665C53.7459 20.0074 54.0982 20.0778 54.4505 20.0778C55.1668 20.0778 55.8479 19.7608 56.3646 19.1971C56.8813 18.6569 57.1632 17.9288 57.1632 17.2008C57.1632 16.4375 56.9166 15.7564 56.4586 15.2749C55.9771 14.7582 55.2843 14.4881 54.4505 14.4881C53.6285 14.4646 52.8299 14.676 52.1254 15.087C52.0784 15.1222 52.0314 15.1222 51.9962 15.0987C51.9492 15.0753 51.9257 15.0283 51.9257 14.9813V11.5406C51.9257 11.4701 51.9844 11.4114 52.0549 11.4114H56.7756C56.8461 11.4114 56.9048 11.4701 56.9048 11.5406C56.9048 11.611 56.8461 11.6698 56.7756 11.6698H52.1841V14.7582C52.8887 14.3942 53.6637 14.2063 54.4505 14.2298C55.3547 14.2298 56.118 14.5233 56.6582 15.0987C57.1514 15.6272 57.4333 16.3787 57.4333 17.2008C57.4333 17.9876 57.1162 18.7861 56.5643 19.385C56.2824 19.6786 55.9654 19.9134 55.6131 20.0778C55.249 20.254 54.8498 20.3362 54.4505 20.3362ZM66.2221 12.1747C66.2925 12.2452 66.3512 12.3039 66.41 12.3861C66.4217 12.3861 66.4334 12.3978 66.4334 12.4096C66.8797 12.938 67.1145 13.6074 67.1145 14.3002V17.3182C67.1145 18.1285 66.7975 18.88 66.2221 19.4554C65.6584 20.0191 64.8951 20.3362 64.0966 20.3362C63.2863 20.3362 62.5347 20.0191 61.9593 19.4554C61.3956 18.88 61.0786 18.1285 61.0786 17.3182V14.3002C61.0786 13.5017 61.3956 12.7384 61.9593 12.1747C62.5347 11.5993 63.2863 11.294 64.0966 11.294C64.8951 11.294 65.6584 11.5993 66.2221 12.1747ZM62.1472 12.3626C61.6305 12.8793 61.3369 13.5721 61.3369 14.3002V17.3182C61.3369 17.9993 61.5835 18.6334 62.0298 19.1384L66.1633 12.4918C66.1281 12.4448 66.0811 12.3978 66.0459 12.3626C65.5175 11.8342 64.8246 11.5523 64.0966 11.5523C63.3567 11.5523 62.6639 11.8342 62.1472 12.3626ZM66.8444 14.3002C66.8444 13.7248 66.6683 13.1611 66.3277 12.7032L62.2177 19.338C62.7226 19.8077 63.392 20.0778 64.0966 20.0778C64.8246 20.0778 65.5175 19.7843 66.0459 19.2676C66.5626 18.7509 66.8444 18.058 66.8444 17.3182V14.3002ZM76.2889 20.2188H70.7932C70.7227 20.2188 70.664 20.16 70.664 20.0896V19.3498C70.6875 18.7039 70.9693 18.1637 71.5565 17.6822C72.0497 17.2712 72.7895 16.8954 73.8816 16.4844C74.7858 16.1556 75.3847 15.7446 75.7253 15.2279C76.0306 14.7699 76.0776 14.3002 76.0776 13.8892C76.0776 13.2316 75.8427 12.6679 75.42 12.2452C74.9502 11.7872 74.2691 11.5406 73.5058 11.5641C73.1653 11.5641 72.8247 11.6345 72.5077 11.7637C72.2023 11.8929 71.9205 12.069 71.6856 12.2921C71.1807 12.7619 70.8988 13.3843 70.8988 14.0419V14.9696C70.8988 15.04 70.8401 15.0987 70.7697 15.0987C70.6992 15.0987 70.6405 15.04 70.6405 14.9696V14.0419C70.6405 13.3021 70.9458 12.621 71.4977 12.1043C71.7678 11.8576 72.0732 11.658 72.4137 11.5288C72.766 11.3879 73.13 11.3057 73.5058 11.294C74.3396 11.2822 75.0794 11.5523 75.5961 12.0573C76.0776 12.527 76.3359 13.1611 76.3359 13.8892C76.3359 14.3354 76.2889 14.8521 75.9484 15.3806C75.5726 15.9325 74.9267 16.3787 73.9638 16.731C72.9069 17.1303 72.2023 17.4943 71.7209 17.8819C71.1924 18.3164 70.9341 18.7861 70.9341 19.3498V19.9604H76.2889C76.3594 19.9604 76.4181 20.0191 76.4181 20.0896C76.4181 20.16 76.3594 20.2188 76.2889 20.2188Z" fill="white"/>
<path d="M53.3114 20.1131L53.1298 20.5462L53.3114 20.1131ZM52.3485 19.4672L52.0093 19.7922L52.0163 19.7994L52.0235 19.8063L52.3485 19.4672ZM51.7026 18.5043L52.1358 18.3226L52.1358 18.3226L51.7026 18.5043ZM51.9492 18.3986L51.5175 18.5836L51.5175 18.5836L51.9492 18.3986ZM52.5364 19.2793L52.8685 18.9472L52.8685 18.9472L52.5364 19.2793ZM53.4171 19.8665L53.6021 19.4347L53.6021 19.4347L53.4171 19.8665ZM56.3646 19.1971L56.0251 18.8723L56.0184 18.8797L56.3646 19.1971ZM56.4586 15.2749L56.1149 15.5951L56.1182 15.5986L56.4586 15.2749ZM54.4505 14.4881L54.4371 14.9578H54.4505V14.4881ZM52.1254 15.087L51.8887 14.6813L51.8652 14.6949L51.8435 14.7112L52.1254 15.087ZM51.9962 15.0987L52.2567 14.7079L52.2324 14.6917L52.2063 14.6786L51.9962 15.0987ZM52.1841 11.6698V11.2H51.7144V11.6698H52.1841ZM52.1841 14.7582H51.7144V15.5296L52.3997 15.1755L52.1841 14.7582ZM54.4505 14.2298L54.4365 14.6995H54.4505V14.2298ZM56.6582 15.0987L57.0016 14.7782L57.0007 14.7773L56.6582 15.0987ZM56.5643 19.385L56.9032 19.7104L56.9097 19.7033L56.5643 19.385ZM55.6131 20.0778L55.4144 19.6521L55.4085 19.655L55.6131 20.0778ZM54.4505 19.8665C54.1198 19.8665 53.7947 19.8064 53.4931 19.6799L53.1298 20.5462C53.5563 20.7251 54.0062 20.8059 54.4505 20.8059V19.8665ZM53.4931 19.6799C53.1911 19.5532 52.9213 19.3655 52.6735 19.1281L52.0235 19.8063C52.3393 20.109 52.7037 20.3676 53.1298 20.5462L53.4931 19.6799ZM52.6876 19.1422C52.4501 18.8944 52.2624 18.6246 52.1358 18.3226L51.2694 18.6859C51.4481 19.112 51.7066 19.4763 52.0093 19.7922L52.6876 19.1422ZM52.1358 18.3226C52.0093 18.021 51.9492 17.6959 51.9492 17.3652H51.0098C51.0098 17.8095 51.0906 18.2594 51.2694 18.6859L52.1358 18.3226ZM51.9492 17.3652C51.9492 17.5541 51.7976 17.7057 51.6087 17.7057V16.7663C51.2788 16.7663 51.0098 17.0353 51.0098 17.3652H51.9492ZM51.6087 17.7057C51.4197 17.7057 51.2681 17.5541 51.2681 17.3652H52.2076C52.2076 17.0353 51.9385 16.7663 51.6087 16.7663V17.7057ZM51.2681 17.3652C51.2681 17.7799 51.351 18.1953 51.5175 18.5836L52.381 18.2135C52.2656 17.9442 52.2076 17.655 52.2076 17.3652H51.2681ZM51.5175 18.5836C51.6789 18.9602 51.8985 19.3057 52.2042 19.6114L52.8685 18.9472C52.6576 18.7362 52.5014 18.4945 52.381 18.2135L51.5175 18.5836ZM52.2042 19.6114C52.51 19.9172 52.8554 20.1368 53.2321 20.2982L53.6021 19.4347C53.3211 19.3143 53.0795 19.1581 52.8685 18.9472L52.2042 19.6114ZM53.2321 20.2982C53.6204 20.4646 54.0357 20.5476 54.4505 20.5476V19.6081C54.1607 19.6081 53.8714 19.5501 53.6021 19.4347L53.2321 20.2982ZM54.4505 20.5476C55.3105 20.5476 56.1137 20.166 56.7109 19.5145L56.0184 18.8797C55.5822 19.3556 55.0231 19.6081 54.4505 19.6081V20.5476ZM56.7041 19.5218C57.3063 18.8922 57.6329 18.0471 57.6329 17.2008H56.6934C56.6934 17.8106 56.4564 18.4216 56.0252 18.8724L56.7041 19.5218ZM57.6329 17.2008C57.6329 16.3382 57.3535 15.5342 56.7989 14.9512L56.1182 15.5986C56.4796 15.9785 56.6934 16.5367 56.6934 17.2008H57.6329ZM56.8022 14.9547C56.2153 14.3248 55.388 14.0184 54.4505 14.0184V14.9578C55.1805 14.9578 55.7389 15.1916 56.1149 15.5951L56.8022 14.9547ZM54.4639 14.0186C53.5516 13.9925 52.6667 14.2274 51.8887 14.6813L52.362 15.4927C52.9932 15.1246 53.7054 14.9367 54.4371 14.9576L54.4639 14.0186ZM51.8435 14.7112C51.8805 14.6835 51.9421 14.6517 52.0251 14.6462C52.1099 14.6406 52.1914 14.6643 52.2567 14.7079L51.7356 15.4896C51.9607 15.6396 52.2254 15.5992 52.4072 15.4628L51.8435 14.7112ZM52.2063 14.6786C52.3405 14.7457 52.3955 14.8764 52.3955 14.9813H51.456C51.456 15.1802 51.558 15.4048 51.7861 15.5189L52.2063 14.6786ZM52.3955 14.9813V11.5406H51.456V14.9813H52.3955ZM52.3955 11.5406C52.3955 11.7295 52.2439 11.8811 52.0549 11.8811V10.9417C51.725 10.9417 51.456 11.2107 51.456 11.5406H52.3955ZM52.0549 11.8811H56.7756V10.9417H52.0549V11.8811ZM56.7756 11.8811C56.5867 11.8811 56.4351 11.7295 56.4351 11.5406H57.3745C57.3745 11.2107 57.1055 10.9417 56.7756 10.9417V11.8811ZM56.4351 11.5406C56.4351 11.3516 56.5867 11.2 56.7756 11.2V12.1395C57.1055 12.1395 57.3745 11.8705 57.3745 11.5406H56.4351ZM56.7756 11.2H52.1841V12.1395H56.7756V11.2ZM51.7144 11.6698V14.7582H52.6538V11.6698H51.7144ZM52.3997 15.1755C53.0379 14.8457 53.7344 14.6783 54.4365 14.6993L54.4645 13.7602C53.593 13.7342 52.7394 13.9426 51.9685 14.3409L52.3997 15.1755ZM54.4505 14.6995C55.2502 14.6995 55.8802 14.9563 56.3157 15.4202L57.0007 14.7773C56.3558 14.0903 55.4592 13.76 54.4505 13.76V14.6995ZM56.3148 15.4193C56.7176 15.8508 56.9635 16.4834 56.9635 17.2008H57.903C57.903 16.2741 57.5853 15.4036 57.0016 14.7782L56.3148 15.4193ZM56.9635 17.2008C56.9635 17.8655 56.6937 18.5514 56.2188 19.0667L56.9097 19.7033C57.5387 19.0207 57.903 18.1096 57.903 17.2008H56.9635ZM56.2254 19.0597C55.979 19.3163 55.7084 19.515 55.4144 19.6522L55.8117 20.5035C56.2223 20.3119 56.5858 20.0408 56.9031 19.7103L56.2254 19.0597ZM55.4085 19.655C55.1142 19.7974 54.7859 19.8665 54.4505 19.8665V20.8059C54.9136 20.8059 55.3838 20.7106 55.8177 20.5007L55.4085 19.655ZM66.2221 12.1747L65.8865 12.5034L65.8899 12.5069L66.2221 12.1747ZM66.41 12.3861L66.0277 12.6591L66.1682 12.8558H66.41V12.3861ZM66.4334 12.4096H65.9637V12.5814L66.0746 12.7126L66.4334 12.4096ZM66.2221 19.4554L66.5542 19.7876L66.5542 19.7876L66.2221 19.4554ZM61.9593 19.4554L61.6237 19.7842L61.6306 19.791L61.9593 19.4554ZM61.9593 12.1747L61.6272 11.8426L61.6272 11.8426L61.9593 12.1747ZM62.1472 12.3626L62.4794 12.6948L62.4831 12.691L62.1472 12.3626ZM62.0298 19.1384L61.6778 19.4494L62.0955 19.9221L62.4286 19.3864L62.0298 19.1384ZM66.1633 12.4918L66.5622 12.7398L66.7319 12.467L66.5391 12.2099L66.1633 12.4918ZM66.0459 12.3626L66.3781 12.0305L66.3781 12.0305L66.0459 12.3626ZM66.3277 12.7032L66.7047 12.4229L66.2923 11.8683L65.9284 12.4558L66.3277 12.7032ZM62.2177 19.338L61.8183 19.0907L61.615 19.4189L61.8977 19.6819L62.2177 19.338ZM66.0459 19.2676L66.3743 19.6034L66.3781 19.5997L66.0459 19.2676ZM65.8899 12.5069C65.9623 12.5792 65.9946 12.6127 66.0277 12.6591L66.7922 12.1131C66.7079 11.9951 66.6228 11.9111 66.5542 11.8426L65.8899 12.5069ZM66.41 12.8558C66.263 12.8558 66.1555 12.7871 66.094 12.7256C66.0324 12.6641 65.9637 12.5565 65.9637 12.4096H66.9032C66.9032 12.2509 66.8286 12.1316 66.7582 12.0613C66.6879 11.991 66.5686 11.9164 66.41 11.9164V12.8558ZM66.0746 12.7126C66.4462 13.1528 66.6448 13.7136 66.6448 14.3002H67.5843C67.5843 13.5012 67.3131 12.7233 66.7923 12.1065L66.0746 12.7126ZM66.6448 14.3002V17.3182H67.5843V14.3002H66.6448ZM66.6448 17.3182C66.6448 18.0013 66.3791 18.6341 65.8899 19.1233L66.5542 19.7876C67.2159 19.1259 67.5843 18.2556 67.5843 17.3182H66.6448ZM65.8899 19.1233C65.4142 19.5991 64.7703 19.8665 64.0966 19.8665V20.8059C65.0199 20.8059 65.9026 20.4392 66.5542 19.7876L65.8899 19.1233ZM64.0966 19.8665C63.4129 19.8665 62.7783 19.6002 62.288 19.1199L61.6306 19.791C62.2911 20.438 63.1597 20.8059 64.0966 20.8059V19.8665ZM62.2949 19.1267C61.8146 18.6364 61.5483 18.0019 61.5483 17.3182H60.6088C60.6088 18.2551 60.9767 19.1236 61.6238 19.7842L62.2949 19.1267ZM61.5483 17.3182V14.3002H60.6088V17.3182H61.5483ZM61.5483 14.3002C61.5483 13.6265 61.8157 12.9826 62.2915 12.5069L61.6272 11.8426C60.9756 12.4942 60.6088 13.3769 60.6088 14.3002H61.5483ZM62.2915 12.5069C62.7773 12.021 63.4087 11.7637 64.0966 11.7637V10.8243C63.1638 10.8243 62.2922 11.1776 61.6272 11.8426L62.2915 12.5069ZM64.0966 11.7637C64.7745 11.7637 65.4151 12.0222 65.8865 12.5034L66.5576 11.846C65.9017 11.1764 65.0157 10.8243 64.0966 10.8243V11.7637ZM61.8151 12.0305C61.2125 12.633 60.8672 13.4444 60.8672 14.3002H61.8066C61.8066 13.6998 62.0485 13.1256 62.4793 12.6947L61.8151 12.0305ZM60.8672 14.3002V17.3182H61.8066V14.3002H60.8672ZM60.8672 17.3182C60.8672 18.1163 61.1573 18.8605 61.6778 19.4494L62.3817 18.8273C62.0097 18.4064 61.8066 17.8823 61.8066 17.3182H60.8672ZM62.4286 19.3864L66.5622 12.7398L65.7645 12.2437L61.6309 18.8903L62.4286 19.3864ZM66.5391 12.2099C66.4803 12.1316 66.4087 12.0611 66.3781 12.0305L65.7138 12.6947C65.732 12.713 65.747 12.728 65.7612 12.7433C65.7757 12.7588 65.7839 12.7687 65.7876 12.7736L66.5391 12.2099ZM66.3781 12.0305C65.7612 11.4136 64.9487 11.0826 64.0966 11.0826V12.0221C64.7006 12.0221 65.2738 12.2548 65.7138 12.6947L66.3781 12.0305ZM64.0966 11.0826C63.2347 11.0826 62.4194 11.4123 61.8113 12.0342L62.4831 12.691C62.9084 12.256 63.4788 12.0221 64.0966 12.0221V11.0826ZM67.3142 14.3002C67.3142 13.6301 67.1091 12.9668 66.7047 12.4229L65.9508 12.9834C66.2275 13.3555 66.3747 13.8195 66.3747 14.3002H67.3142ZM65.9284 12.4558L61.8183 19.0907L62.617 19.5854L66.7271 12.9505L65.9284 12.4558ZM61.8977 19.6819C62.4883 20.2313 63.2715 20.5476 64.0966 20.5476V19.6081C63.5125 19.6081 62.957 19.3842 62.5376 18.9941L61.8977 19.6819ZM64.0966 20.5476C64.9532 20.5476 65.7623 20.2018 66.3743 19.6034L65.7175 18.9317C65.2726 19.3667 64.6961 19.6081 64.0966 19.6081V20.5476ZM66.3781 19.5997C66.985 18.9927 67.3142 18.1795 67.3142 17.3182H66.3747C66.3747 17.9365 66.1402 18.509 65.7138 18.9354L66.3781 19.5997ZM67.3142 17.3182V14.3002H66.3747V17.3182H67.3142ZM70.664 19.3498L70.1946 19.3327L70.1943 19.3412V19.3498H70.664ZM71.5565 17.6822L71.8543 18.0455L71.8572 18.0431L71.5565 17.6822ZM73.8816 16.4844L73.7211 16.043L73.7162 16.0448L73.8816 16.4844ZM75.7253 15.2279L75.3344 14.9674L75.3331 14.9694L75.7253 15.2279ZM75.42 12.2452L75.7521 11.913L75.7479 11.9088L75.42 12.2452ZM73.5058 11.5641V12.0338H73.513L73.5203 12.0336L73.5058 11.5641ZM72.5077 11.7637L72.3304 11.3287L72.3246 11.3311L72.5077 11.7637ZM71.6856 12.2921L72.0056 12.6361L72.0092 12.6327L71.6856 12.2921ZM71.4977 12.1043L71.181 11.7573L71.1767 11.7613L71.4977 12.1043ZM72.4137 11.5288L72.5803 11.9681L72.5882 11.965L72.4137 11.5288ZM73.5058 11.294L73.4992 10.8242L73.4912 10.8245L73.5058 11.294ZM75.5961 12.0573L75.2678 12.3932L75.2681 12.3935L75.5961 12.0573ZM75.9484 15.3806L76.3368 15.645L76.3432 15.635L75.9484 15.3806ZM73.9638 16.731L73.8024 16.2899L73.7978 16.2916L73.9638 16.731ZM71.7209 17.8819L71.4263 17.5159L71.4225 17.519L71.7209 17.8819ZM70.9341 19.9604H70.4644V20.4301H70.9341V19.9604ZM76.2889 19.749H70.7932V20.6885H76.2889V19.749ZM70.7932 19.749C70.9821 19.749 71.1337 19.9006 71.1337 20.0896H70.1943C70.1943 20.4195 70.4633 20.6885 70.7932 20.6885V19.749ZM71.1337 20.0896V19.3498H70.1943V20.0896H71.1337ZM71.1334 19.3668C71.1513 18.8747 71.3556 18.4544 71.8543 18.0455L71.2586 17.319C70.583 17.873 70.2236 18.5331 70.1946 19.3327L71.1334 19.3668ZM71.8572 18.0431C72.2882 17.6839 72.9677 17.3303 74.0471 16.9241L73.7162 16.0448C72.6113 16.4606 71.8111 16.8586 71.2558 17.3214L71.8572 18.0431ZM74.0421 16.9259C74.9937 16.5798 75.6988 16.1216 76.1175 15.4864L75.3331 14.9694C75.0706 15.3676 74.5779 15.7314 73.7211 16.043L74.0421 16.9259ZM76.1161 15.4885C76.4972 14.9169 76.5473 14.3365 76.5473 13.8892H75.6078C75.6078 14.264 75.564 14.623 75.3344 14.9674L76.1161 15.4885ZM76.5473 13.8892C76.5473 13.1129 76.267 12.4279 75.7521 11.913L75.0878 12.5773C75.4184 12.9079 75.6078 13.3503 75.6078 13.8892H76.5473ZM75.7479 11.9088C75.1738 11.3491 74.3627 11.0678 73.4914 11.0946L73.5203 12.0336C74.1755 12.0134 74.7267 12.2253 75.092 12.5815L75.7479 11.9088ZM73.5058 11.0943C73.101 11.0943 72.7004 11.178 72.3304 11.3287L72.6849 12.1987C72.9491 12.0911 73.2296 12.0338 73.5058 12.0338V11.0943ZM72.3246 11.3311C71.9745 11.4792 71.6432 11.6846 71.3621 11.9516L72.0092 12.6327C72.1978 12.4535 72.4301 12.3065 72.6907 12.1963L72.3246 11.3311ZM71.3657 11.9482C70.7716 12.5009 70.4291 13.2454 70.4291 14.0419H71.3686C71.3686 13.5231 71.5898 13.0228 72.0056 12.6361L71.3657 11.9482ZM70.4291 14.0419V14.9696H71.3686V14.0419H70.4291ZM70.4291 14.9696C70.4291 14.7806 70.5807 14.629 70.7697 14.629V15.5685C71.0996 15.5685 71.3686 15.2995 71.3686 14.9696H70.4291ZM70.7697 14.629C70.9586 14.629 71.1102 14.7806 71.1102 14.9696H70.1708C70.1708 15.2995 70.4398 15.5685 70.7697 15.5685V14.629ZM71.1102 14.9696V14.0419H70.1708V14.9696H71.1102ZM71.1102 14.0419C71.1102 13.4378 71.3574 12.8791 71.8188 12.4472L71.1767 11.7613C70.5343 12.3628 70.1708 13.1663 70.1708 14.0419H71.1102ZM71.8145 12.4511C72.0477 12.2382 72.3033 12.0731 72.5803 11.968L72.2471 11.0896C71.843 11.2429 71.4879 11.4771 71.181 11.7574L71.8145 12.4511ZM72.5882 11.965C72.8947 11.8424 73.2048 11.7733 73.5205 11.7635L73.4912 10.8245C73.0553 10.8381 72.6373 10.9335 72.2393 11.0927L72.5882 11.965ZM73.5124 11.7637C74.2421 11.7534 74.8544 11.9893 75.2678 12.3932L75.9244 11.7213C75.3044 11.1154 74.437 10.8111 73.4992 10.8243L73.5124 11.7637ZM75.2681 12.3935C75.6521 12.7682 75.8662 13.2779 75.8662 13.8892H76.8056C76.8056 13.0444 76.503 12.2858 75.9241 11.7211L75.2681 12.3935ZM75.8662 13.8892C75.8662 14.2988 75.8226 14.7087 75.5536 15.1261L76.3432 15.635C76.7553 14.9956 76.8056 14.3721 76.8056 13.8892H75.8662ZM75.5601 15.1162C75.2605 15.5562 74.7155 15.9558 73.8024 16.2899L74.1252 17.1722C75.1379 16.8017 75.8847 16.3088 76.3367 15.6449L75.5601 15.1162ZM73.7978 16.2916C72.7247 16.697 71.9655 17.082 71.4263 17.5159L72.0154 18.2478C72.4392 17.9067 73.0891 17.5636 74.1298 17.1705L73.7978 16.2916ZM71.4225 17.519C70.8157 18.018 70.4644 18.6108 70.4644 19.3498H71.4038C71.4038 18.9614 71.5691 18.6147 72.0192 18.2447L71.4225 17.519ZM70.4644 19.3498V19.9604H71.4038V19.3498H70.4644ZM70.9341 20.4301H76.2889V19.4907H70.9341V20.4301ZM76.2889 20.4301C76.1 20.4301 75.9484 20.2785 75.9484 20.0896H76.8878C76.8878 19.7597 76.6188 19.4907 76.2889 19.4907V20.4301ZM75.9484 20.0896C75.9484 19.9006 76.1 19.749 76.2889 19.749V20.6885C76.6188 20.6885 76.8878 20.4195 76.8878 20.0896H75.9484Z" fill="white"/>
<rect x="79.3574" y="15.3711" width="4.69725" height="1.17431" rx="0.587156" fill="white"/>
<path d="M91.0189 20.3362C90.6313 20.3362 90.2438 20.2657 89.8798 20.1131C89.5157 19.9604 89.1987 19.7373 88.9168 19.4672C88.6467 19.1854 88.4236 18.8683 88.271 18.5043C88.1183 18.1402 88.0478 17.7527 88.0478 17.3652C88.0478 17.2947 88.1066 17.236 88.177 17.236C88.2475 17.236 88.3062 17.2947 88.3062 17.3652C88.3062 17.7175 88.3767 18.0698 88.5176 18.3986C88.6585 18.7274 88.8464 19.021 89.1047 19.2793C89.3631 19.5376 89.6567 19.7255 89.9855 19.8665C90.3143 20.0074 90.6666 20.0778 91.0189 20.0778C91.7352 20.0778 92.4163 19.7608 92.933 19.1971C93.4497 18.6569 93.7315 17.9288 93.7315 17.2008C93.7315 16.4375 93.4849 15.7564 93.0269 15.2749C92.5455 14.7582 91.8526 14.4881 91.0189 14.4881C90.1968 14.4646 89.3983 14.676 88.6937 15.087C88.6467 15.1222 88.5998 15.1222 88.5645 15.0987C88.5176 15.0753 88.4941 15.0283 88.4941 14.9813V11.5406C88.4941 11.4701 88.5528 11.4114 88.6233 11.4114H93.344C93.4145 11.4114 93.4732 11.4701 93.4732 11.5406C93.4732 11.611 93.4145 11.6698 93.344 11.6698H88.7524V14.7582C89.457 14.3942 90.2321 14.2063 91.0189 14.2298C91.9231 14.2298 92.6864 14.5233 93.2266 15.0987C93.7198 15.6272 94.0016 16.3787 94.0016 17.2008C94.0016 17.9876 93.6845 18.7861 93.1326 19.385C92.8508 19.6786 92.5337 19.9134 92.1814 20.0778C91.8174 20.254 91.4181 20.3362 91.0189 20.3362ZM103.295 20.2188H97.7996C97.7291 20.2188 97.6704 20.16 97.6704 20.0896V19.3498C97.6939 18.7039 97.9757 18.1637 98.5629 17.6822C99.0561 17.2712 99.7959 16.8954 100.888 16.4844C101.792 16.1556 102.391 15.7446 102.732 15.2279C103.037 14.7699 103.084 14.3002 103.084 13.8892C103.084 13.2316 102.849 12.6679 102.426 12.2452C101.957 11.7872 101.276 11.5406 100.512 11.5641C100.172 11.5641 99.8312 11.6345 99.5141 11.7637C99.2088 11.8929 98.9269 12.069 98.6921 12.2921C98.1871 12.7619 97.9053 13.3843 97.9053 14.0419V14.9696C97.9053 15.04 97.8466 15.0987 97.7761 15.0987C97.7056 15.0987 97.6469 15.04 97.6469 14.9696V14.0419C97.6469 13.3021 97.9523 12.621 98.5042 12.1043C98.7743 11.8576 99.0796 11.658 99.4201 11.5288C99.7724 11.3879 100.136 11.3057 100.512 11.294C101.346 11.2822 102.086 11.5523 102.603 12.0573C103.084 12.527 103.342 13.1611 103.342 13.8892C103.342 14.3354 103.295 14.8521 102.955 15.3806C102.579 15.9325 101.933 16.3787 100.97 16.731C99.9134 17.1303 99.2088 17.4943 98.7273 17.8819C98.1989 18.3164 97.9405 18.7861 97.9405 19.3498V19.9604H103.295C103.366 19.9604 103.425 20.0191 103.425 20.0896C103.425 20.16 103.366 20.2188 103.295 20.2188ZM112.523 20.2188H107.074C107.004 20.2188 106.945 20.16 106.945 20.0896C106.945 20.0191 107.004 19.9604 107.074 19.9604H109.658V11.7989L107.215 13.76C107.156 13.807 107.074 13.7953 107.027 13.7365C106.98 13.6896 106.992 13.6074 107.051 13.5604L109.705 11.4232C109.752 11.3879 109.799 11.3879 109.846 11.4114C109.893 11.4232 109.916 11.4701 109.916 11.5288V19.9604H112.523C112.594 19.9604 112.652 20.0191 112.652 20.0896C112.652 20.16 112.594 20.2188 112.523 20.2188ZM121.318 12.1747C121.388 12.2452 121.447 12.3039 121.506 12.3861C121.518 12.3861 121.529 12.3978 121.529 12.4096C121.976 12.938 122.21 13.6074 122.21 14.3002V17.3182C122.21 18.1285 121.893 18.88 121.318 19.4554C120.754 20.0191 119.991 20.3362 119.192 20.3362C118.382 20.3362 117.631 20.0191 117.055 19.4554C116.492 18.88 116.174 18.1285 116.174 17.3182V14.3002C116.174 13.5017 116.492 12.7384 117.055 12.1747C117.631 11.5993 118.382 11.294 119.192 11.294C119.991 11.294 120.754 11.5993 121.318 12.1747ZM117.243 12.3626C116.726 12.8793 116.433 13.5721 116.433 14.3002V17.3182C116.433 17.9993 116.679 18.6334 117.126 19.1384L121.259 12.4918C121.224 12.4448 121.177 12.3978 121.142 12.3626C120.613 11.8342 119.921 11.5523 119.192 11.5523C118.453 11.5523 117.76 11.8342 117.243 12.3626ZM121.94 14.3002C121.94 13.7248 121.764 13.1611 121.424 12.7032L117.314 19.338C117.818 19.8077 118.488 20.0778 119.192 20.0778C119.921 20.0778 120.613 19.7843 121.142 19.2676C121.658 18.7509 121.94 18.058 121.94 17.3182V14.3002Z" fill="white"/>
<path d="M89.8798 20.1131L89.6981 20.5462L89.8798 20.1131ZM88.9168 19.4672L88.5777 19.7922L88.5846 19.7994L88.5918 19.8063L88.9168 19.4672ZM88.271 18.5043L88.7041 18.3226L88.7041 18.3226L88.271 18.5043ZM88.5176 18.3986L88.0858 18.5836L88.0858 18.5836L88.5176 18.3986ZM89.1047 19.2793L89.4369 18.9472L89.4369 18.9472L89.1047 19.2793ZM89.9855 19.8665L90.1705 19.4347L90.1705 19.4347L89.9855 19.8665ZM92.933 19.1971L92.5935 18.8723L92.5867 18.8797L92.933 19.1971ZM93.0269 15.2749L92.6833 15.5951L92.6866 15.5986L93.0269 15.2749ZM91.0189 14.4881L91.0054 14.9578H91.0189V14.4881ZM88.6937 15.087L88.457 14.6813L88.4336 14.6949L88.4119 14.7112L88.6937 15.087ZM88.5645 15.0987L88.8251 14.7079L88.8008 14.6917L88.7746 14.6786L88.5645 15.0987ZM88.7524 11.6698V11.2H88.2827V11.6698H88.7524ZM88.7524 14.7582H88.2827V15.5296L88.9681 15.1755L88.7524 14.7582ZM91.0189 14.2298L91.0048 14.6995H91.0189V14.2298ZM93.2266 15.0987L93.57 14.7782L93.569 14.7773L93.2266 15.0987ZM93.1326 19.385L93.4715 19.7104L93.478 19.7033L93.1326 19.385ZM92.1814 20.0778L91.9828 19.6521L91.9768 19.655L92.1814 20.0778ZM91.0189 19.8665C90.6881 19.8665 90.363 19.8064 90.0614 19.6799L89.6981 20.5462C90.1246 20.7251 90.5745 20.8059 91.0189 20.8059V19.8665ZM90.0614 19.6799C89.7594 19.5532 89.4897 19.3655 89.2418 19.1281L88.5918 19.8063C88.9077 20.109 89.272 20.3676 89.6981 20.5462L90.0614 19.6799ZM89.256 19.1422C89.0185 18.8944 88.8308 18.6246 88.7041 18.3226L87.8378 18.6859C88.0165 19.112 88.275 19.4763 88.5777 19.7922L89.256 19.1422ZM88.7041 18.3226C88.5777 18.021 88.5176 17.6959 88.5176 17.3652H87.5781C87.5781 17.8095 87.6589 18.2594 87.8378 18.6859L88.7041 18.3226ZM88.5176 17.3652C88.5176 17.5541 88.366 17.7057 88.177 17.7057V16.7663C87.8471 16.7663 87.5781 17.0353 87.5781 17.3652H88.5176ZM88.177 17.7057C87.9881 17.7057 87.8365 17.5541 87.8365 17.3652H88.7759C88.7759 17.0353 88.5069 16.7663 88.177 16.7663V17.7057ZM87.8365 17.3652C87.8365 17.7799 87.9194 18.1953 88.0858 18.5836L88.9493 18.2135C88.8339 17.9442 88.7759 17.655 88.7759 17.3652H87.8365ZM88.0858 18.5836C88.2472 18.9602 88.4668 19.3057 88.7726 19.6114L89.4369 18.9472C89.2259 18.7362 89.0697 18.4945 88.9493 18.2135L88.0858 18.5836ZM88.7726 19.6114C89.0783 19.9172 89.4238 20.1368 89.8004 20.2982L90.1705 19.4347C89.8895 19.3143 89.6478 19.1581 89.4369 18.9472L88.7726 19.6114ZM89.8004 20.2982C90.1888 20.4646 90.6041 20.5476 91.0189 20.5476V19.6081C90.729 19.6081 90.4398 19.5501 90.1705 19.4347L89.8004 20.2982ZM91.0189 20.5476C91.8789 20.5476 92.6821 20.166 93.2792 19.5145L92.5867 18.8797C92.1505 19.3556 91.5915 19.6081 91.0189 19.6081V20.5476ZM93.2724 19.5218C93.8746 18.8922 94.2012 18.0471 94.2012 17.2008H93.2618C93.2618 17.8106 93.0247 18.4216 92.5935 18.8724L93.2724 19.5218ZM94.2012 17.2008C94.2012 16.3382 93.9219 15.5342 93.3673 14.9512L92.6866 15.5986C93.0479 15.9785 93.2618 16.5367 93.2618 17.2008H94.2012ZM93.3706 14.9547C92.7836 14.3248 91.9564 14.0184 91.0189 14.0184V14.9578C91.7489 14.9578 92.3073 15.1916 92.6833 15.5951L93.3706 14.9547ZM91.0323 14.0186C90.12 13.9925 89.2351 14.2274 88.457 14.6813L88.9304 15.4927C89.5615 15.1246 90.2737 14.9367 91.0054 14.9576L91.0323 14.0186ZM88.4119 14.7112C88.4488 14.6835 88.5105 14.6517 88.5935 14.6462C88.6783 14.6406 88.7597 14.6643 88.8251 14.7079L88.304 15.4896C88.529 15.6396 88.7937 15.5992 88.9756 15.4628L88.4119 14.7112ZM88.7746 14.6786C88.9088 14.7457 88.9638 14.8764 88.9638 14.9813H88.0244C88.0244 15.1802 88.1263 15.4048 88.3545 15.5189L88.7746 14.6786ZM88.9638 14.9813V11.5406H88.0244V14.9813H88.9638ZM88.9638 11.5406C88.9638 11.7295 88.8122 11.8811 88.6233 11.8811V10.9417C88.2934 10.9417 88.0244 11.2107 88.0244 11.5406H88.9638ZM88.6233 11.8811H93.344V10.9417H88.6233V11.8811ZM93.344 11.8811C93.155 11.8811 93.0034 11.7295 93.0034 11.5406H93.9429C93.9429 11.2107 93.6739 10.9417 93.344 10.9417V11.8811ZM93.0034 11.5406C93.0034 11.3516 93.155 11.2 93.344 11.2V12.1395C93.6739 12.1395 93.9429 11.8705 93.9429 11.5406H93.0034ZM93.344 11.2H88.7524V12.1395H93.344V11.2ZM88.2827 11.6698V14.7582H89.2222V11.6698H88.2827ZM88.9681 15.1755C89.6063 14.8457 90.3027 14.6783 91.0048 14.6993L91.0329 13.7602C90.1614 13.7342 89.3077 13.9426 88.5368 14.3409L88.9681 15.1755ZM91.0189 14.6995C91.8186 14.6995 92.4486 14.9563 92.8841 15.4202L93.569 14.7773C92.9242 14.0903 92.0276 13.76 91.0189 13.76V14.6995ZM92.8832 15.4193C93.2859 15.8508 93.5319 16.4834 93.5319 17.2008H94.4713C94.4713 16.2741 94.1536 15.4036 93.57 14.7782L92.8832 15.4193ZM93.5319 17.2008C93.5319 17.8655 93.262 18.5514 92.7872 19.0667L93.478 19.7033C94.1071 19.0207 94.4713 18.1096 94.4713 17.2008H93.5319ZM92.7938 19.0597C92.5474 19.3163 92.2768 19.515 91.9828 19.6522L92.3801 20.5035C92.7907 20.3119 93.1542 20.0408 93.4715 19.7103L92.7938 19.0597ZM91.9768 19.655C91.6826 19.7974 91.3543 19.8665 91.0189 19.8665V20.8059C91.482 20.8059 91.9522 20.7106 92.386 20.5007L91.9768 19.655ZM97.6704 19.3498L97.201 19.3327L97.2007 19.3412V19.3498H97.6704ZM98.5629 17.6822L98.8607 18.0455L98.8636 18.0431L98.5629 17.6822ZM100.888 16.4844L100.727 16.043L100.723 16.0448L100.888 16.4844ZM102.732 15.2279L102.341 14.9674L102.34 14.9694L102.732 15.2279ZM102.426 12.2452L102.759 11.913L102.754 11.9088L102.426 12.2452ZM100.512 11.5641V12.0338H100.519L100.527 12.0336L100.512 11.5641ZM99.5141 11.7637L99.3368 11.3287L99.3311 11.3311L99.5141 11.7637ZM98.6921 12.2921L99.012 12.6361L99.0156 12.6327L98.6921 12.2921ZM98.5042 12.1043L98.1874 11.7573L98.1832 11.7613L98.5042 12.1043ZM99.4201 11.5288L99.5868 11.9681L99.5946 11.965L99.4201 11.5288ZM100.512 11.294L100.506 10.8242L100.498 10.8245L100.512 11.294ZM102.603 12.0573L102.274 12.3932L102.275 12.3935L102.603 12.0573ZM102.955 15.3806L103.343 15.645L103.35 15.635L102.955 15.3806ZM100.97 16.731L100.809 16.2899L100.804 16.2916L100.97 16.731ZM98.7273 17.8819L98.4328 17.5159L98.429 17.519L98.7273 17.8819ZM97.9405 19.9604H97.4708V20.4301H97.9405V19.9604ZM103.295 19.749H97.7996V20.6885H103.295V19.749ZM97.7996 19.749C97.9886 19.749 98.1401 19.9006 98.1401 20.0896H97.2007C97.2007 20.4195 97.4697 20.6885 97.7996 20.6885V19.749ZM98.1401 20.0896V19.3498H97.2007V20.0896H98.1401ZM98.1398 19.3668C98.1577 18.8747 98.362 18.4544 98.8607 18.0455L98.2651 17.319C97.5894 17.873 97.2301 18.5331 97.201 19.3327L98.1398 19.3668ZM98.8636 18.0431C99.2947 17.6839 99.9741 17.3303 101.053 16.9241L100.723 16.0448C99.6178 16.4606 98.8176 16.8586 98.2622 17.3214L98.8636 18.0431ZM101.049 16.9259C102 16.5798 102.705 16.1216 103.124 15.4864L102.34 14.9694C102.077 15.3676 101.584 15.7314 100.728 16.043L101.049 16.9259ZM103.123 15.4885C103.504 14.9169 103.554 14.3365 103.554 13.8892H102.614C102.614 14.264 102.57 14.623 102.341 14.9674L103.123 15.4885ZM103.554 13.8892C103.554 13.1129 103.273 12.4279 102.759 11.913L102.094 12.5773C102.425 12.9079 102.614 13.3503 102.614 13.8892H103.554ZM102.754 11.9088C102.18 11.3491 101.369 11.0678 100.498 11.0946L100.527 12.0336C101.182 12.0134 101.733 12.2253 102.098 12.5815L102.754 11.9088ZM100.512 11.0943C100.107 11.0943 99.7068 11.178 99.3369 11.3287L99.6913 12.1987C99.9555 12.0911 100.236 12.0338 100.512 12.0338V11.0943ZM99.3311 11.3311C98.981 11.4792 98.6496 11.6846 98.3685 11.9516L99.0156 12.6327C99.2042 12.4535 99.4366 12.3065 99.6971 12.1963L99.3311 11.3311ZM98.3721 11.9482C97.778 12.5009 97.4356 13.2454 97.4356 14.0419H98.375C98.375 13.5231 98.5962 13.0228 99.012 12.6361L98.3721 11.9482ZM97.4356 14.0419V14.9696H98.375V14.0419H97.4356ZM97.4356 14.9696C97.4356 14.7806 97.5871 14.629 97.7761 14.629V15.5685C98.106 15.5685 98.375 15.2995 98.375 14.9696H97.4356ZM97.7761 14.629C97.9651 14.629 98.1167 14.7806 98.1167 14.9696H97.1772C97.1772 15.2995 97.4462 15.5685 97.7761 15.5685V14.629ZM98.1167 14.9696V14.0419H97.1772V14.9696H98.1167ZM98.1167 14.0419C98.1167 13.4378 98.3638 12.8791 98.8252 12.4472L98.1832 11.7613C97.5407 12.3628 97.1772 13.1663 97.1772 14.0419H98.1167ZM98.8209 12.4511C99.0542 12.2382 99.3098 12.0731 99.5867 11.968L99.2536 11.0896C98.8494 11.2429 98.4944 11.4771 98.1875 11.7574L98.8209 12.4511ZM99.5946 11.965C99.9011 11.8424 100.211 11.7733 100.527 11.7635L100.498 10.8245C100.062 10.8381 99.6437 10.9335 99.2457 11.0927L99.5946 11.965ZM100.519 11.7637C101.249 11.7534 101.861 11.9893 102.274 12.3932L102.931 11.7213C102.311 11.1154 101.443 10.8111 100.506 10.8243L100.519 11.7637ZM102.275 12.3935C102.659 12.7682 102.873 13.2779 102.873 13.8892H103.812C103.812 13.0444 103.509 12.2858 102.931 11.7211L102.275 12.3935ZM102.873 13.8892C102.873 14.2988 102.829 14.7087 102.56 15.1261L103.35 15.635C103.762 14.9956 103.812 14.3721 103.812 13.8892H102.873ZM102.567 15.1162C102.267 15.5562 101.722 15.9558 100.809 16.2899L101.132 17.1722C102.144 16.8017 102.891 16.3088 103.343 15.6449L102.567 15.1162ZM100.804 16.2916C99.7311 16.697 98.9719 17.082 98.4328 17.5159L99.0218 18.2478C99.4456 17.9067 100.096 17.5636 101.136 17.1705L100.804 16.2916ZM98.429 17.519C97.8222 18.018 97.4708 18.6108 97.4708 19.3498H98.4102C98.4102 18.9614 98.5756 18.6147 99.0256 18.2447L98.429 17.519ZM97.4708 19.3498V19.9604H98.4102V19.3498H97.4708ZM97.9405 20.4301H103.295V19.4907H97.9405V20.4301ZM103.295 20.4301C103.106 20.4301 102.955 20.2785 102.955 20.0896H103.894C103.894 19.7597 103.625 19.4907 103.295 19.4907V20.4301ZM102.955 20.0896C102.955 19.9006 103.106 19.749 103.295 19.749V20.6885C103.625 20.6885 103.894 20.4195 103.894 20.0896H102.955ZM109.658 19.9604V20.4301H110.127V19.9604H109.658ZM109.658 11.7989H110.127V10.8194L109.364 11.4327L109.658 11.7989ZM107.215 13.76L107.509 14.1268L107.509 14.1263L107.215 13.76ZM107.027 13.7365L107.394 13.4431L107.378 13.4228L107.359 13.4044L107.027 13.7365ZM107.051 13.5604L107.344 13.9272L107.345 13.9262L107.051 13.5604ZM109.705 11.4232L109.423 11.0474L109.416 11.0522L109.41 11.0573L109.705 11.4232ZM109.846 11.4114L109.636 11.8315L109.682 11.8546L109.732 11.8671L109.846 11.4114ZM109.916 19.9604H109.446V20.4301H109.916V19.9604ZM112.523 19.749H107.074V20.6885H112.523V19.749ZM107.074 19.749C107.263 19.749 107.415 19.9006 107.415 20.0896H106.475C106.475 20.4195 106.744 20.6885 107.074 20.6885V19.749ZM107.415 20.0896C107.415 20.2785 107.263 20.4301 107.074 20.4301V19.4907C106.744 19.4907 106.475 19.7597 106.475 20.0896H107.415ZM107.074 20.4301H109.658V19.4907H107.074V20.4301ZM110.127 19.9604V11.7989H109.188V19.9604H110.127ZM109.364 11.4327L106.921 13.3938L107.509 14.1263L109.952 12.1652L109.364 11.4327ZM106.922 13.3932C107.079 13.2677 107.29 13.3126 107.394 13.4431L106.661 14.03C106.859 14.278 107.234 14.3463 107.509 14.1268L106.922 13.3932ZM107.359 13.4044C107.454 13.4986 107.477 13.6195 107.465 13.7119C107.453 13.8022 107.407 13.8774 107.344 13.9272L106.757 13.1936C106.541 13.3668 106.399 13.7725 106.695 14.0687L107.359 13.4044ZM107.345 13.9262L109.999 11.789L109.41 11.0573L106.756 13.1946L107.345 13.9262ZM109.987 11.7989C109.947 11.8284 109.885 11.8591 109.804 11.8641C109.727 11.8689 109.668 11.8478 109.636 11.8315L110.056 10.9913C109.976 10.9515 109.87 10.9187 109.746 10.9265C109.619 10.9344 109.509 10.9827 109.423 11.0474L109.987 11.7989ZM109.732 11.8671C109.617 11.8385 109.535 11.7633 109.491 11.6856C109.451 11.6168 109.446 11.5572 109.446 11.5288H110.386C110.386 11.3789 110.316 11.0448 109.96 10.9557L109.732 11.8671ZM109.446 11.5288V19.9604H110.386V11.5288H109.446ZM109.916 20.4301H112.523V19.4907H109.916V20.4301ZM112.523 20.4301C112.334 20.4301 112.183 20.2785 112.183 20.0896H113.122C113.122 19.7597 112.853 19.4907 112.523 19.4907V20.4301ZM112.183 20.0896C112.183 19.9006 112.334 19.749 112.523 19.749V20.6885C112.853 20.6885 113.122 20.4195 113.122 20.0896H112.183ZM121.318 12.1747L120.982 12.5034L120.986 12.5069L121.318 12.1747ZM121.506 12.3861L121.124 12.6591L121.264 12.8558H121.506V12.3861ZM121.529 12.4096H121.06V12.5814L121.17 12.7126L121.529 12.4096ZM121.318 19.4554L121.65 19.7876L121.65 19.7876L121.318 19.4554ZM117.055 19.4554L116.72 19.7842L116.726 19.791L117.055 19.4554ZM117.055 12.1747L116.723 11.8426L116.723 11.8426L117.055 12.1747ZM117.243 12.3626L117.575 12.6948L117.579 12.691L117.243 12.3626ZM117.126 19.1384L116.774 19.4494L117.191 19.9221L117.525 19.3864L117.126 19.1384ZM121.259 12.4918L121.658 12.7398L121.828 12.467L121.635 12.2099L121.259 12.4918ZM121.142 12.3626L121.474 12.0305L121.474 12.0305L121.142 12.3626ZM121.424 12.7032L121.801 12.4229L121.388 11.8683L121.024 12.4558L121.424 12.7032ZM117.314 19.338L116.914 19.0907L116.711 19.4189L116.994 19.6819L117.314 19.338ZM121.142 19.2676L121.47 19.6034L121.474 19.5997L121.142 19.2676ZM120.986 12.5069C121.058 12.5792 121.09 12.6127 121.124 12.6591L121.888 12.1131C121.804 11.9951 121.719 11.9111 121.65 11.8426L120.986 12.5069ZM121.506 12.8558C121.359 12.8558 121.251 12.7871 121.19 12.7256C121.128 12.6641 121.06 12.5565 121.06 12.4096H121.999C121.999 12.2509 121.924 12.1316 121.854 12.0613C121.784 11.991 121.664 11.9164 121.506 11.9164V12.8558ZM121.17 12.7126C121.542 13.1528 121.741 13.7136 121.741 14.3002H122.68C122.68 13.5012 122.409 12.7233 121.888 12.1065L121.17 12.7126ZM121.741 14.3002V17.3182H122.68V14.3002H121.741ZM121.741 17.3182C121.741 18.0013 121.475 18.6341 120.986 19.1233L121.65 19.7876C122.312 19.1259 122.68 18.2556 122.68 17.3182H121.741ZM120.986 19.1233C120.51 19.5991 119.866 19.8665 119.192 19.8665V20.8059C120.116 20.8059 120.999 20.4392 121.65 19.7876L120.986 19.1233ZM119.192 19.8665C118.509 19.8665 117.874 19.6002 117.384 19.1199L116.726 19.791C117.387 20.438 118.256 20.8059 119.192 20.8059V19.8665ZM117.391 19.1267C116.91 18.6364 116.644 18.0019 116.644 17.3182H115.705C115.705 18.2551 116.073 19.1236 116.72 19.7842L117.391 19.1267ZM116.644 17.3182V14.3002H115.705V17.3182H116.644ZM116.644 14.3002C116.644 13.6265 116.912 12.9826 117.387 12.5069L116.723 11.8426C116.071 12.4942 115.705 13.3769 115.705 14.3002H116.644ZM117.387 12.5069C117.873 12.021 118.505 11.7637 119.192 11.7637V10.8243C118.26 10.8243 117.388 11.1776 116.723 11.8426L117.387 12.5069ZM119.192 11.7637C119.87 11.7637 120.511 12.0222 120.982 12.5034L121.653 11.846C120.998 11.1764 120.112 10.8243 119.192 10.8243V11.7637ZM116.911 12.0305C116.308 12.633 115.963 13.4444 115.963 14.3002H116.903C116.903 13.6998 117.144 13.1256 117.575 12.6947L116.911 12.0305ZM115.963 14.3002V17.3182H116.903V14.3002H115.963ZM115.963 17.3182C115.963 18.1163 116.253 18.8605 116.774 19.4494L117.478 18.8273C117.106 18.4064 116.903 17.8823 116.903 17.3182H115.963ZM117.525 19.3864L121.658 12.7398L120.86 12.2437L116.727 18.8903L117.525 19.3864ZM121.635 12.2099C121.576 12.1316 121.505 12.0611 121.474 12.0305L120.81 12.6947C120.828 12.713 120.843 12.728 120.857 12.7433C120.872 12.7588 120.88 12.7687 120.883 12.7736L121.635 12.2099ZM121.474 12.0305C120.857 11.4136 120.045 11.0826 119.192 11.0826V12.0221C119.796 12.0221 120.37 12.2548 120.81 12.6947L121.474 12.0305ZM119.192 11.0826C118.331 11.0826 117.515 11.4123 116.907 12.0342L117.579 12.691C118.004 12.256 118.575 12.0221 119.192 12.0221V11.0826ZM122.41 14.3002C122.41 13.6301 122.205 12.9668 121.801 12.4229L121.047 12.9834C121.323 13.3555 121.471 13.8195 121.471 14.3002H122.41ZM121.024 12.4558L116.914 19.0907L117.713 19.5854L121.823 12.9505L121.024 12.4558ZM116.994 19.6819C117.584 20.2313 118.367 20.5476 119.192 20.5476V19.6081C118.608 19.6081 118.053 19.3842 117.633 18.9941L116.994 19.6819ZM119.192 20.5476C120.049 20.5476 120.858 20.2018 121.47 19.6034L120.813 18.9317C120.369 19.3667 119.792 19.6081 119.192 19.6081V20.5476ZM121.474 19.5997C122.081 18.9927 122.41 18.1795 122.41 17.3182H121.471C121.471 17.9365 121.236 18.509 120.81 18.9354L121.474 19.5997ZM122.41 17.3182V14.3002H121.471V17.3182H122.41Z" fill="white"/>
</svg>
