<svg width="143" height="31" viewBox="0 0 143 31" fill="none" xmlns="http://www.w3.org/2000/svg">
<path d="M0 15.3716C0 6.88208 6.88208 0 15.3716 0H126.647C135.136 0 142.018 6.88208 142.018 15.3716V15.3716C142.018 23.861 135.136 30.7431 126.647 30.7431H15.3715C6.88206 30.7431 0 23.861 0 15.3716V15.3716Z" fill="#004437"/>
<path d="M19.8802 20.3362C19.4927 20.3362 19.1051 20.2657 18.7411 20.1131C18.3771 19.9604 18.06 19.7373 17.7782 19.4672C17.5081 19.1854 17.285 18.8683 17.1323 18.5043C16.9796 18.1402 16.9092 17.7527 16.9092 17.3652C16.9092 17.2947 16.9679 17.236 17.0384 17.236C17.1088 17.236 17.1675 17.2947 17.1675 17.3652C17.1675 17.7175 17.238 18.0698 17.3789 18.3986C17.5198 18.7274 17.7077 19.021 17.9661 19.2793C18.2244 19.5376 18.518 19.7255 18.8468 19.8665C19.1756 20.0074 19.5279 20.0778 19.8802 20.0778C20.5965 20.0778 21.2776 19.7608 21.7943 19.1971C22.311 18.6569 22.5928 17.9288 22.5928 17.2008C22.5928 16.4375 22.3462 15.7564 21.8883 15.2749C21.4068 14.7582 20.7139 14.4881 19.8802 14.4881C19.0582 14.4646 18.2596 14.676 17.555 15.087C17.5081 15.1222 17.4611 15.1222 17.4259 15.0987C17.3789 15.0753 17.3554 15.0283 17.3554 14.9813V11.5406C17.3554 11.4701 17.4141 11.4114 17.4846 11.4114H22.2053C22.2758 11.4114 22.3345 11.4701 22.3345 11.5406C22.3345 11.611 22.2758 11.6698 22.2053 11.6698H17.6138V14.7582C18.3184 14.3942 19.0934 14.2063 19.8802 14.2298C20.7844 14.2298 21.5477 14.5233 22.0879 15.0987C22.5811 15.6272 22.8629 16.3787 22.8629 17.2008C22.8629 17.9876 22.5459 18.7861 21.9939 19.385C21.7121 19.6786 21.3951 19.9134 21.0428 20.0778C20.6787 20.254 20.2795 20.3362 19.8802 20.3362ZM33.0374 16.7898C33.1079 16.7898 33.1666 16.8485 33.1666 16.9189C33.1666 16.9894 33.1079 17.0481 33.0374 17.0481H31.0998V20.0896C31.0998 20.16 31.0411 20.2188 30.9706 20.2188C30.9002 20.2188 30.8415 20.16 30.8415 20.0896V17.0481H26.6374C26.5905 17.0481 26.5435 17.0246 26.52 16.9776C26.4965 16.9307 26.5083 16.8837 26.5317 16.8367L30.865 11.3175C30.9002 11.2705 30.9589 11.2587 31.0059 11.2705C31.0646 11.294 31.0998 11.341 31.0998 11.3997V16.7898H33.0374ZM26.9075 16.7898H30.8415V11.7754L26.9075 16.7898ZM39.6605 20.3362C38.8972 20.3362 38.1573 20.0426 37.6054 19.5142C37.0535 18.974 36.7247 18.2576 36.6895 17.4943C36.6895 17.4239 36.7364 17.3652 36.8186 17.3534C36.8891 17.3534 36.9478 17.4121 36.9478 17.4826C36.983 18.1872 37.2766 18.8331 37.7816 19.3263C38.2983 19.8077 38.9559 20.0778 39.6605 20.0778C40.3651 20.0778 41.0344 19.8077 41.5394 19.3263C42.0443 18.8331 42.3379 18.1872 42.3731 17.4826C42.3731 16.7428 42.0913 16.0617 41.5746 15.5567C41.3045 15.3101 40.9992 15.1105 40.6351 14.9696C40.2594 14.8287 39.8484 14.7582 39.4139 14.7582C39.3551 14.7582 39.3082 14.723 39.2964 14.676C39.2729 14.629 39.2729 14.5821 39.3082 14.5351L41.786 11.6815H37.2766C37.2062 11.6815 37.1474 11.6228 37.1474 11.5406C37.1474 11.4701 37.2062 11.4114 37.2766 11.4114H42.0678C42.1265 11.4114 42.1735 11.4466 42.197 11.4936C42.2087 11.5406 42.2087 11.5876 42.1735 11.6345L39.684 14.4999C40.0597 14.5233 40.412 14.6055 40.7291 14.7347C41.1166 14.8756 41.4689 15.0987 41.7507 15.3688C42.3144 15.9208 42.6315 16.6723 42.6315 17.4943C42.5962 18.2576 42.2792 18.974 41.7155 19.5142C41.1636 20.0426 40.4355 20.3362 39.6605 20.3362Z" fill="white"/>
<path d="M18.7411 20.1131L18.5594 20.5462L18.7411 20.1131ZM17.7782 19.4672L17.439 19.7922L17.4459 19.7994L17.4532 19.8063L17.7782 19.4672ZM17.1323 18.5043L17.5655 18.3226L17.5655 18.3226L17.1323 18.5043ZM17.3789 18.3986L16.9472 18.5836L16.9472 18.5836L17.3789 18.3986ZM17.9661 19.2793L18.2982 18.9472L18.2982 18.9472L17.9661 19.2793ZM18.8468 19.8665L19.0318 19.4347L19.0318 19.4347L18.8468 19.8665ZM21.7943 19.1971L21.4548 18.8723L21.4481 18.8797L21.7943 19.1971ZM21.8883 15.2749L21.5446 15.5951L21.5479 15.5986L21.8883 15.2749ZM19.8802 14.4881L19.8668 14.9578H19.8802V14.4881ZM17.555 15.087L17.3184 14.6813L17.2949 14.6949L17.2732 14.7112L17.555 15.087ZM17.4259 15.0987L17.6864 14.7079L17.6621 14.6917L17.6359 14.6786L17.4259 15.0987ZM17.6138 11.6698V11.2H17.144V11.6698H17.6138ZM17.6138 14.7582H17.144V15.5296L17.8294 15.1755L17.6138 14.7582ZM19.8802 14.2298L19.8662 14.6995H19.8802V14.2298ZM22.0879 15.0987L22.4313 14.7782L22.4304 14.7773L22.0879 15.0987ZM21.9939 19.385L22.3329 19.7104L22.3394 19.7033L21.9939 19.385ZM21.0428 20.0778L20.8441 19.6521L20.8382 19.655L21.0428 20.0778ZM19.8802 19.8665C19.5495 19.8665 19.2243 19.8064 18.9228 19.6799L18.5594 20.5462C18.9859 20.7251 19.4359 20.8059 19.8802 20.8059V19.8665ZM18.9228 19.6799C18.6208 19.5532 18.351 19.3655 18.1032 19.1281L17.4532 19.8063C17.769 20.109 18.1334 20.3676 18.5594 20.5462L18.9228 19.6799ZM18.1173 19.1422C17.8798 18.8944 17.6921 18.6246 17.5655 18.3226L16.6991 18.6859C16.8778 19.112 17.1363 19.4763 17.439 19.7922L18.1173 19.1422ZM17.5655 18.3226C17.439 18.021 17.3789 17.6959 17.3789 17.3652H16.4395C16.4395 17.8095 16.5203 18.2594 16.6991 18.6859L17.5655 18.3226ZM17.3789 17.3652C17.3789 17.5541 17.2273 17.7057 17.0384 17.7057V16.7663C16.7085 16.7663 16.4395 17.0353 16.4395 17.3652H17.3789ZM17.0384 17.7057C16.8494 17.7057 16.6978 17.5541 16.6978 17.3652H17.6373C17.6373 17.0353 17.3682 16.7663 17.0384 16.7663V17.7057ZM16.6978 17.3652C16.6978 17.7799 16.7807 18.1953 16.9472 18.5836L17.8106 18.2135C17.6952 17.9442 17.6373 17.655 17.6373 17.3652H16.6978ZM16.9472 18.5836C17.1086 18.9602 17.3282 19.3057 17.6339 19.6114L18.2982 18.9472C18.0873 18.7362 17.9311 18.4945 17.8106 18.2135L16.9472 18.5836ZM17.6339 19.6114C17.9397 19.9172 18.2851 20.1368 18.6618 20.2982L19.0318 19.4347C18.7508 19.3143 18.5092 19.1581 18.2982 18.9472L17.6339 19.6114ZM18.6618 20.2982C19.0501 20.4646 19.4654 20.5476 19.8802 20.5476V19.6081C19.5904 19.6081 19.3011 19.5501 19.0318 19.4347L18.6618 20.2982ZM19.8802 20.5476C20.7402 20.5476 21.5434 20.166 22.1406 19.5145L21.4481 18.8797C21.0118 19.3556 20.4528 19.6081 19.8802 19.6081V20.5476ZM22.1338 19.5218C22.736 18.8922 23.0626 18.0471 23.0626 17.2008H22.1231C22.1231 17.8106 21.8861 18.4216 21.4549 18.8724L22.1338 19.5218ZM23.0626 17.2008C23.0626 16.3382 22.7832 15.5342 22.2286 14.9512L21.5479 15.5986C21.9093 15.9785 22.1231 16.5367 22.1231 17.2008H23.0626ZM22.2319 14.9547C21.645 14.3248 20.8177 14.0184 19.8802 14.0184V14.9578C20.6102 14.9578 21.1686 15.1916 21.5446 15.5951L22.2319 14.9547ZM19.8936 14.0186C18.9813 13.9925 18.0964 14.2274 17.3184 14.6813L17.7917 15.4927C18.4228 15.1246 19.1351 14.9367 19.8668 14.9576L19.8936 14.0186ZM17.2732 14.7112C17.3102 14.6835 17.3718 14.6517 17.4548 14.6462C17.5396 14.6406 17.6211 14.6643 17.6864 14.7079L17.1653 15.4896C17.3903 15.6396 17.6551 15.5992 17.8369 15.4628L17.2732 14.7112ZM17.6359 14.6786C17.7701 14.7457 17.8251 14.8764 17.8251 14.9813H16.8857C16.8857 15.1802 16.9877 15.4048 17.2158 15.5189L17.6359 14.6786ZM17.8251 14.9813V11.5406H16.8857V14.9813H17.8251ZM17.8251 11.5406C17.8251 11.7295 17.6736 11.8811 17.4846 11.8811V10.9417C17.1547 10.9417 16.8857 11.2107 16.8857 11.5406H17.8251ZM17.4846 11.8811H22.2053V10.9417H17.4846V11.8811ZM22.2053 11.8811C22.0164 11.8811 21.8648 11.7295 21.8648 11.5406H22.8042C22.8042 11.2107 22.5352 10.9417 22.2053 10.9417V11.8811ZM21.8648 11.5406C21.8648 11.3516 22.0164 11.2 22.2053 11.2V12.1395C22.5352 12.1395 22.8042 11.8705 22.8042 11.5406H21.8648ZM22.2053 11.2H17.6138V12.1395H22.2053V11.2ZM17.144 11.6698V14.7582H18.0835V11.6698H17.144ZM17.8294 15.1755C18.4676 14.8457 19.1641 14.6783 19.8662 14.6993L19.8942 13.7602C19.0227 13.7342 18.1691 13.9426 17.3982 14.3409L17.8294 15.1755ZM19.8802 14.6995C20.6799 14.6995 21.3099 14.9563 21.7454 15.4202L22.4304 14.7773C21.7855 14.0903 20.8889 13.76 19.8802 13.76V14.6995ZM21.7445 15.4193C22.1472 15.8508 22.3932 16.4834 22.3932 17.2008H23.3327C23.3327 16.2741 23.015 15.4036 22.4313 14.7782L21.7445 15.4193ZM22.3932 17.2008C22.3932 17.8655 22.1234 18.5514 21.6485 19.0667L22.3394 19.7033C22.9684 19.0207 23.3327 18.1096 23.3327 17.2008H22.3932ZM21.6551 19.0597C21.4087 19.3163 21.1381 19.515 20.8441 19.6522L21.2414 20.5035C21.652 20.3119 22.0155 20.0408 22.3328 19.7103L21.6551 19.0597ZM20.8382 19.655C20.5439 19.7974 20.2156 19.8665 19.8802 19.8665V20.8059C20.3433 20.8059 20.8135 20.7106 21.2474 20.5007L20.8382 19.655ZM31.0998 17.0481V16.5784H30.6301V17.0481H31.0998ZM30.8415 17.0481H31.3112V16.5784H30.8415V17.0481ZM26.52 16.9776L26.9401 16.7676L26.9401 16.7676L26.52 16.9776ZM26.5317 16.8367L26.1623 16.5467L26.1329 16.5841L26.1116 16.6267L26.5317 16.8367ZM30.865 11.3175L31.2345 11.6076L31.2407 11.5993L30.865 11.3175ZM31.0059 11.2705L31.1803 10.8344L31.1507 10.8225L31.1198 10.8148L31.0059 11.2705ZM31.0998 16.7898H30.6301V17.2595H31.0998V16.7898ZM26.9075 16.7898L26.538 16.4998L25.942 17.2595H26.9075V16.7898ZM30.8415 16.7898V17.2595H31.3112V16.7898H30.8415ZM30.8415 11.7754H31.3112V10.4157L30.4719 11.4855L30.8415 11.7754ZM33.0374 17.2595C32.8485 17.2595 32.6969 17.1079 32.6969 16.9189H33.6363C33.6363 16.5891 33.3673 16.32 33.0374 16.32V17.2595ZM32.6969 16.9189C32.6969 16.73 32.8485 16.5784 33.0374 16.5784V17.5178C33.3673 17.5178 33.6363 17.2488 33.6363 16.9189H32.6969ZM33.0374 16.5784H31.0998V17.5178H33.0374V16.5784ZM30.6301 17.0481V20.0896H31.5695V17.0481H30.6301ZM30.6301 20.0896C30.6301 19.9006 30.7817 19.749 30.9706 19.749V20.6885C31.3005 20.6885 31.5695 20.4195 31.5695 20.0896H30.6301ZM30.9706 19.749C31.1596 19.749 31.3112 19.9006 31.3112 20.0896H30.3717C30.3717 20.4195 30.6408 20.6885 30.9706 20.6885V19.749ZM31.3112 20.0896V17.0481H30.3717V20.0896H31.3112ZM30.8415 16.5784H26.6374V17.5178H30.8415V16.5784ZM26.6374 16.5784C26.7423 16.5784 26.873 16.6334 26.9401 16.7676L26.0999 17.1877C26.2139 17.4159 26.4386 17.5178 26.6374 17.5178V16.5784ZM26.9401 16.7676C26.9741 16.8354 26.9817 16.9067 26.9744 16.9655C26.9681 17.0157 26.9523 17.046 26.9519 17.0468L26.1116 16.6267C26.0657 16.7185 25.9763 16.9405 26.0999 17.1877L26.9401 16.7676ZM26.9012 17.1268L31.2344 11.6075L30.4955 11.0274L26.1623 16.5467L26.9012 17.1268ZM31.2407 11.5993C31.1388 11.7353 30.9865 11.7498 30.892 11.7262L31.1198 10.8148C30.9313 10.7677 30.6616 10.8057 30.4892 11.0356L31.2407 11.5993ZM30.8314 11.7066C30.7906 11.6903 30.7387 11.6578 30.6961 11.5996C30.6519 11.5395 30.6301 11.4682 30.6301 11.3997H31.5695C31.5695 11.1212 31.3902 10.9183 31.1803 10.8344L30.8314 11.7066ZM30.6301 11.3997V16.7898H31.5695V11.3997H30.6301ZM31.0998 17.2595H33.0374V16.32H31.0998V17.2595ZM26.9075 17.2595H30.8415V16.32H26.9075V17.2595ZM31.3112 16.7898V11.7754H30.3717V16.7898H31.3112ZM30.4719 11.4855L26.538 16.4998L27.2771 17.0797L31.211 12.0654L30.4719 11.4855ZM37.6054 19.5142L37.2768 19.8499L37.2806 19.8534L37.6054 19.5142ZM36.6895 17.4943H36.2197V17.5052L36.2202 17.516L36.6895 17.4943ZM36.8186 17.3534V16.8837H36.7852L36.7522 16.8884L36.8186 17.3534ZM36.9478 17.4826H36.4781V17.4943L36.4787 17.5061L36.9478 17.4826ZM37.7816 19.3263L37.4533 19.6624L37.4613 19.6699L37.7816 19.3263ZM41.5394 19.3263L41.8635 19.6663L41.8676 19.6623L41.5394 19.3263ZM42.3731 17.4826L42.8423 17.5061L42.8429 17.4943V17.4826H42.3731ZM41.5746 15.5567L41.9029 15.2208L41.8972 15.2152L41.8913 15.2098L41.5746 15.5567ZM40.6351 14.9696L40.8047 14.5315L40.8001 14.5298L40.6351 14.9696ZM39.2964 14.676L39.7521 14.5621L39.7396 14.512L39.7166 14.4659L39.2964 14.676ZM39.3082 14.5351L38.9535 14.2271L38.9425 14.2398L38.9324 14.2532L39.3082 14.5351ZM41.786 11.6815L42.1406 11.9895L42.8159 11.2118H41.786V11.6815ZM42.197 11.4936L42.6527 11.3797L42.6402 11.3297L42.6171 11.2835L42.197 11.4936ZM42.1735 11.6345L42.5281 11.9426L42.5391 11.9299L42.5493 11.9164L42.1735 11.6345ZM39.684 14.4999L39.3294 14.1918L38.7059 14.9094L39.6546 14.9687L39.684 14.4999ZM40.7291 14.7347L40.5519 15.1697L40.5602 15.1731L40.5686 15.1762L40.7291 14.7347ZM41.7507 15.3688L42.0794 15.0332L42.0757 15.0297L41.7507 15.3688ZM42.6315 17.4943L43.1007 17.516L43.1012 17.5052V17.4943H42.6315ZM41.7155 19.5142L42.0404 19.8534L42.0405 19.8533L41.7155 19.5142ZM39.6605 19.8665C39.0168 19.8665 38.3938 19.6187 37.9303 19.1749L37.2806 19.8534C37.9209 20.4666 38.7775 20.8059 39.6605 20.8059V19.8665ZM37.934 19.1785C37.4642 18.7186 37.1883 18.1134 37.1587 17.4727L36.2202 17.516C36.2611 18.4019 36.6428 19.2293 37.2769 19.8499L37.934 19.1785ZM37.1592 17.4943C37.1592 17.5656 37.1343 17.646 37.0754 17.7126C37.016 17.78 36.9427 17.8102 36.8851 17.8184L36.7522 16.8884C36.4456 16.9322 36.2197 17.1831 36.2197 17.4943H37.1592ZM36.8186 17.8232C36.6297 17.8232 36.4781 17.6716 36.4781 17.4826H37.4175C37.4175 17.1527 37.1485 16.8837 36.8186 16.8837V17.8232ZM36.4787 17.5061C36.5199 18.33 36.8645 19.0872 37.4533 19.6623L38.1098 18.9902C37.6887 18.579 37.4462 18.0444 37.4169 17.4591L36.4787 17.5061ZM37.4613 19.6699C38.0611 20.2288 38.8318 20.5476 39.6605 20.5476V19.6081C39.0799 19.6081 38.5354 19.3867 38.1018 18.9826L37.4613 19.6699ZM39.6605 20.5476C40.4861 20.5476 41.2714 20.2308 41.8635 19.6662L41.2152 18.9863C40.7974 19.3847 40.244 19.6081 39.6605 19.6081V20.5476ZM41.8676 19.6623C42.4564 19.0872 42.8011 18.33 42.8423 17.5061L41.904 17.4591C41.8747 18.0444 41.6322 18.579 41.2111 18.9902L41.8676 19.6623ZM42.8429 17.4826C42.8429 16.6201 42.5127 15.8168 41.9029 15.2208L41.2463 15.8927C41.6699 16.3066 41.9034 16.8654 41.9034 17.4826H42.8429ZM41.8913 15.2098C41.5826 14.928 41.2283 14.6955 40.8047 14.5315L40.4656 15.4076C40.7701 15.5255 41.0264 15.6923 41.2579 15.9036L41.8913 15.2098ZM40.8001 14.5298C40.3667 14.3672 39.8992 14.2885 39.4139 14.2885V15.2279C39.7975 15.2279 40.1521 15.2901 40.4702 15.4094L40.8001 14.5298ZM39.4139 14.2885C39.5359 14.2885 39.7036 14.368 39.7521 14.5621L38.8407 14.7899C38.9127 15.078 39.1744 15.2279 39.4139 15.2279V14.2885ZM39.7166 14.4659C39.7328 14.4984 39.7539 14.5575 39.7491 14.6348C39.7441 14.7151 39.7134 14.7776 39.684 14.8169L38.9324 14.2532C38.8677 14.3395 38.8194 14.449 38.8115 14.5762C38.8037 14.7005 38.8366 14.8066 38.8763 14.8861L39.7166 14.4659ZM39.6628 14.843L42.1406 11.9895L41.4313 11.3735L38.9535 14.2271L39.6628 14.843ZM41.786 11.2118H37.2766V12.1512H41.786V11.2118ZM37.2766 11.2118C37.492 11.2118 37.6172 11.3906 37.6172 11.5406H36.6777C36.6777 11.855 36.9203 12.1512 37.2766 12.1512V11.2118ZM37.6172 11.5406C37.6172 11.7295 37.4656 11.8811 37.2766 11.8811V10.9417C36.9467 10.9417 36.6777 11.2107 36.6777 11.5406H37.6172ZM37.2766 11.8811H42.0678V10.9417H37.2766V11.8811ZM42.0678 11.8811C41.924 11.8811 41.8213 11.7925 41.7768 11.7037L42.6171 11.2835C42.5257 11.1007 42.3291 10.9417 42.0678 10.9417V11.8811ZM41.7413 11.6075C41.7387 11.5971 41.7301 11.559 41.7368 11.5058C41.7441 11.4469 41.767 11.3936 41.7977 11.3527L42.5493 11.9164C42.6981 11.718 42.6851 11.5096 42.6527 11.3797L41.7413 11.6075ZM41.8189 11.3264L39.3294 14.1918L40.0385 14.8079L42.5281 11.9426L41.8189 11.3264ZM39.6546 14.9687C39.9806 14.989 40.2828 15.0601 40.5519 15.1697L40.9063 14.2997C40.5412 14.151 40.1389 14.0576 39.7133 14.031L39.6546 14.9687ZM40.5686 15.1762C40.8939 15.2945 41.1904 15.4824 41.4257 15.708L42.0757 15.0297C41.7474 14.7151 41.3393 14.4568 40.8896 14.2933L40.5686 15.1762ZM41.4221 15.7045C41.8939 16.1664 42.1617 16.7963 42.1617 17.4943H43.1012C43.1012 16.5484 42.735 15.6751 42.0794 15.0332L41.4221 15.7045ZM42.1622 17.4727C42.1325 18.1176 41.8657 18.7196 41.3905 19.175L42.0405 19.8533C42.6927 19.2283 43.06 18.3977 43.1007 17.516L42.1622 17.4727ZM41.3907 19.1749C40.9265 19.6193 40.3149 19.8665 39.6605 19.8665V20.8059C40.5562 20.8059 41.4007 20.4659 42.0404 19.8534L41.3907 19.1749Z" fill="white"/>
<rect x="45.7891" y="15.3711" width="4.69725" height="1.17431" rx="0.587156" fill="white"/>
<path d="M61.1261 16.7898C61.1966 16.7898 61.2553 16.8485 61.2553 16.9189C61.2553 16.9894 61.1966 17.0481 61.1261 17.0481H59.1885V20.0896C59.1885 20.16 59.1298 20.2188 59.0593 20.2188C58.9888 20.2188 58.9301 20.16 58.9301 20.0896V17.0481H54.7261C54.6791 17.0481 54.6322 17.0246 54.6087 16.9776C54.5852 16.9307 54.5969 16.8837 54.6204 16.8367L58.9536 11.3175C58.9888 11.2705 59.0476 11.2587 59.0945 11.2705C59.1533 11.294 59.1885 11.341 59.1885 11.3997V16.7898H61.1261ZM54.9962 16.7898H58.9301V11.7754L54.9962 16.7898ZM70.4266 20.2188H64.9308C64.8603 20.2188 64.8016 20.16 64.8016 20.0896V19.3498C64.8251 18.7039 65.1069 18.1637 65.6941 17.6822C66.1873 17.2712 66.9271 16.8954 68.0192 16.4844C68.9234 16.1556 69.5223 15.7446 69.8629 15.2279C70.1682 14.7699 70.2152 14.3002 70.2152 13.8892C70.2152 13.2316 69.9803 12.6679 69.5576 12.2452C69.0878 11.7872 68.4067 11.5406 67.6434 11.5641C67.3029 11.5641 66.9623 11.6345 66.6453 11.7637C66.34 11.8929 66.0581 12.069 65.8233 12.2921C65.3183 12.7619 65.0365 13.3843 65.0365 14.0419V14.9696C65.0365 15.04 64.9777 15.0987 64.9073 15.0987C64.8368 15.0987 64.7781 15.04 64.7781 14.9696V14.0419C64.7781 13.3021 65.0834 12.621 65.6354 12.1043C65.9055 11.8576 66.2108 11.658 66.5513 11.5288C66.9036 11.3879 67.2677 11.3057 67.6434 11.294C68.4772 11.2822 69.217 11.5523 69.7337 12.0573C70.2152 12.527 70.4735 13.1611 70.4735 13.8892C70.4735 14.3354 70.4266 14.8521 70.086 15.3806C69.7102 15.9325 69.0644 16.3787 68.1014 16.731C67.0445 17.1303 66.34 17.4943 65.8585 17.8819C65.33 18.3164 65.0717 18.7861 65.0717 19.3498V19.9604H70.4266C70.497 19.9604 70.5557 20.0191 70.5557 20.0896C70.5557 20.16 70.497 20.2188 70.4266 20.2188ZM77.0473 20.3362C76.284 20.3362 75.5442 20.0426 74.9922 19.5142C74.4403 18.974 74.1115 18.2576 74.0763 17.4943C74.0763 17.4239 74.1233 17.3652 74.2055 17.3534C74.2759 17.3534 74.3346 17.4121 74.3346 17.4826C74.3699 18.1872 74.6634 18.8331 75.1684 19.3263C75.6851 19.8077 76.3427 20.0778 77.0473 20.0778C77.7519 20.0778 78.4212 19.8077 78.9262 19.3263C79.4311 18.8331 79.7247 18.1872 79.76 17.4826C79.76 16.7428 79.4781 16.0617 78.9614 15.5567C78.6913 15.3101 78.386 15.1105 78.022 14.9696C77.6462 14.8287 77.2352 14.7582 76.8007 14.7582C76.742 14.7582 76.695 14.723 76.6833 14.676C76.6598 14.629 76.6598 14.5821 76.695 14.5351L79.1728 11.6815H74.6634C74.593 11.6815 74.5343 11.6228 74.5343 11.5406C74.5343 11.4701 74.593 11.4114 74.6634 11.4114H79.4546C79.5133 11.4114 79.5603 11.4466 79.5838 11.4936C79.5955 11.5406 79.5955 11.5876 79.5603 11.6345L77.0708 14.4999C77.4466 14.5233 77.7988 14.6055 78.1159 14.7347C78.5034 14.8756 78.8557 15.0987 79.1376 15.3688C79.7012 15.9208 80.0183 16.6723 80.0183 17.4943C79.9831 18.2576 79.666 18.974 79.1023 19.5142C78.5504 20.0426 77.8223 20.3362 77.0473 20.3362Z" fill="white"/>
<path d="M59.1885 17.0481V16.5784H58.7188V17.0481H59.1885ZM58.9301 17.0481H59.3999V16.5784H58.9301V17.0481ZM54.6087 16.9776L55.0288 16.7676L55.0288 16.7676L54.6087 16.9776ZM54.6204 16.8367L54.2509 16.5467L54.2216 16.5841L54.2003 16.6267L54.6204 16.8367ZM58.9536 11.3175L59.3232 11.6076L59.3294 11.5993L58.9536 11.3175ZM59.0945 11.2705L59.269 10.8344L59.2394 10.8225L59.2085 10.8148L59.0945 11.2705ZM59.1885 16.7898H58.7188V17.2595H59.1885V16.7898ZM54.9962 16.7898L54.6266 16.4998L54.0306 17.2595H54.9962V16.7898ZM58.9301 16.7898V17.2595H59.3999V16.7898H58.9301ZM58.9301 11.7754H59.3999V10.4157L58.5606 11.4855L58.9301 11.7754ZM61.1261 17.2595C60.9371 17.2595 60.7855 17.1079 60.7855 16.9189H61.725C61.725 16.5891 61.456 16.32 61.1261 16.32V17.2595ZM60.7855 16.9189C60.7855 16.73 60.9371 16.5784 61.1261 16.5784V17.5178C61.456 17.5178 61.725 17.2488 61.725 16.9189H60.7855ZM61.1261 16.5784H59.1885V17.5178H61.1261V16.5784ZM58.7188 17.0481V20.0896H59.6582V17.0481H58.7188ZM58.7188 20.0896C58.7188 19.9006 58.8703 19.749 59.0593 19.749V20.6885C59.3892 20.6885 59.6582 20.4195 59.6582 20.0896H58.7188ZM59.0593 19.749C59.2483 19.749 59.3999 19.9006 59.3999 20.0896H58.4604C58.4604 20.4195 58.7294 20.6885 59.0593 20.6885V19.749ZM59.3999 20.0896V17.0481H58.4604V20.0896H59.3999ZM58.9301 16.5784H54.7261V17.5178H58.9301V16.5784ZM54.7261 16.5784C54.831 16.5784 54.9617 16.6334 55.0288 16.7676L54.1885 17.1877C54.3026 17.4159 54.5273 17.5178 54.7261 17.5178V16.5784ZM55.0288 16.7676C55.0627 16.8354 55.0704 16.9067 55.063 16.9655C55.0567 17.0157 55.0409 17.046 55.0405 17.0468L54.2003 16.6267C54.1543 16.7185 54.0649 16.9405 54.1885 17.1877L55.0288 16.7676ZM54.9899 17.1268L59.3231 11.6075L58.5842 11.0274L54.2509 16.5467L54.9899 17.1268ZM59.3294 11.5993C59.2274 11.7353 59.0751 11.7498 58.9806 11.7262L59.2085 10.8148C59.02 10.7677 58.7503 10.8057 58.5778 11.0356L59.3294 11.5993ZM58.9201 11.7066C58.8793 11.6903 58.8274 11.6578 58.7847 11.5996C58.7406 11.5395 58.7188 11.4682 58.7188 11.3997H59.6582C59.6582 11.1212 59.4789 10.9183 59.269 10.8344L58.9201 11.7066ZM58.7188 11.3997V16.7898H59.6582V11.3997H58.7188ZM59.1885 17.2595H61.1261V16.32H59.1885V17.2595ZM54.9962 17.2595H58.9301V16.32H54.9962V17.2595ZM59.3999 16.7898V11.7754H58.4604V16.7898H59.3999ZM58.5606 11.4855L54.6266 16.4998L55.3658 17.0797L59.2997 12.0654L58.5606 11.4855ZM64.8016 19.3498L64.3322 19.3327L64.3319 19.3412V19.3498H64.8016ZM65.6941 17.6822L65.9919 18.0455L65.9948 18.0431L65.6941 17.6822ZM68.0192 16.4844L67.8587 16.043L67.8538 16.0448L68.0192 16.4844ZM69.8629 15.2279L69.472 14.9674L69.4707 14.9694L69.8629 15.2279ZM69.5576 12.2452L69.8897 11.913L69.8855 11.9088L69.5576 12.2452ZM67.6434 11.5641V12.0338H67.6507L67.6579 12.0336L67.6434 11.5641ZM66.6453 11.7637L66.468 11.3287L66.4622 11.3311L66.6453 11.7637ZM65.8233 12.2921L66.1432 12.6361L66.1468 12.6327L65.8233 12.2921ZM65.6354 12.1043L65.3186 11.7573L65.3143 11.7613L65.6354 12.1043ZM66.5513 11.5288L66.7179 11.9681L66.7258 11.965L66.5513 11.5288ZM67.6434 11.294L67.6368 10.8242L67.6288 10.8245L67.6434 11.294ZM69.7337 12.0573L69.4054 12.3932L69.4057 12.3935L69.7337 12.0573ZM70.086 15.3806L70.4744 15.645L70.4808 15.635L70.086 15.3806ZM68.1014 16.731L67.94 16.2899L67.9354 16.2916L68.1014 16.731ZM65.8585 17.8819L65.5639 17.5159L65.5602 17.519L65.8585 17.8819ZM65.0717 19.9604H64.602V20.4301H65.0717V19.9604ZM70.4266 19.749H64.9308V20.6885H70.4266V19.749ZM64.9308 19.749C65.1197 19.749 65.2713 19.9006 65.2713 20.0896H64.3319C64.3319 20.4195 64.6009 20.6885 64.9308 20.6885V19.749ZM65.2713 20.0896V19.3498H64.3319V20.0896H65.2713ZM65.271 19.3668C65.2889 18.8747 65.4932 18.4544 65.9919 18.0455L65.3962 17.319C64.7206 17.873 64.3613 18.5331 64.3322 19.3327L65.271 19.3668ZM65.9948 18.0431C66.4258 17.6839 67.1053 17.3303 68.1847 16.9241L67.8538 16.0448C66.7489 16.4606 65.9487 16.8586 65.3934 17.3214L65.9948 18.0431ZM68.1797 16.9259C69.1313 16.5798 69.8364 16.1216 70.2551 15.4864L69.4707 14.9694C69.2082 15.3676 68.7155 15.7314 67.8587 16.043L68.1797 16.9259ZM70.2537 15.4885C70.6348 14.9169 70.6849 14.3365 70.6849 13.8892H69.7455C69.7455 14.264 69.7016 14.623 69.4721 14.9674L70.2537 15.4885ZM70.6849 13.8892C70.6849 13.1129 70.4046 12.4279 69.8897 11.913L69.2254 12.5773C69.556 12.9079 69.7455 13.3503 69.7455 13.8892H70.6849ZM69.8855 11.9088C69.3114 11.3491 68.5003 11.0678 67.629 11.0946L67.6579 12.0336C68.3132 12.0134 68.8643 12.2253 69.2296 12.5815L69.8855 11.9088ZM67.6434 11.0943C67.2386 11.0943 66.838 11.178 66.468 11.3287L66.8225 12.1987C67.0867 12.0911 67.3672 12.0338 67.6434 12.0338V11.0943ZM66.4622 11.3311C66.1121 11.4792 65.7808 11.6846 65.4997 11.9516L66.1468 12.6327C66.3354 12.4535 66.5678 12.3065 66.8283 12.1963L66.4622 11.3311ZM65.5033 11.9482C64.9092 12.5009 64.5667 13.2454 64.5667 14.0419H65.5062C65.5062 13.5231 65.7274 13.0228 66.1432 12.6361L65.5033 11.9482ZM64.5667 14.0419V14.9696H65.5062V14.0419H64.5667ZM64.5667 14.9696C64.5667 14.7806 64.7183 14.629 64.9073 14.629V15.5685C65.2372 15.5685 65.5062 15.2995 65.5062 14.9696H64.5667ZM64.9073 14.629C65.0963 14.629 65.2478 14.7806 65.2478 14.9696H64.3084C64.3084 15.2995 64.5774 15.5685 64.9073 15.5685V14.629ZM65.2478 14.9696V14.0419H64.3084V14.9696H65.2478ZM65.2478 14.0419C65.2478 13.4378 65.495 12.8791 65.9564 12.4472L65.3143 11.7613C64.6719 12.3628 64.3084 13.1663 64.3084 14.0419H65.2478ZM65.9521 12.4511C66.1854 12.2382 66.4409 12.0731 66.7179 11.968L66.3847 11.0896C65.9806 11.2429 65.6256 11.4771 65.3186 11.7574L65.9521 12.4511ZM66.7258 11.965C67.0323 11.8424 67.3424 11.7733 67.6581 11.7635L67.6288 10.8245C67.1929 10.8381 66.7749 10.9335 66.3769 11.0927L66.7258 11.965ZM67.6501 11.7637C68.3798 11.7534 68.992 11.9893 69.4054 12.3932L70.062 11.7213C69.442 11.1154 68.5746 10.8111 67.6368 10.8243L67.6501 11.7637ZM69.4057 12.3935C69.7897 12.7682 70.0038 13.2779 70.0038 13.8892H70.9433C70.9433 13.0444 70.6406 12.2858 70.0617 11.7211L69.4057 12.3935ZM70.0038 13.8892C70.0038 14.2988 69.9602 14.7087 69.6912 15.1261L70.4808 15.635C70.8929 14.9956 70.9433 14.3721 70.9433 13.8892H70.0038ZM69.6977 15.1162C69.3982 15.5562 68.8532 15.9558 67.94 16.2899L68.2628 17.1722C69.2756 16.8017 70.0223 16.3088 70.4743 15.6449L69.6977 15.1162ZM67.9354 16.2916C66.8623 16.697 66.1031 17.082 65.564 17.5159L66.153 18.2478C66.5768 17.9067 67.2268 17.5636 68.2674 17.1705L67.9354 16.2916ZM65.5602 17.519C64.9533 18.018 64.602 18.6108 64.602 19.3498H65.5414C65.5414 18.9614 65.7067 18.6147 66.1568 18.2447L65.5602 17.519ZM64.602 19.3498V19.9604H65.5414V19.3498H64.602ZM65.0717 20.4301H70.4266V19.4907H65.0717V20.4301ZM70.4266 20.4301C70.2376 20.4301 70.086 20.2785 70.086 20.0896H71.0255C71.0255 19.7597 70.7564 19.4907 70.4266 19.4907V20.4301ZM70.086 20.0896C70.086 19.9006 70.2376 19.749 70.4266 19.749V20.6885C70.7564 20.6885 71.0255 20.4195 71.0255 20.0896H70.086ZM74.9922 19.5142L74.6637 19.8499L74.6674 19.8534L74.9922 19.5142ZM74.0763 17.4943H73.6066V17.5052L73.6071 17.516L74.0763 17.4943ZM74.2055 17.3534V16.8837H74.1721L74.139 16.8884L74.2055 17.3534ZM74.3346 17.4826H73.8649V17.4943L73.8655 17.5061L74.3346 17.4826ZM75.1684 19.3263L74.8401 19.6624L74.8482 19.6699L75.1684 19.3263ZM78.9262 19.3263L79.2504 19.6663L79.2544 19.6623L78.9262 19.3263ZM79.76 17.4826L80.2291 17.5061L80.2297 17.4943V17.4826H79.76ZM78.9614 15.5567L79.2897 15.2208L79.284 15.2152L79.2781 15.2098L78.9614 15.5567ZM78.022 14.9696L78.1915 14.5315L78.1869 14.5298L78.022 14.9696ZM76.6833 14.676L77.139 14.5621L77.1264 14.512L77.1034 14.4659L76.6833 14.676ZM76.695 14.5351L76.3403 14.2271L76.3293 14.2398L76.3192 14.2532L76.695 14.5351ZM79.1728 11.6815L79.5275 11.9895L80.2028 11.2118H79.1728V11.6815ZM79.5838 11.4936L80.0395 11.3797L80.027 11.3297L80.0039 11.2835L79.5838 11.4936ZM79.5603 11.6345L79.9149 11.9426L79.926 11.9299L79.9361 11.9164L79.5603 11.6345ZM77.0708 14.4999L76.7162 14.1918L76.0927 14.9094L77.0415 14.9687L77.0708 14.4999ZM78.1159 14.7347L77.9387 15.1697L77.947 15.1731L77.9554 15.1762L78.1159 14.7347ZM79.1376 15.3688L79.4662 15.0332L79.4626 15.0297L79.1376 15.3688ZM80.0183 17.4943L80.4875 17.516L80.488 17.5052V17.4943H80.0183ZM79.1023 19.5142L79.4272 19.8534L79.4273 19.8533L79.1023 19.5142ZM77.0473 19.8665C76.4036 19.8665 75.7806 19.6187 75.3171 19.1749L74.6674 19.8534C75.3078 20.4666 76.1643 20.8059 77.0473 20.8059V19.8665ZM75.3208 19.1785C74.851 18.7186 74.5751 18.1134 74.5455 17.4727L73.6071 17.516C73.6479 18.4019 74.0297 19.2293 74.6637 19.8499L75.3208 19.1785ZM74.546 17.4943C74.546 17.5656 74.5211 17.646 74.4623 17.7126C74.4028 17.78 74.3295 17.8102 74.2719 17.8184L74.139 16.8884C73.8324 16.9322 73.6066 17.1831 73.6066 17.4943H74.546ZM74.2055 17.8232C74.0165 17.8232 73.8649 17.6716 73.8649 17.4826H74.8044C74.8044 17.1527 74.5353 16.8837 74.2055 16.8837V17.8232ZM73.8655 17.5061C73.9067 18.33 74.2513 19.0872 74.8402 19.6623L75.4966 18.9902C75.0755 18.579 74.833 18.0444 74.8038 17.4591L73.8655 17.5061ZM74.8482 19.6699C75.4479 20.2288 76.2186 20.5476 77.0473 20.5476V19.6081C76.4668 19.6081 75.9223 19.3867 75.4886 18.9826L74.8482 19.6699ZM77.0473 20.5476C77.8729 20.5476 78.6583 20.2308 79.2503 19.6662L78.602 18.9863C78.1842 19.3847 77.6308 19.6081 77.0473 19.6081V20.5476ZM79.2544 19.6623C79.8432 19.0872 80.1879 18.33 80.2291 17.5061L79.2908 17.4591C79.2615 18.0444 79.019 18.579 78.598 18.9902L79.2544 19.6623ZM80.2297 17.4826C80.2297 16.6201 79.8995 15.8168 79.2897 15.2208L78.6331 15.8927C79.0567 16.3066 79.2902 16.8654 79.2902 17.4826H80.2297ZM79.2781 15.2098C78.9694 14.928 78.6151 14.6955 78.1915 14.5315L77.8524 15.4076C78.1569 15.5255 78.4132 15.6923 78.6447 15.9036L79.2781 15.2098ZM78.1869 14.5298C77.7535 14.3672 77.286 14.2885 76.8007 14.2885V15.2279C77.1843 15.2279 77.5389 15.2901 77.857 15.4094L78.1869 14.5298ZM76.8007 14.2885C76.9227 14.2885 77.0904 14.368 77.139 14.5621L76.2276 14.7899C76.2996 15.078 76.5612 15.2279 76.8007 15.2279V14.2885ZM77.1034 14.4659C77.1196 14.4984 77.1407 14.5575 77.1359 14.6348C77.1309 14.7151 77.1003 14.7776 77.0708 14.8169L76.3192 14.2532C76.2545 14.3395 76.2062 14.449 76.1983 14.5762C76.1905 14.7005 76.2234 14.8066 76.2631 14.8861L77.1034 14.4659ZM77.0497 14.843L79.5275 11.9895L78.8181 11.3735L76.3403 14.2271L77.0497 14.843ZM79.1728 11.2118H74.6634V12.1512H79.1728V11.2118ZM74.6634 11.2118C74.8788 11.2118 75.004 11.3906 75.004 11.5406H74.0645C74.0645 11.855 74.3071 12.1512 74.6634 12.1512V11.2118ZM75.004 11.5406C75.004 11.7295 74.8524 11.8811 74.6634 11.8811V10.9417C74.3336 10.9417 74.0645 11.2107 74.0645 11.5406H75.004ZM74.6634 11.8811H79.4546V10.9417H74.6634V11.8811ZM79.4546 11.8811C79.3108 11.8811 79.2081 11.7925 79.1637 11.7037L80.0039 11.2835C79.9125 11.1007 79.7159 10.9417 79.4546 10.9417V11.8811ZM79.1281 11.6075C79.1255 11.5971 79.1169 11.559 79.1236 11.5058C79.1309 11.4469 79.1539 11.3936 79.1845 11.3527L79.9361 11.9164C80.0849 11.718 80.072 11.5096 80.0395 11.3797L79.1281 11.6075ZM79.2057 11.3264L76.7162 14.1918L77.4254 14.8079L79.9149 11.9426L79.2057 11.3264ZM77.0415 14.9687C77.3674 14.989 77.6697 15.0601 77.9387 15.1697L78.2931 14.2997C77.928 14.151 77.5257 14.0576 77.1001 14.031L77.0415 14.9687ZM77.9554 15.1762C78.2807 15.2945 78.5772 15.4824 78.8126 15.708L79.4626 15.0297C79.1343 14.7151 78.7261 14.4568 78.2764 14.2933L77.9554 15.1762ZM78.8089 15.7045C79.2807 16.1664 79.5486 16.7963 79.5486 17.4943H80.488C80.488 16.5484 80.1218 15.6751 79.4662 15.0332L78.8089 15.7045ZM79.5491 17.4727C79.5193 18.1176 79.2525 18.7196 78.7773 19.175L79.4273 19.8533C80.0795 19.2283 80.4468 18.3977 80.4875 17.516L79.5491 17.4727ZM78.7775 19.1749C78.3133 19.6193 77.7017 19.8665 77.0473 19.8665V20.8059C77.943 20.8059 78.7875 20.4659 79.4272 19.8534L78.7775 19.1749Z" fill="white"/>
<rect x="83.3574" y="15.3711" width="4.69725" height="1.17431" rx="0.587156" fill="white"/>
<path d="M97.7433 20.2188H92.2945C92.224 20.2188 92.1653 20.16 92.1653 20.0896C92.1653 20.0191 92.224 19.9604 92.2945 19.9604H94.8779V11.7989L92.4354 13.76C92.3767 13.807 92.2945 13.7953 92.2475 13.7365C92.2005 13.6896 92.2123 13.6074 92.271 13.5604L94.9249 11.4232C94.9719 11.3879 95.0189 11.3879 95.0658 11.4114C95.1128 11.4232 95.1363 11.4701 95.1363 11.5288V19.9604H97.7433C97.8137 19.9604 97.8724 20.0191 97.8724 20.0896C97.8724 20.16 97.8137 20.2188 97.7433 20.2188ZM104.037 11.294C104.741 11.294 105.411 11.5641 105.904 12.069C106.409 12.5622 106.679 13.2316 106.679 13.9362V13.9479V17.2243C106.679 18.2811 106.409 19.0914 105.881 19.6199C105.634 19.8665 105.34 20.0543 105 20.1718C104.683 20.2775 104.33 20.3362 103.943 20.3362H103.931C103.508 20.3362 103.086 20.2305 102.698 20.0426C102.322 19.843 101.982 19.5611 101.735 19.2206C101.688 19.1619 101.7 19.0797 101.759 19.0327C101.817 18.9857 101.9 18.9975 101.947 19.0562C102.17 19.3732 102.475 19.6316 102.816 19.8077C103.168 19.9839 103.555 20.0778 103.931 20.0778H103.943C104.295 20.0778 104.624 20.0191 104.918 19.9252C105.211 19.8195 105.481 19.6551 105.693 19.432C106.174 18.9505 106.421 18.2107 106.421 17.2243V15.087C106.292 15.3454 106.115 15.592 105.904 15.8033C105.411 16.3083 104.741 16.5784 104.037 16.5784C103.332 16.5784 102.663 16.3083 102.17 15.8033C101.665 15.3101 101.395 14.6408 101.395 13.9362C101.395 13.2316 101.665 12.5622 102.17 12.069C102.663 11.5641 103.332 11.294 104.037 11.294ZM104.037 16.32C105.352 16.32 106.421 15.2514 106.421 13.9362C106.421 12.621 105.352 11.5523 104.037 11.5523C102.722 11.5523 101.653 12.621 101.653 13.9362C101.653 15.2514 102.722 16.32 104.037 16.32ZM113.171 20.3362C112.407 20.3362 111.668 20.0426 111.116 19.5142C110.564 18.974 110.235 18.2576 110.2 17.4943C110.2 17.4239 110.247 17.3652 110.329 17.3534C110.399 17.3534 110.458 17.4121 110.458 17.4826C110.493 18.1872 110.787 18.8331 111.292 19.3263C111.808 19.8077 112.466 20.0778 113.171 20.0778C113.875 20.0778 114.545 19.8077 115.05 19.3263C115.555 18.8331 115.848 18.1872 115.883 17.4826C115.883 16.7428 115.602 16.0617 115.085 15.5567C114.815 15.3101 114.509 15.1105 114.145 14.9696C113.77 14.8287 113.359 14.7582 112.924 14.7582C112.865 14.7582 112.818 14.723 112.807 14.676C112.783 14.629 112.783 14.5821 112.818 14.5351L115.296 11.6815H110.787C110.716 11.6815 110.658 11.6228 110.658 11.5406C110.658 11.4701 110.716 11.4114 110.787 11.4114H115.578C115.637 11.4114 115.684 11.4466 115.707 11.4936C115.719 11.5406 115.719 11.5876 115.684 11.6345L113.194 14.4999C113.57 14.5233 113.922 14.6055 114.239 14.7347C114.627 14.8756 114.979 15.0987 115.261 15.3688C115.825 15.9208 116.142 16.6723 116.142 17.4943C116.106 18.2576 115.789 18.974 115.226 19.5142C114.674 20.0426 113.946 20.3362 113.171 20.3362ZM120.95 20.207C120.891 20.1835 120.868 20.1013 120.891 20.0426L124.485 11.658H119.564C119.505 11.658 119.435 11.5993 119.435 11.5288C119.435 11.4584 119.494 11.3879 119.564 11.3879H124.684C124.719 11.3879 124.766 11.4114 124.79 11.4466C124.813 11.4819 124.825 11.5288 124.802 11.5758L121.126 20.1365C121.103 20.1953 121.032 20.2305 120.95 20.207Z" fill="white"/>
<path d="M94.8779 19.9604V20.4301H95.3477V19.9604H94.8779ZM94.8779 11.7989H95.3477V10.8194L94.5839 11.4327L94.8779 11.7989ZM92.4354 13.76L92.7288 14.1268L92.7295 14.1263L92.4354 13.76ZM92.2475 13.7365L92.6143 13.4431L92.598 13.4228L92.5796 13.4044L92.2475 13.7365ZM92.271 13.5604L92.5644 13.9272L92.5656 13.9262L92.271 13.5604ZM94.9249 11.4232L94.6431 11.0474L94.6366 11.0522L94.6303 11.0573L94.9249 11.4232ZM95.0658 11.4114L94.8558 11.8315L94.9019 11.8546L94.9519 11.8671L95.0658 11.4114ZM95.1363 19.9604H94.6666V20.4301H95.1363V19.9604ZM97.7433 19.749H92.2945V20.6885H97.7433V19.749ZM92.2945 19.749C92.4834 19.749 92.635 19.9006 92.635 20.0896H91.6956C91.6956 20.4195 91.9646 20.6885 92.2945 20.6885V19.749ZM92.635 20.0896C92.635 20.2785 92.4834 20.4301 92.2945 20.4301V19.4907C91.9646 19.4907 91.6956 19.7597 91.6956 20.0896H92.635ZM92.2945 20.4301H94.8779V19.4907H92.2945V20.4301ZM95.3477 19.9604V11.7989H94.4082V19.9604H95.3477ZM94.5839 11.4327L92.1413 13.3938L92.7295 14.1263L95.172 12.1652L94.5839 11.4327ZM92.1419 13.3932C92.2988 13.2677 92.5098 13.3126 92.6143 13.4431L91.8807 14.03C92.0791 14.278 92.4545 14.3463 92.7288 14.1268L92.1419 13.3932ZM92.5796 13.4044C92.6739 13.4986 92.6976 13.6195 92.685 13.7119C92.6727 13.8022 92.6267 13.8774 92.5644 13.9272L91.9775 13.1936C91.7611 13.3668 91.6191 13.7725 91.9153 14.0687L92.5796 13.4044ZM92.5656 13.9262L95.2195 11.789L94.6303 11.0573L91.9764 13.1946L92.5656 13.9262ZM95.2068 11.7989C95.1674 11.8284 95.1049 11.8591 95.0247 11.8641C94.9474 11.8689 94.8883 11.8478 94.8558 11.8315L95.2759 10.9913C95.1964 10.9515 95.0904 10.9187 94.9661 10.9265C94.8389 10.9344 94.7294 10.9827 94.6431 11.0474L95.2068 11.7989ZM94.9519 11.8671C94.8374 11.8385 94.7552 11.7633 94.7108 11.6856C94.6716 11.6168 94.6666 11.5572 94.6666 11.5288H95.606C95.606 11.3789 95.5361 11.0448 95.1798 10.9557L94.9519 11.8671ZM94.6666 11.5288V19.9604H95.606V11.5288H94.6666ZM95.1363 20.4301H97.7433V19.4907H95.1363V20.4301ZM97.7433 20.4301C97.5543 20.4301 97.4027 20.2785 97.4027 20.0896H98.3422C98.3422 19.7597 98.0731 19.4907 97.7433 19.4907V20.4301ZM97.4027 20.0896C97.4027 19.9006 97.5543 19.749 97.7433 19.749V20.6885C98.0731 20.6885 98.3422 20.4195 98.3422 20.0896H97.4027ZM105.904 12.069L105.568 12.3973L105.576 12.4051L105.904 12.069ZM105.881 19.6199L105.548 19.2877L105.548 19.2877L105.881 19.6199ZM105 20.1718L105.148 20.6174L105.153 20.6158L105 20.1718ZM102.698 20.0426L102.478 20.4574L102.485 20.4615L102.493 20.4653L102.698 20.0426ZM101.735 19.2206L102.116 18.9451L102.109 18.936L102.102 18.9272L101.735 19.2206ZM101.759 19.0327L101.465 18.6659L101.465 18.6659L101.759 19.0327ZM101.947 19.0562L102.331 18.7859L102.322 18.774L102.313 18.7627L101.947 19.0562ZM102.816 19.8077L102.6 20.225L102.605 20.2279L102.816 19.8077ZM104.918 19.9252L105.061 20.3725L105.069 20.37L105.077 20.3671L104.918 19.9252ZM105.693 19.432L105.36 19.0997L105.352 19.1089L105.693 19.432ZM106.421 15.087H106.89L106.001 14.8769L106.421 15.087ZM105.904 15.8033L105.572 15.4712L105.568 15.4751L105.904 15.8033ZM102.17 15.8033L102.506 15.475L102.498 15.4673L102.17 15.8033ZM102.17 12.069L102.498 12.4051L102.506 12.3972L102.17 12.069ZM104.037 11.7637C104.62 11.7637 105.167 11.9865 105.568 12.3972L106.24 11.7408C105.655 11.1416 104.863 10.8243 104.037 10.8243V11.7637ZM105.576 12.4051C105.987 12.8062 106.209 13.3528 106.209 13.9362H107.149C107.149 13.1104 106.831 12.3182 106.232 11.733L105.576 12.4051ZM106.209 13.9362V13.9479H107.149V13.9362H106.209ZM106.209 13.9479V17.2243H107.149V13.9479H106.209ZM106.209 17.2243C106.209 18.2087 105.958 18.8784 105.548 19.2877L106.213 19.952C106.86 19.3044 107.149 18.3535 107.149 17.2243H106.209ZM105.548 19.2877C105.351 19.4855 105.118 19.6342 104.847 19.7277L105.153 20.6158C105.563 20.4745 105.917 20.2474 106.213 19.952L105.548 19.2877ZM104.851 19.7262C104.584 19.8151 104.282 19.8665 103.943 19.8665V20.8059C104.378 20.8059 104.781 20.7398 105.148 20.6174L104.851 19.7262ZM103.943 19.8665H103.931V20.8059H103.943V19.8665ZM103.931 19.8665C103.586 19.8665 103.233 19.78 102.903 19.6199L102.493 20.4653C102.938 20.681 103.431 20.8059 103.931 20.8059V19.8665ZM102.919 19.6278C102.598 19.4576 102.315 19.2208 102.116 18.9451L101.355 19.4961C101.648 19.9015 102.047 20.2284 102.478 20.4574L102.919 19.6278ZM102.102 18.9272C102.228 19.0841 102.183 19.295 102.052 19.3995L101.465 18.6659C101.217 18.8643 101.149 19.2397 101.368 19.514L102.102 18.9272ZM102.052 19.3995C101.895 19.525 101.684 19.4802 101.58 19.3496L102.313 18.7627C102.115 18.5148 101.74 18.4464 101.465 18.6659L102.052 19.3995ZM101.562 19.3265C101.832 19.7091 102.196 20.0163 102.6 20.225L103.031 19.3905C102.754 19.2469 102.508 19.0374 102.331 18.7859L101.562 19.3265ZM102.605 20.2279C103.02 20.4349 103.479 20.5476 103.931 20.5476V19.6081C103.632 19.6081 103.316 19.5328 103.026 19.3876L102.605 20.2279ZM103.931 20.5476H103.943V19.6081H103.931V20.5476ZM103.943 20.5476C104.347 20.5476 104.725 20.4801 105.061 20.3725L104.774 19.4778C104.523 19.5581 104.243 19.6081 103.943 19.6081V20.5476ZM105.077 20.3671C105.428 20.2405 105.764 20.0393 106.034 19.755L105.352 19.1089C105.198 19.2709 104.994 19.3985 104.758 19.4832L105.077 20.3671ZM106.025 19.7641C106.626 19.1625 106.89 18.2812 106.89 17.2243H105.951C105.951 18.1402 105.722 18.7385 105.36 19.0998L106.025 19.7641ZM106.89 17.2243V15.087H105.951V17.2243H106.89ZM106.001 14.8769C105.894 15.0906 105.747 15.2959 105.572 15.4712L106.236 16.1355C106.484 15.888 106.689 15.6001 106.841 15.2971L106.001 14.8769ZM105.568 15.4751C105.167 15.8859 104.62 16.1087 104.037 16.1087V17.0481C104.863 17.0481 105.655 16.7307 106.24 16.1316L105.568 15.4751ZM104.037 16.1087C103.453 16.1087 102.907 15.8859 102.506 15.4751L101.834 16.1316C102.419 16.7307 103.211 17.0481 104.037 17.0481V16.1087ZM102.498 15.4673C102.087 15.0661 101.864 14.5196 101.864 13.9362H100.925C100.925 14.762 101.242 15.5541 101.841 16.1394L102.498 15.4673ZM101.864 13.9362C101.864 13.3528 102.087 12.8062 102.498 12.4051L101.841 11.733C101.242 12.3182 100.925 13.1104 100.925 13.9362H101.864ZM102.506 12.3972C102.907 11.9865 103.453 11.7637 104.037 11.7637V10.8243C103.211 10.8243 102.419 11.1416 101.834 11.7408L102.506 12.3972ZM104.037 16.7898C105.611 16.7898 106.89 15.5108 106.89 13.9362H105.951C105.951 14.992 105.093 15.8503 104.037 15.8503V16.7898ZM106.89 13.9362C106.89 12.3615 105.611 11.0826 104.037 11.0826V12.0221C105.093 12.0221 105.951 12.8804 105.951 13.9362H106.89ZM104.037 11.0826C102.462 11.0826 101.183 12.3615 101.183 13.9362H102.123C102.123 12.8804 102.981 12.0221 104.037 12.0221V11.0826ZM101.183 13.9362C101.183 15.5108 102.462 16.7898 104.037 16.7898V15.8503C102.981 15.8503 102.123 14.992 102.123 13.9362H101.183ZM111.116 19.5142L110.787 19.8499L110.791 19.8534L111.116 19.5142ZM110.2 17.4943H109.73V17.5052L109.73 17.516L110.2 17.4943ZM110.329 17.3534V16.8837H110.295L110.262 16.8884L110.329 17.3534ZM110.458 17.4826H109.988V17.4943L109.989 17.5061L110.458 17.4826ZM111.292 19.3263L110.963 19.6624L110.972 19.6699L111.292 19.3263ZM115.05 19.3263L115.374 19.6663L115.378 19.6623L115.05 19.3263ZM115.883 17.4826L116.352 17.5061L116.353 17.4943V17.4826H115.883ZM115.085 15.5567L115.413 15.2208L115.407 15.2152L115.402 15.2098L115.085 15.5567ZM114.145 14.9696L114.315 14.5315L114.31 14.5298L114.145 14.9696ZM112.807 14.676L113.262 14.5621L113.25 14.512L113.227 14.4659L112.807 14.676ZM112.818 14.5351L112.464 14.2271L112.453 14.2398L112.443 14.2532L112.818 14.5351ZM115.296 11.6815L115.651 11.9895L116.326 11.2118H115.296V11.6815ZM115.707 11.4936L116.163 11.3797L116.15 11.3297L116.127 11.2835L115.707 11.4936ZM115.684 11.6345L116.038 11.9426L116.049 11.9299L116.06 11.9164L115.684 11.6345ZM113.194 14.4999L112.84 14.1918L112.216 14.9094L113.165 14.9687L113.194 14.4999ZM114.239 14.7347L114.062 15.1697L114.07 15.1731L114.079 15.1762L114.239 14.7347ZM115.261 15.3688L115.59 15.0332L115.586 15.0297L115.261 15.3688ZM116.142 17.4943L116.611 17.516L116.611 17.5052V17.4943H116.142ZM115.226 19.5142L115.551 19.8534L115.551 19.8533L115.226 19.5142ZM113.171 19.8665C112.527 19.8665 111.904 19.6187 111.44 19.1749L110.791 19.8534C111.431 20.4666 112.288 20.8059 113.171 20.8059V19.8665ZM111.444 19.1785C110.974 18.7186 110.698 18.1134 110.669 17.4727L109.73 17.516C109.771 18.4019 110.153 19.2293 110.787 19.8499L111.444 19.1785ZM110.669 17.4943C110.669 17.5656 110.645 17.646 110.586 17.7126C110.526 17.78 110.453 17.8102 110.395 17.8184L110.262 16.8884C109.956 16.9322 109.73 17.1831 109.73 17.4943H110.669ZM110.329 17.8232C110.14 17.8232 109.988 17.6716 109.988 17.4826H110.928C110.928 17.1527 110.659 16.8837 110.329 16.8837V17.8232ZM109.989 17.5061C110.03 18.33 110.375 19.0872 110.964 19.6623L111.62 18.9902C111.199 18.579 110.956 18.0444 110.927 17.4591L109.989 17.5061ZM110.972 19.6699C111.571 20.2288 112.342 20.5476 113.171 20.5476V19.6081C112.59 19.6081 112.046 19.3867 111.612 18.9826L110.972 19.6699ZM113.171 20.5476C113.996 20.5476 114.782 20.2308 115.374 19.6662L114.725 18.9863C114.308 19.3847 113.754 19.6081 113.171 19.6081V20.5476ZM115.378 19.6623C115.967 19.0872 116.311 18.33 116.352 17.5061L115.414 17.4591C115.385 18.0444 115.142 18.579 114.721 18.9902L115.378 19.6623ZM116.353 17.4826C116.353 16.6201 116.023 15.8168 115.413 15.2208L114.757 15.8927C115.18 16.3066 115.414 16.8654 115.414 17.4826H116.353ZM115.402 15.2098C115.093 14.928 114.738 14.6955 114.315 14.5315L113.976 15.4076C114.28 15.5255 114.537 15.6923 114.768 15.9036L115.402 15.2098ZM114.31 14.5298C113.877 14.3672 113.409 14.2885 112.924 14.2885V15.2279C113.308 15.2279 113.662 15.2901 113.98 15.4094L114.31 14.5298ZM112.924 14.2885C113.046 14.2885 113.214 14.368 113.262 14.5621L112.351 14.7899C112.423 15.078 112.685 15.2279 112.924 15.2279V14.2885ZM113.227 14.4659C113.243 14.4984 113.264 14.5575 113.259 14.6348C113.254 14.7151 113.224 14.7776 113.194 14.8169L112.443 14.2532C112.378 14.3395 112.33 14.449 112.322 14.5762C112.314 14.7005 112.347 14.8066 112.387 14.8861L113.227 14.4659ZM113.173 14.843L115.651 11.9895L114.942 11.3735L112.464 14.2271L113.173 14.843ZM115.296 11.2118H110.787V12.1512H115.296V11.2118ZM110.787 11.2118C111.002 11.2118 111.127 11.3906 111.127 11.5406H110.188C110.188 11.855 110.431 12.1512 110.787 12.1512V11.2118ZM111.127 11.5406C111.127 11.7295 110.976 11.8811 110.787 11.8811V10.9417C110.457 10.9417 110.188 11.2107 110.188 11.5406H111.127ZM110.787 11.8811H115.578V10.9417H110.787V11.8811ZM115.578 11.8811C115.434 11.8811 115.332 11.7925 115.287 11.7037L116.127 11.2835C116.036 11.1007 115.839 10.9417 115.578 10.9417V11.8811ZM115.252 11.6075C115.249 11.5971 115.24 11.559 115.247 11.5058C115.254 11.4469 115.277 11.3936 115.308 11.3527L116.06 11.9164C116.208 11.718 116.195 11.5096 116.163 11.3797L115.252 11.6075ZM115.329 11.3264L112.84 14.1918L113.549 14.8079L116.038 11.9426L115.329 11.3264ZM113.165 14.9687C113.491 14.989 113.793 15.0601 114.062 15.1697L114.417 14.2997C114.051 14.151 113.649 14.0576 113.223 14.031L113.165 14.9687ZM114.079 15.1762C114.404 15.2945 114.701 15.4824 114.936 15.708L115.586 15.0297C115.258 14.7151 114.85 14.4568 114.4 14.2933L114.079 15.1762ZM114.932 15.7045C115.404 16.1664 115.672 16.7963 115.672 17.4943H116.611C116.611 16.5484 116.245 15.6751 115.59 15.0332L114.932 15.7045ZM115.672 17.4727C115.643 18.1176 115.376 18.7196 114.901 19.175L115.551 19.8533C116.203 19.2283 116.57 18.3977 116.611 17.516L115.672 17.4727ZM114.901 19.1749C114.437 19.6193 113.825 19.8665 113.171 19.8665V20.8059C114.066 20.8059 114.911 20.4659 115.551 19.8534L114.901 19.1749ZM120.95 20.207L120.775 20.6431L120.798 20.6521L120.821 20.6587L120.95 20.207ZM120.891 20.0426L120.459 19.8575L120.455 19.8682L120.891 20.0426ZM124.485 11.658L124.916 11.843L125.197 11.1883H124.485V11.658ZM124.802 11.5758L124.381 11.3657L124.375 11.378L124.37 11.3905L124.802 11.5758ZM121.126 20.1365L120.694 19.9512L120.69 19.9621L121.126 20.1365ZM121.124 19.7709C121.256 19.8234 121.314 19.9265 121.335 19.9895C121.356 20.0523 121.361 20.1323 121.327 20.2171L120.455 19.8682C120.398 20.0116 120.403 20.1621 120.444 20.2866C120.486 20.4112 120.585 20.5671 120.775 20.6431L121.124 19.7709ZM121.323 20.2276L124.916 11.843L124.053 11.473L120.459 19.8576L121.323 20.2276ZM124.485 11.1883H119.564V12.1277H124.485V11.1883ZM119.564 11.1883C119.68 11.1883 119.758 11.239 119.8 11.2778C119.845 11.3203 119.905 11.4047 119.905 11.5288H118.965C118.965 11.7234 119.061 11.8724 119.156 11.9619C119.247 12.0477 119.389 12.1277 119.564 12.1277V11.1883ZM119.905 11.5288C119.905 11.6199 119.869 11.6933 119.824 11.744C119.778 11.7956 119.69 11.8576 119.564 11.8576V10.9182C119.368 10.9182 119.215 11.0155 119.122 11.1199C119.03 11.2235 118.965 11.3673 118.965 11.5288H119.905ZM119.564 11.8576H124.684V10.9182H119.564V11.8576ZM124.684 11.8576C124.607 11.8576 124.551 11.8349 124.519 11.8176C124.485 11.7992 124.438 11.766 124.399 11.7072L125.181 11.1861C125.118 11.0921 125.036 11.0294 124.964 10.9905C124.894 10.9527 124.797 10.9182 124.684 10.9182V11.8576ZM124.399 11.7072C124.379 11.6765 124.356 11.6302 124.348 11.5689C124.339 11.503 124.349 11.4311 124.381 11.3657L125.222 11.7859C125.342 11.5454 125.268 11.3166 125.181 11.1861L124.399 11.7072ZM124.37 11.3905L120.694 19.9512L121.558 20.3219L125.233 11.7611L124.37 11.3905ZM120.69 19.9621C120.771 19.7583 120.972 19.7248 121.079 19.7554L120.821 20.6587C121.092 20.7361 121.434 20.6322 121.562 20.311L120.69 19.9621Z" fill="white"/>
</svg>
