<svg width="174" height="39" viewBox="0 0 174 39" fill="none" xmlns="http://www.w3.org/2000/svg">
<path d="M0 19.318C0 8.64898 8.64899 0 19.318 0H154.081C164.75 0 173.399 8.64898 173.399 19.318V19.318C173.399 29.9871 164.75 38.6361 154.081 38.6361H19.318C8.64898 38.6361 0 29.9871 0 19.318V19.318Z" fill="#FBDE74"/>
<path d="M29.3597 20.9714C29.4475 20.9714 29.5207 21.0446 29.5207 21.1324C29.5207 21.2202 29.4475 21.2934 29.3597 21.2934H26.9447V25.0841C26.9447 25.1719 26.8716 25.2451 26.7838 25.2451C26.6959 25.2451 26.6228 25.1719 26.6228 25.0841V21.2934H21.383C21.3245 21.2934 21.2659 21.2641 21.2367 21.2056C21.2074 21.147 21.222 21.0885 21.2513 21.0299L26.652 14.151C26.6959 14.0924 26.7691 14.0778 26.8277 14.0924C26.9008 14.1217 26.9447 14.1802 26.9447 14.2534V20.9714H29.3597ZM21.7197 20.9714H26.6228V14.7218L21.7197 20.9714ZM37.6143 25.3915C36.663 25.3915 35.7409 25.0256 35.053 24.367C34.3651 23.6937 33.9553 22.8009 33.9114 21.8495C33.9114 21.7617 33.97 21.6885 34.0724 21.6739C34.1602 21.6739 34.2334 21.7471 34.2334 21.8349C34.2773 22.7131 34.6432 23.5181 35.2726 24.1328C35.9166 24.7329 36.7362 25.0695 37.6143 25.0695C38.4925 25.0695 39.3268 24.7329 39.9561 24.1328C40.5855 23.5181 40.9514 22.7131 40.9953 21.8349C40.9953 20.9128 40.644 20.0639 40 19.4346C39.6634 19.1272 39.2829 18.8784 38.8291 18.7028C38.3608 18.5272 37.8485 18.4393 37.307 18.4393C37.2338 18.4393 37.1753 18.3954 37.1606 18.3369C37.1313 18.2783 37.1313 18.2198 37.1753 18.1613L40.2635 14.6047H34.6432C34.5554 14.6047 34.4822 14.5315 34.4822 14.4291C34.4822 14.3412 34.5554 14.2681 34.6432 14.2681H40.6147C40.6879 14.2681 40.7465 14.312 40.7757 14.3705C40.7904 14.4291 40.7904 14.4876 40.7465 14.5461L37.6436 18.1173C38.112 18.1466 38.551 18.2491 38.9462 18.4101C39.4292 18.5857 39.8683 18.8638 40.2196 19.2004C40.9221 19.8883 41.3173 20.825 41.3173 21.8495C41.2734 22.8009 40.8782 23.6937 40.1757 24.367C39.4878 25.0256 38.5803 25.3915 37.6143 25.3915ZM49.0077 25.3915C48.1296 25.3915 47.2953 25.0548 46.6806 24.4255C46.0512 23.8108 45.7146 22.9765 45.7146 22.0984V22.0837V18.0003C45.7146 16.683 46.0512 15.6731 46.7099 15.0145C47.0172 14.7071 47.3831 14.473 47.8076 14.3266C48.2027 14.1949 48.6418 14.1217 49.1248 14.1217H49.1395C49.6664 14.1217 50.1932 14.2534 50.6762 14.4876C51.1446 14.7364 51.569 15.0877 51.8764 15.5121C51.9349 15.5853 51.9203 15.6878 51.8471 15.7463C51.7739 15.8048 51.6715 15.7902 51.6129 15.717C51.3349 15.3219 50.9543 14.9999 50.5299 14.7803C50.0908 14.5608 49.6078 14.4437 49.1395 14.4437H49.1248C48.6857 14.4437 48.2759 14.5169 47.91 14.634C47.5441 14.7657 47.2075 14.9706 46.944 15.2487C46.344 15.8488 46.0366 16.7708 46.0366 18.0003V20.664C46.1976 20.342 46.4171 20.0347 46.6806 19.7712C47.2953 19.1419 48.1296 18.8052 49.0077 18.8052C49.8859 18.8052 50.7201 19.1419 51.3349 19.7712C51.9642 20.3859 52.3008 21.2202 52.3008 22.0984C52.3008 22.9765 51.9642 23.8108 51.3349 24.4255C50.7201 25.0548 49.8859 25.3915 49.0077 25.3915ZM49.0077 19.1272C47.3685 19.1272 46.0366 20.4591 46.0366 22.0984C46.0366 23.7376 47.3685 25.0695 49.0077 25.0695C50.647 25.0695 51.9789 23.7376 51.9789 22.0984C51.9789 20.4591 50.647 19.1272 49.0077 19.1272Z" fill="black"/>
<path d="M26.9447 21.2934V20.7079H26.3593V21.2934H26.9447ZM26.6228 21.2934H27.2082V20.7079H26.6228V21.2934ZM21.2367 21.2056L21.7603 20.9437L21.7603 20.9437L21.2367 21.2056ZM21.2513 21.0299L20.7908 20.6684L20.7542 20.7151L20.7277 20.7681L21.2513 21.0299ZM26.652 14.151L27.1126 14.5126L27.1204 14.5022L26.652 14.151ZM26.8277 14.0924L27.0451 13.5489L27.0082 13.5341L26.9696 13.5245L26.8277 14.0924ZM26.9447 20.9714H26.3593V21.5568H26.9447V20.9714ZM21.7197 20.9714L21.2591 20.61L20.5162 21.5568H21.7197V20.9714ZM26.6228 20.9714V21.5568H27.2082V20.9714H26.6228ZM26.6228 14.7218H27.2082V13.0271L26.1621 14.3604L26.6228 14.7218ZM29.3597 21.5568C29.1242 21.5568 28.9353 21.3679 28.9353 21.1324H30.1061C30.1061 20.7212 29.7708 20.3859 29.3597 20.3859V21.5568ZM28.9353 21.1324C28.9353 20.8969 29.1242 20.7079 29.3597 20.7079V21.8788C29.7708 21.8788 30.1061 21.5435 30.1061 21.1324H28.9353ZM29.3597 20.7079H26.9447V21.8788H29.3597V20.7079ZM26.3593 21.2934V25.0841H27.5302V21.2934H26.3593ZM26.3593 25.0841C26.3593 24.8486 26.5482 24.6597 26.7838 24.6597V25.8306C27.1949 25.8306 27.5302 25.4953 27.5302 25.0841H26.3593ZM26.7838 24.6597C27.0193 24.6597 27.2082 24.8486 27.2082 25.0841H26.0373C26.0373 25.4953 26.3726 25.8306 26.7838 25.8306V24.6597ZM27.2082 25.0841V21.2934H26.0373V25.0841H27.2082ZM26.6228 20.7079H21.383V21.8788H26.6228V20.7079ZM21.383 20.7079C21.5138 20.7079 21.6767 20.7765 21.7603 20.9437L20.713 21.4674C20.8552 21.7517 21.1352 21.8788 21.383 21.8788V20.7079ZM21.7603 20.9437C21.8026 21.0283 21.8121 21.1171 21.803 21.1904C21.7951 21.2529 21.7754 21.2908 21.7749 21.2917L20.7277 20.7681C20.6704 20.8826 20.559 21.1592 20.713 21.4674L21.7603 20.9437ZM21.7118 21.3915L27.1125 14.5125L26.1915 13.7894L20.7908 20.6684L21.7118 21.3915ZM27.1204 14.5022C26.9933 14.6717 26.8035 14.6898 26.6857 14.6604L26.9696 13.5245C26.7347 13.4657 26.3986 13.5131 26.1837 13.7997L27.1204 14.5022ZM26.6102 14.636C26.5594 14.6157 26.4947 14.5751 26.4415 14.5027C26.3865 14.4277 26.3593 14.3388 26.3593 14.2534H27.5302C27.5302 13.9064 27.3067 13.6535 27.0451 13.5489L26.6102 14.636ZM26.3593 14.2534V20.9714H27.5302V14.2534H26.3593ZM26.9447 21.5568H29.3597V20.3859H26.9447V21.5568ZM21.7197 21.5568H26.6228V20.3859H21.7197V21.5568ZM27.2082 20.9714V14.7218H26.0373V20.9714H27.2082ZM26.1621 14.3604L21.2591 20.61L22.1803 21.3327L27.0834 15.0831L26.1621 14.3604ZM35.053 24.367L34.6435 24.7854L34.6481 24.7898L35.053 24.367ZM33.9114 21.8495H33.326V21.863L33.3266 21.8765L33.9114 21.8495ZM34.0724 21.6739V21.0885H34.0308L33.9896 21.0944L34.0724 21.6739ZM34.2334 21.8349H33.648V21.8495L33.6487 21.8641L34.2334 21.8349ZM35.2726 24.1328L34.8634 24.5517L34.8735 24.5611L35.2726 24.1328ZM39.9561 24.1328L40.3601 24.5565L40.3652 24.5516L39.9561 24.1328ZM40.9953 21.8349L41.58 21.8641L41.5807 21.8495V21.8349H40.9953ZM40 19.4346L40.4092 19.0159L40.4021 19.0089L40.3948 19.0023L40 19.4346ZM38.8291 18.7028L39.0405 18.1568L39.0347 18.1546L38.8291 18.7028ZM37.1606 18.3369L37.7286 18.1949L37.713 18.1325L37.6843 18.0751L37.1606 18.3369ZM37.1753 18.1613L36.7332 17.7774L36.7195 17.7932L36.7069 17.81L37.1753 18.1613ZM40.2635 14.6047L40.7055 14.9885L41.5472 14.0192H40.2635V14.6047ZM40.7757 14.3705L41.3437 14.2285L41.3281 14.1662L41.2994 14.1087L40.7757 14.3705ZM40.7465 14.5461L41.1884 14.9301L41.2022 14.9142L41.2148 14.8974L40.7465 14.5461ZM37.6436 18.1173L37.2017 17.7334L36.4246 18.6277L37.6071 18.7016L37.6436 18.1173ZM38.9462 18.4101L38.7253 18.9522L38.7357 18.9564L38.7461 18.9603L38.9462 18.4101ZM40.2196 19.2004L40.6292 18.7821L40.6246 18.7777L40.2196 19.2004ZM41.3173 21.8495L41.9021 21.8765L41.9027 21.863V21.8495H41.3173ZM40.1757 24.367L40.5805 24.7898L40.5807 24.7896L40.1757 24.367ZM37.6143 24.806C36.8121 24.806 36.0356 24.4972 35.4579 23.9441L34.6481 24.7898C35.4463 25.554 36.5139 25.9769 37.6143 25.9769V24.806ZM35.4625 23.9486C34.877 23.3755 34.5331 22.6211 34.4962 21.8226L33.3266 21.8765C33.3775 22.9807 33.8533 24.0119 34.6435 24.7854L35.4625 23.9486ZM34.4969 21.8495C34.4969 21.9383 34.4658 22.0385 34.3925 22.1216C34.3184 22.2056 34.227 22.2432 34.1552 22.2535L33.9896 21.0944C33.6075 21.1489 33.326 21.4616 33.326 21.8495H34.4969ZM34.0724 22.2594C33.8369 22.2594 33.648 22.0704 33.648 21.8349H34.8188C34.8188 21.4238 34.4836 21.0885 34.0724 21.0885V22.2594ZM33.6487 21.8641C33.7 22.891 34.1296 23.8347 34.8635 24.5516L35.6816 23.714C35.1568 23.2014 34.8546 22.5351 34.8181 21.8057L33.6487 21.8641ZM34.8735 24.5611C35.6209 25.2576 36.5815 25.6549 37.6143 25.6549V24.484C36.8908 24.484 36.2122 24.2081 35.6717 23.7045L34.8735 24.5611ZM37.6143 25.6549C38.6434 25.6549 39.6222 25.2601 40.3601 24.5565L39.5521 23.7091C39.0313 24.2056 38.3416 24.484 37.6143 24.484V25.6549ZM40.3652 24.5516C41.0991 23.8347 41.5286 22.891 41.58 21.8641L40.4106 21.8057C40.3741 22.5351 40.0718 23.2014 39.547 23.714L40.3652 24.5516ZM41.5807 21.8349C41.5807 20.76 41.1693 19.7587 40.4092 19.0159L39.5908 19.8533C40.1188 20.3692 40.4098 21.0657 40.4098 21.8349H41.5807ZM40.3948 19.0023C40.01 18.6509 39.5684 18.3612 39.0405 18.1568L38.6178 19.2488C38.9973 19.3957 39.3168 19.6035 39.6053 19.8669L40.3948 19.0023ZM39.0347 18.1546C38.4945 17.952 37.9119 17.8539 37.307 17.8539V19.0248C37.7851 19.0248 38.227 19.1023 38.6236 19.251L39.0347 18.1546ZM37.307 17.8539C37.459 17.8539 37.6681 17.953 37.7286 18.1949L36.5927 18.4789C36.6824 18.8379 37.0085 19.0248 37.307 19.0248V17.8539ZM37.6843 18.0751C37.7045 18.1156 37.7308 18.1892 37.7248 18.2856C37.7185 18.3856 37.6804 18.4635 37.6436 18.5125L36.7069 17.81C36.6262 17.9175 36.5661 18.054 36.5562 18.2126C36.5465 18.3674 36.5875 18.4997 36.637 18.5987L37.6843 18.0751ZM37.6173 18.5451L40.7055 14.9885L39.8214 14.2208L36.7332 17.7774L37.6173 18.5451ZM40.2635 14.0192H34.6432V15.1901H40.2635V14.0192ZM34.6432 14.0192C34.9117 14.0192 35.0677 14.2421 35.0677 14.4291H33.8968C33.8968 14.8209 34.1991 15.1901 34.6432 15.1901V14.0192ZM35.0677 14.4291C35.0677 14.6646 34.8787 14.8535 34.6432 14.8535V13.6826C34.2321 13.6826 33.8968 14.0179 33.8968 14.4291H35.0677ZM34.6432 14.8535H40.6147V13.6826H34.6432V14.8535ZM40.6147 14.8535C40.4355 14.8535 40.3075 14.7431 40.2521 14.6323L41.2994 14.1087C41.1854 13.8808 40.9404 13.6826 40.6147 13.6826V14.8535ZM40.2078 14.5125C40.2045 14.4995 40.1938 14.452 40.2021 14.3857C40.2113 14.3123 40.2399 14.2458 40.2781 14.1949L41.2148 14.8974C41.4003 14.6501 41.3842 14.3904 41.3437 14.2285L40.2078 14.5125ZM40.3045 14.1622L37.2017 17.7334L38.0855 18.5013L41.1884 14.9301L40.3045 14.1622ZM37.6071 18.7016C38.0133 18.727 38.39 18.8156 38.7253 18.9522L39.1671 17.8679C38.712 17.6825 38.2106 17.5662 37.6801 17.533L37.6071 18.7016ZM38.7461 18.9603C39.1517 19.1077 39.5212 19.342 39.8145 19.6231L40.6246 18.7777C40.2154 18.3856 39.7068 18.0637 39.1463 17.8599L38.7461 18.9603ZM39.81 19.6187C40.3979 20.1944 40.7318 20.9795 40.7318 21.8495H41.9027C41.9027 20.6706 41.4462 19.5822 40.6292 18.7821L39.81 19.6187ZM40.7324 21.8226C40.6953 22.6264 40.3628 23.3767 39.7706 23.9443L40.5807 24.7896C41.3935 24.0107 41.8514 22.9754 41.9021 21.8765L40.7324 21.8226ZM39.7708 23.9441C39.1922 24.498 38.43 24.806 37.6143 24.806V25.9769C38.7307 25.9769 39.7833 25.5531 40.5805 24.7898L39.7708 23.9441ZM46.6806 24.4255L47.0995 24.0163L47.0897 24.0067L46.6806 24.4255ZM46.7099 15.0145L46.2959 14.6005L46.2959 14.6005L46.7099 15.0145ZM47.8076 14.3266L47.6224 13.7712L47.6167 13.7731L47.8076 14.3266ZM50.6762 14.4876L50.9509 13.9706L50.9414 13.9655L50.9317 13.9608L50.6762 14.4876ZM51.8764 15.5121L51.4022 15.8555L51.4105 15.8669L51.4192 15.8778L51.8764 15.5121ZM51.8471 15.7463L51.4814 15.2891L51.4814 15.2891L51.8471 15.7463ZM51.6129 15.717L51.1342 16.0539L51.1445 16.0687L51.1558 16.0828L51.6129 15.717ZM50.5299 14.7803L50.7989 14.2603L50.7917 14.2567L50.5299 14.7803ZM47.91 14.634L47.7316 14.0764L47.7216 14.0796L47.7117 14.0831L47.91 14.634ZM46.944 15.2487L47.358 15.6626L47.3636 15.6571L47.369 15.6513L46.944 15.2487ZM46.0366 20.664H45.4512L46.5602 20.9258L46.0366 20.664ZM46.6806 19.7712L47.0946 20.1852L47.0994 20.1803L46.6806 19.7712ZM51.3349 19.7712L50.9159 20.1804L50.9258 20.19L51.3349 19.7712ZM51.3349 24.4255L50.9257 24.0066L50.9161 24.0164L51.3349 24.4255ZM49.0077 24.806C48.2806 24.806 47.5994 24.5283 47.0994 24.0164L46.2618 24.8346C46.9912 25.5814 47.9785 25.9769 49.0077 25.9769V24.806ZM47.0897 24.0067C46.5777 23.5067 46.3001 22.8255 46.3001 22.0984H45.1292C45.1292 23.1276 45.5247 24.1149 46.2715 24.8443L47.0897 24.0067ZM46.3001 22.0984V22.0837H45.1292V22.0984H46.3001ZM46.3001 22.0837V18.0003H45.1292V22.0837H46.3001ZM46.3001 18.0003C46.3001 16.7733 46.6137 15.9386 47.1238 15.4285L46.2959 14.6005C45.4888 15.4077 45.1292 16.5928 45.1292 18.0003H46.3001ZM47.1238 15.4285C47.3703 15.182 47.6606 14.9966 47.9984 14.8801L47.6167 13.7731C47.1057 13.9494 46.6641 14.2323 46.2959 14.6005L47.1238 15.4285ZM47.9927 14.882C48.3253 14.7711 48.7017 14.7071 49.1248 14.7071V13.5363C48.582 13.5363 48.0802 13.6186 47.6224 13.7712L47.9927 14.882ZM49.1248 14.7071H49.1395V13.5363H49.1248V14.7071ZM49.1395 14.7071C49.5694 14.7071 50.0094 14.8149 50.4208 15.0144L50.9317 13.9608C50.3771 13.6919 49.7633 13.5363 49.1395 13.5363V14.7071ZM50.4016 15.0046C50.8009 15.2168 51.1534 15.5119 51.4022 15.8555L52.3506 15.1688C51.9847 14.6634 51.4883 14.2561 50.9509 13.9706L50.4016 15.0046ZM51.4192 15.8778C51.2628 15.6823 51.3187 15.4193 51.4814 15.2891L52.2128 16.2035C52.5219 15.9562 52.6071 15.4883 52.3336 15.1464L51.4192 15.8778ZM51.4814 15.2891C51.677 15.1327 51.9399 15.1886 52.0701 15.3513L51.1558 16.0828C51.4031 16.3918 51.8709 16.477 52.2129 16.2035L51.4814 15.2891ZM52.0917 15.3801C51.7562 14.9033 51.3017 14.5204 50.7988 14.2603L50.2609 15.3003C50.6069 15.4793 50.9136 15.7404 51.1342 16.0539L52.0917 15.3801ZM50.7917 14.2567C50.2755 13.9986 49.7033 13.8582 49.1395 13.8582V15.0291C49.5123 15.0291 49.9061 15.123 50.2681 15.304L50.7917 14.2567ZM49.1395 13.8582H49.1248V15.0291H49.1395V13.8582ZM49.1248 13.8582C48.6206 13.8582 48.1506 13.9423 47.7316 14.0764L48.0884 15.1915C48.4012 15.0915 48.7509 15.0291 49.1248 15.0291V13.8582ZM47.7117 14.0831C47.2733 14.241 46.8547 14.4918 46.519 14.846L47.369 15.6513C47.5603 15.4494 47.8149 15.2904 48.1083 15.1848L47.7117 14.0831ZM46.5301 14.8347C45.7803 15.5845 45.4512 16.6829 45.4512 18.0003H46.622C46.622 16.8587 46.9076 16.113 47.358 15.6626L46.5301 14.8347ZM45.4512 18.0003V20.664H46.622V18.0003H45.4512ZM46.5602 20.9258C46.6934 20.6595 46.8761 20.4037 47.0946 20.1852L46.2666 19.3573C45.9582 19.6657 45.7018 20.0245 45.513 20.4022L46.5602 20.9258ZM47.0994 20.1803C47.5994 19.6684 48.2806 19.3907 49.0077 19.3907V18.2198C47.9785 18.2198 46.9912 18.6154 46.2618 19.3621L47.0994 20.1803ZM49.0077 19.3907C49.7349 19.3907 50.416 19.6684 50.9161 20.1803L51.7537 19.3621C51.0243 18.6154 50.0369 18.2198 49.0077 18.2198V19.3907ZM50.9258 20.19C51.4377 20.69 51.7154 21.3712 51.7154 22.0984H52.8863C52.8863 21.0692 52.4907 20.0818 51.7439 19.3524L50.9258 20.19ZM51.7154 22.0984C51.7154 22.8255 51.4377 23.5067 50.9258 24.0067L51.7439 24.8443C52.4907 24.1149 52.8863 23.1276 52.8863 22.0984H51.7154ZM50.9161 24.0164C50.416 24.5283 49.7349 24.806 49.0077 24.806V25.9769C50.0369 25.9769 51.0243 25.5814 51.7537 24.8346L50.9161 24.0164ZM49.0077 18.5418C47.0452 18.5418 45.4512 20.1358 45.4512 22.0984H46.622C46.622 20.7824 47.6918 19.7127 49.0077 19.7127V18.5418ZM45.4512 22.0984C45.4512 24.0609 47.0452 25.6549 49.0077 25.6549V24.484C47.6918 24.484 46.622 23.4143 46.622 22.0984H45.4512ZM49.0077 25.6549C50.9703 25.6549 52.5643 24.0609 52.5643 22.0984H51.3934C51.3934 23.4143 50.3236 24.484 49.0077 24.484V25.6549ZM52.5643 22.0984C52.5643 20.1358 50.9703 18.5418 49.0077 18.5418V19.7127C50.3236 19.7127 51.3934 20.7824 51.3934 22.0984H52.5643Z" fill="black"/>
<rect x="56.418" y="19.3184" width="5.85443" height="1.46361" rx="0.731804" fill="black"/>
<path d="M69.4876 25.3915C69.0046 25.3915 68.5216 25.3037 68.0679 25.1134C67.6142 24.9231 67.219 24.645 66.8677 24.3084C66.5311 23.9571 66.253 23.562 66.0627 23.1082C65.8725 22.6545 65.7847 22.1715 65.7847 21.6885C65.7847 21.6007 65.8578 21.5276 65.9457 21.5276C66.0335 21.5276 66.1067 21.6007 66.1067 21.6885C66.1067 22.1276 66.1945 22.5667 66.3701 22.9765C66.5457 23.3863 66.7799 23.7522 67.1019 24.0742C67.4239 24.3962 67.7898 24.6304 68.1996 24.806C68.6094 24.9817 69.0485 25.0695 69.4876 25.0695C70.3804 25.0695 71.2293 24.6743 71.8733 23.9718C72.5173 23.2985 72.8685 22.3911 72.8685 21.4836C72.8685 20.5323 72.5612 19.6834 71.9904 19.0833C71.3903 18.4393 70.5268 18.1027 69.4876 18.1027C68.4631 18.0734 67.4678 18.3369 66.5896 18.8491C66.5311 18.8931 66.4726 18.8931 66.4286 18.8638C66.3701 18.8345 66.3408 18.776 66.3408 18.7174V14.4291C66.3408 14.3412 66.414 14.2681 66.5018 14.2681H72.3855C72.4734 14.2681 72.5465 14.3412 72.5465 14.4291C72.5465 14.5169 72.4734 14.59 72.3855 14.59H66.6628V18.4393C67.541 17.9856 68.507 17.7514 69.4876 17.7807C70.6146 17.7807 71.5659 18.1466 72.2392 18.8638C72.8539 19.5224 73.2052 20.4591 73.2052 21.4836C73.2052 22.4643 72.81 23.4595 72.1221 24.206C71.7708 24.5719 71.3756 24.8646 70.9366 25.0695C70.4828 25.289 69.9852 25.3915 69.4876 25.3915ZM84.1591 15.2194C84.2469 15.3072 84.3201 15.3804 84.3933 15.4828C84.4079 15.4828 84.4226 15.4975 84.4226 15.5121C84.9787 16.1707 85.2715 17.005 85.2715 17.8685V21.63C85.2715 22.6399 84.8763 23.5766 84.1591 24.2938C83.4566 24.9963 82.5052 25.3915 81.51 25.3915C80.5001 25.3915 79.5634 24.9963 78.8462 24.2938C78.1437 23.5766 77.7485 22.6399 77.7485 21.63V17.8685C77.7485 16.8733 78.1437 15.9219 78.8462 15.2194C79.5634 14.5022 80.5001 14.1217 81.51 14.1217C82.5052 14.1217 83.4566 14.5022 84.1591 15.2194ZM79.0804 15.4536C78.4364 16.0976 78.0705 16.9611 78.0705 17.8685V21.63C78.0705 22.4789 78.3779 23.2692 78.934 23.8986L84.0859 15.6146C84.042 15.556 83.9835 15.4975 83.9396 15.4536C83.281 14.795 82.4174 14.4437 81.51 14.4437C80.5879 14.4437 79.7244 14.795 79.0804 15.4536ZM84.9348 17.8685C84.9348 17.1514 84.7153 16.4488 84.2908 15.878L79.1682 24.1474C79.7976 24.7329 80.6318 25.0695 81.51 25.0695C82.4174 25.0695 83.281 24.7036 83.9396 24.0596C84.5836 23.4156 84.9348 22.5521 84.9348 21.63V17.8685ZM92.9592 25.3915C92.081 25.3915 91.2468 25.0548 90.632 24.4255C90.0027 23.8108 89.6661 22.9765 89.6661 22.0984V22.0837V18.0003C89.6661 16.683 90.0027 15.6731 90.6613 15.0145C90.9687 14.7071 91.3346 14.473 91.759 14.3266C92.1542 14.1949 92.5933 14.1217 93.0763 14.1217H93.0909C93.6178 14.1217 94.1447 14.2534 94.6277 14.4876C95.096 14.7364 95.5205 15.0877 95.8279 15.5121C95.8864 15.5853 95.8718 15.6878 95.7986 15.7463C95.7254 15.8048 95.6229 15.7902 95.5644 15.717C95.2863 15.3219 94.9058 14.9999 94.4813 14.7803C94.0423 14.5608 93.5593 14.4437 93.0909 14.4437H93.0763C92.6372 14.4437 92.2274 14.5169 91.8615 14.634C91.4956 14.7657 91.1589 14.9706 90.8955 15.2487C90.2954 15.8488 89.9881 16.7708 89.9881 18.0003V20.664C90.1491 20.342 90.3686 20.0347 90.632 19.7712C91.2468 19.1419 92.081 18.8052 92.9592 18.8052C93.8373 18.8052 94.6716 19.1419 95.2863 19.7712C95.9157 20.3859 96.2523 21.2202 96.2523 22.0984C96.2523 22.9765 95.9157 23.8108 95.2863 24.4255C94.6716 25.0548 93.8373 25.3915 92.9592 25.3915ZM92.9592 19.1272C91.3199 19.1272 89.9881 20.4591 89.9881 22.0984C89.9881 23.7376 91.3199 25.0695 92.9592 25.0695C94.5984 25.0695 95.9303 23.7376 95.9303 22.0984C95.9303 20.4591 94.5984 19.1272 92.9592 19.1272Z" fill="black"/>
<path d="M68.0679 25.1134L67.8415 25.6533L68.0679 25.1134ZM66.8677 24.3084L66.445 24.7135L66.4537 24.7225L66.4627 24.7311L66.8677 24.3084ZM66.0627 23.1082L66.6026 22.8818L66.6026 22.8818L66.0627 23.1082ZM66.3701 22.9765L65.832 23.2071L65.832 23.2071L66.3701 22.9765ZM67.1019 24.0742L67.5159 23.6603L67.5159 23.6603L67.1019 24.0742ZM68.1996 24.806L68.4302 24.2679L68.4302 24.2679L68.1996 24.806ZM71.8733 23.9718L71.4501 23.567L71.4417 23.5762L71.8733 23.9718ZM71.9904 19.0833L71.562 19.4825L71.5662 19.4868L71.9904 19.0833ZM69.4876 18.1027L69.4709 18.6879L69.4792 18.6882H69.4876V18.1027ZM66.5896 18.8491L66.2947 18.3435L66.2654 18.3605L66.2384 18.3808L66.5896 18.8491ZM66.4286 18.8638L66.7534 18.3767L66.7231 18.3564L66.6905 18.3401L66.4286 18.8638ZM66.6628 14.59V14.0046H66.0774V14.59H66.6628ZM66.6628 18.4393H66.0774V19.4008L66.9316 18.9595L66.6628 18.4393ZM69.4876 17.7807L69.4701 18.3659L69.4789 18.3662H69.4876V17.7807ZM72.2392 18.8638L72.6672 18.4643L72.666 18.4631L72.2392 18.8638ZM72.1221 24.206L72.5445 24.6115L72.5526 24.6027L72.1221 24.206ZM70.9366 25.0695L70.689 24.5389L70.6816 24.5425L70.9366 25.0695ZM69.4876 24.806C69.0754 24.806 68.6702 24.7311 68.2943 24.5735L67.8415 25.6533C68.373 25.8762 68.9338 25.9769 69.4876 25.9769V24.806ZM68.2943 24.5735C67.9179 24.4157 67.5817 24.1817 67.2728 23.8857L66.4627 24.7311C66.8563 25.1084 67.3104 25.4306 67.8415 25.6533L68.2943 24.5735ZM67.2904 23.9033C66.9944 23.5945 66.7605 23.2582 66.6026 22.8818L65.5229 23.3347C65.7456 23.8657 66.0678 24.3198 66.445 24.7135L67.2904 23.9033ZM66.6026 22.8818C66.445 22.506 66.3701 22.1007 66.3701 21.6885H65.1992C65.1992 22.2423 65.2999 22.8031 65.5229 23.3347L66.6026 22.8818ZM66.3701 21.6885C66.3701 21.9241 66.1812 22.113 65.9457 22.113V20.9421C65.5345 20.9421 65.1992 21.2774 65.1992 21.6885H66.3701ZM65.9457 22.113C65.7101 22.113 65.5212 21.9241 65.5212 21.6885H66.6921C66.6921 21.2774 66.3568 20.9421 65.9457 20.9421V22.113ZM65.5212 21.6885C65.5212 22.2055 65.6246 22.7231 65.832 23.2071L66.9082 22.7459C66.7644 22.4103 66.6921 22.0498 66.6921 21.6885H65.5212ZM65.832 23.2071C66.0332 23.6765 66.3069 24.1071 66.6879 24.4882L67.5159 23.6603C67.253 23.3973 67.0583 23.0961 66.9082 22.7459L65.832 23.2071ZM66.6879 24.4882C67.069 24.8693 67.4996 25.143 67.969 25.3441L68.4302 24.2679C68.08 24.1178 67.7788 23.9232 67.5159 23.6603L66.6879 24.4882ZM67.969 25.3441C68.453 25.5516 68.9707 25.6549 69.4876 25.6549V24.484C69.1264 24.484 68.7659 24.4118 68.4302 24.2679L67.969 25.3441ZM69.4876 25.6549C70.5595 25.6549 71.5605 25.1793 72.3048 24.3674L71.4417 23.5762C70.898 24.1693 70.2013 24.484 69.4876 24.484V25.6549ZM72.2963 24.3764C73.0469 23.5918 73.454 22.5384 73.454 21.4836H72.2831C72.2831 22.2437 71.9876 23.0053 71.4502 23.5671L72.2963 24.3764ZM73.454 21.4836C73.454 20.4086 73.1058 19.4065 72.4145 18.6798L71.5662 19.4868C72.0165 19.9603 72.2831 20.656 72.2831 21.4836H73.454ZM72.4187 18.6842C71.6871 17.8991 70.656 17.5173 69.4876 17.5173V18.6882C70.3975 18.6882 71.0934 18.9795 71.562 19.4824L72.4187 18.6842ZM69.5043 17.5175C68.3672 17.485 67.2644 17.7778 66.2947 18.3435L66.8846 19.3548C67.6712 18.896 68.5589 18.6619 69.4709 18.6879L69.5043 17.5175ZM66.2384 18.3808C66.2844 18.3463 66.3613 18.3067 66.4647 18.2998C66.5704 18.2927 66.6719 18.3224 66.7534 18.3767L66.1039 19.3509C66.3844 19.5379 66.7143 19.4875 66.9409 19.3175L66.2384 18.3808ZM66.6905 18.3401C66.8577 18.4238 66.9263 18.5867 66.9263 18.7174H65.7554C65.7554 18.9653 65.8825 19.2452 66.1668 19.3874L66.6905 18.3401ZM66.9263 18.7174V14.4291H65.7554V18.7174H66.9263ZM66.9263 14.4291C66.9263 14.6646 66.7373 14.8535 66.5018 14.8535V13.6826C66.0907 13.6826 65.7554 14.0179 65.7554 14.4291H66.9263ZM66.5018 14.8535H72.3855V13.6826H66.5018V14.8535ZM72.3855 14.8535C72.15 14.8535 71.9611 14.6646 71.9611 14.4291H73.132C73.132 14.0179 72.7967 13.6826 72.3855 13.6826V14.8535ZM71.9611 14.4291C71.9611 14.1935 72.15 14.0046 72.3855 14.0046V15.1755C72.7967 15.1755 73.132 14.8402 73.132 14.4291H71.9611ZM72.3855 14.0046H66.6628V15.1755H72.3855V14.0046ZM66.0774 14.59V18.4393H67.2483V14.59H66.0774ZM66.9316 18.9595C67.7271 18.5485 68.5951 18.3398 69.4701 18.3659L69.5051 17.1955C68.4189 17.1631 67.3549 17.4228 66.3941 17.9192L66.9316 18.9595ZM69.4876 18.3662C70.4843 18.3662 71.2696 18.6863 71.8123 19.2645L72.666 18.4631C71.8623 17.6069 70.7448 17.1953 69.4876 17.1953V18.3662ZM71.8112 19.2632C72.3131 19.8011 72.6197 20.5895 72.6197 21.4836H73.7906C73.7906 20.3287 73.3946 19.2438 72.6672 18.4643L71.8112 19.2632ZM72.6197 21.4836C72.6197 22.3121 72.2834 23.167 71.6916 23.8092L72.5526 24.6027C73.3366 23.752 73.7906 22.6164 73.7906 21.4836H72.6197ZM71.6998 23.8005C71.3927 24.1204 71.0554 24.368 70.689 24.539L71.1841 25.6C71.6959 25.3612 72.149 25.0233 72.5444 24.6114L71.6998 23.8005ZM70.6816 24.5425C70.3148 24.7199 69.9056 24.806 69.4876 24.806V25.9769C70.0648 25.9769 70.6508 25.8581 71.1916 25.5965L70.6816 24.5425ZM84.1591 15.2194L83.7409 15.6291L83.7451 15.6334L84.1591 15.2194ZM84.3933 15.4828L83.9169 15.8231L84.092 16.0683H84.3933V15.4828ZM84.4226 15.5121H83.8371V15.7262L83.9753 15.8898L84.4226 15.5121ZM84.1591 24.2938L84.5731 24.7077L84.5731 24.7077L84.1591 24.2938ZM78.8462 24.2938L78.4279 24.7035L78.4365 24.712L78.8462 24.2938ZM78.8462 15.2194L78.4323 14.8054L78.4323 14.8054L78.8462 15.2194ZM79.0804 15.4536L79.4944 15.8676L79.499 15.8629L79.0804 15.4536ZM78.934 23.8986L78.4953 24.2863L79.016 24.8754L79.4312 24.2078L78.934 23.8986ZM84.0859 15.6146L84.5831 15.9238L84.7946 15.5837L84.5543 15.2633L84.0859 15.6146ZM83.9396 15.4536L84.3536 15.0396L84.3536 15.0396L83.9396 15.4536ZM84.2908 15.878L84.7606 15.5287L84.2467 14.8375L83.7932 15.5697L84.2908 15.878ZM79.1682 24.1474L78.6705 23.8391L78.4171 24.2483L78.7695 24.5761L79.1682 24.1474ZM83.9396 24.0596L84.3489 24.4782L84.3536 24.4736L83.9396 24.0596ZM83.7451 15.6334C83.8354 15.7236 83.8756 15.7653 83.9169 15.8231L84.8697 15.1426C84.7647 14.9955 84.6585 14.8909 84.5731 14.8054L83.7451 15.6334ZM84.3933 16.0683C84.2102 16.0683 84.0761 15.9826 83.9995 15.906C83.9228 15.8293 83.8371 15.6952 83.8371 15.5121H85.008C85.008 15.3144 84.915 15.1657 84.8274 15.078C84.7397 14.9904 84.591 14.8974 84.3933 14.8974V16.0683ZM83.9753 15.8898C84.4385 16.4384 84.686 17.1374 84.686 17.8685H85.8569C85.8569 16.8726 85.519 15.9031 84.8699 15.1344L83.9753 15.8898ZM84.686 17.8685V21.63H85.8569V17.8685H84.686ZM84.686 21.63C84.686 22.4814 84.3548 23.2701 83.7451 23.8798L84.5731 24.7077C85.3978 23.8831 85.8569 22.7984 85.8569 21.63H84.686ZM83.7452 23.8798C83.1522 24.4728 82.3497 24.806 81.51 24.806V25.9769C82.6608 25.9769 83.761 25.5199 84.5731 24.7077L83.7452 23.8798ZM81.51 24.806C80.6579 24.806 79.867 24.4742 79.2559 23.8756L78.4365 24.712C79.2598 25.5184 80.3423 25.9769 81.51 25.9769V24.806ZM79.2644 23.8841C78.6658 23.273 78.334 22.4821 78.334 21.63H77.1631C77.1631 22.7977 77.6216 23.8802 78.428 24.7035L79.2644 23.8841ZM78.334 21.63V17.8685H77.1631V21.63H78.334ZM78.334 17.8685C78.334 17.0288 78.6672 16.2263 79.2602 15.6334L78.4323 14.8054C77.6201 15.6175 77.1631 16.7177 77.1631 17.8685H78.334ZM79.2602 15.6334C79.8657 15.0278 80.6527 14.7071 81.51 14.7071V13.5363C80.3475 13.5363 79.2611 13.9766 78.4323 14.8054L79.2602 15.6334ZM81.51 14.7071C82.355 14.7071 83.1533 15.0293 83.7409 15.6291L84.5773 14.8097C83.7598 13.9752 82.6555 13.5363 81.51 13.5363V14.7071ZM78.6664 15.0396C77.9154 15.7906 77.4851 16.8019 77.4851 17.8685H78.656C78.656 17.1202 78.9574 16.4045 79.4944 15.8675L78.6664 15.0396ZM77.4851 17.8685V21.63H78.656V17.8685H77.4851ZM77.4851 21.63C77.4851 22.6248 77.8467 23.5522 78.4953 24.2863L79.3727 23.5109C78.9091 22.9862 78.656 22.333 78.656 21.63H77.4851ZM79.4312 24.2078L84.5831 15.9238L83.5888 15.3054L78.4369 23.5894L79.4312 24.2078ZM84.5543 15.2633C84.481 15.1656 84.3917 15.0777 84.3536 15.0396L83.5256 15.8675C83.5483 15.8902 83.567 15.909 83.5848 15.928C83.6028 15.9474 83.613 15.9597 83.6176 15.9658L84.5543 15.2633ZM84.3536 15.0396C83.5847 14.2707 82.5721 13.8582 81.51 13.8582V15.0291C82.2628 15.0291 82.9772 15.3192 83.5256 15.8675L84.3536 15.0396ZM81.51 13.8582C80.4358 13.8582 79.4197 14.2692 78.6618 15.0443L79.499 15.8629C80.0291 15.3207 80.74 15.0291 81.51 15.0291V13.8582ZM85.5203 17.8685C85.5203 17.0334 85.2647 16.2066 84.7606 15.5287L83.821 16.2274C84.1659 16.6911 84.3494 17.2694 84.3494 17.8685H85.5203ZM83.7932 15.5697L78.6705 23.8391L79.6659 24.4557L84.7885 16.1863L83.7932 15.5697ZM78.7695 24.5761C79.5055 25.2607 80.4816 25.6549 81.51 25.6549V24.484C80.782 24.484 80.0896 24.205 79.567 23.7188L78.7695 24.5761ZM81.51 25.6549C82.5776 25.6549 83.5861 25.224 84.3489 24.4782L83.5303 23.641C82.9758 24.1832 82.2572 24.484 81.51 24.484V25.6549ZM84.3536 24.4736C85.11 23.7171 85.5203 22.7035 85.5203 21.63H84.3494C84.3494 22.4007 84.0571 23.1141 83.5256 23.6456L84.3536 24.4736ZM85.5203 21.63V17.8685H84.3494V21.63H85.5203ZM90.632 24.4255L91.051 24.0163L91.0411 24.0067L90.632 24.4255ZM90.6613 15.0145L90.2473 14.6005L90.2473 14.6005L90.6613 15.0145ZM91.759 14.3266L91.5739 13.7712L91.5682 13.7731L91.759 14.3266ZM94.6277 14.4876L94.9024 13.9706L94.8928 13.9655L94.8831 13.9608L94.6277 14.4876ZM95.8279 15.5121L95.3537 15.8555L95.3619 15.8669L95.3707 15.8778L95.8279 15.5121ZM95.7986 15.7463L95.4329 15.2891L95.4329 15.2891L95.7986 15.7463ZM95.5644 15.717L95.0856 16.0539L95.096 16.0687L95.1072 16.0828L95.5644 15.717ZM94.4813 14.7803L94.7503 14.2603L94.7432 14.2567L94.4813 14.7803ZM91.8615 14.634L91.683 14.0764L91.673 14.0796L91.6632 14.0831L91.8615 14.634ZM90.8955 15.2487L91.3095 15.6626L91.3151 15.6571L91.3205 15.6513L90.8955 15.2487ZM89.9881 20.664H89.4026L90.5117 20.9258L89.9881 20.664ZM90.632 19.7712L91.046 20.1852L91.0509 20.1803L90.632 19.7712ZM95.2863 19.7712L94.8674 20.1804L94.8772 20.19L95.2863 19.7712ZM95.2863 24.4255L94.8771 24.0066L94.8675 24.0164L95.2863 24.4255ZM92.9592 24.806C92.2321 24.806 91.5509 24.5283 91.0509 24.0164L90.2132 24.8346C90.9426 25.5814 91.93 25.9769 92.9592 25.9769V24.806ZM91.0411 24.0067C90.5292 23.5067 90.2515 22.8255 90.2515 22.0984H89.0806C89.0806 23.1276 89.4762 24.1149 90.223 24.8443L91.0411 24.0067ZM90.2515 22.0984V22.0837H89.0806V22.0984H90.2515ZM90.2515 22.0837V18.0003H89.0806V22.0837H90.2515ZM90.2515 18.0003C90.2515 16.7733 90.5652 15.9386 91.0753 15.4285L90.2473 14.6005C89.4402 15.4077 89.0806 16.5928 89.0806 18.0003H90.2515ZM91.0753 15.4285C91.3218 15.182 91.612 14.9966 91.9499 14.8801L91.5682 13.7731C91.0571 13.9494 90.6156 14.2323 90.2473 14.6005L91.0753 15.4285ZM91.9442 14.882C92.2768 14.7711 92.6531 14.7071 93.0763 14.7071V13.5363C92.5334 13.5363 92.0316 13.6186 91.5739 13.7712L91.9442 14.882ZM93.0763 14.7071H93.0909V13.5363H93.0763V14.7071ZM93.0909 14.7071C93.5208 14.7071 93.9609 14.8149 94.3723 15.0144L94.8831 13.9608C94.3285 13.6919 93.7148 13.5363 93.0909 13.5363V14.7071ZM94.353 15.0046C94.7524 15.2168 95.1049 15.5119 95.3537 15.8555L96.302 15.1688C95.9361 14.6634 95.4397 14.2561 94.9024 13.9706L94.353 15.0046ZM95.3707 15.8778C95.2143 15.6823 95.2701 15.4193 95.4329 15.2891L96.1643 16.2035C96.4734 15.9562 96.5585 15.4883 96.285 15.1464L95.3707 15.8778ZM95.4329 15.2891C95.6284 15.1327 95.8914 15.1886 96.0216 15.3513L95.1072 16.0828C95.3545 16.3918 95.8224 16.477 96.1643 16.2035L95.4329 15.2891ZM96.0432 15.3801C95.7076 14.9033 95.2532 14.5204 94.7503 14.2603L94.2124 15.3003C94.5584 15.4793 94.865 15.7404 95.0856 16.0539L96.0432 15.3801ZM94.7432 14.2567C94.227 13.9986 93.6547 13.8582 93.0909 13.8582V15.0291C93.4638 15.0291 93.8575 15.123 94.2195 15.304L94.7432 14.2567ZM93.0909 13.8582H93.0763V15.0291H93.0909V13.8582ZM93.0763 13.8582C92.572 13.8582 92.1021 13.9423 91.683 14.0764L92.0399 15.1915C92.3527 15.0915 92.7023 15.0291 93.0763 15.0291V13.8582ZM91.6632 14.0831C91.2247 14.241 90.8061 14.4918 90.4705 14.846L91.3205 15.6513C91.5118 15.4494 91.7664 15.2904 92.0598 15.1848L91.6632 14.0831ZM90.4815 14.8347C89.7318 15.5845 89.4026 16.6829 89.4026 18.0003H90.5735C90.5735 16.8587 90.8591 16.113 91.3095 15.6626L90.4815 14.8347ZM89.4026 18.0003V20.664H90.5735V18.0003H89.4026ZM90.5117 20.9258C90.6448 20.6595 90.8275 20.4037 91.046 20.1852L90.2181 19.3573C89.9097 19.6657 89.6533 20.0245 89.4644 20.4022L90.5117 20.9258ZM91.0509 20.1803C91.5509 19.6684 92.2321 19.3907 92.9592 19.3907V18.2198C91.93 18.2198 90.9426 18.6154 90.2132 19.3621L91.0509 20.1803ZM92.9592 19.3907C93.6863 19.3907 94.3675 19.6684 94.8675 20.1803L95.7051 19.3621C94.9757 18.6154 93.9884 18.2198 92.9592 18.2198V19.3907ZM94.8772 20.19C95.3892 20.69 95.6669 21.3712 95.6669 22.0984H96.8377C96.8377 21.0692 96.4422 20.0818 95.6954 19.3524L94.8772 20.19ZM95.6669 22.0984C95.6669 22.8255 95.3892 23.5067 94.8772 24.0067L95.6954 24.8443C96.4422 24.1149 96.8377 23.1276 96.8377 22.0984H95.6669ZM94.8675 24.0164C94.3675 24.5283 93.6863 24.806 92.9592 24.806V25.9769C93.9884 25.9769 94.9757 25.5814 95.7051 24.8346L94.8675 24.0164ZM92.9592 18.5418C90.9966 18.5418 89.4026 20.1358 89.4026 22.0984H90.5735C90.5735 20.7824 91.6433 19.7127 92.9592 19.7127V18.5418ZM89.4026 22.0984C89.4026 24.0609 90.9966 25.6549 92.9592 25.6549V24.484C91.6433 24.484 90.5735 23.4143 90.5735 22.0984H89.4026ZM92.9592 25.6549C94.9218 25.6549 96.5157 24.0609 96.5157 22.0984H95.3449C95.3449 23.4143 94.2751 24.484 92.9592 24.484V25.6549ZM96.5157 22.0984C96.5157 20.1358 94.9218 18.5418 92.9592 18.5418V19.7127C94.2751 19.7127 95.3449 20.7824 95.3449 22.0984H96.5157Z" fill="black"/>
<rect x="100.127" y="19.3184" width="5.85443" height="1.46361" rx="0.731804" fill="black"/>
<path d="M112.933 25.3915C112.055 25.3915 111.221 25.0548 110.606 24.4255C109.977 23.8108 109.64 22.9765 109.64 22.0984V22.0837V18.0003C109.64 16.683 109.977 15.6731 110.635 15.0145C110.943 14.7071 111.309 14.473 111.733 14.3266C112.128 14.1949 112.567 14.1217 113.05 14.1217H113.065C113.592 14.1217 114.119 14.2534 114.602 14.4876C115.07 14.7364 115.494 15.0877 115.802 15.5121C115.86 15.5853 115.846 15.6878 115.773 15.7463C115.699 15.8048 115.597 15.7902 115.538 15.717C115.26 15.3219 114.88 14.9999 114.455 14.7803C114.016 14.5608 113.533 14.4437 113.065 14.4437H113.05C112.611 14.4437 112.201 14.5169 111.835 14.634C111.47 14.7657 111.133 14.9706 110.869 15.2487C110.269 15.8488 109.962 16.7708 109.962 18.0003V20.664C110.123 20.342 110.343 20.0347 110.606 19.7712C111.221 19.1419 112.055 18.8052 112.933 18.8052C113.811 18.8052 114.646 19.1419 115.26 19.7712C115.89 20.3859 116.226 21.2202 116.226 22.0984C116.226 22.9765 115.89 23.8108 115.26 24.4255C114.646 25.0548 113.811 25.3915 112.933 25.3915ZM112.933 19.1272C111.294 19.1272 109.962 20.4591 109.962 22.0984C109.962 23.7376 111.294 25.0695 112.933 25.0695C114.572 25.0695 115.904 23.7376 115.904 22.0984C115.904 20.4591 114.572 19.1272 112.933 19.1272ZM127.654 25.2451H120.804C120.717 25.2451 120.643 25.1719 120.643 25.0841V24.162C120.673 23.3571 121.024 22.6838 121.756 22.0837C122.371 21.5715 123.293 21.1031 124.654 20.5908C125.781 20.181 126.527 19.6688 126.952 19.0248C127.332 18.454 127.391 17.8685 127.391 17.3563C127.391 16.5366 127.098 15.8341 126.571 15.3072C125.986 14.7364 125.137 14.4291 124.185 14.4583C123.761 14.4583 123.337 14.5461 122.941 14.7071C122.561 14.8681 122.21 15.0877 121.917 15.3658C121.287 15.9512 120.936 16.7269 120.936 17.5465V18.7028C120.936 18.7906 120.863 18.8638 120.775 18.8638C120.687 18.8638 120.614 18.7906 120.614 18.7028V17.5465C120.614 16.6245 120.995 15.7756 121.683 15.1316C122.019 14.8242 122.4 14.5754 122.824 14.4144C123.263 14.2388 123.717 14.1363 124.185 14.1217C125.225 14.1071 126.147 14.4437 126.791 15.073C127.391 15.6585 127.713 16.4488 127.713 17.3563C127.713 17.9124 127.654 18.5564 127.23 19.2151C126.761 19.9029 125.956 20.4591 124.756 20.8982C123.439 21.3958 122.561 21.8495 121.961 22.3325C121.302 22.8741 120.98 23.4595 120.98 24.162V24.9231H127.654C127.742 24.9231 127.815 24.9963 127.815 25.0841C127.815 25.1719 127.742 25.2451 127.654 25.2451ZM135.584 25.3915C134.633 25.3915 133.754 25.0548 133.096 24.4548C132.423 23.8547 132.057 23.0497 132.057 22.2008C132.057 21.3373 132.423 20.5323 133.096 19.9176C133.506 19.5517 134.003 19.2882 134.545 19.1419C133.462 18.776 132.701 17.8246 132.701 16.7123C132.701 15.2779 133.989 14.1217 135.584 14.1217C137.165 14.1217 138.453 15.2779 138.453 16.7123C138.453 17.8246 137.692 18.776 136.608 19.1419C137.15 19.2882 137.648 19.5517 138.057 19.9176C138.731 20.5323 139.097 21.3373 139.097 22.2008C139.097 23.0497 138.731 23.8547 138.057 24.4548C137.399 25.0548 136.521 25.3915 135.584 25.3915ZM135.584 14.4583C134.179 14.4583 133.037 15.4682 133.037 16.7269C133.037 17.9856 134.179 19.0101 135.584 19.0101C136.989 19.0101 138.131 17.9856 138.131 16.7269C138.131 15.4682 136.989 14.4583 135.584 14.4583ZM135.584 19.3175C133.828 19.3175 132.393 20.6201 132.393 22.2008C132.393 23.7815 133.828 25.0695 135.584 25.0695C137.355 25.0695 138.789 23.7815 138.789 22.2008C138.789 20.6201 137.355 19.3175 135.584 19.3175ZM151.472 20.9714C151.56 20.9714 151.633 21.0446 151.633 21.1324C151.633 21.2202 151.56 21.2934 151.472 21.2934H149.057V25.0841C149.057 25.1719 148.984 25.2451 148.896 25.2451C148.808 25.2451 148.735 25.1719 148.735 25.0841V21.2934H143.495C143.437 21.2934 143.378 21.2641 143.349 21.2056C143.32 21.147 143.334 21.0885 143.364 21.0299L148.764 14.151C148.808 14.0924 148.882 14.0778 148.94 14.0924C149.013 14.1217 149.057 14.1802 149.057 14.2534V20.9714H151.472ZM143.832 20.9714H148.735V14.7218L143.832 20.9714Z" fill="black"/>
<path d="M110.606 24.4255L111.025 24.0163L111.015 24.0067L110.606 24.4255ZM110.635 15.0145L110.221 14.6005L110.221 14.6005L110.635 15.0145ZM111.733 14.3266L111.548 13.7712L111.542 13.7731L111.733 14.3266ZM114.602 14.4876L114.876 13.9706L114.867 13.9655L114.857 13.9608L114.602 14.4876ZM115.802 15.5121L115.328 15.8555L115.336 15.8669L115.345 15.8778L115.802 15.5121ZM115.773 15.7463L115.407 15.2891L115.407 15.2891L115.773 15.7463ZM115.538 15.717L115.06 16.0539L115.07 16.0687L115.081 16.0828L115.538 15.717ZM114.455 14.7803L114.724 14.2603L114.717 14.2567L114.455 14.7803ZM111.835 14.634L111.657 14.0764L111.647 14.0796L111.637 14.0831L111.835 14.634ZM110.869 15.2487L111.283 15.6626L111.289 15.6571L111.294 15.6513L110.869 15.2487ZM109.962 20.664H109.377L110.486 20.9258L109.962 20.664ZM110.606 19.7712L111.02 20.1852L111.025 20.1803L110.606 19.7712ZM115.26 19.7712L114.841 20.1804L114.851 20.19L115.26 19.7712ZM115.26 24.4255L114.851 24.0066L114.841 24.0164L115.26 24.4255ZM112.933 24.806C112.206 24.806 111.525 24.5283 111.025 24.0164L110.187 24.8346C110.917 25.5814 111.904 25.9769 112.933 25.9769V24.806ZM111.015 24.0067C110.503 23.5067 110.225 22.8255 110.225 22.0984H109.055C109.055 23.1276 109.45 24.1149 110.197 24.8443L111.015 24.0067ZM110.225 22.0984V22.0837H109.055V22.0984H110.225ZM110.225 22.0837V18.0003H109.055V22.0837H110.225ZM110.225 18.0003C110.225 16.7733 110.539 15.9386 111.049 15.4285L110.221 14.6005C109.414 15.4077 109.055 16.5928 109.055 18.0003H110.225ZM111.049 15.4285C111.296 15.182 111.586 14.9966 111.924 14.8801L111.542 13.7731C111.031 13.9494 110.589 14.2323 110.221 14.6005L111.049 15.4285ZM111.918 14.882C112.251 14.7711 112.627 14.7071 113.05 14.7071V13.5363C112.507 13.5363 112.006 13.6186 111.548 13.7712L111.918 14.882ZM113.05 14.7071H113.065V13.5363H113.05V14.7071ZM113.065 14.7071C113.495 14.7071 113.935 14.8149 114.346 15.0144L114.857 13.9608C114.302 13.6919 113.689 13.5363 113.065 13.5363V14.7071ZM114.327 15.0046C114.726 15.2168 115.079 15.5119 115.328 15.8555L116.276 15.1688C115.91 14.6634 115.414 14.2561 114.876 13.9706L114.327 15.0046ZM115.345 15.8778C115.188 15.6823 115.244 15.4193 115.407 15.2891L116.138 16.2035C116.447 15.9562 116.532 15.4883 116.259 15.1464L115.345 15.8778ZM115.407 15.2891C115.602 15.1327 115.865 15.1886 115.996 15.3513L115.081 16.0828C115.328 16.3918 115.796 16.477 116.138 16.2035L115.407 15.2891ZM116.017 15.3801C115.682 14.9033 115.227 14.5204 114.724 14.2603L114.186 15.3003C114.532 15.4793 114.839 15.7404 115.06 16.0539L116.017 15.3801ZM114.717 14.2567C114.201 13.9986 113.629 13.8582 113.065 13.8582V15.0291C113.438 15.0291 113.831 15.123 114.193 15.304L114.717 14.2567ZM113.065 13.8582H113.05V15.0291H113.065V13.8582ZM113.05 13.8582C112.546 13.8582 112.076 13.9423 111.657 14.0764L112.014 15.1915C112.327 15.0915 112.676 15.0291 113.05 15.0291V13.8582ZM111.637 14.0831C111.199 14.241 110.78 14.4918 110.444 14.846L111.294 15.6513C111.486 15.4494 111.74 15.2904 112.034 15.1848L111.637 14.0831ZM110.455 14.8347C109.706 15.5845 109.377 16.6829 109.377 18.0003H110.547C110.547 16.8587 110.833 16.113 111.283 15.6626L110.455 14.8347ZM109.377 18.0003V20.664H110.547V18.0003H109.377ZM110.486 20.9258C110.619 20.6595 110.801 20.4037 111.02 20.1852L110.192 19.3573C109.884 19.6657 109.627 20.0245 109.438 20.4022L110.486 20.9258ZM111.025 20.1803C111.525 19.6684 112.206 19.3907 112.933 19.3907V18.2198C111.904 18.2198 110.917 18.6154 110.187 19.3621L111.025 20.1803ZM112.933 19.3907C113.66 19.3907 114.341 19.6684 114.841 20.1803L115.679 19.3621C114.95 18.6154 113.962 18.2198 112.933 18.2198V19.3907ZM114.851 20.19C115.363 20.69 115.641 21.3712 115.641 22.0984H116.812C116.812 21.0692 116.416 20.0818 115.669 19.3524L114.851 20.19ZM115.641 22.0984C115.641 22.8255 115.363 23.5067 114.851 24.0067L115.669 24.8443C116.416 24.1149 116.812 23.1276 116.812 22.0984H115.641ZM114.841 24.0164C114.341 24.5283 113.66 24.806 112.933 24.806V25.9769C113.962 25.9769 114.95 25.5814 115.679 24.8346L114.841 24.0164ZM112.933 18.5418C110.971 18.5418 109.377 20.1358 109.377 22.0984H110.547C110.547 20.7824 111.617 19.7127 112.933 19.7127V18.5418ZM109.377 22.0984C109.377 24.0609 110.971 25.6549 112.933 25.6549V24.484C111.617 24.484 110.547 23.4143 110.547 22.0984H109.377ZM112.933 25.6549C114.896 25.6549 116.49 24.0609 116.49 22.0984H115.319C115.319 23.4143 114.249 24.484 112.933 24.484V25.6549ZM116.49 22.0984C116.49 20.1358 114.896 18.5418 112.933 18.5418V19.7127C114.249 19.7127 115.319 20.7824 115.319 22.0984H116.49ZM120.643 24.162L120.058 24.1408L120.058 24.1514V24.162H120.643ZM121.756 22.0837L122.127 22.5364L122.131 22.5335L121.756 22.0837ZM124.654 20.5908L124.454 20.0406L124.448 20.0429L124.654 20.5908ZM126.952 19.0248L126.465 18.7L126.463 18.7026L126.952 19.0248ZM126.571 15.3072L126.985 14.8932L126.98 14.888L126.571 15.3072ZM124.185 14.4583V15.0438H124.194L124.203 15.0435L124.185 14.4583ZM122.941 14.7071L122.72 14.1649L122.713 14.168L122.941 14.7071ZM121.917 15.3658L122.316 15.7944L122.32 15.7902L121.917 15.3658ZM121.683 15.1316L121.288 14.6992L121.283 14.7042L121.683 15.1316ZM122.824 14.4144L123.032 14.9619L123.042 14.958L122.824 14.4144ZM124.185 14.1217L124.177 13.5362L124.167 13.5365L124.185 14.1217ZM126.791 15.073L126.381 15.4917L126.382 15.4921L126.791 15.073ZM127.23 19.2151L127.714 19.5445L127.718 19.5384L127.722 19.5322L127.23 19.2151ZM124.756 20.8982L124.555 20.3484L124.549 20.3505L124.756 20.8982ZM121.961 22.3325L121.594 21.8764L121.589 21.8803L121.961 22.3325ZM120.98 24.9231H120.395V25.5086H120.98V24.9231ZM127.654 24.6597H120.804V25.8306H127.654V24.6597ZM120.804 24.6597C121.04 24.6597 121.229 24.8486 121.229 25.0841H120.058C120.058 25.4953 120.393 25.8306 120.804 25.8306V24.6597ZM121.229 25.0841V24.162H120.058V25.0841H121.229ZM121.229 24.1833C121.251 23.5699 121.505 23.0461 122.127 22.5364L121.385 21.631C120.543 22.3215 120.095 23.1442 120.058 24.1408L121.229 24.1833ZM122.131 22.5335C122.668 22.0858 123.515 21.6451 124.86 21.1388L124.448 20.0429C123.071 20.5611 122.073 21.0571 121.381 21.634L122.131 22.5335ZM124.854 21.141C126.04 20.7098 126.919 20.1386 127.44 19.347L126.463 18.7026C126.136 19.1989 125.522 19.6523 124.454 20.0406L124.854 21.141ZM127.439 19.3495C127.914 18.6371 127.976 17.9137 127.976 17.3563H126.805C126.805 17.8234 126.751 18.2708 126.465 18.7L127.439 19.3495ZM127.976 17.3563C127.976 16.3887 127.627 15.535 126.985 14.8932L126.157 15.7212C126.569 16.1333 126.805 16.6846 126.805 17.3563H127.976ZM126.98 14.888C126.264 14.1904 125.253 13.8397 124.167 13.8732L124.203 15.0435C125.02 15.0184 125.707 15.2824 126.162 15.7264L126.98 14.888ZM124.185 13.8729C123.681 13.8729 123.182 13.9771 122.72 14.165L123.162 15.2493C123.491 15.1152 123.841 15.0438 124.185 15.0438V13.8729ZM122.713 14.168C122.277 14.3526 121.864 14.6085 121.514 14.9413L122.32 15.7902C122.555 15.5669 122.845 15.3837 123.169 15.2463L122.713 14.168ZM121.518 14.9371C120.778 15.626 120.351 16.5538 120.351 17.5465H121.522C121.522 16.9 121.797 16.2765 122.316 15.7944L121.518 14.9371ZM120.351 17.5465V18.7028H121.522V17.5465H120.351ZM120.351 18.7028C120.351 18.4673 120.54 18.2783 120.775 18.2783V19.4492C121.186 19.4492 121.522 19.1139 121.522 18.7028H120.351ZM120.775 18.2783C121.011 18.2783 121.2 18.4673 121.2 18.7028H120.029C120.029 19.1139 120.364 19.4492 120.775 19.4492V18.2783ZM121.2 18.7028V17.5465H120.029V18.7028H121.2ZM121.2 17.5465C121.2 16.7937 121.508 16.0973 122.083 15.559L121.283 14.7042C120.482 15.4538 120.029 16.4552 120.029 17.5465H121.2ZM122.077 15.5639C122.368 15.2985 122.687 15.0927 123.032 14.9618L122.617 13.867C122.113 14.0581 121.67 14.35 121.288 14.6992L122.077 15.5639ZM123.042 14.958C123.424 14.8052 123.81 14.7191 124.204 14.7069L124.167 13.5365C123.624 13.5535 123.103 13.6724 122.607 13.8708L123.042 14.958ZM124.194 14.7071C125.103 14.6943 125.866 14.9883 126.381 15.4917L127.2 14.6543C126.427 13.8991 125.346 13.5198 124.177 13.5363L124.194 14.7071ZM126.382 15.4921C126.86 15.9591 127.127 16.5943 127.127 17.3563H128.298C128.298 16.3033 127.921 15.3579 127.199 14.654L126.382 15.4921ZM127.127 17.3563C127.127 17.8668 127.073 18.3776 126.738 18.8979L127.722 19.5322C128.235 18.7352 128.298 17.9581 128.298 17.3563H127.127ZM126.746 18.8856C126.372 19.434 125.693 19.932 124.555 20.3484L124.957 21.448C126.22 20.9862 127.15 20.3719 127.714 19.5445L126.746 18.8856ZM124.549 20.3505C123.212 20.8558 122.266 21.3356 121.594 21.8765L122.328 22.7886C122.856 22.3635 123.666 21.9359 124.963 21.4459L124.549 20.3505ZM121.589 21.8803C120.833 22.5022 120.395 23.241 120.395 24.162H121.566C121.566 23.678 121.772 23.246 122.333 22.7847L121.589 21.8803ZM120.395 24.162V24.9231H121.566V24.162H120.395ZM120.98 25.5086H127.654V24.3377H120.98V25.5086ZM127.654 25.5086C127.419 25.5086 127.23 25.3196 127.23 25.0841H128.401C128.401 24.673 128.065 24.3377 127.654 24.3377V25.5086ZM127.23 25.0841C127.23 24.8486 127.419 24.6597 127.654 24.6597V25.8306C128.065 25.8306 128.401 25.4953 128.401 25.0841H127.23ZM133.096 24.4548L133.49 24.022L133.485 24.0177L133.096 24.4548ZM133.096 19.9176L132.706 19.4809L132.701 19.4852L133.096 19.9176ZM134.545 19.1419L134.698 19.707L136.558 19.2041L134.732 18.5872L134.545 19.1419ZM136.608 19.1419L136.421 18.5872L134.595 19.2041L136.456 19.707L136.608 19.1419ZM138.057 19.9176L138.452 19.4852L138.447 19.4809L138.057 19.9176ZM138.057 24.4548L137.668 24.0177L137.663 24.022L138.057 24.4548ZM135.584 24.806C134.772 24.806 134.036 24.5195 133.49 24.022L132.702 24.8875C133.473 25.5902 134.493 25.9769 135.584 25.9769V24.806ZM133.485 24.0177C132.931 23.5235 132.642 22.875 132.642 22.2008H131.471C131.471 23.2244 131.914 24.1859 132.706 24.8918L133.485 24.0177ZM132.642 22.2008C132.642 21.5115 132.931 20.8605 133.491 20.3499L132.701 19.4852C131.914 20.2041 131.471 21.163 131.471 22.2008H132.642ZM133.486 20.3543C133.824 20.0523 134.239 19.8309 134.698 19.707L134.392 18.5767C133.767 18.7456 133.187 19.0511 132.706 19.4809L133.486 20.3543ZM134.732 18.5872C133.855 18.291 133.286 17.5416 133.286 16.7123H132.115C132.115 18.1077 133.068 19.261 134.357 19.6965L134.732 18.5872ZM133.286 16.7123C133.286 15.6588 134.251 14.7071 135.584 14.7071V13.5363C133.726 13.5363 132.115 14.8971 132.115 16.7123H133.286ZM135.584 14.7071C136.9 14.7071 137.867 15.657 137.867 16.7123H139.038C139.038 14.8989 137.429 13.5363 135.584 13.5363V14.7071ZM137.867 16.7123C137.867 17.5416 137.298 18.291 136.421 18.5872L136.796 19.6965C138.085 19.261 139.038 18.1077 139.038 16.7123H137.867ZM136.456 19.707C136.914 19.8309 137.329 20.0523 137.668 20.3543L138.447 19.4809C137.966 19.0511 137.386 18.7456 136.761 18.5767L136.456 19.707ZM137.663 20.3499C138.222 20.8605 138.511 21.5115 138.511 22.2008H139.682C139.682 21.163 139.24 20.2041 138.452 19.4852L137.663 20.3499ZM138.511 22.2008C138.511 22.875 138.222 23.5235 137.668 24.0177L138.447 24.8918C139.239 24.1859 139.682 23.2244 139.682 22.2008H138.511ZM137.663 24.022C137.116 24.5203 136.38 24.806 135.584 24.806V25.9769C136.661 25.9769 137.681 25.5894 138.452 24.8875L137.663 24.022ZM135.584 13.8729C133.922 13.8729 132.452 15.082 132.452 16.7269H133.623C133.623 15.8545 134.435 15.0438 135.584 15.0438V13.8729ZM132.452 16.7269C132.452 18.3673 133.917 19.5956 135.584 19.5956V18.4247C134.441 18.4247 133.623 17.604 133.623 16.7269H132.452ZM135.584 19.5956C137.251 19.5956 138.716 18.3673 138.716 16.7269H137.545C137.545 17.604 136.727 18.4247 135.584 18.4247V19.5956ZM138.716 16.7269C138.716 15.082 137.246 13.8729 135.584 13.8729V15.0438C136.732 15.0438 137.545 15.8545 137.545 16.7269H138.716ZM135.584 18.7321C133.561 18.7321 131.808 20.2432 131.808 22.2008H132.979C132.979 20.997 134.095 19.9029 135.584 19.9029V18.7321ZM131.808 22.2008C131.808 24.1621 133.565 25.6549 135.584 25.6549V24.484C134.091 24.484 132.979 23.401 132.979 22.2008H131.808ZM135.584 25.6549C137.616 25.6549 139.375 24.1637 139.375 22.2008H138.204C138.204 23.3993 137.094 24.484 135.584 24.484V25.6549ZM139.375 22.2008C139.375 20.2416 137.62 18.7321 135.584 18.7321V19.9029C137.09 19.9029 138.204 20.9987 138.204 22.2008H139.375ZM149.057 21.2934V20.7079H148.472V21.2934H149.057ZM148.735 21.2934H149.321V20.7079H148.735V21.2934ZM143.349 21.2056L143.873 20.9437L143.873 20.9437L143.349 21.2056ZM143.364 21.0299L142.903 20.6684L142.867 20.7151L142.84 20.7681L143.364 21.0299ZM148.764 14.151L149.225 14.5126L149.233 14.5022L148.764 14.151ZM148.94 14.0924L149.157 13.5489L149.121 13.5341L149.082 13.5245L148.94 14.0924ZM149.057 20.9714H148.472V21.5568H149.057V20.9714ZM143.832 20.9714L143.371 20.61L142.629 21.5568H143.832V20.9714ZM148.735 20.9714V21.5568H149.321V20.9714H148.735ZM148.735 14.7218H149.321V13.0271L148.275 14.3604L148.735 14.7218ZM151.472 21.5568C151.237 21.5568 151.048 21.3679 151.048 21.1324H152.219C152.219 20.7212 151.883 20.3859 151.472 20.3859V21.5568ZM151.048 21.1324C151.048 20.8969 151.237 20.7079 151.472 20.7079V21.8788C151.883 21.8788 152.219 21.5435 152.219 21.1324H151.048ZM151.472 20.7079H149.057V21.8788H151.472V20.7079ZM148.472 21.2934V25.0841H149.643V21.2934H148.472ZM148.472 25.0841C148.472 24.8486 148.661 24.6597 148.896 24.6597V25.8306C149.307 25.8306 149.643 25.4953 149.643 25.0841H148.472ZM148.896 24.6597C149.132 24.6597 149.321 24.8486 149.321 25.0841H148.15C148.15 25.4953 148.485 25.8306 148.896 25.8306V24.6597ZM149.321 25.0841V21.2934H148.15V25.0841H149.321ZM148.735 20.7079H143.495V21.8788H148.735V20.7079ZM143.495 20.7079C143.626 20.7079 143.789 20.7765 143.873 20.9437L142.825 21.4674C142.968 21.7517 143.248 21.8788 143.495 21.8788V20.7079ZM143.873 20.9437C143.915 21.0283 143.925 21.1171 143.915 21.1904C143.908 21.2529 143.888 21.2908 143.887 21.2917L142.84 20.7681C142.783 20.8826 142.671 21.1592 142.825 21.4674L143.873 20.9437ZM143.824 21.3915L149.225 14.5125L148.304 13.7894L142.903 20.6684L143.824 21.3915ZM149.233 14.5022C149.106 14.6717 148.916 14.6898 148.798 14.6604L149.082 13.5245C148.847 13.4657 148.511 13.5131 148.296 13.7997L149.233 14.5022ZM148.723 14.636C148.672 14.6157 148.607 14.5751 148.554 14.5027C148.499 14.4277 148.472 14.3388 148.472 14.2534H149.643C149.643 13.9064 149.419 13.6535 149.157 13.5489L148.723 14.636ZM148.472 14.2534V20.9714H149.643V14.2534H148.472ZM149.057 21.5568H151.472V20.3859H149.057V21.5568ZM143.832 21.5568H148.735V20.3859H143.832V21.5568ZM149.321 20.9714V14.7218H148.15V20.9714H149.321ZM148.275 14.3604L143.371 20.61L144.293 21.3327L149.196 15.0831L148.275 14.3604Z" fill="black"/>
</svg>
