<svg width="142" height="31" viewBox="0 0 142 31" fill="none" xmlns="http://www.w3.org/2000/svg">
<path d="M0 15.3716C0 6.88208 6.88208 0 15.3716 0H125.647C134.136 0 141.018 6.88208 141.018 15.3716V15.3716C141.018 23.861 134.136 30.7431 125.647 30.7431H15.3716C6.88207 30.7431 0 23.861 0 15.3716V15.3716Z" fill="#5E0A1E"/>
<path d="M19.7393 20.3362C18.976 20.3362 18.2714 20.0661 17.7429 19.5846C17.2028 19.1032 16.9092 18.4573 16.9092 17.7762C16.9092 17.0833 17.2028 16.4375 17.7429 15.9443C18.0717 15.6507 18.471 15.4393 18.9055 15.3219C18.0365 15.0283 17.4259 14.265 17.4259 13.3725C17.4259 12.2217 18.4593 11.294 19.7393 11.294C21.0075 11.294 22.0409 12.2217 22.0409 13.3725C22.0409 14.265 21.4303 15.0283 20.5613 15.3219C20.9958 15.4393 21.3951 15.6507 21.7239 15.9443C22.264 16.4375 22.5576 17.0833 22.5576 17.7762C22.5576 18.4573 22.264 19.1032 21.7239 19.5846C21.1954 20.0661 20.4908 20.3362 19.7393 20.3362ZM19.7393 11.5641C18.6119 11.5641 17.696 12.3743 17.696 13.3843C17.696 14.3942 18.6119 15.2162 19.7393 15.2162C20.8666 15.2162 21.7826 14.3942 21.7826 13.3843C21.7826 12.3743 20.8666 11.5641 19.7393 11.5641ZM19.7393 15.4628C18.3301 15.4628 17.1793 16.5079 17.1793 17.7762C17.1793 19.0444 18.3301 20.0778 19.7393 20.0778C21.1602 20.0778 22.311 19.0444 22.311 17.7762C22.311 16.5079 21.1602 15.4628 19.7393 15.4628ZM28.8114 20.3362C28.4239 20.3362 28.0363 20.2657 27.6723 20.1131C27.3083 19.9604 26.9912 19.7373 26.7094 19.4672C26.4393 19.1854 26.2162 18.8683 26.0635 18.5043C25.9108 18.1402 25.8404 17.7527 25.8404 17.3652C25.8404 17.2947 25.8991 17.236 25.9695 17.236C26.04 17.236 26.0987 17.2947 26.0987 17.3652C26.0987 17.7175 26.1692 18.0698 26.3101 18.3986C26.451 18.7274 26.6389 19.021 26.8973 19.2793C27.1556 19.5376 27.4492 19.7255 27.778 19.8665C28.1068 20.0074 28.4591 20.0778 28.8114 20.0778C29.5277 20.0778 30.2088 19.7608 30.7255 19.1971C31.2422 18.6569 31.524 17.9288 31.524 17.2008C31.524 16.4375 31.2774 15.7564 30.8195 15.2749C30.338 14.7582 29.6451 14.4881 28.8114 14.4881C27.9894 14.4646 27.1908 14.676 26.4862 15.087C26.4393 15.1222 26.3923 15.1222 26.3571 15.0987C26.3101 15.0753 26.2866 15.0283 26.2866 14.9813V11.5406C26.2866 11.4701 26.3453 11.4114 26.4158 11.4114H31.1365C31.207 11.4114 31.2657 11.4701 31.2657 11.5406C31.2657 11.611 31.207 11.6698 31.1365 11.6698H26.545V14.7582C27.2495 14.3942 28.0246 14.2063 28.8114 14.2298C29.7156 14.2298 30.4789 14.5233 31.0191 15.0987C31.5123 15.6272 31.7941 16.3787 31.7941 17.2008C31.7941 17.9876 31.4771 18.7861 30.9251 19.385C30.6433 19.6786 30.3262 19.9134 29.9739 20.0778C29.6099 20.254 29.2106 20.3362 28.8114 20.3362ZM41.0174 20.2188H35.5686C35.4982 20.2188 35.4395 20.16 35.4395 20.0896C35.4395 20.0191 35.4982 19.9604 35.5686 19.9604H38.1521V11.7989L35.7095 13.76C35.6508 13.807 35.5686 13.7953 35.5217 13.7365C35.4747 13.6896 35.4864 13.6074 35.5451 13.5604L38.1991 11.4232C38.2461 11.3879 38.293 11.3879 38.34 11.4114C38.387 11.4232 38.4105 11.4701 38.4105 11.5288V19.9604H41.0174C41.0879 19.9604 41.1466 20.0191 41.1466 20.0896C41.1466 20.16 41.0879 20.2188 41.0174 20.2188Z" fill="white"/>
<path d="M17.7429 19.5846L18.0593 19.2374L18.0555 19.234L17.7429 19.5846ZM17.7429 15.9443L17.4301 15.5938L17.4262 15.5974L17.7429 15.9443ZM18.9055 15.3219L19.0281 15.7753L20.521 15.3718L19.0559 14.8769L18.9055 15.3219ZM20.5613 15.3219L20.4109 14.8769L18.9458 15.3718L20.4387 15.7753L20.5613 15.3219ZM21.7239 15.9443L22.0406 15.5973L22.0367 15.5939L21.7239 15.9443ZM21.7239 19.5846L21.4113 19.2339L21.4075 19.2374L21.7239 19.5846ZM19.7393 19.8665C19.0877 19.8665 18.4974 19.6365 18.0593 19.2374L17.4266 19.9318C18.0454 20.4956 18.8643 20.8059 19.7393 20.8059V19.8665ZM18.0555 19.234C17.6105 18.8374 17.3789 18.3171 17.3789 17.7762H16.4395C16.4395 18.5975 16.795 19.3689 17.4304 19.9353L18.0555 19.234ZM17.3789 17.7762C17.3789 17.2231 17.611 16.7008 18.0597 16.2911L17.4262 15.5974C16.7945 16.1742 16.4395 16.9435 16.4395 17.7762H17.3789ZM18.0558 16.2946C18.3272 16.0523 18.6603 15.8747 19.0281 15.7753L18.783 14.8684C18.2817 15.0039 17.8163 15.249 17.4301 15.5939L18.0558 16.2946ZM19.0559 14.8769C18.3523 14.6392 17.8956 14.0379 17.8956 13.3725H16.9562C16.9562 14.4921 17.7207 15.4174 18.7552 15.7669L19.0559 14.8769ZM17.8956 13.3725C17.8956 12.5272 18.67 11.7637 19.7393 11.7637V10.8243C18.2485 10.8243 16.9562 11.9161 16.9562 13.3725H17.8956ZM19.7393 11.7637C20.7952 11.7637 21.5712 12.5258 21.5712 13.3725H22.5106C22.5106 11.9176 21.2199 10.8243 19.7393 10.8243V11.7637ZM21.5712 13.3725C21.5712 14.0379 21.1145 14.6392 20.4109 14.8769L20.7116 15.7669C21.7461 15.4174 22.5106 14.4921 22.5106 13.3725H21.5712ZM20.4387 15.7753C20.8065 15.8747 21.1396 16.0523 21.411 16.2946L22.0367 15.5939C21.6505 15.249 21.1851 15.0039 20.6838 14.8684L20.4387 15.7753ZM21.4071 16.2911C21.8558 16.7008 22.0879 17.2231 22.0879 17.7762H23.0273C23.0273 16.9435 22.6723 16.1742 22.0406 15.5974L21.4071 16.2911ZM22.0879 17.7762C22.0879 18.3171 21.8563 18.8374 21.4113 19.234L22.0364 19.9353C22.6718 19.3689 23.0273 18.5975 23.0273 17.7762H22.0879ZM21.4075 19.2374C20.9687 19.6372 20.3781 19.8665 19.7393 19.8665V20.8059C20.6035 20.8059 21.4221 20.495 22.0402 19.9318L21.4075 19.2374ZM19.7393 11.0943C18.406 11.0943 17.2262 12.0644 17.2262 13.3843H18.1657C18.1657 12.6842 18.8178 12.0338 19.7393 12.0338V11.0943ZM17.2262 13.3843C17.2262 14.7004 18.4019 15.6859 19.7393 15.6859V14.7465C18.8219 14.7465 18.1657 14.0879 18.1657 13.3843H17.2262ZM19.7393 15.6859C21.0766 15.6859 22.2523 14.7004 22.2523 13.3843H21.3128C21.3128 14.0879 20.6566 14.7465 19.7393 14.7465V15.6859ZM22.2523 13.3843C22.2523 12.0644 21.0725 11.0943 19.7393 11.0943V12.0338C20.6607 12.0338 21.3128 12.6842 21.3128 13.3843H22.2523ZM19.7393 14.9931C18.1159 14.9931 16.7095 16.2055 16.7095 17.7762H17.649C17.649 16.8103 18.5443 15.9325 19.7393 15.9325V14.9931ZM16.7095 17.7762C16.7095 19.3498 18.1191 20.5476 19.7393 20.5476V19.6081C18.5411 19.6081 17.649 18.7391 17.649 17.7762H16.7095ZM19.7393 20.5476C21.3697 20.5476 22.7807 19.3511 22.7807 17.7762H21.8413C21.8413 18.7378 20.9507 19.6081 19.7393 19.6081V20.5476ZM22.7807 17.7762C22.7807 16.2042 21.373 14.9931 19.7393 14.9931V15.9325C20.9474 15.9325 21.8413 16.8117 21.8413 17.7762H22.7807ZM27.6723 20.1131L27.4906 20.5462L27.6723 20.1131ZM26.7094 19.4672L26.3702 19.7922L26.3771 19.7994L26.3844 19.8063L26.7094 19.4672ZM26.0635 18.5043L26.4967 18.3226L26.4967 18.3226L26.0635 18.5043ZM26.3101 18.3986L25.8784 18.5836L25.8784 18.5836L26.3101 18.3986ZM26.8973 19.2793L27.2294 18.9472L27.2294 18.9472L26.8973 19.2793ZM27.778 19.8665L27.963 19.4347L27.963 19.4347L27.778 19.8665ZM30.7255 19.1971L30.386 18.8723L30.3793 18.8797L30.7255 19.1971ZM30.8195 15.2749L30.4758 15.5951L30.4791 15.5986L30.8195 15.2749ZM28.8114 14.4881L28.798 14.9578H28.8114V14.4881ZM26.4862 15.087L26.2496 14.6813L26.2261 14.6949L26.2044 14.7112L26.4862 15.087ZM26.3571 15.0987L26.6176 14.7079L26.5933 14.6917L26.5671 14.6786L26.3571 15.0987ZM26.545 11.6698V11.2H26.0752V11.6698H26.545ZM26.545 14.7582H26.0752V15.5296L26.7606 15.1755L26.545 14.7582ZM28.8114 14.2298L28.7974 14.6995H28.8114V14.2298ZM31.0191 15.0987L31.3625 14.7782L31.3616 14.7773L31.0191 15.0987ZM30.9251 19.385L31.2641 19.7104L31.2706 19.7033L30.9251 19.385ZM29.9739 20.0778L29.7753 19.6521L29.7694 19.655L29.9739 20.0778ZM28.8114 19.8665C28.4807 19.8665 28.1555 19.8064 27.854 19.6799L27.4906 20.5462C27.9171 20.7251 28.3671 20.8059 28.8114 20.8059V19.8665ZM27.854 19.6799C27.552 19.5532 27.2822 19.3655 27.0344 19.1281L26.3844 19.8063C26.7002 20.109 27.0646 20.3676 27.4906 20.5462L27.854 19.6799ZM27.0485 19.1422C26.811 18.8944 26.6233 18.6246 26.4967 18.3226L25.6303 18.6859C25.809 19.112 26.0675 19.4763 26.3702 19.7922L27.0485 19.1422ZM26.4967 18.3226C26.3702 18.021 26.3101 17.6959 26.3101 17.3652H25.3706C25.3706 17.8095 25.4515 18.2594 25.6303 18.6859L26.4967 18.3226ZM26.3101 17.3652C26.3101 17.5541 26.1585 17.7057 25.9695 17.7057V16.7663C25.6397 16.7663 25.3706 17.0353 25.3706 17.3652H26.3101ZM25.9695 17.7057C25.7806 17.7057 25.629 17.5541 25.629 17.3652H26.5684C26.5684 17.0353 26.2994 16.7663 25.9695 16.7663V17.7057ZM25.629 17.3652C25.629 17.7799 25.7119 18.1953 25.8784 18.5836L26.7418 18.2135C26.6264 17.9442 26.5684 17.655 26.5684 17.3652H25.629ZM25.8784 18.5836C26.0398 18.9602 26.2594 19.3057 26.5651 19.6114L27.2294 18.9472C27.0185 18.7362 26.8623 18.4945 26.7418 18.2135L25.8784 18.5836ZM26.5651 19.6114C26.8709 19.9172 27.2163 20.1368 27.593 20.2982L27.963 19.4347C27.682 19.3143 27.4403 19.1581 27.2294 18.9472L26.5651 19.6114ZM27.593 20.2982C27.9813 20.4646 28.3966 20.5476 28.8114 20.5476V19.6081C28.5215 19.6081 28.2323 19.5501 27.963 19.4347L27.593 20.2982ZM28.8114 20.5476C29.6714 20.5476 30.4746 20.166 31.0718 19.5145L30.3793 18.8797C29.943 19.3556 29.384 19.6081 28.8114 19.6081V20.5476ZM31.065 19.5218C31.6671 18.8922 31.9938 18.0471 31.9938 17.2008H31.0543C31.0543 17.8106 30.8173 18.4216 30.3861 18.8724L31.065 19.5218ZM31.9938 17.2008C31.9938 16.3382 31.7144 15.5342 31.1598 14.9512L30.4791 15.5986C30.8405 15.9785 31.0543 16.5367 31.0543 17.2008H31.9938ZM31.1631 14.9547C30.5761 14.3248 29.7489 14.0184 28.8114 14.0184V14.9578C29.5414 14.9578 30.0998 15.1916 30.4758 15.5951L31.1631 14.9547ZM28.8248 14.0186C27.9125 13.9925 27.0276 14.2274 26.2496 14.6813L26.7229 15.4927C27.354 15.1246 28.0663 14.9367 28.798 14.9576L28.8248 14.0186ZM26.2044 14.7112C26.2414 14.6835 26.303 14.6517 26.386 14.6462C26.4708 14.6406 26.5523 14.6643 26.6176 14.7079L26.0965 15.4896C26.3215 15.6396 26.5863 15.5992 26.7681 15.4628L26.2044 14.7112ZM26.5671 14.6786C26.7013 14.7457 26.7563 14.8764 26.7563 14.9813H25.8169C25.8169 15.1802 25.9189 15.4048 26.147 15.5189L26.5671 14.6786ZM26.7563 14.9813V11.5406H25.8169V14.9813H26.7563ZM26.7563 11.5406C26.7563 11.7295 26.6047 11.8811 26.4158 11.8811V10.9417C26.0859 10.9417 25.8169 11.2107 25.8169 11.5406H26.7563ZM26.4158 11.8811H31.1365V10.9417H26.4158V11.8811ZM31.1365 11.8811C30.9476 11.8811 30.796 11.7295 30.796 11.5406H31.7354C31.7354 11.2107 31.4664 10.9417 31.1365 10.9417V11.8811ZM30.796 11.5406C30.796 11.3516 30.9476 11.2 31.1365 11.2V12.1395C31.4664 12.1395 31.7354 11.8705 31.7354 11.5406H30.796ZM31.1365 11.2H26.545V12.1395H31.1365V11.2ZM26.0752 11.6698V14.7582H27.0147V11.6698H26.0752ZM26.7606 15.1755C27.3988 14.8457 28.0953 14.6783 28.7974 14.6993L28.8254 13.7602C27.9539 13.7342 27.1003 13.9426 26.3293 14.3409L26.7606 15.1755ZM28.8114 14.6995C29.6111 14.6995 30.2411 14.9563 30.6766 15.4202L31.3616 14.7773C30.7167 14.0903 29.8201 13.76 28.8114 13.76V14.6995ZM30.6757 15.4193C31.0784 15.8508 31.3244 16.4834 31.3244 17.2008H32.2639C32.2639 16.2741 31.9462 15.4036 31.3625 14.7782L30.6757 15.4193ZM31.3244 17.2008C31.3244 17.8655 31.0546 18.5514 30.5797 19.0667L31.2706 19.7033C31.8996 19.0207 32.2639 18.1096 32.2639 17.2008H31.3244ZM30.5863 19.0597C30.3399 19.3163 30.0693 19.515 29.7753 19.6522L30.1726 20.5035C30.5832 20.3119 30.9467 20.0408 31.264 19.7103L30.5863 19.0597ZM29.7694 19.655C29.4751 19.7974 29.1468 19.8665 28.8114 19.8665V20.8059C29.2745 20.8059 29.7447 20.7106 30.1785 20.5007L29.7694 19.655ZM38.1521 19.9604V20.4301H38.6218V19.9604H38.1521ZM38.1521 11.7989H38.6218V10.8194L37.858 11.4327L38.1521 11.7989ZM35.7095 13.76L36.003 14.1268L36.0036 14.1263L35.7095 13.76ZM35.5217 13.7365L35.8884 13.4431L35.8722 13.4228L35.8538 13.4044L35.5217 13.7365ZM35.5451 13.5604L35.8386 13.9272L35.8398 13.9262L35.5451 13.5604ZM38.1991 11.4232L37.9173 11.0474L37.9108 11.0522L37.9045 11.0573L38.1991 11.4232ZM38.34 11.4114L38.1299 11.8315L38.1761 11.8546L38.2261 11.8671L38.34 11.4114ZM38.4105 19.9604H37.9407V20.4301H38.4105V19.9604ZM41.0174 19.749H35.5686V20.6885H41.0174V19.749ZM35.5686 19.749C35.7576 19.749 35.9092 19.9006 35.9092 20.0896H34.9697C34.9697 20.4195 35.2387 20.6885 35.5686 20.6885V19.749ZM35.9092 20.0896C35.9092 20.2785 35.7576 20.4301 35.5686 20.4301V19.4907C35.2387 19.4907 34.9697 19.7597 34.9697 20.0896H35.9092ZM35.5686 20.4301H38.1521V19.4907H35.5686V20.4301ZM38.6218 19.9604V11.7989H37.6824V19.9604H38.6218ZM37.858 11.4327L35.4155 13.3938L36.0036 14.1263L38.4462 12.1652L37.858 11.4327ZM35.4161 13.3932C35.573 13.2677 35.784 13.3126 35.8884 13.4431L35.1549 14.03C35.3533 14.278 35.7286 14.3463 36.003 14.1268L35.4161 13.3932ZM35.8538 13.4044C35.948 13.4986 35.9718 13.6195 35.9592 13.7119C35.9469 13.8022 35.9009 13.8774 35.8386 13.9272L35.2517 13.1936C35.0352 13.3668 34.8933 13.7725 35.1895 14.0687L35.8538 13.4044ZM35.8398 13.9262L38.4937 11.789L37.9045 11.0573L35.2505 13.1946L35.8398 13.9262ZM38.4809 11.7989C38.4416 11.8284 38.3791 11.8591 38.2988 11.8641C38.2215 11.8689 38.1624 11.8478 38.1299 11.8315L38.5501 10.9913C38.4706 10.9515 38.3645 10.9187 38.2402 10.9265C38.113 10.9344 38.0035 10.9827 37.9173 11.0474L38.4809 11.7989ZM38.2261 11.8671C38.1116 11.8385 38.0294 11.7633 37.985 11.6856C37.9457 11.6168 37.9407 11.5572 37.9407 11.5288H38.8802C38.8802 11.3789 38.8103 11.0448 38.4539 10.9557L38.2261 11.8671ZM37.9407 11.5288V19.9604H38.8802V11.5288H37.9407ZM38.4105 20.4301H41.0174V19.4907H38.4105V20.4301ZM41.0174 20.4301C40.8285 20.4301 40.6769 20.2785 40.6769 20.0896H41.6163C41.6163 19.7597 41.3473 19.4907 41.0174 19.4907V20.4301ZM40.6769 20.0896C40.6769 19.9006 40.8285 19.749 41.0174 19.749V20.6885C41.3473 20.6885 41.6163 20.4195 41.6163 20.0896H40.6769Z" fill="white"/>
<rect x="44.7891" y="15.3711" width="4.69725" height="1.17431" rx="0.587156" fill="white"/>
<path d="M60.1261 16.7898C60.1966 16.7898 60.2553 16.8485 60.2553 16.9189C60.2553 16.9894 60.1966 17.0481 60.1261 17.0481H58.1885V20.0896C58.1885 20.16 58.1298 20.2188 58.0593 20.2188C57.9888 20.2188 57.9301 20.16 57.9301 20.0896V17.0481H53.7261C53.6791 17.0481 53.6322 17.0246 53.6087 16.9776C53.5852 16.9307 53.5969 16.8837 53.6204 16.8367L57.9536 11.3175C57.9888 11.2705 58.0476 11.2587 58.0945 11.2705C58.1533 11.294 58.1885 11.341 58.1885 11.3997V16.7898H60.1261ZM53.9962 16.7898H57.9301V11.7754L53.9962 16.7898ZM66.4203 11.294C67.1249 11.294 67.7943 11.5641 68.2875 12.069C68.7924 12.5622 69.0625 13.2316 69.0625 13.9362V13.9479V17.2243C69.0625 18.2811 68.7924 19.0914 68.264 19.6199C68.0174 19.8665 67.7238 20.0543 67.3833 20.1718C67.0662 20.2775 66.7139 20.3362 66.3264 20.3362H66.3146C65.8919 20.3362 65.4691 20.2305 65.0816 20.0426C64.7058 19.843 64.3653 19.5611 64.1187 19.2206C64.0717 19.1619 64.0834 19.0797 64.1422 19.0327C64.2009 18.9857 64.2831 18.9975 64.33 19.0562C64.5532 19.3732 64.8585 19.6316 65.199 19.8077C65.5513 19.9839 65.9388 20.0778 66.3146 20.0778H66.3264C66.6787 20.0778 67.0075 20.0191 67.3011 19.9252C67.5946 19.8195 67.8647 19.6551 68.0761 19.432C68.5576 18.9505 68.8042 18.2107 68.8042 17.2243V15.087C68.675 15.3454 68.4988 15.592 68.2875 15.8033C67.7943 16.3083 67.1249 16.5784 66.4203 16.5784C65.7157 16.5784 65.0464 16.3083 64.5532 15.8033C64.0482 15.3101 63.7781 14.6408 63.7781 13.9362C63.7781 13.2316 64.0482 12.5622 64.5532 12.069C65.0464 11.5641 65.7157 11.294 66.4203 11.294ZM66.4203 16.32C67.7355 16.32 68.8042 15.2514 68.8042 13.9362C68.8042 12.621 67.7355 11.5523 66.4203 11.5523C65.1051 11.5523 64.0365 12.621 64.0365 13.9362C64.0365 15.2514 65.1051 16.32 66.4203 16.32ZM78.2316 20.2188H72.7358C72.6654 20.2188 72.6066 20.16 72.6066 20.0896V19.3498C72.6301 18.7039 72.912 18.1637 73.4991 17.6822C73.9923 17.2712 74.7322 16.8954 75.8243 16.4844C76.7285 16.1556 77.3274 15.7446 77.6679 15.2279C77.9733 14.7699 78.0202 14.3002 78.0202 13.8892C78.0202 13.2316 77.7854 12.6679 77.3626 12.2452C76.8929 11.7872 76.2118 11.5406 75.4485 11.5641C75.1079 11.5641 74.7674 11.6345 74.4503 11.7637C74.145 11.8929 73.8632 12.069 73.6283 12.2921C73.1233 12.7619 72.8415 13.3843 72.8415 14.0419V14.9696C72.8415 15.04 72.7828 15.0987 72.7123 15.0987C72.6419 15.0987 72.5832 15.04 72.5832 14.9696V14.0419C72.5832 13.3021 72.8885 12.621 73.4404 12.1043C73.7105 11.8576 74.0158 11.658 74.3564 11.5288C74.7087 11.3879 75.0727 11.3057 75.4485 11.294C76.2822 11.2822 77.0221 11.5523 77.5388 12.0573C78.0202 12.527 78.2786 13.1611 78.2786 13.8892C78.2786 14.3354 78.2316 14.8521 77.8911 15.3806C77.5153 15.9325 76.8694 16.3787 75.9065 16.731C74.8496 17.1303 74.145 17.4943 73.6635 17.8819C73.1351 18.3164 72.8767 18.7861 72.8767 19.3498V19.9604H78.2316C78.3021 19.9604 78.3608 20.0191 78.3608 20.0896C78.3608 20.16 78.3021 20.2188 78.2316 20.2188Z" fill="white"/>
<path d="M58.1885 17.0481V16.5784H57.7188V17.0481H58.1885ZM57.9301 17.0481H58.3999V16.5784H57.9301V17.0481ZM53.6087 16.9776L54.0288 16.7676L54.0288 16.7676L53.6087 16.9776ZM53.6204 16.8367L53.2509 16.5467L53.2216 16.5841L53.2003 16.6267L53.6204 16.8367ZM57.9536 11.3175L58.3232 11.6076L58.3294 11.5993L57.9536 11.3175ZM58.0945 11.2705L58.269 10.8344L58.2394 10.8225L58.2085 10.8148L58.0945 11.2705ZM58.1885 16.7898H57.7188V17.2595H58.1885V16.7898ZM53.9962 16.7898L53.6266 16.4998L53.0306 17.2595H53.9962V16.7898ZM57.9301 16.7898V17.2595H58.3999V16.7898H57.9301ZM57.9301 11.7754H58.3999V10.4157L57.5606 11.4855L57.9301 11.7754ZM60.1261 17.2595C59.9371 17.2595 59.7855 17.1079 59.7855 16.9189H60.725C60.725 16.5891 60.456 16.32 60.1261 16.32V17.2595ZM59.7855 16.9189C59.7855 16.73 59.9371 16.5784 60.1261 16.5784V17.5178C60.456 17.5178 60.725 17.2488 60.725 16.9189H59.7855ZM60.1261 16.5784H58.1885V17.5178H60.1261V16.5784ZM57.7188 17.0481V20.0896H58.6582V17.0481H57.7188ZM57.7188 20.0896C57.7188 19.9006 57.8703 19.749 58.0593 19.749V20.6885C58.3892 20.6885 58.6582 20.4195 58.6582 20.0896H57.7188ZM58.0593 19.749C58.2483 19.749 58.3999 19.9006 58.3999 20.0896H57.4604C57.4604 20.4195 57.7294 20.6885 58.0593 20.6885V19.749ZM58.3999 20.0896V17.0481H57.4604V20.0896H58.3999ZM57.9301 16.5784H53.7261V17.5178H57.9301V16.5784ZM53.7261 16.5784C53.831 16.5784 53.9617 16.6334 54.0288 16.7676L53.1885 17.1877C53.3026 17.4159 53.5273 17.5178 53.7261 17.5178V16.5784ZM54.0288 16.7676C54.0627 16.8354 54.0704 16.9067 54.063 16.9655C54.0567 17.0157 54.0409 17.046 54.0405 17.0468L53.2003 16.6267C53.1543 16.7185 53.0649 16.9405 53.1885 17.1877L54.0288 16.7676ZM53.9899 17.1268L58.3231 11.6075L57.5842 11.0274L53.2509 16.5467L53.9899 17.1268ZM58.3294 11.5993C58.2274 11.7353 58.0751 11.7498 57.9806 11.7262L58.2085 10.8148C58.02 10.7677 57.7503 10.8057 57.5778 11.0356L58.3294 11.5993ZM57.9201 11.7066C57.8793 11.6903 57.8274 11.6578 57.7847 11.5996C57.7406 11.5395 57.7188 11.4682 57.7188 11.3997H58.6582C58.6582 11.1212 58.4789 10.9183 58.269 10.8344L57.9201 11.7066ZM57.7188 11.3997V16.7898H58.6582V11.3997H57.7188ZM58.1885 17.2595H60.1261V16.32H58.1885V17.2595ZM53.9962 17.2595H57.9301V16.32H53.9962V17.2595ZM58.3999 16.7898V11.7754H57.4604V16.7898H58.3999ZM57.5606 11.4855L53.6266 16.4998L54.3658 17.0797L58.2997 12.0654L57.5606 11.4855ZM68.2875 12.069L67.9514 12.3973L67.9593 12.4051L68.2875 12.069ZM68.264 19.6199L67.9318 19.2877L67.9318 19.2877L68.264 19.6199ZM67.3833 20.1718L67.5318 20.6174L67.5364 20.6158L67.3833 20.1718ZM65.0816 20.0426L64.8612 20.4574L64.8689 20.4615L64.8767 20.4653L65.0816 20.0426ZM64.1187 19.2206L64.4991 18.9451L64.4925 18.936L64.4855 18.9272L64.1187 19.2206ZM64.1422 19.0327L63.8487 18.6659L63.8487 18.6659L64.1422 19.0327ZM64.33 19.0562L64.7142 18.7859L64.7059 18.774L64.6968 18.7627L64.33 19.0562ZM65.199 19.8077L64.9832 20.225L64.989 20.2279L65.199 19.8077ZM67.3011 19.9252L67.4442 20.3725L67.4522 20.37L67.4602 20.3671L67.3011 19.9252ZM68.0761 19.432L67.7438 19.0997L67.7351 19.1089L68.0761 19.432ZM68.8042 15.087H69.2739L68.384 14.8769L68.8042 15.087ZM68.2875 15.8033L67.9553 15.4712L67.9514 15.4751L68.2875 15.8033ZM64.5532 15.8033L64.8893 15.475L64.8814 15.4673L64.5532 15.8033ZM64.5532 12.069L64.8815 12.4051L64.8892 12.3972L64.5532 12.069ZM66.4203 11.7637C67.0037 11.7637 67.5503 11.9865 67.9514 12.3972L68.6235 11.7408C68.0383 11.1416 67.2461 10.8243 66.4203 10.8243V11.7637ZM67.9593 12.4051C68.37 12.8062 68.5928 13.3528 68.5928 13.9362H69.5322C69.5322 13.1104 69.2149 12.3182 68.6157 11.733L67.9593 12.4051ZM68.5928 13.9362V13.9479H69.5322V13.9362H68.5928ZM68.5928 13.9479V17.2243H69.5322V13.9479H68.5928ZM68.5928 17.2243C68.5928 18.2087 68.3411 18.8784 67.9318 19.2877L68.5961 19.952C69.2437 19.3044 69.5322 18.3535 69.5322 17.2243H68.5928ZM67.9318 19.2877C67.7341 19.4855 67.5012 19.6342 67.2301 19.7277L67.5364 20.6158C67.9464 20.4745 68.3007 20.2474 68.5961 19.952L67.9318 19.2877ZM67.2347 19.7262C66.9678 19.8151 66.6659 19.8665 66.3264 19.8665V20.8059C66.7619 20.8059 67.1645 20.7398 67.5318 20.6174L67.2347 19.7262ZM66.3264 19.8665H66.3146V20.8059H66.3264V19.8665ZM66.3146 19.8665C65.9697 19.8665 65.6166 19.78 65.2865 19.6199L64.8767 20.4653C65.3216 20.681 65.8141 20.8059 66.3146 20.8059V19.8665ZM65.302 19.6278C64.9816 19.4576 64.6987 19.2208 64.4991 18.9451L63.7382 19.4961C64.0318 19.9015 64.4301 20.2284 64.8612 20.4574L65.302 19.6278ZM64.4855 18.9272C64.611 19.0841 64.5661 19.295 64.4356 19.3995L63.8487 18.6659C63.6007 18.8643 63.5324 19.2397 63.7519 19.514L64.4855 18.9272ZM64.4356 19.3995C64.2787 19.525 64.0677 19.4802 63.9632 19.3496L64.6968 18.7627C64.4984 18.5148 64.1231 18.4464 63.8487 18.6659L64.4356 19.3995ZM63.9459 19.3265C64.2151 19.7091 64.5798 20.0163 64.9832 20.225L65.4148 19.3905C65.1372 19.2469 64.8912 19.0374 64.7142 18.7859L63.9459 19.3265ZM64.989 20.2279C65.4031 20.4349 65.8622 20.5476 66.3146 20.5476V19.6081C66.0155 19.6081 65.6995 19.5328 65.4091 19.3876L64.989 20.2279ZM66.3146 20.5476H66.3264V19.6081H66.3146V20.5476ZM66.3264 20.5476C66.7309 20.5476 67.108 20.4801 67.4442 20.3725L67.1579 19.4778C66.907 19.5581 66.6264 19.6081 66.3264 19.6081V20.5476ZM67.4602 20.3671C67.8119 20.2405 68.1478 20.0393 68.4171 19.755L67.7351 19.1089C67.5816 19.2709 67.3773 19.3985 67.1419 19.4832L67.4602 20.3671ZM68.4082 19.7641C69.0098 19.1625 69.2739 18.2812 69.2739 17.2243H68.3344C68.3344 18.1402 68.1053 18.7385 67.744 19.0998L68.4082 19.7641ZM69.2739 17.2243V15.087H68.3344V17.2243H69.2739ZM68.384 14.8769C68.2772 15.0906 68.1306 15.2959 67.9553 15.4712L68.6196 16.1355C68.8671 15.888 69.0728 15.6001 69.2243 15.2971L68.384 14.8769ZM67.9514 15.4751C67.5503 15.8859 67.0037 16.1087 66.4203 16.1087V17.0481C67.2461 17.0481 68.0383 16.7307 68.6235 16.1316L67.9514 15.4751ZM66.4203 16.1087C65.8369 16.1087 65.2904 15.8859 64.8892 15.4751L64.2171 16.1316C64.8024 16.7307 65.5945 17.0481 66.4203 17.0481V16.1087ZM64.8814 15.4673C64.4706 15.0661 64.2478 14.5196 64.2478 13.9362H63.3084C63.3084 14.762 63.6258 15.5541 64.2249 16.1394L64.8814 15.4673ZM64.2478 13.9362C64.2478 13.3528 64.4706 12.8062 64.8814 12.4051L64.2249 11.733C63.6258 12.3182 63.3084 13.1104 63.3084 13.9362H64.2478ZM64.8892 12.3972C65.2904 11.9865 65.8369 11.7637 66.4203 11.7637V10.8243C65.5945 10.8243 64.8024 11.1416 64.2171 11.7408L64.8892 12.3972ZM66.4203 16.7898C67.995 16.7898 69.2739 15.5108 69.2739 13.9362H68.3344C68.3344 14.992 67.4761 15.8503 66.4203 15.8503V16.7898ZM69.2739 13.9362C69.2739 12.3615 67.995 11.0826 66.4203 11.0826V12.0221C67.4761 12.0221 68.3344 12.8804 68.3344 13.9362H69.2739ZM66.4203 11.0826C64.8457 11.0826 63.5667 12.3615 63.5667 13.9362H64.5062C64.5062 12.8804 65.3645 12.0221 66.4203 12.0221V11.0826ZM63.5667 13.9362C63.5667 15.5108 64.8457 16.7898 66.4203 16.7898V15.8503C65.3645 15.8503 64.5062 14.992 64.5062 13.9362H63.5667ZM72.6066 19.3498L72.1372 19.3327L72.1369 19.3412V19.3498H72.6066ZM73.4991 17.6822L73.797 18.0455L73.7998 18.0431L73.4991 17.6822ZM75.8243 16.4844L75.6637 16.043L75.6588 16.0448L75.8243 16.4844ZM77.6679 15.2279L77.2771 14.9674L77.2757 14.9694L77.6679 15.2279ZM77.3626 12.2452L77.6948 11.913L77.6905 11.9088L77.3626 12.2452ZM75.4485 11.5641V12.0338H75.4557L75.4629 12.0336L75.4485 11.5641ZM74.4503 11.7637L74.2731 11.3287L74.2673 11.3311L74.4503 11.7637ZM73.6283 12.2921L73.9482 12.6361L73.9518 12.6327L73.6283 12.2921ZM73.4404 12.1043L73.1237 11.7573L73.1194 11.7613L73.4404 12.1043ZM74.3564 11.5288L74.523 11.9681L74.5308 11.965L74.3564 11.5288ZM75.4485 11.294L75.4419 10.8242L75.4338 10.8245L75.4485 11.294ZM77.5388 12.0573L77.2105 12.3932L77.2107 12.3935L77.5388 12.0573ZM77.8911 15.3806L78.2795 15.645L78.2859 15.635L77.8911 15.3806ZM75.9065 16.731L75.7451 16.2899L75.7405 16.2916L75.9065 16.731ZM73.6635 17.8819L73.369 17.5159L73.3652 17.519L73.6635 17.8819ZM72.8767 19.9604H72.407V20.4301H72.8767V19.9604ZM78.2316 19.749H72.7358V20.6885H78.2316V19.749ZM72.7358 19.749C72.9248 19.749 73.0764 19.9006 73.0764 20.0896H72.1369C72.1369 20.4195 72.4059 20.6885 72.7358 20.6885V19.749ZM73.0764 20.0896V19.3498H72.1369V20.0896H73.0764ZM73.0761 19.3668C73.094 18.8747 73.2983 18.4544 73.797 18.0455L73.2013 17.319C72.5257 17.873 72.1663 18.5331 72.1372 19.3327L73.0761 19.3668ZM73.7998 18.0431C74.2309 17.6839 74.9103 17.3303 75.9897 16.9241L75.6588 16.0448C74.554 16.4606 73.7538 16.8586 73.1984 17.3214L73.7998 18.0431ZM75.9848 16.9259C76.9364 16.5798 77.6415 16.1216 78.0601 15.4864L77.2757 14.9694C77.0133 15.3676 76.5206 15.7314 75.6637 16.043L75.9848 16.9259ZM78.0588 15.4885C78.4398 14.9169 78.49 14.3365 78.49 13.8892H77.5505C77.5505 14.264 77.5067 14.623 77.2771 14.9674L78.0588 15.4885ZM78.49 13.8892C78.49 13.1129 78.2096 12.4279 77.6948 11.913L77.0305 12.5773C77.3611 12.9079 77.5505 13.3503 77.5505 13.8892H78.49ZM77.6905 11.9088C77.1164 11.3491 76.3054 11.0678 75.434 11.0946L75.4629 12.0336C76.1182 12.0134 76.6693 12.2253 77.0347 12.5815L77.6905 11.9088ZM75.4485 11.0943C75.0436 11.0943 74.643 11.178 74.2731 11.3287L74.6275 12.1987C74.8917 12.0911 75.1722 12.0338 75.4485 12.0338V11.0943ZM74.2673 11.3311C73.9172 11.4792 73.5859 11.6846 73.3048 11.9516L73.9518 12.6327C74.1405 12.4535 74.3728 12.3065 74.6333 12.1963L74.2673 11.3311ZM73.3084 11.9482C72.7142 12.5009 72.3718 13.2454 72.3718 14.0419H73.3112C73.3112 13.5231 73.5325 13.0228 73.9482 12.6361L73.3084 11.9482ZM72.3718 14.0419V14.9696H73.3112V14.0419H72.3718ZM72.3718 14.9696C72.3718 14.7806 72.5234 14.629 72.7123 14.629V15.5685C73.0422 15.5685 73.3112 15.2995 73.3112 14.9696H72.3718ZM72.7123 14.629C72.9013 14.629 73.0529 14.7806 73.0529 14.9696H72.1134C72.1134 15.2995 72.3825 15.5685 72.7123 15.5685V14.629ZM73.0529 14.9696V14.0419H72.1134V14.9696H73.0529ZM73.0529 14.0419C73.0529 13.4378 73.3 12.8791 73.7614 12.4472L73.1194 11.7613C72.4769 12.3628 72.1134 13.1663 72.1134 14.0419H73.0529ZM73.7571 12.4511C73.9904 12.2382 74.246 12.0731 74.523 11.968L74.1898 11.0896C73.7856 11.2429 73.4306 11.4771 73.1237 11.7574L73.7571 12.4511ZM74.5308 11.965C74.8374 11.8424 75.1475 11.7733 75.4632 11.7635L75.4338 10.8245C74.9979 10.8381 74.58 10.9335 74.1819 11.0927L74.5308 11.965ZM75.4551 11.7637C76.1848 11.7534 76.7971 11.9893 77.2105 12.3932L77.8671 11.7213C77.247 11.1154 76.3797 10.8111 75.4419 10.8243L75.4551 11.7637ZM77.2107 12.3935C77.5948 12.7682 77.8089 13.2779 77.8089 13.8892H78.7483C78.7483 13.0444 78.4457 12.2858 77.8668 11.7211L77.2107 12.3935ZM77.8089 13.8892C77.8089 14.2988 77.7652 14.7087 77.4962 15.1261L78.2859 15.635C78.698 14.9956 78.7483 14.3721 78.7483 13.8892H77.8089ZM77.5028 15.1162C77.2032 15.5562 76.6582 15.9558 75.7451 16.2899L76.0679 17.1722C77.0806 16.8017 77.8273 16.3088 78.2793 15.6449L77.5028 15.1162ZM75.7405 16.2916C74.6674 16.697 73.9082 17.082 73.369 17.5159L73.9581 18.2478C74.3818 17.9067 75.0318 17.5636 76.0725 17.1705L75.7405 16.2916ZM73.3652 17.519C72.7584 18.018 72.407 18.6108 72.407 19.3498H73.3465C73.3465 18.9614 73.5118 18.6147 73.9619 18.2447L73.3652 17.519ZM72.407 19.3498V19.9604H73.3465V19.3498H72.407ZM72.8767 20.4301H78.2316V19.4907H72.8767V20.4301ZM78.2316 20.4301C78.0426 20.4301 77.8911 20.2785 77.8911 20.0896H78.8305C78.8305 19.7597 78.5615 19.4907 78.2316 19.4907V20.4301ZM77.8911 20.0896C77.8911 19.9006 78.0426 19.749 78.2316 19.749V20.6885C78.5615 20.6885 78.8305 20.4195 78.8305 20.0896H77.8911Z" fill="white"/>
<rect x="81.3574" y="15.3711" width="4.69725" height="1.17431" rx="0.587156" fill="white"/>
<path d="M95.7433 20.2188H90.2945C90.224 20.2188 90.1653 20.16 90.1653 20.0896C90.1653 20.0191 90.224 19.9604 90.2945 19.9604H92.8779V11.7989L90.4354 13.76C90.3767 13.807 90.2945 13.7953 90.2475 13.7365C90.2005 13.6896 90.2123 13.6074 90.271 13.5604L92.9249 11.4232C92.9719 11.3879 93.0189 11.3879 93.0658 11.4114C93.1128 11.4232 93.1363 11.4701 93.1363 11.5288V19.9604H95.7433C95.8137 19.9604 95.8724 20.0191 95.8724 20.0896C95.8724 20.16 95.8137 20.2188 95.7433 20.2188ZM104.538 12.1747C104.609 12.2452 104.667 12.3039 104.726 12.3861C104.738 12.3861 104.75 12.3978 104.75 12.4096C105.196 12.938 105.431 13.6074 105.431 14.3002V17.3182C105.431 18.1285 105.114 18.88 104.538 19.4554C103.974 20.0191 103.211 20.3362 102.413 20.3362C101.602 20.3362 100.851 20.0191 100.275 19.4554C99.7117 18.88 99.3946 18.1285 99.3946 17.3182V14.3002C99.3946 13.5017 99.7117 12.7384 100.275 12.1747C100.851 11.5993 101.602 11.294 102.413 11.294C103.211 11.294 103.974 11.5993 104.538 12.1747ZM100.463 12.3626C99.9466 12.8793 99.653 13.5721 99.653 14.3002V17.3182C99.653 17.9993 99.8996 18.6334 100.346 19.1384L104.479 12.4918C104.444 12.4448 104.397 12.3978 104.362 12.3626C103.834 11.8342 103.141 11.5523 102.413 11.5523C101.673 11.5523 100.98 11.8342 100.463 12.3626ZM105.161 14.3002C105.161 13.7248 104.984 13.1611 104.644 12.7032L100.534 19.338C101.039 19.8077 101.708 20.0778 102.413 20.0778C103.141 20.0778 103.834 19.7843 104.362 19.2676C104.879 18.7509 105.161 18.058 105.161 17.3182V14.3002ZM111.928 20.3362C111.164 20.3362 110.424 20.0426 109.873 19.5142C109.321 18.974 108.992 18.2576 108.957 17.4943C108.957 17.4239 109.004 17.3652 109.086 17.3534C109.156 17.3534 109.215 17.4121 109.215 17.4826C109.25 18.1872 109.544 18.8331 110.049 19.3263C110.565 19.8077 111.223 20.0778 111.928 20.0778C112.632 20.0778 113.302 19.8077 113.806 19.3263C114.311 18.8331 114.605 18.1872 114.64 17.4826C114.64 16.7428 114.358 16.0617 113.842 15.5567C113.572 15.3101 113.266 15.1105 112.902 14.9696C112.526 14.8287 112.115 14.7582 111.681 14.7582C111.622 14.7582 111.575 14.723 111.564 14.676C111.54 14.629 111.54 14.5821 111.575 14.5351L114.053 11.6815H109.544C109.473 11.6815 109.415 11.6228 109.415 11.5406C109.415 11.4701 109.473 11.4114 109.544 11.4114H114.335C114.394 11.4114 114.441 11.4466 114.464 11.4936C114.476 11.5406 114.476 11.5876 114.441 11.6345L111.951 14.4999C112.327 14.5233 112.679 14.6055 112.996 14.7347C113.384 14.8756 113.736 15.0987 114.018 15.3688C114.582 15.9208 114.899 16.6723 114.899 17.4943C114.863 18.2576 114.546 18.974 113.983 19.5142C113.431 20.0426 112.703 20.3362 111.928 20.3362ZM121.069 11.294C121.774 11.294 122.443 11.5641 122.936 12.069C123.441 12.5622 123.711 13.2316 123.711 13.9362V13.9479V17.2243C123.711 18.2811 123.441 19.0914 122.913 19.6199C122.666 19.8665 122.372 20.0543 122.032 20.1718C121.715 20.2775 121.363 20.3362 120.975 20.3362H120.963C120.541 20.3362 120.118 20.2305 119.73 20.0426C119.354 19.843 119.014 19.5611 118.767 19.2206C118.72 19.1619 118.732 19.0797 118.791 19.0327C118.85 18.9857 118.932 18.9975 118.979 19.0562C119.202 19.3732 119.507 19.6316 119.848 19.8077C120.2 19.9839 120.587 20.0778 120.963 20.0778H120.975C121.327 20.0778 121.656 20.0191 121.95 19.9252C122.243 19.8195 122.513 19.6551 122.725 19.432C123.206 18.9505 123.453 18.2107 123.453 17.2243V15.087C123.324 15.3454 123.147 15.592 122.936 15.8033C122.443 16.3083 121.774 16.5784 121.069 16.5784C120.364 16.5784 119.695 16.3083 119.202 15.8033C118.697 15.3101 118.427 14.6408 118.427 13.9362C118.427 13.2316 118.697 12.5622 119.202 12.069C119.695 11.5641 120.364 11.294 121.069 11.294ZM121.069 16.32C122.384 16.32 123.453 15.2514 123.453 13.9362C123.453 12.621 122.384 11.5523 121.069 11.5523C119.754 11.5523 118.685 12.621 118.685 13.9362C118.685 15.2514 119.754 16.32 121.069 16.32Z" fill="white"/>
<path d="M92.8779 19.9604V20.4301H93.3477V19.9604H92.8779ZM92.8779 11.7989H93.3477V10.8194L92.5839 11.4327L92.8779 11.7989ZM90.4354 13.76L90.7288 14.1268L90.7295 14.1263L90.4354 13.76ZM90.2475 13.7365L90.6143 13.4431L90.598 13.4228L90.5796 13.4044L90.2475 13.7365ZM90.271 13.5604L90.5644 13.9272L90.5656 13.9262L90.271 13.5604ZM92.9249 11.4232L92.6431 11.0474L92.6366 11.0522L92.6303 11.0573L92.9249 11.4232ZM93.0658 11.4114L92.8558 11.8315L92.9019 11.8546L92.9519 11.8671L93.0658 11.4114ZM93.1363 19.9604H92.6666V20.4301H93.1363V19.9604ZM95.7433 19.749H90.2945V20.6885H95.7433V19.749ZM90.2945 19.749C90.4834 19.749 90.635 19.9006 90.635 20.0896H89.6956C89.6956 20.4195 89.9646 20.6885 90.2945 20.6885V19.749ZM90.635 20.0896C90.635 20.2785 90.4834 20.4301 90.2945 20.4301V19.4907C89.9646 19.4907 89.6956 19.7597 89.6956 20.0896H90.635ZM90.2945 20.4301H92.8779V19.4907H90.2945V20.4301ZM93.3477 19.9604V11.7989H92.4082V19.9604H93.3477ZM92.5839 11.4327L90.1413 13.3938L90.7295 14.1263L93.172 12.1652L92.5839 11.4327ZM90.1419 13.3932C90.2988 13.2677 90.5098 13.3126 90.6143 13.4431L89.8807 14.03C90.0791 14.278 90.4545 14.3463 90.7288 14.1268L90.1419 13.3932ZM90.5796 13.4044C90.6739 13.4986 90.6976 13.6195 90.685 13.7119C90.6727 13.8022 90.6267 13.8774 90.5644 13.9272L89.9775 13.1936C89.7611 13.3668 89.6191 13.7725 89.9153 14.0687L90.5796 13.4044ZM90.5656 13.9262L93.2195 11.789L92.6303 11.0573L89.9764 13.1946L90.5656 13.9262ZM93.2068 11.7989C93.1674 11.8284 93.1049 11.8591 93.0247 11.8641C92.9474 11.8689 92.8883 11.8478 92.8558 11.8315L93.2759 10.9913C93.1964 10.9515 93.0904 10.9187 92.9661 10.9265C92.8389 10.9344 92.7294 10.9827 92.6431 11.0474L93.2068 11.7989ZM92.9519 11.8671C92.8374 11.8385 92.7552 11.7633 92.7108 11.6856C92.6716 11.6168 92.6666 11.5572 92.6666 11.5288H93.606C93.606 11.3789 93.5361 11.0448 93.1798 10.9557L92.9519 11.8671ZM92.6666 11.5288V19.9604H93.606V11.5288H92.6666ZM93.1363 20.4301H95.7433V19.4907H93.1363V20.4301ZM95.7433 20.4301C95.5543 20.4301 95.4027 20.2785 95.4027 20.0896H96.3422C96.3422 19.7597 96.0731 19.4907 95.7433 19.4907V20.4301ZM95.4027 20.0896C95.4027 19.9006 95.5543 19.749 95.7433 19.749V20.6885C96.0731 20.6885 96.3422 20.4195 96.3422 20.0896H95.4027ZM104.538 12.1747L104.203 12.5034L104.206 12.5069L104.538 12.1747ZM104.726 12.3861L104.344 12.6591L104.484 12.8558H104.726V12.3861ZM104.75 12.4096H104.28V12.5814L104.391 12.7126L104.75 12.4096ZM104.538 19.4554L104.87 19.7876L104.87 19.7876L104.538 19.4554ZM100.275 19.4554L99.9398 19.7842L99.9467 19.791L100.275 19.4554ZM100.275 12.1747L99.9432 11.8426L99.9432 11.8426L100.275 12.1747ZM100.463 12.3626L100.795 12.6948L100.799 12.691L100.463 12.3626ZM100.346 19.1384L99.9939 19.4494L100.412 19.9221L100.745 19.3864L100.346 19.1384ZM104.479 12.4918L104.878 12.7398L105.048 12.467L104.855 12.2099L104.479 12.4918ZM104.362 12.3626L104.694 12.0305L104.694 12.0305L104.362 12.3626ZM104.644 12.7032L105.021 12.4229L104.608 11.8683L104.244 12.4558L104.644 12.7032ZM100.534 19.338L100.134 19.0907L99.9311 19.4189L100.214 19.6819L100.534 19.338ZM104.362 19.2676L104.69 19.6034L104.694 19.5997L104.362 19.2676ZM104.206 12.5069C104.278 12.5792 104.311 12.6127 104.344 12.6591L105.108 12.1131C105.024 11.9951 104.939 11.9111 104.87 11.8426L104.206 12.5069ZM104.726 12.8558C104.579 12.8558 104.472 12.7871 104.41 12.7256C104.349 12.6641 104.28 12.5565 104.28 12.4096H105.219C105.219 12.2509 105.145 12.1316 105.074 12.0613C105.004 11.991 104.885 11.9164 104.726 11.9164V12.8558ZM104.391 12.7126C104.762 13.1528 104.961 13.7136 104.961 14.3002H105.9C105.9 13.5012 105.629 12.7233 105.108 12.1065L104.391 12.7126ZM104.961 14.3002V17.3182H105.9V14.3002H104.961ZM104.961 17.3182C104.961 18.0013 104.695 18.6341 104.206 19.1233L104.87 19.7876C105.532 19.1259 105.9 18.2556 105.9 17.3182H104.961ZM104.206 19.1233C103.73 19.5991 103.086 19.8665 102.413 19.8665V20.8059C103.336 20.8059 104.219 20.4392 104.87 19.7876L104.206 19.1233ZM102.413 19.8665C101.729 19.8665 101.094 19.6002 100.604 19.1199L99.9467 19.791C100.607 20.438 101.476 20.8059 102.413 20.8059V19.8665ZM100.611 19.1267C100.131 18.6364 99.8644 18.0019 99.8644 17.3182H98.9249C98.9249 18.2551 99.2928 19.1236 99.9398 19.7842L100.611 19.1267ZM99.8644 17.3182V14.3002H98.9249V17.3182H99.8644ZM99.8644 14.3002C99.8644 13.6265 100.132 12.9826 100.608 12.5069L99.9432 11.8426C99.2916 12.4942 98.9249 13.3769 98.9249 14.3002H99.8644ZM100.608 12.5069C101.093 12.021 101.725 11.7637 102.413 11.7637V10.8243C101.48 10.8243 100.608 11.1776 99.9432 11.8426L100.608 12.5069ZM102.413 11.7637C103.091 11.7637 103.731 12.0222 104.203 12.5034L104.874 11.846C104.218 11.1764 103.332 10.8243 102.413 10.8243V11.7637ZM100.131 12.0305C99.5286 12.633 99.1833 13.4444 99.1833 14.3002H100.123C100.123 13.6998 100.365 13.1256 100.795 12.6947L100.131 12.0305ZM99.1833 14.3002V17.3182H100.123V14.3002H99.1833ZM99.1833 17.3182C99.1833 18.1163 99.4734 18.8605 99.9939 19.4494L100.698 18.8273C100.326 18.4064 100.123 17.8823 100.123 17.3182H99.1833ZM100.745 19.3864L104.878 12.7398L104.081 12.2437L99.947 18.8903L100.745 19.3864ZM104.855 12.2099C104.796 12.1316 104.725 12.0611 104.694 12.0305L104.03 12.6947C104.048 12.713 104.063 12.728 104.077 12.7433C104.092 12.7588 104.1 12.7687 104.104 12.7736L104.855 12.2099ZM104.694 12.0305C104.077 11.4136 103.265 11.0826 102.413 11.0826V12.0221C103.017 12.0221 103.59 12.2548 104.03 12.6947L104.694 12.0305ZM102.413 11.0826C101.551 11.0826 100.735 11.4123 100.127 12.0342L100.799 12.691C101.224 12.256 101.795 12.0221 102.413 12.0221V11.0826ZM105.63 14.3002C105.63 13.6301 105.425 12.9668 105.021 12.4229L104.267 12.9834C104.544 13.3555 104.691 13.8195 104.691 14.3002H105.63ZM104.244 12.4558L100.134 19.0907L100.933 19.5854L105.043 12.9505L104.244 12.4558ZM100.214 19.6819C100.804 20.2313 101.588 20.5476 102.413 20.5476V19.6081C101.829 19.6081 101.273 19.3842 100.854 18.9941L100.214 19.6819ZM102.413 20.5476C103.269 20.5476 104.078 20.2018 104.69 19.6034L104.034 18.9317C103.589 19.3667 103.012 19.6081 102.413 19.6081V20.5476ZM104.694 19.5997C105.301 18.9927 105.63 18.1795 105.63 17.3182H104.691C104.691 17.9365 104.456 18.509 104.03 18.9354L104.694 19.5997ZM105.63 17.3182V14.3002H104.691V17.3182H105.63ZM109.873 19.5142L109.544 19.8499L109.548 19.8534L109.873 19.5142ZM108.957 17.4943H108.487V17.5052L108.487 17.516L108.957 17.4943ZM109.086 17.3534V16.8837H109.052L109.019 16.8884L109.086 17.3534ZM109.215 17.4826H108.745V17.4943L108.746 17.5061L109.215 17.4826ZM110.049 19.3263L109.72 19.6624L109.728 19.6699L110.049 19.3263ZM113.806 19.3263L114.131 19.6663L114.135 19.6623L113.806 19.3263ZM114.64 17.4826L115.109 17.5061L115.11 17.4943V17.4826H114.64ZM113.842 15.5567L114.17 15.2208L114.164 15.2152L114.158 15.2098L113.842 15.5567ZM112.902 14.9696L113.072 14.5315L113.067 14.5298L112.902 14.9696ZM111.564 14.676L112.019 14.5621L112.007 14.512L111.984 14.4659L111.564 14.676ZM111.575 14.5351L111.221 14.2271L111.21 14.2398L111.2 14.2532L111.575 14.5351ZM114.053 11.6815L114.408 11.9895L115.083 11.2118H114.053V11.6815ZM114.464 11.4936L114.92 11.3797L114.907 11.3297L114.884 11.2835L114.464 11.4936ZM114.441 11.6345L114.795 11.9426L114.806 11.9299L114.816 11.9164L114.441 11.6345ZM111.951 14.4999L111.596 14.1918L110.973 14.9094L111.922 14.9687L111.951 14.4999ZM112.996 14.7347L112.819 15.1697L112.827 15.1731L112.836 15.1762L112.996 14.7347ZM114.018 15.3688L114.347 15.0332L114.343 15.0297L114.018 15.3688ZM114.899 17.4943L115.368 17.516L115.368 17.5052V17.4943H114.899ZM113.983 19.5142L114.307 19.8534L114.308 19.8533L113.983 19.5142ZM111.928 19.8665C111.284 19.8665 110.661 19.6187 110.197 19.1749L109.548 19.8534C110.188 20.4666 111.045 20.8059 111.928 20.8059V19.8665ZM110.201 19.1785C109.731 18.7186 109.455 18.1134 109.426 17.4727L108.487 17.516C108.528 18.4019 108.91 19.2293 109.544 19.8499L110.201 19.1785ZM109.426 17.4943C109.426 17.5656 109.401 17.646 109.343 17.7126C109.283 17.78 109.21 17.8102 109.152 17.8184L109.019 16.8884C108.713 16.9322 108.487 17.1831 108.487 17.4943H109.426ZM109.086 17.8232C108.897 17.8232 108.745 17.6716 108.745 17.4826H109.685C109.685 17.1527 109.416 16.8837 109.086 16.8837V17.8232ZM108.746 17.5061C108.787 18.33 109.132 19.0872 109.72 19.6623L110.377 18.9902C109.956 18.579 109.713 18.0444 109.684 17.4591L108.746 17.5061ZM109.728 19.6699C110.328 20.2288 111.099 20.5476 111.928 20.5476V19.6081C111.347 19.6081 110.803 19.3867 110.369 18.9826L109.728 19.6699ZM111.928 20.5476C112.753 20.5476 113.539 20.2308 114.131 19.6662L113.482 18.9863C113.064 19.3847 112.511 19.6081 111.928 19.6081V20.5476ZM114.135 19.6623C114.724 19.0872 115.068 18.33 115.109 17.5061L114.171 17.4591C114.142 18.0444 113.899 18.579 113.478 18.9902L114.135 19.6623ZM115.11 17.4826C115.11 16.6201 114.78 15.8168 114.17 15.2208L113.513 15.8927C113.937 16.3066 114.171 16.8654 114.171 17.4826H115.11ZM114.158 15.2098C113.85 14.928 113.495 14.6955 113.072 14.5315L112.733 15.4076C113.037 15.5255 113.294 15.6923 113.525 15.9036L114.158 15.2098ZM113.067 14.5298C112.634 14.3672 112.166 14.2885 111.681 14.2885V15.2279C112.065 15.2279 112.419 15.2901 112.737 15.4094L113.067 14.5298ZM111.681 14.2885C111.803 14.2885 111.971 14.368 112.019 14.5621L111.108 14.7899C111.18 15.078 111.442 15.2279 111.681 15.2279V14.2885ZM111.984 14.4659C112 14.4984 112.021 14.5575 112.016 14.6348C112.011 14.7151 111.981 14.7776 111.951 14.8169L111.2 14.2532C111.135 14.3395 111.087 14.449 111.079 14.5762C111.071 14.7005 111.104 14.8066 111.143 14.8861L111.984 14.4659ZM111.93 14.843L114.408 11.9895L113.698 11.3735L111.221 14.2271L111.93 14.843ZM114.053 11.2118H109.544V12.1512H114.053V11.2118ZM109.544 11.2118C109.759 11.2118 109.884 11.3906 109.884 11.5406H108.945C108.945 11.855 109.187 12.1512 109.544 12.1512V11.2118ZM109.884 11.5406C109.884 11.7295 109.733 11.8811 109.544 11.8811V10.9417C109.214 10.9417 108.945 11.2107 108.945 11.5406H109.884ZM109.544 11.8811H114.335V10.9417H109.544V11.8811ZM114.335 11.8811C114.191 11.8811 114.088 11.7925 114.044 11.7037L114.884 11.2835C114.793 11.1007 114.596 10.9417 114.335 10.9417V11.8811ZM114.008 11.6075C114.006 11.5971 113.997 11.559 114.004 11.5058C114.011 11.4469 114.034 11.3936 114.065 11.3527L114.816 11.9164C114.965 11.718 114.952 11.5096 114.92 11.3797L114.008 11.6075ZM114.086 11.3264L111.596 14.1918L112.306 14.8079L114.795 11.9426L114.086 11.3264ZM111.922 14.9687C112.248 14.989 112.55 15.0601 112.819 15.1697L113.173 14.2997C112.808 14.151 112.406 14.0576 111.98 14.031L111.922 14.9687ZM112.836 15.1762C113.161 15.2945 113.457 15.4824 113.693 15.708L114.343 15.0297C114.015 14.7151 113.606 14.4568 113.157 14.2933L112.836 15.1762ZM113.689 15.7045C114.161 16.1664 114.429 16.7963 114.429 17.4943H115.368C115.368 16.5484 115.002 15.6751 114.346 15.0332L113.689 15.7045ZM114.429 17.4727C114.4 18.1176 114.133 18.7196 113.658 19.175L114.308 19.8533C114.96 19.2283 115.327 18.3977 115.368 17.516L114.429 17.4727ZM113.658 19.1749C113.194 19.6193 112.582 19.8665 111.928 19.8665V20.8059C112.823 20.8059 113.668 20.4659 114.307 19.8534L113.658 19.1749ZM122.936 12.069L122.6 12.3973L122.608 12.4051L122.936 12.069ZM122.913 19.6199L122.58 19.2877L122.58 19.2877L122.913 19.6199ZM122.032 20.1718L122.18 20.6174L122.185 20.6158L122.032 20.1718ZM119.73 20.0426L119.51 20.4574L119.518 20.4615L119.525 20.4653L119.73 20.0426ZM118.767 19.2206L119.148 18.9451L119.141 18.936L119.134 18.9272L118.767 19.2206ZM118.791 19.0327L118.497 18.6659L118.497 18.6659L118.791 19.0327ZM118.979 19.0562L119.363 18.7859L119.355 18.774L119.345 18.7627L118.979 19.0562ZM119.848 19.8077L119.632 20.225L119.638 20.2279L119.848 19.8077ZM121.95 19.9252L122.093 20.3725L122.101 20.37L122.109 20.3671L121.95 19.9252ZM122.725 19.432L122.392 19.0997L122.384 19.1089L122.725 19.432ZM123.453 15.087H123.923L123.033 14.8769L123.453 15.087ZM122.936 15.8033L122.604 15.4712L122.6 15.4751L122.936 15.8033ZM119.202 15.8033L119.538 15.475L119.53 15.4673L119.202 15.8033ZM119.202 12.069L119.53 12.4051L119.538 12.3972L119.202 12.069ZM121.069 11.7637C121.652 11.7637 122.199 11.9865 122.6 12.3972L123.272 11.7408C122.687 11.1416 121.895 10.8243 121.069 10.8243V11.7637ZM122.608 12.4051C123.019 12.8062 123.241 13.3528 123.241 13.9362H124.181C124.181 13.1104 123.863 12.3182 123.264 11.733L122.608 12.4051ZM123.241 13.9362V13.9479H124.181V13.9362H123.241ZM123.241 13.9479V17.2243H124.181V13.9479H123.241ZM123.241 17.2243C123.241 18.2087 122.99 18.8784 122.58 19.2877L123.245 19.952C123.892 19.3044 124.181 18.3535 124.181 17.2243H123.241ZM122.58 19.2877C122.383 19.4855 122.15 19.6342 121.879 19.7277L122.185 20.6158C122.595 20.4745 122.949 20.2474 123.245 19.952L122.58 19.2877ZM121.883 19.7262C121.616 19.8151 121.315 19.8665 120.975 19.8665V20.8059C121.411 20.8059 121.813 20.7398 122.18 20.6174L121.883 19.7262ZM120.975 19.8665H120.963V20.8059H120.975V19.8665ZM120.963 19.8665C120.618 19.8665 120.265 19.78 119.935 19.6199L119.525 20.4653C119.97 20.681 120.463 20.8059 120.963 20.8059V19.8665ZM119.951 19.6278C119.63 19.4576 119.347 19.2208 119.148 18.9451L118.387 19.4961C118.68 19.9015 119.079 20.2284 119.51 20.4574L119.951 19.6278ZM119.134 18.9272C119.26 19.0841 119.215 19.295 119.084 19.3995L118.497 18.6659C118.249 18.8643 118.181 19.2397 118.401 19.514L119.134 18.9272ZM119.084 19.3995C118.927 19.525 118.716 19.4802 118.612 19.3496L119.345 18.7627C119.147 18.5148 118.772 18.4464 118.497 18.6659L119.084 19.3995ZM118.595 19.3265C118.864 19.7091 119.228 20.0163 119.632 20.225L120.063 19.3905C119.786 19.2469 119.54 19.0374 119.363 18.7859L118.595 19.3265ZM119.638 20.2279C120.052 20.4349 120.511 20.5476 120.963 20.5476V19.6081C120.664 19.6081 120.348 19.5328 120.058 19.3876L119.638 20.2279ZM120.963 20.5476H120.975V19.6081H120.963V20.5476ZM120.975 20.5476C121.38 20.5476 121.757 20.4801 122.093 20.3725L121.807 19.4778C121.556 19.5581 121.275 19.6081 120.975 19.6081V20.5476ZM122.109 20.3671C122.461 20.2405 122.796 20.0393 123.066 19.755L122.384 19.1089C122.23 19.2709 122.026 19.3985 121.791 19.4832L122.109 20.3671ZM123.057 19.7641C123.658 19.1625 123.923 18.2812 123.923 17.2243H122.983C122.983 18.1402 122.754 18.7385 122.393 19.0998L123.057 19.7641ZM123.923 17.2243V15.087H122.983V17.2243H123.923ZM123.033 14.8769C122.926 15.0906 122.779 15.2959 122.604 15.4712L123.268 16.1355C123.516 15.888 123.721 15.6001 123.873 15.2971L123.033 14.8769ZM122.6 15.4751C122.199 15.8859 121.652 16.1087 121.069 16.1087V17.0481C121.895 17.0481 122.687 16.7307 123.272 16.1316L122.6 15.4751ZM121.069 16.1087C120.486 16.1087 119.939 15.8859 119.538 15.4751L118.866 16.1316C119.451 16.7307 120.243 17.0481 121.069 17.0481V16.1087ZM119.53 15.4673C119.119 15.0661 118.896 14.5196 118.896 13.9362H117.957C117.957 14.762 118.274 15.5541 118.874 16.1394L119.53 15.4673ZM118.896 13.9362C118.896 13.3528 119.119 12.8062 119.53 12.4051L118.874 11.733C118.274 12.3182 117.957 13.1104 117.957 13.9362H118.896ZM119.538 12.3972C119.939 11.9865 120.486 11.7637 121.069 11.7637V10.8243C120.243 10.8243 119.451 11.1416 118.866 11.7408L119.538 12.3972ZM121.069 16.7898C122.644 16.7898 123.923 15.5108 123.923 13.9362H122.983C122.983 14.992 122.125 15.8503 121.069 15.8503V16.7898ZM123.923 13.9362C123.923 12.3615 122.644 11.0826 121.069 11.0826V12.0221C122.125 12.0221 122.983 12.8804 122.983 13.9362H123.923ZM121.069 11.0826C119.494 11.0826 118.215 12.3615 118.215 13.9362H119.155C119.155 12.8804 120.013 12.0221 121.069 12.0221V11.0826ZM118.215 13.9362C118.215 15.5108 119.494 16.7898 121.069 16.7898V15.8503C120.013 15.8503 119.155 14.992 119.155 13.9362H118.215Z" fill="white"/>
</svg>
