<svg width="174" height="39" viewBox="0 0 174 39" fill="none" xmlns="http://www.w3.org/2000/svg">
<path d="M0 19.318C0 8.64898 8.64899 0 19.318 0H154.081C164.75 0 173.399 8.64898 173.399 19.318V19.318C173.399 29.9871 164.75 38.6361 154.081 38.6361H19.318C8.64898 38.6361 0 29.9871 0 19.318V19.318Z" fill="#ABDD4B"/>
<path d="M24.5152 25.3915C23.637 25.3915 22.8027 25.0548 22.188 24.4255C21.5587 23.8108 21.222 22.9765 21.222 22.0984V22.0837V18.0003C21.222 16.683 21.5587 15.6731 22.2173 15.0145C22.5247 14.7071 22.8906 14.473 23.315 14.3266C23.7102 14.1949 24.1493 14.1217 24.6322 14.1217H24.6469C25.1738 14.1217 25.7007 14.2534 26.1837 14.4876C26.652 14.7364 27.0765 15.0877 27.3838 15.5121C27.4424 15.5853 27.4277 15.6878 27.3546 15.7463C27.2814 15.8048 27.1789 15.7902 27.1204 15.717C26.8423 15.3219 26.4618 14.9999 26.0373 14.7803C25.5982 14.5608 25.1152 14.4437 24.6469 14.4437H24.6322C24.1932 14.4437 23.7834 14.5169 23.4175 14.634C23.0515 14.7657 22.7149 14.9706 22.4515 15.2487C21.8514 15.8488 21.544 16.7708 21.544 18.0003V20.664C21.705 20.342 21.9246 20.0347 22.188 19.7712C22.8027 19.1419 23.637 18.8052 24.5152 18.8052C25.3933 18.8052 26.2276 19.1419 26.8423 19.7712C27.4716 20.3859 27.8083 21.2202 27.8083 22.0984C27.8083 22.9765 27.4716 23.8108 26.8423 24.4255C26.2276 25.0548 25.3933 25.3915 24.5152 25.3915ZM24.5152 19.1272C22.8759 19.1272 21.544 20.4591 21.544 22.0984C21.544 23.7376 22.8759 25.0695 24.5152 25.0695C26.1544 25.0695 27.4863 23.7376 27.4863 22.0984C27.4863 20.4591 26.1544 19.1272 24.5152 19.1272ZM33.7916 25.2305C33.7184 25.2012 33.6891 25.0988 33.7184 25.0256L38.197 14.5754H32.0645C31.9913 14.5754 31.9035 14.5022 31.9035 14.4144C31.9035 14.3266 31.9767 14.2388 32.0645 14.2388H38.4458C38.4898 14.2388 38.5483 14.2681 38.5776 14.312C38.6068 14.3559 38.6215 14.4144 38.5922 14.473L34.0111 25.1427C33.9818 25.2158 33.894 25.2598 33.7916 25.2305ZM50.5506 20.9714C50.6384 20.9714 50.7116 21.0446 50.7116 21.1324C50.7116 21.2202 50.6384 21.2934 50.5506 21.2934H48.1356V25.0841C48.1356 25.1719 48.0624 25.2451 47.9746 25.2451C47.8868 25.2451 47.8136 25.1719 47.8136 25.0841V21.2934H42.5739C42.5154 21.2934 42.4568 21.2641 42.4276 21.2056C42.3983 21.147 42.4129 21.0885 42.4422 21.0299L47.8429 14.151C47.8868 14.0924 47.96 14.0778 48.0185 14.0924C48.0917 14.1217 48.1356 14.1802 48.1356 14.2534V20.9714H50.5506ZM42.9105 20.9714H47.8136V14.7218L42.9105 20.9714Z" fill="black"/>
<path d="M22.188 24.4255L22.6069 24.0163L22.5971 24.0067L22.188 24.4255ZM22.2173 15.0145L21.8033 14.6005L21.8033 14.6005L22.2173 15.0145ZM23.315 14.3266L23.1299 13.7712L23.1241 13.7731L23.315 14.3266ZM26.1837 14.4876L26.4583 13.9706L26.4488 13.9655L26.4391 13.9608L26.1837 14.4876ZM27.3838 15.5121L26.9097 15.8555L26.9179 15.8669L26.9267 15.8778L27.3838 15.5121ZM27.3546 15.7463L26.9888 15.2891L26.9888 15.2891L27.3546 15.7463ZM27.1204 15.717L26.6416 16.0539L26.652 16.0687L26.6632 16.0828L27.1204 15.717ZM26.0373 14.7803L26.3063 14.2603L26.2991 14.2567L26.0373 14.7803ZM23.4175 14.634L23.239 14.0764L23.229 14.0796L23.2191 14.0831L23.4175 14.634ZM22.4515 15.2487L22.8654 15.6626L22.871 15.6571L22.8765 15.6513L22.4515 15.2487ZM21.544 20.664H20.9586L22.0677 20.9258L21.544 20.664ZM22.188 19.7712L22.602 20.1852L22.6068 20.1803L22.188 19.7712ZM26.8423 19.7712L26.4234 20.1804L26.4332 20.19L26.8423 19.7712ZM26.8423 24.4255L26.4331 24.0066L26.4235 24.0164L26.8423 24.4255ZM24.5152 24.806C23.788 24.806 23.1068 24.5283 22.6068 24.0164L21.7692 24.8346C22.4986 25.5814 23.486 25.9769 24.5152 25.9769V24.806ZM22.5971 24.0067C22.0852 23.5067 21.8075 22.8255 21.8075 22.0984H20.6366C20.6366 23.1276 21.0322 24.1149 21.7789 24.8443L22.5971 24.0067ZM21.8075 22.0984V22.0837H20.6366V22.0984H21.8075ZM21.8075 22.0837V18.0003H20.6366V22.0837H21.8075ZM21.8075 18.0003C21.8075 16.7733 22.1212 15.9386 22.6313 15.4285L21.8033 14.6005C20.9962 15.4077 20.6366 16.5928 20.6366 18.0003H21.8075ZM22.6313 15.4285C22.8778 15.182 23.168 14.9966 23.5058 14.8801L23.1241 13.7731C22.6131 13.9494 22.1715 14.2323 21.8033 14.6005L22.6313 15.4285ZM23.5001 14.882C23.8328 14.7711 24.2091 14.7071 24.6322 14.7071V13.5363C24.0894 13.5363 23.5876 13.6186 23.1299 13.7712L23.5001 14.882ZM24.6322 14.7071H24.6469V13.5363H24.6322V14.7071ZM24.6469 14.7071C25.0768 14.7071 25.5168 14.8149 25.9283 15.0144L26.4391 13.9608C25.8845 13.6919 25.2708 13.5363 24.6469 13.5363V14.7071ZM25.909 15.0046C26.3083 15.2168 26.6609 15.5119 26.9097 15.8555L27.858 15.1688C27.4921 14.6634 26.9957 14.2561 26.4583 13.9706L25.909 15.0046ZM26.9267 15.8778C26.7702 15.6823 26.8261 15.4193 26.9888 15.2891L27.7203 16.2035C28.0294 15.9562 28.1145 15.4883 27.841 15.1464L26.9267 15.8778ZM26.9888 15.2891C27.1844 15.1327 27.4474 15.1886 27.5775 15.3513L26.6632 16.0828C26.9105 16.3918 27.3784 16.477 27.7203 16.2035L26.9888 15.2891ZM27.5992 15.3801C27.2636 14.9033 26.8092 14.5204 26.3063 14.2603L25.7683 15.3003C26.1144 15.4793 26.421 15.7404 26.6416 16.0539L27.5992 15.3801ZM26.2991 14.2567C25.783 13.9986 25.2107 13.8582 24.6469 13.8582V15.0291C25.0198 15.0291 25.4135 15.123 25.7755 15.304L26.2991 14.2567ZM24.6469 13.8582H24.6322V15.0291H24.6469V13.8582ZM24.6322 13.8582C24.128 13.8582 23.6581 13.9423 23.239 14.0764L23.5959 15.1915C23.9086 15.0915 24.2583 15.0291 24.6322 15.0291V13.8582ZM23.2191 14.0831C22.7807 14.241 22.3621 14.4918 22.0265 14.846L22.8765 15.6513C23.0677 15.4494 23.3224 15.2904 23.6158 15.1848L23.2191 14.0831ZM22.0375 14.8347C21.2877 15.5845 20.9586 16.6829 20.9586 18.0003H22.1295C22.1295 16.8587 22.4151 16.113 22.8654 15.6626L22.0375 14.8347ZM20.9586 18.0003V20.664H22.1295V18.0003H20.9586ZM22.0677 20.9258C22.2008 20.6595 22.3835 20.4037 22.602 20.1852L21.774 19.3573C21.4656 19.6657 21.2092 20.0245 21.0204 20.4022L22.0677 20.9258ZM22.6068 20.1803C23.1068 19.6684 23.788 19.3907 24.5152 19.3907V18.2198C23.486 18.2198 22.4986 18.6154 21.7692 19.3621L22.6068 20.1803ZM24.5152 19.3907C25.2423 19.3907 25.9235 19.6684 26.4235 20.1803L27.2611 19.3621C26.5317 18.6154 25.5444 18.2198 24.5152 18.2198V19.3907ZM26.4332 20.19C26.9451 20.69 27.2228 21.3712 27.2228 22.0984H28.3937C28.3937 21.0692 27.9982 20.0818 27.2514 19.3524L26.4332 20.19ZM27.2228 22.0984C27.2228 22.8255 26.9451 23.5067 26.4332 24.0067L27.2514 24.8443C27.9982 24.1149 28.3937 23.1276 28.3937 22.0984H27.2228ZM26.4235 24.0164C25.9235 24.5283 25.2423 24.806 24.5152 24.806V25.9769C25.5444 25.9769 26.5317 25.5814 27.2611 24.8346L26.4235 24.0164ZM24.5152 18.5418C22.5526 18.5418 20.9586 20.1358 20.9586 22.0984H22.1295C22.1295 20.7824 23.1992 19.7127 24.5152 19.7127V18.5418ZM20.9586 22.0984C20.9586 24.0609 22.5526 25.6549 24.5152 25.6549V24.484C23.1992 24.484 22.1295 23.4143 22.1295 22.0984H20.9586ZM24.5152 25.6549C26.4777 25.6549 28.0717 24.0609 28.0717 22.0984H26.9008C26.9008 23.4143 25.8311 24.484 24.5152 24.484V25.6549ZM28.0717 22.0984C28.0717 20.1358 26.4777 18.5418 24.5152 18.5418V19.7127C25.8311 19.7127 26.9008 20.7824 26.9008 22.0984H28.0717ZM33.7916 25.2305L33.5741 25.7741L33.6019 25.7852L33.6307 25.7934L33.7916 25.2305ZM33.7184 25.0256L33.1803 24.795L33.1775 24.8015L33.1748 24.8081L33.7184 25.0256ZM38.197 14.5754L38.7351 14.806L39.0849 13.99H38.197V14.5754ZM38.5922 14.473L38.0686 14.2111L38.061 14.2264L38.0543 14.242L38.5922 14.473ZM34.0111 25.1427L33.4732 24.9117L33.4703 24.9184L33.4675 24.9252L34.0111 25.1427ZM34.009 24.6869C34.1727 24.7524 34.2458 24.8808 34.272 24.9594C34.2981 25.0376 34.3042 25.1374 34.262 25.243L33.1748 24.8081C33.1033 24.987 33.1095 25.1745 33.1612 25.3296C33.213 25.485 33.3372 25.6793 33.5741 25.7741L34.009 24.6869ZM34.2565 25.2562L38.7351 14.806L37.6589 14.3448L33.1803 24.795L34.2565 25.2562ZM38.197 13.99H32.0645V15.1609H38.197V13.99ZM32.0645 13.99C32.2095 13.99 32.3065 14.0532 32.3578 14.1015C32.4141 14.1545 32.489 14.2597 32.489 14.4144H31.3181C31.3181 14.6569 31.4368 14.8426 31.5553 14.9542C31.6689 15.061 31.8464 15.1609 32.0645 15.1609V13.99ZM32.489 14.4144C32.489 14.5279 32.4449 14.6193 32.3887 14.6826C32.3315 14.7469 32.2217 14.8242 32.0645 14.8242V13.6533C31.8195 13.6533 31.6292 13.7746 31.5135 13.9047C31.3987 14.0339 31.3181 14.2131 31.3181 14.4144H32.489ZM32.0645 14.8242H38.4458V13.6533H32.0645V14.8242ZM38.4458 14.8242C38.349 14.8242 38.2796 14.7959 38.2396 14.7744C38.197 14.7514 38.1393 14.71 38.0905 14.6367L39.0647 13.9872C38.9866 13.87 38.8849 13.792 38.7948 13.7434C38.7073 13.6963 38.5866 13.6533 38.4458 13.6533V14.8242ZM38.0905 14.6367C38.065 14.5985 38.0367 14.5408 38.0265 14.4643C38.0156 14.3823 38.0279 14.2926 38.0686 14.2111L39.1158 14.7348C39.2657 14.435 39.1732 14.1499 39.0647 13.9872L38.0905 14.6367ZM38.0543 14.242L33.4732 24.9117L34.5491 25.3736L39.1302 14.7039L38.0543 14.242ZM33.4675 24.9252C33.5692 24.6712 33.8193 24.6295 33.9524 24.6676L33.6307 25.7934C33.9687 25.89 34.3945 25.7605 34.5547 25.3601L33.4675 24.9252ZM48.1356 21.2934V20.7079H47.5502V21.2934H48.1356ZM47.8136 21.2934H48.3991V20.7079H47.8136V21.2934ZM42.4276 21.2056L42.9512 20.9437L42.9512 20.9437L42.4276 21.2056ZM42.4422 21.0299L41.9817 20.6684L41.9451 20.7151L41.9186 20.7681L42.4422 21.0299ZM47.8429 14.151L48.3035 14.5126L48.3113 14.5022L47.8429 14.151ZM48.0185 14.0924L48.236 13.5489L48.1991 13.5341L48.1605 13.5245L48.0185 14.0924ZM48.1356 20.9714H47.5502V21.5568H48.1356V20.9714ZM42.9105 20.9714L42.4499 20.61L41.7071 21.5568H42.9105V20.9714ZM47.8136 20.9714V21.5568H48.3991V20.9714H47.8136ZM47.8136 14.7218H48.3991V13.0271L47.353 14.3604L47.8136 14.7218ZM50.5506 21.5568C50.3151 21.5568 50.1261 21.3679 50.1261 21.1324H51.297C51.297 20.7212 50.9617 20.3859 50.5506 20.3859V21.5568ZM50.1261 21.1324C50.1261 20.8969 50.3151 20.7079 50.5506 20.7079V21.8788C50.9617 21.8788 51.297 21.5435 51.297 21.1324H50.1261ZM50.5506 20.7079H48.1356V21.8788H50.5506V20.7079ZM47.5502 21.2934V25.0841H48.7211V21.2934H47.5502ZM47.5502 25.0841C47.5502 24.8486 47.7391 24.6597 47.9746 24.6597V25.8306C48.3858 25.8306 48.7211 25.4953 48.7211 25.0841H47.5502ZM47.9746 24.6597C48.2101 24.6597 48.3991 24.8486 48.3991 25.0841H47.2282C47.2282 25.4953 47.5635 25.8306 47.9746 25.8306V24.6597ZM48.3991 25.0841V21.2934H47.2282V25.0841H48.3991ZM47.8136 20.7079H42.5739V21.8788H47.8136V20.7079ZM42.5739 20.7079C42.7047 20.7079 42.8676 20.7765 42.9512 20.9437L41.9039 21.4674C42.0461 21.7517 42.3261 21.8788 42.5739 21.8788V20.7079ZM42.9512 20.9437C42.9935 21.0283 43.003 21.1171 42.9938 21.1904C42.986 21.2529 42.9663 21.2908 42.9658 21.2917L41.9186 20.7681C41.8613 20.8826 41.7498 21.1592 41.9039 21.4674L42.9512 20.9437ZM42.9027 21.3915L48.3034 14.5125L47.3824 13.7894L41.9817 20.6684L42.9027 21.3915ZM48.3113 14.5022C48.1842 14.6717 47.9944 14.6898 47.8765 14.6604L48.1605 13.5245C47.9256 13.4657 47.5895 13.5131 47.3745 13.7997L48.3113 14.5022ZM47.8011 14.636C47.7503 14.6157 47.6856 14.5751 47.6324 14.5027C47.5774 14.4277 47.5502 14.3388 47.5502 14.2534H48.7211C48.7211 13.9064 48.4976 13.6535 48.236 13.5489L47.8011 14.636ZM47.5502 14.2534V20.9714H48.7211V14.2534H47.5502ZM48.1356 21.5568H50.5506V20.3859H48.1356V21.5568ZM42.9105 21.5568H47.8136V20.3859H42.9105V21.5568ZM48.3991 20.9714V14.7218H47.2282V20.9714H48.3991ZM47.353 14.3604L42.4499 20.61L43.3711 21.3327L48.2742 15.0831L47.353 14.3604Z" fill="black"/>
<rect x="54.418" y="19.3184" width="5.85443" height="1.46361" rx="0.731804" fill="black"/>
<path d="M67.4876 25.3915C67.0046 25.3915 66.5216 25.3037 66.0679 25.1134C65.6142 24.9231 65.219 24.645 64.8677 24.3084C64.5311 23.9571 64.253 23.562 64.0627 23.1082C63.8725 22.6545 63.7847 22.1715 63.7847 21.6885C63.7847 21.6007 63.8578 21.5276 63.9457 21.5276C64.0335 21.5276 64.1067 21.6007 64.1067 21.6885C64.1067 22.1276 64.1945 22.5667 64.3701 22.9765C64.5457 23.3863 64.7799 23.7522 65.1019 24.0742C65.4239 24.3962 65.7898 24.6304 66.1996 24.806C66.6094 24.9817 67.0485 25.0695 67.4876 25.0695C68.3804 25.0695 69.2293 24.6743 69.8733 23.9718C70.5173 23.2985 70.8685 22.3911 70.8685 21.4836C70.8685 20.5323 70.5612 19.6834 69.9904 19.0833C69.3903 18.4393 68.5268 18.1027 67.4876 18.1027C66.4631 18.0734 65.4678 18.3369 64.5896 18.8491C64.5311 18.8931 64.4726 18.8931 64.4286 18.8638C64.3701 18.8345 64.3408 18.776 64.3408 18.7174V14.4291C64.3408 14.3412 64.414 14.2681 64.5018 14.2681H70.3855C70.4734 14.2681 70.5465 14.3412 70.5465 14.4291C70.5465 14.5169 70.4734 14.59 70.3855 14.59H64.6628V18.4393C65.541 17.9856 66.507 17.7514 67.4876 17.7807C68.6146 17.7807 69.5659 18.1466 70.2392 18.8638C70.8539 19.5224 71.2052 20.4591 71.2052 21.4836C71.2052 22.4643 70.81 23.4595 70.1221 24.206C69.7708 24.5719 69.3756 24.8646 68.9366 25.0695C68.4828 25.289 67.9852 25.3915 67.4876 25.3915ZM79.3051 25.3915C78.8221 25.3915 78.3391 25.3037 77.8854 25.1134C77.4317 24.9231 77.0365 24.645 76.6852 24.3084C76.3486 23.9571 76.0705 23.562 75.8802 23.1082C75.69 22.6545 75.6022 22.1715 75.6022 21.6885C75.6022 21.6007 75.6753 21.5276 75.7632 21.5276C75.851 21.5276 75.9241 21.6007 75.9241 21.6885C75.9241 22.1276 76.012 22.5667 76.1876 22.9765C76.3632 23.3863 76.5974 23.7522 76.9194 24.0742C77.2414 24.3962 77.6073 24.6304 78.0171 24.806C78.4269 24.9817 78.866 25.0695 79.3051 25.0695C80.1979 25.0695 81.0468 24.6743 81.6908 23.9718C82.3348 23.2985 82.686 22.3911 82.686 21.4836C82.686 20.5323 82.3787 19.6834 81.8079 19.0833C81.2078 18.4393 80.3442 18.1027 79.3051 18.1027C78.2806 18.0734 77.2853 18.3369 76.4071 18.8491C76.3486 18.8931 76.2901 18.8931 76.2461 18.8638C76.1876 18.8345 76.1583 18.776 76.1583 18.7174V14.4291C76.1583 14.3412 76.2315 14.2681 76.3193 14.2681H82.203C82.2908 14.2681 82.364 14.3412 82.364 14.4291C82.364 14.5169 82.2908 14.59 82.203 14.59H76.4803V18.4393C77.3585 17.9856 78.3245 17.7514 79.3051 17.7807C80.4321 17.7807 81.3834 18.1466 82.0567 18.8638C82.6714 19.5224 83.0227 20.4591 83.0227 21.4836C83.0227 22.4643 82.6275 23.4595 81.9396 24.206C81.5883 24.5719 81.1931 24.8646 80.7541 25.0695C80.3003 25.289 79.8027 25.3915 79.3051 25.3915ZM91.1226 25.3915C90.6396 25.3915 90.1566 25.3037 89.7029 25.1134C89.2492 24.9231 88.854 24.645 88.5027 24.3084C88.1661 23.9571 87.888 23.562 87.6977 23.1082C87.5075 22.6545 87.4196 22.1715 87.4196 21.6885C87.4196 21.6007 87.4928 21.5276 87.5806 21.5276C87.6685 21.5276 87.7416 21.6007 87.7416 21.6885C87.7416 22.1276 87.8295 22.5667 88.0051 22.9765C88.1807 23.3863 88.4149 23.7522 88.7369 24.0742C89.0589 24.3962 89.4248 24.6304 89.8346 24.806C90.2444 24.9817 90.6835 25.0695 91.1226 25.0695C92.0154 25.0695 92.8643 24.6743 93.5083 23.9718C94.1522 23.2985 94.5035 22.3911 94.5035 21.4836C94.5035 20.5323 94.1962 19.6834 93.6253 19.0833C93.0253 18.4393 92.1617 18.1027 91.1226 18.1027C90.0981 18.0734 89.1028 18.3369 88.2246 18.8491C88.1661 18.8931 88.1075 18.8931 88.0636 18.8638C88.0051 18.8345 87.9758 18.776 87.9758 18.7174V14.4291C87.9758 14.3412 88.049 14.2681 88.1368 14.2681H94.0205C94.1083 14.2681 94.1815 14.3412 94.1815 14.4291C94.1815 14.5169 94.1083 14.59 94.0205 14.59H88.2978V18.4393C89.176 17.9856 90.142 17.7514 91.1226 17.7807C92.2496 17.7807 93.2009 18.1466 93.8742 18.8638C94.4889 19.5224 94.8401 20.4591 94.8401 21.4836C94.8401 22.4643 94.445 23.4595 93.7571 24.206C93.4058 24.5719 93.0106 24.8646 92.5716 25.0695C92.1178 25.289 91.6202 25.3915 91.1226 25.3915Z" fill="black"/>
<path d="M66.0679 25.1134L65.8415 25.6533L66.0679 25.1134ZM64.8677 24.3084L64.445 24.7135L64.4537 24.7225L64.4627 24.7311L64.8677 24.3084ZM64.0627 23.1082L64.6026 22.8818L64.6026 22.8818L64.0627 23.1082ZM64.3701 22.9765L63.832 23.2071L63.832 23.2071L64.3701 22.9765ZM65.1019 24.0742L65.5159 23.6603L65.5159 23.6603L65.1019 24.0742ZM66.1996 24.806L66.4302 24.2679L66.4302 24.2679L66.1996 24.806ZM69.8733 23.9718L69.4501 23.567L69.4417 23.5762L69.8733 23.9718ZM69.9904 19.0833L69.562 19.4825L69.5662 19.4868L69.9904 19.0833ZM67.4876 18.1027L67.4709 18.6879L67.4792 18.6882H67.4876V18.1027ZM64.5896 18.8491L64.2947 18.3435L64.2654 18.3605L64.2384 18.3808L64.5896 18.8491ZM64.4286 18.8638L64.7534 18.3767L64.7231 18.3564L64.6905 18.3401L64.4286 18.8638ZM64.6628 14.59V14.0046H64.0774V14.59H64.6628ZM64.6628 18.4393H64.0774V19.4008L64.9316 18.9595L64.6628 18.4393ZM67.4876 17.7807L67.4701 18.3659L67.4789 18.3662H67.4876V17.7807ZM70.2392 18.8638L70.6672 18.4643L70.666 18.4631L70.2392 18.8638ZM70.1221 24.206L70.5445 24.6115L70.5526 24.6027L70.1221 24.206ZM68.9366 25.0695L68.689 24.5389L68.6816 24.5425L68.9366 25.0695ZM67.4876 24.806C67.0754 24.806 66.6702 24.7311 66.2943 24.5735L65.8415 25.6533C66.373 25.8762 66.9338 25.9769 67.4876 25.9769V24.806ZM66.2943 24.5735C65.9179 24.4157 65.5817 24.1817 65.2728 23.8857L64.4627 24.7311C64.8563 25.1084 65.3104 25.4306 65.8415 25.6533L66.2943 24.5735ZM65.2904 23.9033C64.9944 23.5945 64.7605 23.2582 64.6026 22.8818L63.5229 23.3347C63.7456 23.8657 64.0678 24.3198 64.445 24.7135L65.2904 23.9033ZM64.6026 22.8818C64.445 22.506 64.3701 22.1007 64.3701 21.6885H63.1992C63.1992 22.2423 63.2999 22.8031 63.5229 23.3347L64.6026 22.8818ZM64.3701 21.6885C64.3701 21.9241 64.1812 22.113 63.9457 22.113V20.9421C63.5345 20.9421 63.1992 21.2774 63.1992 21.6885H64.3701ZM63.9457 22.113C63.7101 22.113 63.5212 21.9241 63.5212 21.6885H64.6921C64.6921 21.2774 64.3568 20.9421 63.9457 20.9421V22.113ZM63.5212 21.6885C63.5212 22.2055 63.6246 22.7231 63.832 23.2071L64.9082 22.7459C64.7644 22.4103 64.6921 22.0498 64.6921 21.6885H63.5212ZM63.832 23.2071C64.0332 23.6765 64.3069 24.1071 64.6879 24.4882L65.5159 23.6603C65.253 23.3973 65.0583 23.0961 64.9082 22.7459L63.832 23.2071ZM64.6879 24.4882C65.069 24.8693 65.4996 25.143 65.969 25.3441L66.4302 24.2679C66.08 24.1178 65.7788 23.9232 65.5159 23.6603L64.6879 24.4882ZM65.969 25.3441C66.453 25.5516 66.9707 25.6549 67.4876 25.6549V24.484C67.1264 24.484 66.7659 24.4118 66.4302 24.2679L65.969 25.3441ZM67.4876 25.6549C68.5595 25.6549 69.5605 25.1793 70.3048 24.3674L69.4417 23.5762C68.898 24.1693 68.2013 24.484 67.4876 24.484V25.6549ZM70.2963 24.3764C71.0469 23.5918 71.454 22.5384 71.454 21.4836H70.2831C70.2831 22.2437 69.9876 23.0053 69.4502 23.5671L70.2963 24.3764ZM71.454 21.4836C71.454 20.4086 71.1058 19.4065 70.4145 18.6798L69.5662 19.4868C70.0165 19.9603 70.2831 20.656 70.2831 21.4836H71.454ZM70.4187 18.6842C69.6871 17.8991 68.656 17.5173 67.4876 17.5173V18.6882C68.3975 18.6882 69.0934 18.9795 69.562 19.4824L70.4187 18.6842ZM67.5043 17.5175C66.3672 17.485 65.2644 17.7778 64.2947 18.3435L64.8846 19.3548C65.6712 18.896 66.5589 18.6619 67.4709 18.6879L67.5043 17.5175ZM64.2384 18.3808C64.2844 18.3463 64.3613 18.3067 64.4647 18.2998C64.5704 18.2927 64.6719 18.3224 64.7534 18.3767L64.1039 19.3509C64.3844 19.5379 64.7143 19.4875 64.9409 19.3175L64.2384 18.3808ZM64.6905 18.3401C64.8577 18.4238 64.9263 18.5867 64.9263 18.7174H63.7554C63.7554 18.9653 63.8825 19.2452 64.1668 19.3874L64.6905 18.3401ZM64.9263 18.7174V14.4291H63.7554V18.7174H64.9263ZM64.9263 14.4291C64.9263 14.6646 64.7373 14.8535 64.5018 14.8535V13.6826C64.0907 13.6826 63.7554 14.0179 63.7554 14.4291H64.9263ZM64.5018 14.8535H70.3855V13.6826H64.5018V14.8535ZM70.3855 14.8535C70.15 14.8535 69.9611 14.6646 69.9611 14.4291H71.132C71.132 14.0179 70.7967 13.6826 70.3855 13.6826V14.8535ZM69.9611 14.4291C69.9611 14.1935 70.15 14.0046 70.3855 14.0046V15.1755C70.7967 15.1755 71.132 14.8402 71.132 14.4291H69.9611ZM70.3855 14.0046H64.6628V15.1755H70.3855V14.0046ZM64.0774 14.59V18.4393H65.2483V14.59H64.0774ZM64.9316 18.9595C65.7271 18.5485 66.5951 18.3398 67.4701 18.3659L67.5051 17.1955C66.4189 17.1631 65.3549 17.4228 64.3941 17.9192L64.9316 18.9595ZM67.4876 18.3662C68.4843 18.3662 69.2696 18.6863 69.8123 19.2645L70.666 18.4631C69.8623 17.6069 68.7448 17.1953 67.4876 17.1953V18.3662ZM69.8112 19.2632C70.3131 19.8011 70.6197 20.5895 70.6197 21.4836H71.7906C71.7906 20.3287 71.3946 19.2438 70.6672 18.4643L69.8112 19.2632ZM70.6197 21.4836C70.6197 22.3121 70.2834 23.167 69.6916 23.8092L70.5526 24.6027C71.3366 23.752 71.7906 22.6164 71.7906 21.4836H70.6197ZM69.6998 23.8005C69.3927 24.1204 69.0554 24.368 68.689 24.539L69.1841 25.6C69.6959 25.3612 70.149 25.0233 70.5444 24.6114L69.6998 23.8005ZM68.6816 24.5425C68.3148 24.7199 67.9056 24.806 67.4876 24.806V25.9769C68.0648 25.9769 68.6508 25.8581 69.1916 25.5965L68.6816 24.5425ZM77.8854 25.1134L77.659 25.6533L77.8854 25.1134ZM76.6852 24.3084L76.2625 24.7135L76.2712 24.7225L76.2802 24.7311L76.6852 24.3084ZM75.8802 23.1082L76.4201 22.8818L76.4201 22.8818L75.8802 23.1082ZM76.1876 22.9765L75.6495 23.2071L75.6495 23.2071L76.1876 22.9765ZM76.9194 24.0742L77.3334 23.6603L77.3334 23.6603L76.9194 24.0742ZM78.0171 24.806L78.2477 24.2679L78.2477 24.2679L78.0171 24.806ZM81.6908 23.9718L81.2676 23.567L81.2592 23.5762L81.6908 23.9718ZM81.8079 19.0833L81.3795 19.4825L81.3837 19.4868L81.8079 19.0833ZM79.3051 18.1027L79.2884 18.6879L79.2967 18.6882H79.3051V18.1027ZM76.4071 18.8491L76.1122 18.3435L76.0829 18.3605L76.0559 18.3808L76.4071 18.8491ZM76.2461 18.8638L76.5709 18.3767L76.5406 18.3564L76.508 18.3401L76.2461 18.8638ZM76.4803 14.59V14.0046H75.8949V14.59H76.4803ZM76.4803 18.4393H75.8949V19.4008L76.7491 18.9595L76.4803 18.4393ZM79.3051 17.7807L79.2876 18.3659L79.2963 18.3662H79.3051V17.7807ZM82.0567 18.8638L82.4847 18.4643L82.4835 18.4631L82.0567 18.8638ZM81.9396 24.206L82.362 24.6115L82.3701 24.6027L81.9396 24.206ZM80.7541 25.0695L80.5065 24.5389L80.4991 24.5425L80.7541 25.0695ZM79.3051 24.806C78.8929 24.806 78.4877 24.7311 78.1118 24.5735L77.659 25.6533C78.1905 25.8762 78.7513 25.9769 79.3051 25.9769V24.806ZM78.1118 24.5735C77.7354 24.4157 77.3992 24.1817 77.0903 23.8857L76.2802 24.7311C76.6738 25.1084 77.1279 25.4306 77.659 25.6533L78.1118 24.5735ZM77.1079 23.9033C76.8119 23.5945 76.578 23.2582 76.4201 22.8818L75.3403 23.3347C75.563 23.8657 75.8853 24.3198 76.2625 24.7135L77.1079 23.9033ZM76.4201 22.8818C76.2625 22.506 76.1876 22.1007 76.1876 21.6885H75.0167C75.0167 22.2423 75.1174 22.8031 75.3403 23.3347L76.4201 22.8818ZM76.1876 21.6885C76.1876 21.9241 75.9987 22.113 75.7632 22.113V20.9421C75.352 20.9421 75.0167 21.2774 75.0167 21.6885H76.1876ZM75.7632 22.113C75.5276 22.113 75.3387 21.9241 75.3387 21.6885H76.5096C76.5096 21.2774 76.1743 20.9421 75.7632 20.9421V22.113ZM75.3387 21.6885C75.3387 22.2055 75.4421 22.7231 75.6495 23.2071L76.7257 22.7459C76.5819 22.4103 76.5096 22.0498 76.5096 21.6885H75.3387ZM75.6495 23.2071C75.8507 23.6765 76.1244 24.1071 76.5054 24.4882L77.3334 23.6603C77.0705 23.3973 76.8758 23.0961 76.7257 22.7459L75.6495 23.2071ZM76.5054 24.4882C76.8865 24.8693 77.3171 25.143 77.7865 25.3441L78.2477 24.2679C77.8975 24.1178 77.5963 23.9232 77.3334 23.6603L76.5054 24.4882ZM77.7865 25.3441C78.2705 25.5516 78.7882 25.6549 79.3051 25.6549V24.484C78.9439 24.484 78.5834 24.4118 78.2477 24.2679L77.7865 25.3441ZM79.3051 25.6549C80.377 25.6549 81.378 25.1793 82.1223 24.3674L81.2592 23.5762C80.7155 24.1693 80.0188 24.484 79.3051 24.484V25.6549ZM82.1138 24.3764C82.8644 23.5918 83.2715 22.5384 83.2715 21.4836H82.1006C82.1006 22.2437 81.8051 23.0053 81.2677 23.5671L82.1138 24.3764ZM83.2715 21.4836C83.2715 20.4086 82.9233 19.4065 82.232 18.6798L81.3837 19.4868C81.834 19.9603 82.1006 20.656 82.1006 21.4836H83.2715ZM82.2362 18.6842C81.5046 17.8991 80.4735 17.5173 79.3051 17.5173V18.6882C80.215 18.6882 80.9109 18.9795 81.3795 19.4824L82.2362 18.6842ZM79.3218 17.5175C78.1847 17.485 77.0819 17.7778 76.1122 18.3435L76.7021 19.3548C77.4887 18.896 78.3764 18.6619 79.2884 18.6879L79.3218 17.5175ZM76.0559 18.3808C76.1019 18.3463 76.1788 18.3067 76.2822 18.2998C76.3879 18.2927 76.4894 18.3224 76.5709 18.3767L75.9214 19.3509C76.2019 19.5379 76.5318 19.4875 76.7584 19.3175L76.0559 18.3808ZM76.508 18.3401C76.6752 18.4238 76.7438 18.5867 76.7438 18.7174H75.5729C75.5729 18.9653 75.7 19.2452 75.9843 19.3874L76.508 18.3401ZM76.7438 18.7174V14.4291H75.5729V18.7174H76.7438ZM76.7438 14.4291C76.7438 14.6646 76.5548 14.8535 76.3193 14.8535V13.6826C75.9082 13.6826 75.5729 14.0179 75.5729 14.4291H76.7438ZM76.3193 14.8535H82.203V13.6826H76.3193V14.8535ZM82.203 14.8535C81.9675 14.8535 81.7786 14.6646 81.7786 14.4291H82.9495C82.9495 14.0179 82.6142 13.6826 82.203 13.6826V14.8535ZM81.7786 14.4291C81.7786 14.1935 81.9675 14.0046 82.203 14.0046V15.1755C82.6142 15.1755 82.9495 14.8402 82.9495 14.4291H81.7786ZM82.203 14.0046H76.4803V15.1755H82.203V14.0046ZM75.8949 14.59V18.4393H77.0658V14.59H75.8949ZM76.7491 18.9595C77.5445 18.5485 78.4126 18.3398 79.2876 18.3659L79.3226 17.1955C78.2364 17.1631 77.1724 17.4228 76.2116 17.9192L76.7491 18.9595ZM79.3051 18.3662C80.3018 18.3662 81.0871 18.6863 81.6298 19.2645L82.4835 18.4631C81.6798 17.6069 80.5623 17.1953 79.3051 17.1953V18.3662ZM81.6287 19.2632C82.1306 19.8011 82.4372 20.5895 82.4372 21.4836H83.6081C83.6081 20.3287 83.2121 19.2438 82.4847 18.4643L81.6287 19.2632ZM82.4372 21.4836C82.4372 22.3121 82.1009 23.167 81.5091 23.8092L82.3701 24.6027C83.1541 23.752 83.6081 22.6164 83.6081 21.4836H82.4372ZM81.5172 23.8005C81.2102 24.1204 80.8729 24.368 80.5065 24.539L81.0016 25.6C81.5134 25.3612 81.9664 25.0233 82.3619 24.6114L81.5172 23.8005ZM80.4991 24.5425C80.1323 24.7199 79.7231 24.806 79.3051 24.806V25.9769C79.8823 25.9769 80.4683 25.8581 81.0091 25.5965L80.4991 24.5425ZM89.7029 25.1134L89.4765 25.6533L89.7029 25.1134ZM88.5027 24.3084L88.08 24.7135L88.0887 24.7225L88.0976 24.7311L88.5027 24.3084ZM87.6977 23.1082L88.2376 22.8818L88.2376 22.8818L87.6977 23.1082ZM88.0051 22.9765L87.467 23.2071L87.467 23.2071L88.0051 22.9765ZM88.7369 24.0742L89.1509 23.6603L89.1509 23.6603L88.7369 24.0742ZM89.8346 24.806L90.0652 24.2679L90.0652 24.2679L89.8346 24.806ZM93.5083 23.9718L93.0851 23.567L93.0767 23.5762L93.5083 23.9718ZM93.6253 19.0833L93.197 19.4825L93.2012 19.4868L93.6253 19.0833ZM91.1226 18.1027L91.1059 18.6879L91.1142 18.6882H91.1226V18.1027ZM88.2246 18.8491L87.9296 18.3435L87.9004 18.3605L87.8734 18.3808L88.2246 18.8491ZM88.0636 18.8638L88.3884 18.3767L88.3581 18.3564L88.3255 18.3401L88.0636 18.8638ZM88.2978 14.59V14.0046H87.7124V14.59H88.2978ZM88.2978 18.4393H87.7124V19.4008L88.5665 18.9595L88.2978 18.4393ZM91.1226 17.7807L91.1051 18.3659L91.1138 18.3662H91.1226V17.7807ZM93.8742 18.8638L94.3022 18.4643L94.301 18.4631L93.8742 18.8638ZM93.7571 24.206L94.1795 24.6115L94.1876 24.6027L93.7571 24.206ZM92.5716 25.0695L92.324 24.5389L92.3166 24.5425L92.5716 25.0695ZM91.1226 24.806C90.7104 24.806 90.3052 24.7311 89.9293 24.5735L89.4765 25.6533C90.008 25.8762 90.5688 25.9769 91.1226 25.9769V24.806ZM89.9293 24.5735C89.5529 24.4157 89.2167 24.1817 88.9078 23.8857L88.0976 24.7311C88.4913 25.1084 88.9454 25.4306 89.4765 25.6533L89.9293 24.5735ZM88.9254 23.9033C88.6294 23.5945 88.3955 23.2582 88.2376 22.8818L87.1578 23.3347C87.3805 23.8657 87.7028 24.3198 88.08 24.7135L88.9254 23.9033ZM88.2376 22.8818C88.08 22.506 88.0051 22.1007 88.0051 21.6885H86.8342C86.8342 22.2423 86.9349 22.8031 87.1578 23.3347L88.2376 22.8818ZM88.0051 21.6885C88.0051 21.9241 87.8162 22.113 87.5806 22.113V20.9421C87.1695 20.9421 86.8342 21.2774 86.8342 21.6885H88.0051ZM87.5806 22.113C87.3451 22.113 87.1562 21.9241 87.1562 21.6885H88.3271C88.3271 21.2774 87.9918 20.9421 87.5806 20.9421V22.113ZM87.1562 21.6885C87.1562 22.2055 87.2596 22.7231 87.467 23.2071L88.5432 22.7459C88.3994 22.4103 88.3271 22.0498 88.3271 21.6885H87.1562ZM87.467 23.2071C87.6682 23.6765 87.9419 24.1071 88.3229 24.4882L89.1509 23.6603C88.888 23.3973 88.6933 23.0961 88.5432 22.7459L87.467 23.2071ZM88.3229 24.4882C88.704 24.8693 89.1346 25.143 89.604 25.3441L90.0652 24.2679C89.715 24.1178 89.4138 23.9232 89.1509 23.6603L88.3229 24.4882ZM89.604 25.3441C90.088 25.5516 90.6056 25.6549 91.1226 25.6549V24.484C90.7613 24.484 90.4008 24.4118 90.0652 24.2679L89.604 25.3441ZM91.1226 25.6549C92.1945 25.6549 93.1955 25.1793 93.9398 24.3674L93.0767 23.5762C92.533 24.1693 91.8363 24.484 91.1226 24.484V25.6549ZM93.9313 24.3764C94.6819 23.5918 95.089 22.5384 95.089 21.4836H93.9181C93.9181 22.2437 93.6226 23.0053 93.0852 23.5671L93.9313 24.3764ZM95.089 21.4836C95.089 20.4086 94.7408 19.4065 94.0495 18.6798L93.2012 19.4868C93.6515 19.9603 93.9181 20.656 93.9181 21.4836H95.089ZM94.0537 18.6842C93.3221 17.8991 92.291 17.5173 91.1226 17.5173V18.6882C92.0325 18.6882 92.7284 18.9795 93.197 19.4824L94.0537 18.6842ZM91.1393 17.5175C90.0022 17.485 88.8994 17.7778 87.9296 18.3435L88.5196 19.3548C89.3062 18.896 90.1939 18.6619 91.1059 18.6879L91.1393 17.5175ZM87.8734 18.3808C87.9194 18.3463 87.9963 18.3067 88.0997 18.2998C88.2054 18.2927 88.3069 18.3224 88.3884 18.3767L87.7389 19.3509C88.0194 19.5379 88.3493 19.4875 88.5759 19.3175L87.8734 18.3808ZM88.3255 18.3401C88.4927 18.4238 88.5613 18.5867 88.5613 18.7174H87.3904C87.3904 18.9653 87.5175 19.2452 87.8018 19.3874L88.3255 18.3401ZM88.5613 18.7174V14.4291H87.3904V18.7174H88.5613ZM88.5613 14.4291C88.5613 14.6646 88.3723 14.8535 88.1368 14.8535V13.6826C87.7257 13.6826 87.3904 14.0179 87.3904 14.4291H88.5613ZM88.1368 14.8535H94.0205V13.6826H88.1368V14.8535ZM94.0205 14.8535C93.785 14.8535 93.5961 14.6646 93.5961 14.4291H94.767C94.767 14.0179 94.4317 13.6826 94.0205 13.6826V14.8535ZM93.5961 14.4291C93.5961 14.1935 93.785 14.0046 94.0205 14.0046V15.1755C94.4317 15.1755 94.767 14.8402 94.767 14.4291H93.5961ZM94.0205 14.0046H88.2978V15.1755H94.0205V14.0046ZM87.7124 14.59V18.4393H88.8833V14.59H87.7124ZM88.5665 18.9595C89.362 18.5485 90.23 18.3398 91.1051 18.3659L91.14 17.1955C90.0539 17.1631 88.9899 17.4228 88.0291 17.9192L88.5665 18.9595ZM91.1226 18.3662C92.1193 18.3662 92.9045 18.6863 93.4473 19.2645L94.301 18.4631C93.4973 17.6069 92.3798 17.1953 91.1226 17.1953V18.3662ZM93.4462 19.2632C93.9481 19.8011 94.2547 20.5895 94.2547 21.4836H95.4256C95.4256 20.3287 95.0296 19.2438 94.3022 18.4643L93.4462 19.2632ZM94.2547 21.4836C94.2547 22.3121 93.9184 23.167 93.3266 23.8092L94.1876 24.6027C94.9716 23.752 95.4256 22.6164 95.4256 21.4836H94.2547ZM93.3347 23.8005C93.0277 24.1204 92.6904 24.368 92.324 24.539L92.8191 25.6C93.3309 25.3612 93.7839 25.0233 94.1794 24.6114L93.3347 23.8005ZM92.3166 24.5425C91.9498 24.7199 91.5406 24.806 91.1226 24.806V25.9769C91.6998 25.9769 92.2858 25.8581 92.8265 25.5965L92.3166 24.5425Z" fill="black"/>
<rect x="99.127" y="19.3184" width="5.85443" height="1.46361" rx="0.731804" fill="black"/>
<path d="M115.051 15.2194C115.138 15.3072 115.212 15.3804 115.285 15.4828C115.299 15.4828 115.314 15.4975 115.314 15.5121C115.87 16.1707 116.163 17.005 116.163 17.8685V21.63C116.163 22.6399 115.768 23.5766 115.051 24.2938C114.348 24.9963 113.397 25.3915 112.401 25.3915C111.392 25.3915 110.455 24.9963 109.738 24.2938C109.035 23.5766 108.64 22.6399 108.64 21.63V17.8685C108.64 16.8733 109.035 15.9219 109.738 15.2194C110.455 14.5022 111.392 14.1217 112.401 14.1217C113.397 14.1217 114.348 14.5022 115.051 15.2194ZM109.972 15.4536C109.328 16.0976 108.962 16.9611 108.962 17.8685V21.63C108.962 22.4789 109.269 23.2692 109.826 23.8986L114.977 15.6146C114.934 15.556 114.875 15.4975 114.831 15.4536C114.172 14.795 113.309 14.4437 112.401 14.4437C111.479 14.4437 110.616 14.795 109.972 15.4536ZM115.826 17.8685C115.826 17.1514 115.607 16.4488 115.182 15.878L110.06 24.1474C110.689 24.7329 111.523 25.0695 112.401 25.0695C113.309 25.0695 114.172 24.7036 114.831 24.0596C115.475 23.4156 115.826 22.5521 115.826 21.63V17.8685ZM127.51 25.2451H120.719C120.631 25.2451 120.558 25.1719 120.558 25.0841C120.558 24.9963 120.631 24.9231 120.719 24.9231H123.938V14.751L120.894 17.1953C120.821 17.2538 120.719 17.2392 120.66 17.166C120.601 17.1075 120.616 17.005 120.689 16.9465L123.997 14.2827C124.056 14.2388 124.114 14.2388 124.173 14.2681C124.231 14.2827 124.26 14.3412 124.26 14.4144V24.9231H127.51C127.598 24.9231 127.671 24.9963 127.671 25.0841C127.671 25.1719 127.598 25.2451 127.51 25.2451ZM135.354 25.3915C134.476 25.3915 133.641 25.0548 133.027 24.4255C132.397 23.8108 132.061 22.9765 132.061 22.0984V22.0837V18.0003C132.061 16.683 132.397 15.6731 133.056 15.0145C133.363 14.7071 133.729 14.473 134.154 14.3266C134.549 14.1949 134.988 14.1217 135.471 14.1217H135.485C136.012 14.1217 136.539 14.2534 137.022 14.4876C137.491 14.7364 137.915 15.0877 138.222 15.5121C138.281 15.5853 138.266 15.6878 138.193 15.7463C138.12 15.8048 138.017 15.7902 137.959 15.717C137.681 15.3219 137.3 14.9999 136.876 14.7803C136.437 14.5608 135.954 14.4437 135.485 14.4437H135.471C135.032 14.4437 134.622 14.5169 134.256 14.634C133.89 14.7657 133.553 14.9706 133.29 15.2487C132.69 15.8488 132.383 16.7708 132.383 18.0003V20.664C132.544 20.342 132.763 20.0347 133.027 19.7712C133.641 19.1419 134.476 18.8052 135.354 18.8052C136.232 18.8052 137.066 19.1419 137.681 19.7712C138.31 20.3859 138.647 21.2202 138.647 22.0984C138.647 22.9765 138.31 23.8108 137.681 24.4255C137.066 25.0548 136.232 25.3915 135.354 25.3915ZM135.354 19.1272C133.714 19.1272 132.383 20.4591 132.383 22.0984C132.383 23.7376 133.714 25.0695 135.354 25.0695C136.993 25.0695 138.325 23.7376 138.325 22.0984C138.325 20.4591 136.993 19.1272 135.354 19.1272ZM151.172 20.9714C151.26 20.9714 151.333 21.0446 151.333 21.1324C151.333 21.2202 151.26 21.2934 151.172 21.2934H148.758V25.0841C148.758 25.1719 148.684 25.2451 148.597 25.2451C148.509 25.2451 148.436 25.1719 148.436 25.0841V21.2934H143.196C143.137 21.2934 143.079 21.2641 143.049 21.2056C143.02 21.147 143.035 21.0885 143.064 21.0299L148.465 14.151C148.509 14.0924 148.582 14.0778 148.64 14.0924C148.714 14.1217 148.758 14.1802 148.758 14.2534V20.9714H151.172ZM143.532 20.9714H148.436V14.7218L143.532 20.9714Z" fill="black"/>
<path d="M115.051 15.2194L114.632 15.6291L114.637 15.6334L115.051 15.2194ZM115.285 15.4828L114.808 15.8231L114.984 16.0683H115.285V15.4828ZM115.314 15.5121H114.729V15.7262L114.867 15.8898L115.314 15.5121ZM115.051 24.2938L115.465 24.7077L115.465 24.7077L115.051 24.2938ZM109.738 24.2938L109.319 24.7035L109.328 24.712L109.738 24.2938ZM109.738 15.2194L109.324 14.8054L109.324 14.8054L109.738 15.2194ZM109.972 15.4536L110.386 15.8676L110.39 15.8629L109.972 15.4536ZM109.826 23.8986L109.387 24.2863L109.907 24.8754L110.323 24.2078L109.826 23.8986ZM114.977 15.6146L115.475 15.9238L115.686 15.5837L115.446 15.2633L114.977 15.6146ZM114.831 15.4536L115.245 15.0396L115.245 15.0396L114.831 15.4536ZM115.182 15.878L115.652 15.5287L115.138 14.8375L114.685 15.5697L115.182 15.878ZM110.06 24.1474L109.562 23.8391L109.309 24.2483L109.661 24.5761L110.06 24.1474ZM114.831 24.0596L115.24 24.4782L115.245 24.4736L114.831 24.0596ZM114.637 15.6334C114.727 15.7236 114.767 15.7653 114.808 15.8231L115.761 15.1426C115.656 14.9955 115.55 14.8909 115.465 14.8054L114.637 15.6334ZM115.285 16.0683C115.102 16.0683 114.968 15.9826 114.891 15.906C114.814 15.8293 114.729 15.6952 114.729 15.5121H115.9C115.9 15.3144 115.807 15.1657 115.719 15.078C115.631 14.9904 115.483 14.8974 115.285 14.8974V16.0683ZM114.867 15.8898C115.33 16.4384 115.578 17.1374 115.578 17.8685H116.748C116.748 16.8726 116.41 15.9031 115.761 15.1344L114.867 15.8898ZM115.578 17.8685V21.63H116.748V17.8685H115.578ZM115.578 21.63C115.578 22.4814 115.246 23.2701 114.637 23.8798L115.465 24.7077C116.289 23.8831 116.748 22.7984 116.748 21.63H115.578ZM114.637 23.8798C114.044 24.4728 113.241 24.806 112.401 24.806V25.9769C113.552 25.9769 114.652 25.5199 115.465 24.7077L114.637 23.8798ZM112.401 24.806C111.549 24.806 110.758 24.4742 110.147 23.8756L109.328 24.712C110.151 25.5184 111.234 25.9769 112.401 25.9769V24.806ZM110.156 23.8841C109.557 23.273 109.225 22.4821 109.225 21.63H108.055C108.055 22.7977 108.513 23.8802 109.319 24.7035L110.156 23.8841ZM109.225 21.63V17.8685H108.055V21.63H109.225ZM109.225 17.8685C109.225 17.0288 109.559 16.2263 110.152 15.6334L109.324 14.8054C108.512 15.6175 108.055 16.7177 108.055 17.8685H109.225ZM110.152 15.6334C110.757 15.0278 111.544 14.7071 112.401 14.7071V13.5363C111.239 13.5363 110.153 13.9766 109.324 14.8054L110.152 15.6334ZM112.401 14.7071C113.246 14.7071 114.045 15.0293 114.632 15.6291L115.469 14.8097C114.651 13.9752 113.547 13.5363 112.401 13.5363V14.7071ZM109.558 15.0396C108.807 15.7906 108.377 16.8019 108.377 17.8685H109.547C109.547 17.1202 109.849 16.4045 110.386 15.8675L109.558 15.0396ZM108.377 17.8685V21.63H109.547V17.8685H108.377ZM108.377 21.63C108.377 22.6248 108.738 23.5522 109.387 24.2863L110.264 23.5109C109.801 22.9862 109.547 22.333 109.547 21.63H108.377ZM110.323 24.2078L115.475 15.9238L114.48 15.3054L109.328 23.5894L110.323 24.2078ZM115.446 15.2633C115.373 15.1656 115.283 15.0777 115.245 15.0396L114.417 15.8675C114.44 15.8902 114.459 15.909 114.476 15.928C114.494 15.9474 114.504 15.9597 114.509 15.9658L115.446 15.2633ZM115.245 15.0396C114.476 14.2707 113.464 13.8582 112.401 13.8582V15.0291C113.154 15.0291 113.869 15.3192 114.417 15.8675L115.245 15.0396ZM112.401 13.8582C111.327 13.8582 110.311 14.2692 109.553 15.0443L110.39 15.8629C110.921 15.3207 111.632 15.0291 112.401 15.0291V13.8582ZM116.412 17.8685C116.412 17.0334 116.156 16.2066 115.652 15.5287L114.713 16.2274C115.057 16.6911 115.241 17.2694 115.241 17.8685H116.412ZM114.685 15.5697L109.562 23.8391L110.557 24.4557L115.68 16.1863L114.685 15.5697ZM109.661 24.5761C110.397 25.2607 111.373 25.6549 112.401 25.6549V24.484C111.674 24.484 110.981 24.205 110.458 23.7188L109.661 24.5761ZM112.401 25.6549C113.469 25.6549 114.478 25.224 115.24 24.4782L114.422 23.641C113.867 24.1832 113.149 24.484 112.401 24.484V25.6549ZM115.245 24.4736C116.002 23.7171 116.412 22.7035 116.412 21.63H115.241C115.241 22.4007 114.949 23.1141 114.417 23.6456L115.245 24.4736ZM116.412 21.63V17.8685H115.241V21.63H116.412ZM123.938 24.9231V25.5086H124.524V24.9231H123.938ZM123.938 14.751H124.524V13.5302L123.572 14.2945L123.938 14.751ZM120.894 17.1953L121.26 17.6524L121.261 17.6518L120.894 17.1953ZM120.66 17.166L121.117 16.8003L121.097 16.775L121.074 16.752L120.66 17.166ZM120.689 16.9465L121.055 17.4036L121.056 17.4024L120.689 16.9465ZM123.997 14.2827L123.646 13.8143L123.638 13.8204L123.63 13.8267L123.997 14.2827ZM124.173 14.2681L123.911 14.7917L123.968 14.8204L124.031 14.836L124.173 14.2681ZM124.26 24.9231H123.675V25.5086H124.26V24.9231ZM127.51 24.6597H120.719V25.8306H127.51V24.6597ZM120.719 24.6597C120.954 24.6597 121.143 24.8486 121.143 25.0841H119.972C119.972 25.4953 120.307 25.8306 120.719 25.8306V24.6597ZM121.143 25.0841C121.143 25.3196 120.954 25.5086 120.719 25.5086V24.3377C120.307 24.3377 119.972 24.673 119.972 25.0841H121.143ZM120.719 25.5086H123.938V24.3377H120.719V25.5086ZM124.524 24.9231V14.751H123.353V24.9231H124.524ZM123.572 14.2945L120.528 16.7388L121.261 17.6518L124.305 15.2076L123.572 14.2945ZM120.528 16.7381C120.724 16.5817 120.987 16.6376 121.117 16.8003L120.203 17.5317C120.45 17.8408 120.918 17.926 121.26 17.6524L120.528 16.7381ZM121.074 16.752C121.191 16.8695 121.221 17.0201 121.205 17.1353C121.19 17.2478 121.133 17.3415 121.055 17.4036L120.324 16.4893C120.054 16.7051 119.877 17.2108 120.246 17.58L121.074 16.752ZM121.056 17.4024L124.364 14.7387L123.63 13.8267L120.322 16.4905L121.056 17.4024ZM124.348 14.751C124.299 14.7878 124.221 14.826 124.121 14.8322C124.025 14.8383 123.951 14.8119 123.911 14.7917L124.434 13.7444C124.335 13.6949 124.203 13.6539 124.048 13.6636C123.89 13.6735 123.753 13.7337 123.646 13.8143L124.348 14.751ZM124.031 14.836C123.888 14.8003 123.786 14.7066 123.73 14.6097C123.681 14.5241 123.675 14.4497 123.675 14.4144H124.846C124.846 14.2276 124.759 13.8111 124.315 13.7001L124.031 14.836ZM123.675 14.4144V24.9231H124.846V14.4144H123.675ZM124.26 25.5086H127.51V24.3377H124.26V25.5086ZM127.51 25.5086C127.274 25.5086 127.085 25.3196 127.085 25.0841H128.256C128.256 24.673 127.921 24.3377 127.51 24.3377V25.5086ZM127.085 25.0841C127.085 24.8486 127.274 24.6597 127.51 24.6597V25.8306C127.921 25.8306 128.256 25.4953 128.256 25.0841H127.085ZM133.027 24.4255L133.446 24.0163L133.436 24.0067L133.027 24.4255ZM133.056 15.0145L132.642 14.6005L132.642 14.6005L133.056 15.0145ZM134.154 14.3266L133.968 13.7712L133.963 13.7731L134.154 14.3266ZM137.022 14.4876L137.297 13.9706L137.287 13.9655L137.278 13.9608L137.022 14.4876ZM138.222 15.5121L137.748 15.8555L137.756 15.8669L137.765 15.8778L138.222 15.5121ZM138.193 15.7463L137.827 15.2891L137.827 15.2891L138.193 15.7463ZM137.959 15.717L137.48 16.0539L137.491 16.0687L137.502 16.0828L137.959 15.717ZM136.876 14.7803L137.145 14.2603L137.138 14.2567L136.876 14.7803ZM134.256 14.634L134.078 14.0764L134.068 14.0796L134.058 14.0831L134.256 14.634ZM133.29 15.2487L133.704 15.6626L133.71 15.6571L133.715 15.6513L133.29 15.2487ZM132.383 20.664H131.797L132.906 20.9258L132.383 20.664ZM133.027 19.7712L133.441 20.1852L133.445 20.1803L133.027 19.7712ZM137.681 19.7712L137.262 20.1804L137.272 20.19L137.681 19.7712ZM137.681 24.4255L137.272 24.0066L137.262 24.0164L137.681 24.4255ZM135.354 24.806C134.627 24.806 133.945 24.5283 133.445 24.0164L132.608 24.8346C133.337 25.5814 134.325 25.9769 135.354 25.9769V24.806ZM133.436 24.0067C132.924 23.5067 132.646 22.8255 132.646 22.0984H131.475C131.475 23.1276 131.871 24.1149 132.618 24.8443L133.436 24.0067ZM132.646 22.0984V22.0837H131.475V22.0984H132.646ZM132.646 22.0837V18.0003H131.475V22.0837H132.646ZM132.646 18.0003C132.646 16.7733 132.96 15.9386 133.47 15.4285L132.642 14.6005C131.835 15.4077 131.475 16.5928 131.475 18.0003H132.646ZM133.47 15.4285C133.716 15.182 134.007 14.9966 134.344 14.8801L133.963 13.7731C133.452 13.9494 133.01 14.2323 132.642 14.6005L133.47 15.4285ZM134.339 14.882C134.671 14.7711 135.048 14.7071 135.471 14.7071V13.5363C134.928 13.5363 134.426 13.6186 133.968 13.7712L134.339 14.882ZM135.471 14.7071H135.485V13.5363H135.471V14.7071ZM135.485 14.7071C135.915 14.7071 136.355 14.8149 136.767 15.0144L137.278 13.9608C136.723 13.6919 136.109 13.5363 135.485 13.5363V14.7071ZM136.748 15.0046C137.147 15.2168 137.499 15.5119 137.748 15.8555L138.697 15.1688C138.331 14.6634 137.834 14.2561 137.297 13.9706L136.748 15.0046ZM137.765 15.8778C137.609 15.6823 137.665 15.4193 137.827 15.2891L138.559 16.2035C138.868 15.9562 138.953 15.4883 138.68 15.1464L137.765 15.8778ZM137.827 15.2891C138.023 15.1327 138.286 15.1886 138.416 15.3513L137.502 16.0828C137.749 16.3918 138.217 16.477 138.559 16.2035L137.827 15.2891ZM138.438 15.3801C138.102 14.9033 137.648 14.5204 137.145 14.2603L136.607 15.3003C136.953 15.4793 137.26 15.7404 137.48 16.0539L138.438 15.3801ZM137.138 14.2567C136.622 13.9986 136.049 13.8582 135.485 13.8582V15.0291C135.858 15.0291 136.252 15.123 136.614 15.304L137.138 14.2567ZM135.485 13.8582H135.471V15.0291H135.485V13.8582ZM135.471 13.8582C134.967 13.8582 134.497 13.9423 134.078 14.0764L134.434 15.1915C134.747 15.0915 135.097 15.0291 135.471 15.0291V13.8582ZM134.058 14.0831C133.619 14.241 133.201 14.4918 132.865 14.846L133.715 15.6513C133.906 15.4494 134.161 15.2904 134.454 15.1848L134.058 14.0831ZM132.876 14.8347C132.126 15.5845 131.797 16.6829 131.797 18.0003H132.968C132.968 16.8587 133.254 16.113 133.704 15.6626L132.876 14.8347ZM131.797 18.0003V20.664H132.968V18.0003H131.797ZM132.906 20.9258C133.039 20.6595 133.222 20.4037 133.441 20.1852L132.613 19.3573C132.304 19.6657 132.048 20.0245 131.859 20.4022L132.906 20.9258ZM133.445 20.1803C133.945 19.6684 134.627 19.3907 135.354 19.3907V18.2198C134.325 18.2198 133.337 18.6154 132.608 19.3621L133.445 20.1803ZM135.354 19.3907C136.081 19.3907 136.762 19.6684 137.262 20.1803L138.1 19.3621C137.37 18.6154 136.383 18.2198 135.354 18.2198V19.3907ZM137.272 20.19C137.784 20.69 138.061 21.3712 138.061 22.0984H139.232C139.232 21.0692 138.837 20.0818 138.09 19.3524L137.272 20.19ZM138.061 22.0984C138.061 22.8255 137.784 23.5067 137.272 24.0067L138.09 24.8443C138.837 24.1149 139.232 23.1276 139.232 22.0984H138.061ZM137.262 24.0164C136.762 24.5283 136.081 24.806 135.354 24.806V25.9769C136.383 25.9769 137.37 25.5814 138.1 24.8346L137.262 24.0164ZM135.354 18.5418C133.391 18.5418 131.797 20.1358 131.797 22.0984H132.968C132.968 20.7824 134.038 19.7127 135.354 19.7127V18.5418ZM131.797 22.0984C131.797 24.0609 133.391 25.6549 135.354 25.6549V24.484C134.038 24.484 132.968 23.4143 132.968 22.0984H131.797ZM135.354 25.6549C137.316 25.6549 138.91 24.0609 138.91 22.0984H137.739C137.739 23.4143 136.67 24.484 135.354 24.484V25.6549ZM138.91 22.0984C138.91 20.1358 137.316 18.5418 135.354 18.5418V19.7127C136.67 19.7127 137.739 20.7824 137.739 22.0984H138.91ZM148.758 21.2934V20.7079H148.172V21.2934H148.758ZM148.436 21.2934H149.021V20.7079H148.436V21.2934ZM143.049 21.2056L143.573 20.9437L143.573 20.9437L143.049 21.2056ZM143.064 21.0299L142.604 20.6684L142.567 20.7151L142.54 20.7681L143.064 21.0299ZM148.465 14.151L148.925 14.5126L148.933 14.5022L148.465 14.151ZM148.64 14.0924L148.858 13.5489L148.821 13.5341L148.782 13.5245L148.64 14.0924ZM148.758 20.9714H148.172V21.5568H148.758V20.9714ZM143.532 20.9714L143.072 20.61L142.329 21.5568H143.532V20.9714ZM148.436 20.9714V21.5568H149.021V20.9714H148.436ZM148.436 14.7218H149.021V13.0271L147.975 14.3604L148.436 14.7218ZM151.172 21.5568C150.937 21.5568 150.748 21.3679 150.748 21.1324H151.919C151.919 20.7212 151.584 20.3859 151.172 20.3859V21.5568ZM150.748 21.1324C150.748 20.8969 150.937 20.7079 151.172 20.7079V21.8788C151.584 21.8788 151.919 21.5435 151.919 21.1324H150.748ZM151.172 20.7079H148.758V21.8788H151.172V20.7079ZM148.172 21.2934V25.0841H149.343V21.2934H148.172ZM148.172 25.0841C148.172 24.8486 148.361 24.6597 148.597 24.6597V25.8306C149.008 25.8306 149.343 25.4953 149.343 25.0841H148.172ZM148.597 24.6597C148.832 24.6597 149.021 24.8486 149.021 25.0841H147.85C147.85 25.4953 148.185 25.8306 148.597 25.8306V24.6597ZM149.021 25.0841V21.2934H147.85V25.0841H149.021ZM148.436 20.7079H143.196V21.8788H148.436V20.7079ZM143.196 20.7079C143.327 20.7079 143.489 20.7765 143.573 20.9437L142.526 21.4674C142.668 21.7517 142.948 21.8788 143.196 21.8788V20.7079ZM143.573 20.9437C143.615 21.0283 143.625 21.1171 143.616 21.1904C143.608 21.2529 143.588 21.2908 143.588 21.2917L142.54 20.7681C142.483 20.8826 142.372 21.1592 142.526 21.4674L143.573 20.9437ZM143.525 21.3915L148.925 14.5125L148.004 13.7894L142.604 20.6684L143.525 21.3915ZM148.933 14.5022C148.806 14.6717 148.616 14.6898 148.498 14.6604L148.782 13.5245C148.547 13.4657 148.211 13.5131 147.996 13.7997L148.933 14.5022ZM148.423 14.636C148.372 14.6157 148.307 14.5751 148.254 14.5027C148.199 14.4277 148.172 14.3388 148.172 14.2534H149.343C149.343 13.9064 149.119 13.6535 148.858 13.5489L148.423 14.636ZM148.172 14.2534V20.9714H149.343V14.2534H148.172ZM148.758 21.5568H151.172V20.3859H148.758V21.5568ZM143.532 21.5568H148.436V20.3859H143.532V21.5568ZM149.021 20.9714V14.7218H147.85V20.9714H149.021ZM147.975 14.3604L143.072 20.61L143.993 21.3327L148.896 15.0831L147.975 14.3604Z" fill="black"/>
</svg>
