<svg width="138" height="31" viewBox="0 0 138 31" fill="none" xmlns="http://www.w3.org/2000/svg">
<path d="M0 15.3716C0 6.88208 6.88208 0 15.3716 0H122.298C130.788 0 137.67 6.88208 137.67 15.3716V15.3716C137.67 23.861 130.788 30.7431 122.298 30.7431H15.3715C6.88207 30.7431 0 23.861 0 15.3716V15.3716Z" fill="#A6BBED"/>
<path d="M22.6751 20.2197H17.1793C17.1088 20.2197 17.0501 20.161 17.0501 20.0906V19.3507C17.0736 18.7049 17.3554 18.1647 17.9426 17.6832C18.4358 17.2722 19.1756 16.8964 20.2677 16.4854C21.1719 16.1566 21.7708 15.7456 22.1114 15.2289C22.4167 14.7709 22.4637 14.3012 22.4637 13.8902C22.4637 13.2326 22.2288 12.6689 21.8061 12.2461C21.3363 11.7882 20.6552 11.5416 19.8919 11.565C19.5514 11.565 19.2108 11.6355 18.8938 11.7647C18.5884 11.8939 18.3066 12.07 18.0717 12.2931C17.5668 12.7628 17.285 13.3852 17.285 14.0428V14.9706C17.285 15.041 17.2262 15.0997 17.1558 15.0997C17.0853 15.0997 17.0266 15.041 17.0266 14.9706V14.0428C17.0266 13.303 17.3319 12.6219 17.8839 12.1052C18.1539 11.8586 18.4593 11.659 18.7998 11.5298C19.1521 11.3889 19.5162 11.3067 19.8919 11.295C20.7257 11.2832 21.4655 11.5533 21.9822 12.0583C22.4637 12.528 22.722 13.1621 22.722 13.8902C22.722 14.3364 22.6751 14.8531 22.3345 15.3816C21.9587 15.9335 21.3128 16.3797 20.3499 16.732C19.293 17.1313 18.5884 17.4953 18.107 17.8828C17.5785 18.3173 17.3202 18.7871 17.3202 19.3507V19.9614H22.6751C22.7455 19.9614 22.8042 20.0201 22.8042 20.0906C22.8042 20.161 22.7455 20.2197 22.6751 20.2197ZM29.2958 20.3372C28.5325 20.3372 27.7927 20.0436 27.2407 19.5151C26.6888 18.975 26.36 18.2586 26.3248 17.4953C26.3248 17.4249 26.3717 17.3661 26.4539 17.3544C26.5244 17.3544 26.5831 17.4131 26.5831 17.4836C26.6184 18.1882 26.9119 18.834 27.4169 19.3272C27.9336 19.8087 28.5912 20.0788 29.2958 20.0788C30.0004 20.0788 30.6697 19.8087 31.1747 19.3272C31.6796 18.834 31.9732 18.1882 32.0084 17.4836C32.0084 16.7438 31.7266 16.0627 31.2099 15.5577C30.9398 15.3111 30.6345 15.1115 30.2705 14.9706C29.8947 14.8296 29.4837 14.7592 29.0492 14.7592C28.9905 14.7592 28.9435 14.7239 28.9317 14.677C28.9083 14.63 28.9083 14.583 28.9435 14.5361L31.4213 11.6825H26.9119C26.8415 11.6825 26.7828 11.6238 26.7828 11.5416C26.7828 11.4711 26.8415 11.4124 26.9119 11.4124H31.7031C31.7618 11.4124 31.8088 11.4476 31.8323 11.4946C31.844 11.5416 31.844 11.5885 31.8088 11.6355L29.3193 14.5008C29.6951 14.5243 30.0473 14.6065 30.3644 14.7357C30.7519 14.8766 31.1042 15.0997 31.3861 15.3698C31.9497 15.9217 32.2668 16.6733 32.2668 17.4953C32.2316 18.2586 31.9145 18.975 31.3508 19.5151C30.7989 20.0436 30.0708 20.3372 29.2958 20.3372ZM37.075 20.208C37.0162 20.1845 36.9928 20.1023 37.0162 20.0436L40.6096 11.659H35.6893C35.6306 11.659 35.5601 11.6003 35.5601 11.5298C35.5601 11.4594 35.6188 11.3889 35.6893 11.3889H40.8093C40.8445 11.3889 40.8915 11.4124 40.915 11.4476C40.9384 11.4828 40.9502 11.5298 40.9267 11.5768L37.2511 20.1375C37.2276 20.1962 37.1572 20.2315 37.075 20.208Z" fill="black"/>
<path d="M17.0501 19.3507L16.5807 19.3337L16.5804 19.3422V19.3507H17.0501ZM17.9426 17.6832L18.2404 18.0464L18.2433 18.0441L17.9426 17.6832ZM20.2677 16.4854L20.1072 16.0439L20.1023 16.0458L20.2677 16.4854ZM22.1114 15.2289L21.7205 14.9683L21.7192 14.9704L22.1114 15.2289ZM21.8061 12.2461L22.1382 11.914L22.134 11.9098L21.8061 12.2461ZM19.8919 11.565V12.0348H19.8992L19.9064 12.0345L19.8919 11.565ZM18.8938 11.7647L18.7165 11.3296L18.7107 11.3321L18.8938 11.7647ZM18.0717 12.2931L18.3917 12.6371L18.3953 12.6337L18.0717 12.2931ZM17.8839 12.1052L17.5671 11.7583L17.5628 11.7623L17.8839 12.1052ZM18.7998 11.5298L18.9664 11.9691L18.9743 11.9659L18.7998 11.5298ZM19.8919 11.295L19.8853 10.8252L19.8773 10.8255L19.8919 11.295ZM21.9822 12.0583L21.6539 12.3942L21.6542 12.3945L21.9822 12.0583ZM22.3345 15.3816L22.7229 15.646L22.7293 15.636L22.3345 15.3816ZM20.3499 16.732L20.1885 16.2909L20.1839 16.2926L20.3499 16.732ZM18.107 17.8828L17.8124 17.5169L17.8087 17.52L18.107 17.8828ZM17.3202 19.9614H16.8505V20.4311H17.3202V19.9614ZM22.6751 19.75H17.1793V20.6895H22.6751V19.75ZM17.1793 19.75C17.3682 19.75 17.5198 19.9016 17.5198 20.0906H16.5804C16.5804 20.4204 16.8494 20.6895 17.1793 20.6895V19.75ZM17.5198 20.0906V19.3507H16.5804V20.0906H17.5198ZM17.5195 19.3678C17.5374 18.8757 17.7417 18.4554 18.2404 18.0464L17.6447 17.32C16.9691 17.874 16.6098 18.5341 16.5807 19.3337L17.5195 19.3678ZM18.2433 18.0441C18.6743 17.6849 19.3538 17.3313 20.4332 16.925L20.1023 16.0458C18.9974 16.4616 18.1972 16.8595 17.6419 17.3224L18.2433 18.0441ZM20.4282 16.9269C21.3798 16.5808 22.0849 16.1226 22.5036 15.4874L21.7192 14.9704C21.4567 15.3686 20.964 15.7324 20.1072 16.044L20.4282 16.9269ZM22.5022 15.4895C22.8833 14.9179 22.9334 14.3374 22.9334 13.8902H21.9939C21.9939 14.265 21.9501 14.624 21.7205 14.9683L22.5022 15.4895ZM22.9334 13.8902C22.9334 13.1138 22.6531 12.4289 22.1382 11.914L21.4739 12.5783C21.8045 12.9089 21.9939 13.3513 21.9939 13.8902H22.9334ZM22.134 11.9098C21.5599 11.3501 20.7488 11.0687 19.8775 11.0955L19.9064 12.0345C20.5617 12.0144 21.1128 12.2262 21.4781 12.5825L22.134 11.9098ZM19.8919 11.0953C19.4871 11.0953 19.0865 11.1789 18.7165 11.3297L19.071 12.1997C19.3352 12.0921 19.6157 12.0348 19.8919 12.0348V11.0953ZM18.7107 11.3321C18.3606 11.4802 18.0293 11.6855 17.7482 11.9526L18.3953 12.6337C18.5839 12.4545 18.8162 12.3075 19.0768 12.1973L18.7107 11.3321ZM17.7518 11.9492C17.1577 12.5019 16.8152 13.2463 16.8152 14.0428H17.7547C17.7547 13.5241 17.9759 13.0238 18.3917 12.637L17.7518 11.9492ZM16.8152 14.0428V14.9706H17.7547V14.0428H16.8152ZM16.8152 14.9706C16.8152 14.7816 16.9668 14.63 17.1558 14.63V15.5695C17.4857 15.5695 17.7547 15.3004 17.7547 14.9706H16.8152ZM17.1558 14.63C17.3447 14.63 17.4963 14.7816 17.4963 14.9706H16.5569C16.5569 15.3004 16.8259 15.5695 17.1558 15.5695V14.63ZM17.4963 14.9706V14.0428H16.5569V14.9706H17.4963ZM17.4963 14.0428C17.4963 13.4388 17.7435 12.8801 18.2049 12.4481L17.5628 11.7623C16.9204 12.3638 16.5569 13.1672 16.5569 14.0428H17.4963ZM18.2006 12.4521C18.4338 12.2391 18.6894 12.0741 18.9664 11.969L18.6332 11.0906C18.2291 11.2439 17.8741 11.4781 17.5671 11.7583L18.2006 12.4521ZM18.9743 11.9659C19.2808 11.8433 19.5909 11.7743 19.9066 11.7645L19.8773 10.8255C19.4414 10.8391 19.0234 10.9345 18.6254 11.0937L18.9743 11.9659ZM19.8985 11.7646C20.6283 11.7544 21.2405 11.9902 21.6539 12.3942L22.3105 11.7223C21.6905 11.1164 20.8231 10.8121 19.8853 10.8253L19.8985 11.7646ZM21.6542 12.3945C22.0382 12.7691 22.2523 13.2788 22.2523 13.8902H23.1917C23.1917 13.0454 22.8891 12.2868 22.3102 11.722L21.6542 12.3945ZM22.2523 13.8902C22.2523 14.2998 22.2087 14.7096 21.9397 15.1271L22.7293 15.636C23.1414 14.9966 23.1917 14.373 23.1917 13.8902H22.2523ZM21.9462 15.1172C21.6466 15.5572 21.1016 15.9568 20.1885 16.2909L20.5113 17.1731C21.524 16.8026 22.2708 16.3098 22.7228 15.6459L21.9462 15.1172ZM20.1839 16.2926C19.1108 16.698 18.3516 17.083 17.8125 17.5169L18.4015 18.2488C18.8253 17.9077 19.4753 17.5646 20.5159 17.1714L20.1839 16.2926ZM17.8087 17.52C17.2018 18.019 16.8505 18.6117 16.8505 19.3507H17.7899C17.7899 18.9624 17.9552 18.6157 18.4053 18.2457L17.8087 17.52ZM16.8505 19.3507V19.9614H17.7899V19.3507H16.8505ZM17.3202 20.4311H22.6751V19.4917H17.3202V20.4311ZM22.6751 20.4311C22.4861 20.4311 22.3345 20.2795 22.3345 20.0906H23.2739C23.2739 19.7607 23.0049 19.4917 22.6751 19.4917V20.4311ZM22.3345 20.0906C22.3345 19.9016 22.4861 19.75 22.6751 19.75V20.6895C23.0049 20.6895 23.2739 20.4204 23.2739 20.0906H22.3345ZM27.2407 19.5151L26.9122 19.8509L26.9159 19.8544L27.2407 19.5151ZM26.3248 17.4953H25.8551V17.5062L25.8556 17.517L26.3248 17.4953ZM26.4539 17.3544V16.8847H26.4206L26.3875 16.8894L26.4539 17.3544ZM26.5831 17.4836H26.1134V17.4953L26.114 17.507L26.5831 17.4836ZM27.4169 19.3272L27.0886 19.6634L27.0967 19.6709L27.4169 19.3272ZM31.1747 19.3272L31.4989 19.6672L31.5029 19.6633L31.1747 19.3272ZM32.0084 17.4836L32.4776 17.507L32.4782 17.4953V17.4836H32.0084ZM31.2099 15.5577L31.5382 15.2218L31.5325 15.2162L31.5266 15.2108L31.2099 15.5577ZM30.2705 14.9706L30.44 14.5325L30.4354 14.5307L30.2705 14.9706ZM28.9317 14.677L29.3874 14.5631L29.3749 14.513L29.3519 14.4669L28.9317 14.677ZM28.9435 14.5361L28.5888 14.2281L28.5778 14.2408L28.5677 14.2542L28.9435 14.5361ZM31.4213 11.6825L31.776 11.9904L32.4512 11.2128H31.4213V11.6825ZM31.8323 11.4946L32.288 11.3807L32.2755 11.3306L32.2524 11.2845L31.8323 11.4946ZM31.8088 11.6355L32.1634 11.9436L32.1745 11.9308L32.1846 11.9173L31.8088 11.6355ZM29.3193 14.5008L28.9647 14.1927L28.3412 14.9103L29.29 14.9696L29.3193 14.5008ZM30.3644 14.7357L30.1872 15.1707L30.1955 15.1741L30.2039 15.1771L30.3644 14.7357ZM31.3861 15.3698L31.7147 15.0342L31.7111 15.0307L31.3861 15.3698ZM32.2668 17.4953L32.736 17.517L32.7365 17.5062V17.4953H32.2668ZM31.3508 19.5151L31.6757 19.8544L31.6758 19.8543L31.3508 19.5151ZM29.2958 19.8674C28.6521 19.8674 28.0291 19.6196 27.5656 19.1759L26.9159 19.8544C27.5562 20.4675 28.4128 20.8069 29.2958 20.8069V19.8674ZM27.5693 19.1794C27.0995 18.7196 26.8236 18.1144 26.794 17.4737L25.8556 17.517C25.8964 18.4029 26.2781 19.2303 26.9122 19.8508L27.5693 19.1794ZM26.7945 17.4953C26.7945 17.5665 26.7696 17.6469 26.7108 17.7136C26.6513 17.781 26.578 17.8112 26.5204 17.8194L26.3875 16.8894C26.0809 16.9332 25.8551 17.1841 25.8551 17.4953H26.7945ZM26.4539 17.8241C26.265 17.8241 26.1134 17.6725 26.1134 17.4836H27.0528C27.0528 17.1537 26.7838 16.8847 26.4539 16.8847V17.8241ZM26.114 17.507C26.1552 18.331 26.4998 19.0881 27.0887 19.6633L27.7451 18.9912C27.324 18.5799 27.0815 18.0454 27.0523 17.4601L26.114 17.507ZM27.0967 19.6709C27.6964 20.2298 28.4671 20.5485 29.2958 20.5485V19.6091C28.7153 19.6091 28.1708 19.3877 27.7371 18.9836L27.0967 19.6709ZM29.2958 20.5485C30.1214 20.5485 30.9068 20.2317 31.4988 19.6672L30.8505 18.9873C30.4327 19.3857 29.8793 19.6091 29.2958 19.6091V20.5485ZM31.5029 19.6633C32.0917 19.0881 32.4364 18.331 32.4776 17.507L31.5393 17.4601C31.51 18.0454 31.2675 18.5799 30.8465 18.9912L31.5029 19.6633ZM32.4782 17.4836C32.4782 16.6211 32.148 15.8177 31.5382 15.2218L30.8816 15.8936C31.3052 16.3076 31.5387 16.8664 31.5387 17.4836H32.4782ZM31.5266 15.2108C31.2179 14.9289 30.8636 14.6965 30.44 14.5325L30.1009 15.4086C30.4054 15.5265 30.6617 15.6933 30.8932 15.9046L31.5266 15.2108ZM30.4354 14.5307C30.002 14.3682 29.5345 14.2895 29.0492 14.2895V15.2289C29.4328 15.2289 29.7874 15.2911 30.1055 15.4104L30.4354 14.5307ZM29.0492 14.2895C29.1712 14.2895 29.3389 14.3689 29.3874 14.5631L28.476 14.7909C28.5481 15.079 28.8097 15.2289 29.0492 15.2289V14.2895ZM29.3519 14.4669C29.3681 14.4994 29.3892 14.5585 29.3844 14.6358C29.3794 14.716 29.3488 14.7786 29.3193 14.8179L28.5677 14.2542C28.503 14.3405 28.4547 14.45 28.4468 14.5772C28.439 14.7015 28.4719 14.8076 28.5116 14.887L29.3519 14.4669ZM29.2982 14.844L31.776 11.9904L31.0666 11.3745L28.5888 14.2281L29.2982 14.844ZM31.4213 11.2128H26.9119V12.1522H31.4213V11.2128ZM26.9119 11.2128C27.1273 11.2128 27.2525 11.3916 27.2525 11.5416H26.313C26.313 11.856 26.5556 12.1522 26.9119 12.1522V11.2128ZM27.2525 11.5416C27.2525 11.7305 27.1009 11.8821 26.9119 11.8821V10.9427C26.5821 10.9427 26.313 11.2117 26.313 11.5416H27.2525ZM26.9119 11.8821H31.7031V10.9427H26.9119V11.8821ZM31.7031 11.8821C31.5593 11.8821 31.4566 11.7935 31.4122 11.7047L32.2524 11.2845C32.161 11.1017 31.9644 10.9427 31.7031 10.9427V11.8821ZM31.3766 11.6085C31.374 11.5981 31.3654 11.5599 31.3721 11.5068C31.3794 11.4479 31.4024 11.3946 31.433 11.3537L32.1846 11.9173C32.3334 11.719 32.3205 11.5105 32.288 11.3807L31.3766 11.6085ZM31.4542 11.3274L28.9647 14.1927L29.6739 14.8089L32.1634 11.9436L31.4542 11.3274ZM29.29 14.9696C29.6159 14.99 29.9182 15.0611 30.1872 15.1707L30.5416 14.3007C30.1765 14.1519 29.7742 14.0586 29.3486 14.032L29.29 14.9696ZM30.2039 15.1771C30.5292 15.2954 30.8257 15.4834 31.0611 15.709L31.7111 15.0307C31.3827 14.716 30.9746 14.4578 30.5249 14.2942L30.2039 15.1771ZM31.0574 15.7054C31.5292 16.1674 31.7971 16.7972 31.7971 17.4953H32.7365C32.7365 16.5494 32.3703 15.6761 31.7147 15.0342L31.0574 15.7054ZM31.7976 17.4737C31.7678 18.1186 31.501 18.7206 31.0258 19.176L31.6758 19.8543C32.328 19.2293 32.6953 18.3987 32.736 17.517L31.7976 17.4737ZM31.026 19.1759C30.5618 19.6203 29.9502 19.8674 29.2958 19.8674V20.8069C30.1915 20.8069 31.036 20.4669 31.6757 19.8544L31.026 19.1759ZM37.075 20.208L36.9005 20.6441L36.9228 20.653L36.9459 20.6596L37.075 20.208ZM37.0162 20.0436L36.5844 19.8585L36.5801 19.8691L37.0162 20.0436ZM40.6096 11.659L41.0414 11.844L41.322 11.1893H40.6096V11.659ZM40.9267 11.5768L40.5066 11.3667L40.5005 11.3789L40.4951 11.3915L40.9267 11.5768ZM37.2511 20.1375L36.8193 19.9521L36.815 19.9631L37.2511 20.1375ZM37.2494 19.7719C37.3808 19.8244 37.4394 19.9274 37.4604 19.9905C37.4813 20.0533 37.4863 20.1333 37.4524 20.218L36.5801 19.8691C36.5227 20.0126 36.5277 20.1631 36.5692 20.2875C36.6107 20.4122 36.7104 20.5681 36.9005 20.6441L37.2494 19.7719ZM37.448 20.2286L41.0414 11.844L40.1779 11.474L36.5845 19.8585L37.448 20.2286ZM40.6096 11.1893H35.6893V12.1287H40.6096V11.1893ZM35.6893 11.1893C35.8056 11.1893 35.8834 11.24 35.9246 11.2788C35.9698 11.3213 36.0298 11.4057 36.0298 11.5298H35.0904C35.0904 11.7244 35.1857 11.8734 35.2807 11.9629C35.3718 12.0486 35.5143 12.1287 35.6893 12.1287V11.1893ZM36.0298 11.5298C36.0298 11.6209 35.9945 11.6942 35.9493 11.745C35.9035 11.7966 35.8154 11.8586 35.6893 11.8586V10.9192C35.4927 10.9192 35.34 11.0165 35.2472 11.1209C35.1551 11.2245 35.0904 11.3683 35.0904 11.5298H36.0298ZM35.6893 11.8586H40.8093V10.9192H35.6893V11.8586ZM40.8093 11.8586C40.7316 11.8586 40.6759 11.8359 40.6438 11.8186C40.6096 11.8002 40.5633 11.767 40.5241 11.7082L41.3058 11.1871C41.2431 11.093 41.1616 11.0304 41.0892 10.9915C41.019 10.9537 40.9222 10.9192 40.8093 10.9192V11.8586ZM40.5241 11.7082C40.5037 11.6775 40.481 11.6312 40.4728 11.5699C40.4641 11.504 40.4739 11.4321 40.5066 11.3667L41.3468 11.7869C41.4671 11.5463 41.3928 11.3176 41.3058 11.1871L40.5241 11.7082ZM40.4951 11.3915L36.8195 19.9522L37.6827 20.3228L41.3583 11.7621L40.4951 11.3915ZM36.815 19.9631C36.8965 19.7593 37.0972 19.7258 37.204 19.7563L36.9459 20.6596C37.2171 20.7371 37.5587 20.6332 37.6872 20.312L36.815 19.9631Z" fill="black"/>
<rect x="43.7891" y="15.3711" width="4.69725" height="1.17431" rx="0.587156" fill="black"/>
<path d="M57.0696 20.2197H51.5738C51.5033 20.2197 51.4446 20.161 51.4446 20.0906V19.3507C51.4681 18.7049 51.7499 18.1647 52.3371 17.6832C52.8303 17.2722 53.5701 16.8964 54.6622 16.4854C55.5665 16.1566 56.1654 15.7456 56.5059 15.2289C56.8112 14.7709 56.8582 14.3012 56.8582 13.8902C56.8582 13.2326 56.6233 12.6689 56.2006 12.2461C55.7309 11.7882 55.0498 11.5416 54.2865 11.565C53.9459 11.565 53.6054 11.6355 53.2883 11.7647C52.983 11.8939 52.7011 12.07 52.4663 12.2931C51.9613 12.7628 51.6795 13.3852 51.6795 14.0428V14.9706C51.6795 15.041 51.6208 15.0997 51.5503 15.0997C51.4799 15.0997 51.4211 15.041 51.4211 14.9706V14.0428C51.4211 13.303 51.7265 12.6219 52.2784 12.1052C52.5485 11.8586 52.8538 11.659 53.1944 11.5298C53.5466 11.3889 53.9107 11.3067 54.2865 11.295C55.1202 11.2832 55.86 11.5533 56.3767 12.0583C56.8582 12.528 57.1166 13.1621 57.1166 13.8902C57.1166 14.3364 57.0696 14.8531 56.729 15.3816C56.3533 15.9335 55.7074 16.3797 54.7444 16.732C53.6876 17.1313 52.983 17.4953 52.5015 17.8828C51.9731 18.3173 51.7147 18.7871 51.7147 19.3507V19.9614H57.0696C57.14 19.9614 57.1988 20.0201 57.1988 20.0906C57.1988 20.161 57.14 20.2197 57.0696 20.2197ZM65.8628 12.1757C65.9333 12.2461 65.992 12.3049 66.0507 12.3871C66.0624 12.3871 66.0742 12.3988 66.0742 12.4106C66.5204 12.939 66.7553 13.6083 66.7553 14.3012V17.3192C66.7553 18.1295 66.4382 18.881 65.8628 19.4564C65.2991 20.0201 64.5358 20.3372 63.7373 20.3372C62.927 20.3372 62.1755 20.0201 61.6 19.4564C61.0364 18.881 60.7193 18.1295 60.7193 17.3192V14.3012C60.7193 13.5027 61.0364 12.7394 61.6 12.1757C62.1755 11.6003 62.927 11.295 63.7373 11.295C64.5358 11.295 65.2991 11.6003 65.8628 12.1757ZM61.7879 12.3636C61.2712 12.8803 60.9777 13.5731 60.9777 14.3012V17.3192C60.9777 18.0003 61.2243 18.6344 61.6705 19.1394L65.8041 12.4928C65.7688 12.4458 65.7219 12.3988 65.6866 12.3636C65.1582 11.8351 64.4654 11.5533 63.7373 11.5533C62.9975 11.5533 62.3046 11.8351 61.7879 12.3636ZM66.4852 14.3012C66.4852 13.7258 66.309 13.1621 65.9685 12.7041L61.8584 19.339C62.3633 19.8087 63.0327 20.0788 63.7373 20.0788C64.4654 20.0788 65.1582 19.7852 65.6866 19.2685C66.2033 18.7518 66.4852 18.059 66.4852 17.3192V14.3012ZM73.2522 20.3372C72.4889 20.3372 71.7491 20.0436 71.1972 19.5151C70.6453 18.975 70.3165 18.2586 70.2812 17.4953C70.2812 17.4249 70.3282 17.3661 70.4104 17.3544C70.4809 17.3544 70.5396 17.4131 70.5396 17.4836C70.5748 18.1882 70.8684 18.834 71.3733 19.3272C71.89 19.8087 72.5477 20.0788 73.2522 20.0788C73.9568 20.0788 74.6262 19.8087 75.1311 19.3272C75.6361 18.834 75.9297 18.1882 75.9649 17.4836C75.9649 16.7438 75.6831 16.0627 75.1664 15.5577C74.8963 15.3111 74.591 15.1115 74.2269 14.9706C73.8511 14.8296 73.4401 14.7592 73.0056 14.7592C72.9469 14.7592 72.8999 14.7239 72.8882 14.677C72.8647 14.63 72.8647 14.583 72.8999 14.5361L75.3777 11.6825H70.8684C70.7979 11.6825 70.7392 11.6238 70.7392 11.5416C70.7392 11.4711 70.7979 11.4124 70.8684 11.4124H75.6596C75.7183 11.4124 75.7653 11.4476 75.7888 11.4946C75.8005 11.5416 75.8005 11.5885 75.7653 11.6355L73.2757 14.5008C73.6515 14.5243 74.0038 14.6065 74.3209 14.7357C74.7084 14.8766 75.0607 15.0997 75.3425 15.3698C75.9062 15.9217 76.2233 16.6733 76.2233 17.4953C76.188 18.2586 75.871 18.975 75.3073 19.5151C74.7554 20.0436 74.0273 20.3372 73.2522 20.3372Z" fill="black"/>
<path d="M51.4446 19.3507L50.9752 19.3337L50.9749 19.3422V19.3507H51.4446ZM52.3371 17.6832L52.635 18.0464L52.6378 18.0441L52.3371 17.6832ZM54.6622 16.4854L54.5017 16.0439L54.4968 16.0458L54.6622 16.4854ZM56.5059 15.2289L56.1151 14.9683L56.1137 14.9704L56.5059 15.2289ZM56.2006 12.2461L56.5328 11.914L56.5285 11.9098L56.2006 12.2461ZM54.2865 11.565V12.0348H54.2937L54.3009 12.0345L54.2865 11.565ZM53.2883 11.7647L53.1111 11.3296L53.1053 11.3321L53.2883 11.7647ZM52.4663 12.2931L52.7862 12.6371L52.7898 12.6337L52.4663 12.2931ZM52.2784 12.1052L51.9616 11.7583L51.9574 11.7623L52.2784 12.1052ZM53.1944 11.5298L53.361 11.9691L53.3688 11.9659L53.1944 11.5298ZM54.2865 11.295L54.2798 10.8252L54.2718 10.8255L54.2865 11.295ZM56.3767 12.0583L56.0484 12.3942L56.0487 12.3945L56.3767 12.0583ZM56.729 15.3816L57.1174 15.646L57.1239 15.636L56.729 15.3816ZM54.7444 16.732L54.583 16.2909L54.5784 16.2926L54.7444 16.732ZM52.5015 17.8828L52.207 17.5169L52.2032 17.52L52.5015 17.8828ZM51.7147 19.9614H51.245V20.4311H51.7147V19.9614ZM57.0696 19.75H51.5738V20.6895H57.0696V19.75ZM51.5738 19.75C51.7628 19.75 51.9144 19.9016 51.9144 20.0906H50.9749C50.9749 20.4204 51.2439 20.6895 51.5738 20.6895V19.75ZM51.9144 20.0906V19.3507H50.9749V20.0906H51.9144ZM51.914 19.3678C51.9319 18.8757 52.1363 18.4554 52.6349 18.0464L52.0393 17.32C51.3636 17.874 51.0043 18.5341 50.9752 19.3337L51.914 19.3678ZM52.6378 18.0441C53.0689 17.6849 53.7483 17.3313 54.8277 16.925L54.4968 16.0458C53.392 16.4616 52.5918 16.8595 52.0364 17.3224L52.6378 18.0441ZM54.8228 16.9269C55.7744 16.5808 56.4795 16.1226 56.8981 15.4874L56.1137 14.9704C55.8513 15.3686 55.3586 15.7324 54.5017 16.044L54.8228 16.9269ZM56.8967 15.4895C57.2778 14.9179 57.3279 14.3374 57.3279 13.8902H56.3885C56.3885 14.265 56.3447 14.624 56.1151 14.9683L56.8967 15.4895ZM57.3279 13.8902C57.3279 13.1138 57.0476 12.4289 56.5327 11.914L55.8684 12.5783C56.1991 12.9089 56.3885 13.3513 56.3885 13.8902H57.3279ZM56.5285 11.9098C55.9544 11.3501 55.1433 11.0687 54.272 11.0955L54.3009 12.0345C54.9562 12.0144 55.5073 12.2262 55.8727 12.5825L56.5285 11.9098ZM54.2865 11.0953C53.8816 11.0953 53.481 11.1789 53.1111 11.3297L53.4655 12.1997C53.7297 12.0921 54.0102 12.0348 54.2865 12.0348V11.0953ZM53.1053 11.3321C52.7552 11.4802 52.4239 11.6855 52.1428 11.9526L52.7898 12.6337C52.9784 12.4545 53.2108 12.3075 53.4713 12.1973L53.1053 11.3321ZM52.1463 11.9492C51.5522 12.5019 51.2098 13.2463 51.2098 14.0428H52.1492C52.1492 13.5241 52.3704 13.0238 52.7862 12.637L52.1463 11.9492ZM51.2098 14.0428V14.9706H52.1492V14.0428H51.2098ZM51.2098 14.9706C51.2098 14.7816 51.3614 14.63 51.5503 14.63V15.5695C51.8802 15.5695 52.1492 15.3004 52.1492 14.9706H51.2098ZM51.5503 14.63C51.7393 14.63 51.8909 14.7816 51.8909 14.9706H50.9514C50.9514 15.3004 51.2204 15.5695 51.5503 15.5695V14.63ZM51.8909 14.9706V14.0428H50.9514V14.9706H51.8909ZM51.8909 14.0428C51.8909 13.4388 52.138 12.8801 52.5994 12.4481L51.9574 11.7623C51.3149 12.3638 50.9514 13.1672 50.9514 14.0428H51.8909ZM52.5951 12.4521C52.8284 12.2391 53.084 12.0741 53.3609 11.969L53.0278 11.0906C52.6236 11.2439 52.2686 11.4781 51.9617 11.7583L52.5951 12.4521ZM53.3688 11.9659C53.6753 11.8433 53.9854 11.7743 54.3011 11.7645L54.2718 10.8255C53.8359 10.8391 53.4179 10.9345 53.0199 11.0937L53.3688 11.9659ZM54.2931 11.7646C55.0228 11.7544 55.6351 11.9902 56.0484 12.3942L56.705 11.7223C56.085 11.1164 55.2177 10.8121 54.2798 10.8253L54.2931 11.7646ZM56.0487 12.3945C56.4328 12.7691 56.6468 13.2788 56.6468 13.8902H57.5863C57.5863 13.0454 57.2837 12.2868 56.7048 11.722L56.0487 12.3945ZM56.6468 13.8902C56.6468 14.2998 56.6032 14.7096 56.3342 15.1271L57.1239 15.636C57.5359 14.9966 57.5863 14.373 57.5863 13.8902H56.6468ZM56.3408 15.1172C56.0412 15.5572 55.4962 15.9568 54.5831 16.2909L54.9058 17.1731C55.9186 16.8026 56.6653 16.3098 57.1173 15.6459L56.3408 15.1172ZM54.5784 16.2926C53.5053 16.698 52.7461 17.083 52.207 17.5169L52.796 18.2488C53.2198 17.9077 53.8698 17.5646 54.9104 17.1714L54.5784 16.2926ZM52.2032 17.52C51.5964 18.019 51.245 18.6117 51.245 19.3507H52.1844C52.1844 18.9624 52.3498 18.6157 52.7998 18.2457L52.2032 17.52ZM51.245 19.3507V19.9614H52.1844V19.3507H51.245ZM51.7147 20.4311H57.0696V19.4917H51.7147V20.4311ZM57.0696 20.4311C56.8806 20.4311 56.729 20.2795 56.729 20.0906H57.6685C57.6685 19.7607 57.3995 19.4917 57.0696 19.4917V20.4311ZM56.729 20.0906C56.729 19.9016 56.8806 19.75 57.0696 19.75V20.6895C57.3995 20.6895 57.6685 20.4204 57.6685 20.0906H56.729ZM65.8628 12.1757L65.5272 12.5044L65.5306 12.5078L65.8628 12.1757ZM66.0507 12.3871L65.6685 12.6601L65.809 12.8568H66.0507V12.3871ZM66.0742 12.4106H65.6044V12.5823L65.7153 12.7136L66.0742 12.4106ZM65.8628 19.4564L66.1949 19.7886L66.1949 19.7886L65.8628 19.4564ZM61.6 19.4564L61.2644 19.7852L61.2713 19.792L61.6 19.4564ZM61.6 12.1757L61.2679 11.8435L61.2679 11.8435L61.6 12.1757ZM61.7879 12.3636L62.1201 12.6957L62.1238 12.692L61.7879 12.3636ZM61.6705 19.1394L61.3185 19.4504L61.7362 19.9231L62.0694 19.3874L61.6705 19.1394ZM65.8041 12.4928L66.203 12.7408L66.3726 12.468L66.1799 12.2109L65.8041 12.4928ZM65.6866 12.3636L66.0188 12.0314L66.0188 12.0314L65.6866 12.3636ZM65.9685 12.7041L66.3454 12.4238L65.9331 11.8693L65.5692 12.4568L65.9685 12.7041ZM61.8584 19.339L61.4591 19.0916L61.2557 19.4199L61.5385 19.6829L61.8584 19.339ZM65.6866 19.2685L66.0151 19.6044L66.0188 19.6007L65.6866 19.2685ZM65.5306 12.5078C65.603 12.5802 65.6353 12.6137 65.6685 12.6601L66.4329 12.114C66.3486 11.9961 66.2635 11.9121 66.1949 11.8435L65.5306 12.5078ZM66.0507 12.8568C65.9038 12.8568 65.7962 12.7881 65.7347 12.7266C65.6732 12.665 65.6044 12.5575 65.6044 12.4106H66.5439C66.5439 12.2519 66.4693 12.1326 66.399 12.0623C66.3287 11.9919 66.2093 11.9173 66.0507 11.9173V12.8568ZM65.7153 12.7136C66.087 13.1537 66.2855 13.7146 66.2855 14.3012H67.225C67.225 13.5021 66.9539 12.7242 66.4331 12.1075L65.7153 12.7136ZM66.2855 14.3012V17.3192H67.225V14.3012H66.2855ZM66.2855 17.3192C66.2855 18.0023 66.0198 18.6351 65.5306 19.1243L66.1949 19.7886C66.8566 19.1269 67.225 18.2566 67.225 17.3192H66.2855ZM65.5306 19.1243C65.0549 19.6 64.411 19.8674 63.7373 19.8674V20.8069C64.6606 20.8069 65.5434 20.4402 66.1949 19.7886L65.5306 19.1243ZM63.7373 19.8674C63.0536 19.8674 62.419 19.6012 61.9287 19.1209L61.2713 19.792C61.9319 20.439 62.8004 20.8069 63.7373 20.8069V19.8674ZM61.9356 19.1277C61.4553 18.6374 61.189 18.0028 61.189 17.3192H60.2496C60.2496 18.2561 60.6174 19.1246 61.2645 19.7851L61.9356 19.1277ZM61.189 17.3192V14.3012H60.2496V17.3192H61.189ZM61.189 14.3012C61.189 13.6275 61.4564 12.9836 61.9322 12.5078L61.2679 11.8435C60.6163 12.4951 60.2496 13.3778 60.2496 14.3012H61.189ZM61.9322 12.5078C62.418 12.022 63.0495 11.7647 63.7373 11.7647V10.8252C62.8046 10.8252 61.9329 11.1786 61.2679 11.8435L61.9322 12.5078ZM63.7373 11.7647C64.4152 11.7647 65.0558 12.0231 65.5272 12.5044L66.1983 11.847C65.5424 11.1774 64.6564 10.8252 63.7373 10.8252V11.7647ZM61.4558 12.0314C60.8532 12.634 60.5079 13.4454 60.5079 14.3012H61.4474C61.4474 13.7008 61.6892 13.1266 62.1201 12.6957L61.4558 12.0314ZM60.5079 14.3012V17.3192H61.4474V14.3012H60.5079ZM60.5079 17.3192C60.5079 18.1173 60.7981 18.8615 61.3185 19.4504L62.0225 18.8283C61.6505 18.4073 61.4474 17.8832 61.4474 17.3192H60.5079ZM62.0694 19.3874L66.203 12.7408L65.4052 12.2447L61.2716 18.8913L62.0694 19.3874ZM66.1799 12.2109C66.1211 12.1325 66.0494 12.062 66.0188 12.0314L65.3545 12.6957C65.3727 12.7139 65.3877 12.729 65.402 12.7443C65.4164 12.7598 65.4246 12.7697 65.4283 12.7746L66.1799 12.2109ZM66.0188 12.0314C65.4019 11.4145 64.5894 11.0836 63.7373 11.0836V12.023C64.3413 12.023 64.9145 12.2557 65.3545 12.6957L66.0188 12.0314ZM63.7373 11.0836C62.8754 11.0836 62.0601 11.4133 61.4521 12.0352L62.1238 12.692C62.5491 12.257 63.1195 12.023 63.7373 12.023V11.0836ZM66.9549 14.3012C66.9549 13.6311 66.7499 12.9678 66.3454 12.4238L65.5915 12.9844C65.8682 13.3565 66.0155 13.8205 66.0155 14.3012H66.9549ZM65.5692 12.4568L61.4591 19.0916L62.2577 19.5864L66.3678 12.9515L65.5692 12.4568ZM61.5385 19.6829C62.129 20.2323 62.9122 20.5485 63.7373 20.5485V19.6091C63.1532 19.6091 62.5977 19.3852 62.1783 18.9951L61.5385 19.6829ZM63.7373 20.5485C64.5939 20.5485 65.4031 20.2028 66.015 19.6044L65.3583 18.9327C64.9134 19.3677 64.3368 19.6091 63.7373 19.6091V20.5485ZM66.0188 19.6007C66.6258 18.9937 66.9549 18.1805 66.9549 17.3192H66.0155C66.0155 17.9375 65.7809 18.51 65.3545 18.9364L66.0188 19.6007ZM66.9549 17.3192V14.3012H66.0155V17.3192H66.9549ZM71.1972 19.5151L70.8686 19.8509L70.8723 19.8544L71.1972 19.5151ZM70.2812 17.4953H69.8115V17.5062L69.812 17.517L70.2812 17.4953ZM70.4104 17.3544V16.8847H70.377L70.344 16.8894L70.4104 17.3544ZM70.5396 17.4836H70.0699V17.4953L70.0704 17.507L70.5396 17.4836ZM71.3733 19.3272L71.045 19.6634L71.0531 19.6709L71.3733 19.3272ZM75.1311 19.3272L75.4553 19.6672L75.4594 19.6633L75.1311 19.3272ZM75.9649 17.4836L76.434 17.507L76.4346 17.4953V17.4836H75.9649ZM75.1664 15.5577L75.4947 15.2218L75.489 15.2162L75.4831 15.2108L75.1664 15.5577ZM74.2269 14.9706L74.3965 14.5325L74.3919 14.5307L74.2269 14.9706ZM72.8882 14.677L73.3439 14.5631L73.3314 14.513L73.3083 14.4669L72.8882 14.677ZM72.8999 14.5361L72.5453 14.2281L72.5343 14.2408L72.5242 14.2542L72.8999 14.5361ZM75.3777 11.6825L75.7324 11.9904L76.4077 11.2128H75.3777V11.6825ZM75.7888 11.4946L76.2445 11.3807L76.232 11.3306L76.2089 11.2845L75.7888 11.4946ZM75.7653 11.6355L76.1199 11.9436L76.1309 11.9308L76.141 11.9173L75.7653 11.6355ZM73.2757 14.5008L72.9211 14.1927L72.2977 14.9103L73.2464 14.9696L73.2757 14.5008ZM74.3209 14.7357L74.1436 15.1707L74.1519 15.1741L74.1603 15.1771L74.3209 14.7357ZM75.3425 15.3698L75.6712 15.0342L75.6675 15.0307L75.3425 15.3698ZM76.2233 17.4953L76.6925 17.517L76.693 17.5062V17.4953H76.2233ZM75.3073 19.5151L75.6321 19.8544L75.6323 19.8543L75.3073 19.5151ZM73.2522 19.8674C72.6086 19.8674 71.9855 19.6196 71.522 19.1759L70.8723 19.8544C71.5127 20.4675 72.3693 20.8069 73.2522 20.8069V19.8674ZM71.5258 19.1794C71.0559 18.7196 70.78 18.1144 70.7505 17.4737L69.812 17.517C69.8529 18.4029 70.2346 19.2303 70.8686 19.8508L71.5258 19.1794ZM70.751 17.4953C70.751 17.5665 70.7261 17.6469 70.6672 17.7136C70.6078 17.781 70.5345 17.8112 70.4768 17.8194L70.344 16.8894C70.0374 16.9332 69.8115 17.1841 69.8115 17.4953H70.751ZM70.4104 17.8241C70.2214 17.8241 70.0699 17.6725 70.0699 17.4836H71.0093C71.0093 17.1537 70.7403 16.8847 70.4104 16.8847V17.8241ZM70.0704 17.507C70.1116 18.331 70.4563 19.0881 71.0451 19.6633L71.7016 18.9912C71.2805 18.5799 71.038 18.0454 71.0087 17.4601L70.0704 17.507ZM71.0531 19.6709C71.6529 20.2298 72.4236 20.5485 73.2522 20.5485V19.6091C72.6717 19.6091 72.1272 19.3877 71.6936 18.9836L71.0531 19.6709ZM73.2522 20.5485C74.0779 20.5485 74.8632 20.2317 75.4553 19.6672L74.807 18.9873C74.3892 19.3857 73.8358 19.6091 73.2522 19.6091V20.5485ZM75.4594 19.6633C76.0482 19.0881 76.3928 18.331 76.434 17.507L75.4958 17.4601C75.4665 18.0454 75.224 18.5799 74.8029 18.9912L75.4594 19.6633ZM76.4346 17.4836C76.4346 16.6211 76.1045 15.8177 75.4947 15.2218L74.8381 15.8936C75.2616 16.3076 75.4952 16.8664 75.4952 17.4836H76.4346ZM75.4831 15.2108C75.1744 14.9289 74.82 14.6965 74.3965 14.5325L74.0574 15.4086C74.3619 15.5265 74.6182 15.6933 74.8496 15.9046L75.4831 15.2108ZM74.3919 14.5307C73.9584 14.3682 73.491 14.2895 73.0056 14.2895V15.2289C73.3893 15.2289 73.7438 15.2911 74.062 15.4104L74.3919 14.5307ZM73.0056 14.2895C73.1276 14.2895 73.2954 14.3689 73.3439 14.5631L72.4325 14.7909C72.5045 15.079 72.7662 15.2289 73.0056 15.2289V14.2895ZM73.3083 14.4669C73.3246 14.4994 73.3457 14.5585 73.3409 14.6358C73.3359 14.716 73.3052 14.7786 73.2757 14.8179L72.5242 14.2542C72.4594 14.3405 72.4112 14.45 72.4032 14.5772C72.3955 14.7015 72.4283 14.8076 72.4681 14.887L73.3083 14.4669ZM73.2546 14.844L75.7324 11.9904L75.0231 11.3745L72.5453 14.2281L73.2546 14.844ZM75.3777 11.2128H70.8684V12.1522H75.3777V11.2128ZM70.8684 11.2128C71.0838 11.2128 71.2089 11.3916 71.2089 11.5416H70.2695C70.2695 11.856 70.5121 12.1522 70.8684 12.1522V11.2128ZM71.2089 11.5416C71.2089 11.7305 71.0574 11.8821 70.8684 11.8821V10.9427C70.5385 10.9427 70.2695 11.2117 70.2695 11.5416H71.2089ZM70.8684 11.8821H75.6596V10.9427H70.8684V11.8821ZM75.6596 11.8821C75.5157 11.8821 75.4131 11.7935 75.3686 11.7047L76.2089 11.2845C76.1175 11.1017 75.9209 10.9427 75.6596 10.9427V11.8821ZM75.3331 11.6085C75.3304 11.5981 75.3219 11.5599 75.3285 11.5068C75.3359 11.4479 75.3588 11.3946 75.3895 11.3537L76.141 11.9173C76.2898 11.719 76.2769 11.5105 76.2445 11.3807L75.3331 11.6085ZM75.4107 11.3274L72.9211 14.1927L73.6303 14.8089L76.1199 11.9436L75.4107 11.3274ZM73.2464 14.9696C73.5724 14.99 73.8746 15.0611 74.1436 15.1707L74.4981 14.3007C74.133 14.1519 73.7306 14.0586 73.305 14.032L73.2464 14.9696ZM74.1603 15.1771C74.4857 15.2954 74.7822 15.4834 75.0175 15.709L75.6675 15.0307C75.3392 14.716 74.9311 14.4578 74.4814 14.2942L74.1603 15.1771ZM75.0139 15.7054C75.4856 16.1674 75.7535 16.7972 75.7535 17.4953H76.693C76.693 16.5494 76.3267 15.6761 75.6711 15.0342L75.0139 15.7054ZM75.754 17.4737C75.7243 18.1186 75.4575 18.7206 74.9823 19.176L75.6323 19.8543C76.2844 19.2293 76.6518 18.3987 76.6925 17.517L75.754 17.4737ZM74.9824 19.1759C74.5182 19.6203 73.9066 19.8674 73.2522 19.8674V20.8069C74.1479 20.8069 74.9925 20.4669 75.6321 19.8544L74.9824 19.1759Z" fill="black"/>
<rect x="79.1836" y="15.3711" width="4.69725" height="1.17431" rx="0.587156" fill="black"/>
<path d="M92.4641 20.2197H86.9683C86.8979 20.2197 86.8392 20.161 86.8392 20.0906V19.3507C86.8626 18.7049 87.1445 18.1647 87.7316 17.6832C88.2248 17.2722 88.9647 16.8964 90.0568 16.4854C90.961 16.1566 91.5599 15.7456 91.9004 15.2289C92.2058 14.7709 92.2527 14.3012 92.2527 13.8902C92.2527 13.2326 92.0179 12.6689 91.5951 12.2461C91.1254 11.7882 90.4443 11.5416 89.681 11.565C89.3404 11.565 88.9999 11.6355 88.6828 11.7647C88.3775 11.8939 88.0957 12.07 87.8608 12.2931C87.3559 12.7628 87.074 13.3852 87.074 14.0428V14.9706C87.074 15.041 87.0153 15.0997 86.9448 15.0997C86.8744 15.0997 86.8157 15.041 86.8157 14.9706V14.0428C86.8157 13.303 87.121 12.6219 87.6729 12.1052C87.943 11.8586 88.2483 11.659 88.5889 11.5298C88.9412 11.3889 89.3052 11.3067 89.681 11.295C90.5148 11.2832 91.2546 11.5533 91.7713 12.0583C92.2527 12.528 92.5111 13.1621 92.5111 13.8902C92.5111 14.3364 92.4641 14.8531 92.1236 15.3816C91.7478 15.9335 91.1019 16.3797 90.139 16.732C89.0821 17.1313 88.3775 17.4953 87.896 17.8828C87.3676 18.3173 87.1092 18.7871 87.1092 19.3507V19.9614H92.4641C92.5346 19.9614 92.5933 20.0201 92.5933 20.0906C92.5933 20.161 92.5346 20.2197 92.4641 20.2197ZM102.643 16.7907C102.713 16.7907 102.772 16.8495 102.772 16.9199C102.772 16.9904 102.713 17.0491 102.643 17.0491H100.705V20.0906C100.705 20.161 100.647 20.2197 100.576 20.2197C100.506 20.2197 100.447 20.161 100.447 20.0906V17.0491H96.243C96.196 17.0491 96.1491 17.0256 96.1256 16.9786C96.1021 16.9317 96.1138 16.8847 96.1373 16.8377L100.471 11.3184C100.506 11.2715 100.564 11.2597 100.611 11.2715C100.67 11.295 100.705 11.3419 100.705 11.4006V16.7907H102.643ZM96.5131 16.7907H100.447V11.7764L96.5131 16.7907ZM109.008 20.3372C108.244 20.3372 107.54 20.0671 107.011 19.5856C106.471 19.1041 106.178 18.4583 106.178 17.7772C106.178 17.0843 106.471 16.4384 107.011 15.9452C107.34 15.6517 107.739 15.4403 108.174 15.3228C107.305 15.0293 106.694 14.266 106.694 13.3735C106.694 12.2227 107.728 11.295 109.008 11.295C110.276 11.295 111.309 12.2227 111.309 13.3735C111.309 14.266 110.699 15.0293 109.83 15.3228C110.264 15.4403 110.663 15.6517 110.992 15.9452C111.532 16.4384 111.826 17.0843 111.826 17.7772C111.826 18.4583 111.532 19.1041 110.992 19.5856C110.464 20.0671 109.759 20.3372 109.008 20.3372ZM109.008 11.565C107.88 11.565 106.964 12.3753 106.964 13.3852C106.964 14.3951 107.88 15.2172 109.008 15.2172C110.135 15.2172 111.051 14.3951 111.051 13.3852C111.051 12.3753 110.135 11.565 109.008 11.565ZM109.008 15.4638C107.599 15.4638 106.448 16.5089 106.448 17.7772C106.448 19.0454 107.599 20.0788 109.008 20.0788C110.429 20.0788 111.579 19.0454 111.579 17.7772C111.579 16.5089 110.429 15.4638 109.008 15.4638ZM116.506 20.208C116.448 20.1845 116.424 20.1023 116.448 20.0436L120.041 11.659H115.121C115.062 11.659 114.991 11.6003 114.991 11.5298C114.991 11.4594 115.05 11.3889 115.121 11.3889H120.241C120.276 11.3889 120.323 11.4124 120.346 11.4476C120.37 11.4828 120.381 11.5298 120.358 11.5768L116.682 20.1375C116.659 20.1962 116.588 20.2315 116.506 20.208Z" fill="black"/>
<path d="M86.8392 19.3507L86.3697 19.3337L86.3694 19.3422V19.3507H86.8392ZM87.7316 17.6832L88.0295 18.0464L88.0323 18.0441L87.7316 17.6832ZM90.0568 16.4854L89.8962 16.0439L89.8913 16.0458L90.0568 16.4854ZM91.9004 15.2289L91.5096 14.9683L91.5082 14.9704L91.9004 15.2289ZM91.5951 12.2461L91.9273 11.914L91.923 11.9098L91.5951 12.2461ZM89.681 11.565V12.0348H89.6882L89.6954 12.0345L89.681 11.565ZM88.6828 11.7647L88.5056 11.3296L88.4998 11.3321L88.6828 11.7647ZM87.8608 12.2931L88.1808 12.6371L88.1843 12.6337L87.8608 12.2931ZM87.6729 12.1052L87.3562 11.7583L87.3519 11.7623L87.6729 12.1052ZM88.5889 11.5298L88.7555 11.9691L88.7633 11.9659L88.5889 11.5298ZM89.681 11.295L89.6744 10.8252L89.6663 10.8255L89.681 11.295ZM91.7713 12.0583L91.443 12.3942L91.4432 12.3945L91.7713 12.0583ZM92.1236 15.3816L92.512 15.646L92.5184 15.636L92.1236 15.3816ZM90.139 16.732L89.9776 16.2909L89.973 16.2926L90.139 16.732ZM87.896 17.8828L87.6015 17.5169L87.5977 17.52L87.896 17.8828ZM87.1092 19.9614H86.6395V20.4311H87.1092V19.9614ZM92.4641 19.75H86.9683V20.6895H92.4641V19.75ZM86.9683 19.75C87.1573 19.75 87.3089 19.9016 87.3089 20.0906H86.3694C86.3694 20.4204 86.6385 20.6895 86.9683 20.6895V19.75ZM87.3089 20.0906V19.3507H86.3694V20.0906H87.3089ZM87.3086 19.3678C87.3265 18.8757 87.5308 18.4554 88.0295 18.0464L87.4338 17.32C86.7582 17.874 86.3988 18.5341 86.3697 19.3337L87.3086 19.3678ZM88.0323 18.0441C88.4634 17.6849 89.1428 17.3313 90.2222 16.925L89.8913 16.0458C88.7865 16.4616 87.9863 16.8595 87.4309 17.3224L88.0323 18.0441ZM90.2173 16.9269C91.1689 16.5808 91.874 16.1226 92.2926 15.4874L91.5082 14.9704C91.2458 15.3686 90.7531 15.7324 89.8962 16.044L90.2173 16.9269ZM92.2913 15.4895C92.6723 14.9179 92.7225 14.3374 92.7225 13.8902H91.783C91.783 14.265 91.7392 14.624 91.5096 14.9683L92.2913 15.4895ZM92.7225 13.8902C92.7225 13.1138 92.4422 12.4289 91.9273 11.914L91.263 12.5783C91.5936 12.9089 91.783 13.3513 91.783 13.8902H92.7225ZM91.923 11.9098C91.349 11.3501 90.5379 11.0687 89.6665 11.0955L89.6954 12.0345C90.3507 12.0144 90.9018 12.2262 91.2672 12.5825L91.923 11.9098ZM89.681 11.0953C89.2761 11.0953 88.8756 11.1789 88.5056 11.3297L88.8601 12.1997C89.1242 12.0921 89.4048 12.0348 89.681 12.0348V11.0953ZM88.4998 11.3321C88.1497 11.4802 87.8184 11.6855 87.5373 11.9526L88.1843 12.6337C88.373 12.4545 88.6053 12.3075 88.8659 12.1973L88.4998 11.3321ZM87.5409 11.9492C86.9467 12.5019 86.6043 13.2463 86.6043 14.0428H87.5437C87.5437 13.5241 87.765 13.0238 88.1807 12.637L87.5409 11.9492ZM86.6043 14.0428V14.9706H87.5437V14.0428H86.6043ZM86.6043 14.9706C86.6043 14.7816 86.7559 14.63 86.9448 14.63V15.5695C87.2747 15.5695 87.5437 15.3004 87.5437 14.9706H86.6043ZM86.9448 14.63C87.1338 14.63 87.2854 14.7816 87.2854 14.9706H86.3459C86.3459 15.3004 86.615 15.5695 86.9448 15.5695V14.63ZM87.2854 14.9706V14.0428H86.3459V14.9706H87.2854ZM87.2854 14.0428C87.2854 13.4388 87.5325 12.8801 87.9939 12.4481L87.3519 11.7623C86.7094 12.3638 86.3459 13.1672 86.3459 14.0428H87.2854ZM87.9896 12.4521C88.2229 12.2391 88.4785 12.0741 88.7555 11.969L88.4223 11.0906C88.0182 11.2439 87.6631 11.4781 87.3562 11.7583L87.9896 12.4521ZM88.7633 11.9659C89.0699 11.8433 89.38 11.7743 89.6957 11.7645L89.6663 10.8255C89.2305 10.8391 88.8125 10.9345 88.4144 11.0937L88.7633 11.9659ZM89.6876 11.7646C90.4173 11.7544 91.0296 11.9902 91.443 12.3942L92.0996 11.7223C91.4795 11.1164 90.6122 10.8121 89.6744 10.8253L89.6876 11.7646ZM91.4432 12.3945C91.8273 12.7691 92.0414 13.2788 92.0414 13.8902H92.9808C92.9808 13.0454 92.6782 12.2868 92.0993 11.722L91.4432 12.3945ZM92.0414 13.8902C92.0414 14.2998 91.9978 14.7096 91.7287 15.1271L92.5184 15.636C92.9305 14.9966 92.9808 14.373 92.9808 13.8902H92.0414ZM91.7353 15.1172C91.4357 15.5572 90.8907 15.9568 89.9776 16.2909L90.3004 17.1731C91.3131 16.8026 92.0599 16.3098 92.5118 15.6459L91.7353 15.1172ZM89.973 16.2926C88.8999 16.698 88.1407 17.083 87.6015 17.5169L88.1906 18.2488C88.6144 17.9077 89.2643 17.5646 90.305 17.1714L89.973 16.2926ZM87.5977 17.52C86.9909 18.019 86.6395 18.6117 86.6395 19.3507H87.579C87.579 18.9624 87.7443 18.6157 88.1944 18.2457L87.5977 17.52ZM86.6395 19.3507V19.9614H87.579V19.3507H86.6395ZM87.1092 20.4311H92.4641V19.4917H87.1092V20.4311ZM92.4641 20.4311C92.2752 20.4311 92.1236 20.2795 92.1236 20.0906H93.063C93.063 19.7607 92.794 19.4917 92.4641 19.4917V20.4311ZM92.1236 20.0906C92.1236 19.9016 92.2752 19.75 92.4641 19.75V20.6895C92.794 20.6895 93.063 20.4204 93.063 20.0906H92.1236ZM100.705 17.0491V16.5794H100.236V17.0491H100.705ZM100.447 17.0491H100.917V16.5794H100.447V17.0491ZM96.1256 16.9786L96.5457 16.7686L96.5457 16.7686L96.1256 16.9786ZM96.1373 16.8377L95.7679 16.5476L95.7385 16.5851L95.7172 16.6276L96.1373 16.8377ZM100.471 11.3184L100.84 11.6086L100.846 11.6003L100.471 11.3184ZM100.611 11.2715L100.786 10.8353L100.756 10.8235L100.725 10.8158L100.611 11.2715ZM100.705 16.7907H100.236V17.2605H100.705V16.7907ZM96.5131 16.7907L96.1435 16.5008L95.5476 17.2605H96.5131V16.7907ZM100.447 16.7907V17.2605H100.917V16.7907H100.447ZM100.447 11.7764H100.917V10.4167L100.077 11.4865L100.447 11.7764ZM102.643 17.2605C102.454 17.2605 102.302 17.1089 102.302 16.9199H103.242C103.242 16.59 102.973 16.321 102.643 16.321V17.2605ZM102.302 16.9199C102.302 16.7309 102.454 16.5794 102.643 16.5794V17.5188C102.973 17.5188 103.242 17.2498 103.242 16.9199H102.302ZM102.643 16.5794H100.705V17.5188H102.643V16.5794ZM100.236 17.0491V20.0906H101.175V17.0491H100.236ZM100.236 20.0906C100.236 19.9016 100.387 19.75 100.576 19.75V20.6895C100.906 20.6895 101.175 20.4204 101.175 20.0906H100.236ZM100.576 19.75C100.765 19.75 100.917 19.9016 100.917 20.0906H99.9773C99.9773 20.4204 100.246 20.6895 100.576 20.6895V19.75ZM100.917 20.0906V17.0491H99.9773V20.0906H100.917ZM100.447 16.5794H96.243V17.5188H100.447V16.5794ZM96.243 16.5794C96.3479 16.5794 96.4786 16.6344 96.5457 16.7686L95.7054 17.1887C95.8195 17.4168 96.0442 17.5188 96.243 17.5188V16.5794ZM96.5457 16.7686C96.5796 16.8364 96.5873 16.9076 96.5799 16.9664C96.5737 17.0166 96.5579 17.047 96.5575 17.0478L95.7172 16.6276C95.6713 16.7195 95.5818 16.9415 95.7054 17.1887L96.5457 16.7686ZM96.5068 17.1278L100.84 11.6085L100.101 11.0284L95.7679 16.5476L96.5068 17.1278ZM100.846 11.6003C100.744 11.7362 100.592 11.7508 100.498 11.7272L100.725 10.8158C100.537 10.7686 100.267 10.8067 100.095 11.0366L100.846 11.6003ZM100.437 11.7076C100.396 11.6913 100.344 11.6588 100.302 11.6006C100.258 11.5404 100.236 11.4691 100.236 11.4006H101.175C101.175 11.1222 100.996 10.9193 100.786 10.8353L100.437 11.7076ZM100.236 11.4006V16.7907H101.175V11.4006H100.236ZM100.705 17.2605H102.643V16.321H100.705V17.2605ZM96.5131 17.2605H100.447V16.321H96.5131V17.2605ZM100.917 16.7907V11.7764H99.9773V16.7907H100.917ZM100.077 11.4865L96.1435 16.5008L96.8827 17.0807L100.817 12.0664L100.077 11.4865ZM107.011 19.5856L107.328 19.2384L107.324 19.2349L107.011 19.5856ZM107.011 15.9452L106.698 15.5948L106.695 15.5983L107.011 15.9452ZM108.174 15.3228L108.296 15.7763L109.789 15.3728L108.324 14.8778L108.174 15.3228ZM109.83 15.3228L109.679 14.8778L108.214 15.3728L109.707 15.7763L109.83 15.3228ZM110.992 15.9452L111.309 15.5983L111.305 15.5948L110.992 15.9452ZM110.992 19.5856L110.68 19.2349L110.676 19.2384L110.992 19.5856ZM109.008 19.8674C108.356 19.8674 107.766 19.6375 107.328 19.2384L106.695 19.9328C107.314 20.4966 108.133 20.8069 109.008 20.8069V19.8674ZM107.324 19.2349C106.879 18.8384 106.647 18.3181 106.647 17.7772H105.708C105.708 18.5984 106.063 19.3699 106.699 19.9363L107.324 19.2349ZM106.647 17.7772C106.647 17.2241 106.879 16.7017 107.328 16.2921L106.695 15.5983C106.063 16.1751 105.708 16.9445 105.708 17.7772H106.647ZM107.324 16.2956C107.596 16.0533 107.929 15.8757 108.296 15.7763L108.051 14.8694C107.55 15.0049 107.085 15.25 106.699 15.5948L107.324 16.2956ZM108.324 14.8778C107.621 14.6401 107.164 14.0389 107.164 13.3735H106.225C106.225 14.4931 106.989 15.4184 108.024 15.7679L108.324 14.8778ZM107.164 13.3735C107.164 12.5282 107.938 11.7647 109.008 11.7647V10.8252C107.517 10.8252 106.225 11.9171 106.225 13.3735H107.164ZM109.008 11.7647C110.064 11.7647 110.84 12.5268 110.84 13.3735H111.779C111.779 11.9186 110.488 10.8252 109.008 10.8252V11.7647ZM110.84 13.3735C110.84 14.0389 110.383 14.6401 109.679 14.8778L109.98 15.7679C111.014 15.4184 111.779 14.4931 111.779 13.3735H110.84ZM109.707 15.7763C110.075 15.8757 110.408 16.0533 110.679 16.2956L111.305 15.5948C110.919 15.25 110.454 15.0049 109.952 14.8694L109.707 15.7763ZM110.676 16.2921C111.124 16.7017 111.356 17.2241 111.356 17.7772H112.296C112.296 16.9445 111.941 16.1751 111.309 15.5983L110.676 16.2921ZM111.356 17.7772C111.356 18.3181 111.125 18.8384 110.68 19.2349L111.305 19.9363C111.94 19.3699 112.296 18.5984 112.296 17.7772H111.356ZM110.676 19.2384C110.237 19.6382 109.647 19.8674 109.008 19.8674V20.8069C109.872 20.8069 110.691 20.496 111.309 19.9328L110.676 19.2384ZM109.008 11.0953C107.674 11.0953 106.495 12.0654 106.495 13.3852H107.434C107.434 12.6852 108.086 12.0348 109.008 12.0348V11.0953ZM106.495 13.3852C106.495 14.7014 107.67 15.6869 109.008 15.6869V14.7474C108.09 14.7474 107.434 14.0889 107.434 13.3852H106.495ZM109.008 15.6869C110.345 15.6869 111.521 14.7014 111.521 13.3852H110.581C110.581 14.0889 109.925 14.7474 109.008 14.7474V15.6869ZM111.521 13.3852C111.521 12.0654 110.341 11.0953 109.008 11.0953V12.0348C109.929 12.0348 110.581 12.6852 110.581 13.3852H111.521ZM109.008 14.994C107.384 14.994 105.978 16.2065 105.978 17.7772H106.917C106.917 16.8113 107.813 15.9335 109.008 15.9335V14.994ZM105.978 17.7772C105.978 19.3508 107.388 20.5485 109.008 20.5485V19.6091C107.81 19.6091 106.917 18.7401 106.917 17.7772H105.978ZM109.008 20.5485C110.638 20.5485 112.049 19.3521 112.049 17.7772H111.11C111.11 18.7388 110.219 19.6091 109.008 19.6091V20.5485ZM112.049 17.7772C112.049 16.2052 110.641 14.994 109.008 14.994V15.9335C110.216 15.9335 111.11 16.8126 111.11 17.7772H112.049ZM116.506 20.208L116.332 20.6441L116.354 20.653L116.377 20.6596L116.506 20.208ZM116.448 20.0436L116.016 19.8585L116.011 19.8691L116.448 20.0436ZM120.041 11.659L120.473 11.844L120.753 11.1893H120.041V11.659ZM120.358 11.5768L119.938 11.3667L119.932 11.3789L119.926 11.3915L120.358 11.5768ZM116.682 20.1375L116.251 19.9521L116.246 19.9631L116.682 20.1375ZM116.681 19.7719C116.812 19.8244 116.871 19.9274 116.892 19.9905C116.913 20.0533 116.918 20.1333 116.884 20.218L116.011 19.8691C115.954 20.0126 115.959 20.1631 116 20.2875C116.042 20.4122 116.142 20.5681 116.332 20.6441L116.681 19.7719ZM116.879 20.2286L120.473 11.844L119.609 11.474L116.016 19.8585L116.879 20.2286ZM120.041 11.1893H115.121V12.1287H120.041V11.1893ZM115.121 11.1893C115.237 11.1893 115.315 11.24 115.356 11.2788C115.401 11.3213 115.461 11.4057 115.461 11.5298H114.522C114.522 11.7244 114.617 11.8734 114.712 11.9629C114.803 12.0486 114.946 12.1287 115.121 12.1287V11.1893ZM115.461 11.5298C115.461 11.6209 115.426 11.6942 115.381 11.745C115.335 11.7966 115.247 11.8586 115.121 11.8586V10.9192C114.924 10.9192 114.771 11.0165 114.678 11.1209C114.586 11.2245 114.522 11.3683 114.522 11.5298H115.461ZM115.121 11.8586H120.241V10.9192H115.121V11.8586ZM120.241 11.8586C120.163 11.8586 120.107 11.8359 120.075 11.8186C120.041 11.8002 119.995 11.767 119.955 11.7082L120.737 11.1871C120.674 11.093 120.593 11.0304 120.52 10.9915C120.45 10.9537 120.353 10.9192 120.241 10.9192V11.8586ZM119.955 11.7082C119.935 11.6775 119.912 11.6312 119.904 11.5699C119.895 11.504 119.905 11.4321 119.938 11.3667L120.778 11.7869C120.898 11.5463 120.824 11.3176 120.737 11.1871L119.955 11.7082ZM119.926 11.3915L116.251 19.9522L117.114 20.3228L120.79 11.7621L119.926 11.3915ZM116.246 19.9631C116.328 19.7593 116.528 19.7258 116.635 19.7563L116.377 20.6596C116.648 20.7371 116.99 20.6332 117.119 20.312L116.246 19.9631Z" fill="black"/>
</svg>
