<svg width="153" height="30" viewBox="0 0 153 30" fill="none" xmlns="http://www.w3.org/2000/svg">
<g clip-path="url(#clip0_11094_65018)">
<path d="M8.89674 0H3.08648V6.71666H-0.0214844V11.8694H3.06454V22.0322C3.06454 28.661 7.04403 29.5555 10.9358 29.5555H13.7971V24.3095H12.0376C9.84503 24.3095 8.90223 23.426 8.90223 21.3517V11.8694H13.8355V6.71666H8.90223L8.89674 0Z" fill="white"/>
<path d="M36.4515 22.3901H30.1972L30.1369 22.5218C29.4188 24.0912 28.0211 24.854 25.8669 24.854C22.7699 24.854 20.7308 23.2078 20.1005 20.1513H36.8516V19.9482C36.8955 19.372 36.9393 18.7739 36.9393 18.1373C36.9393 11.2615 32.1815 6.27344 25.6257 6.27344C19.07 6.27344 14.3066 11.2615 14.3066 18.1373C14.3066 25.0131 19.07 30.0067 25.6257 30.0067C31.1071 30.0067 35.0099 27.3343 36.3528 22.681L36.4515 22.3901ZM20.1443 15.8985C20.7747 13.0066 22.7151 11.4207 25.6257 11.4207C28.5363 11.4207 30.4932 13.0066 31.1071 15.8985H20.1443Z" fill="white"/>
<path d="M58.7992 29.5576L49.8042 17.765L57.3576 6.71875H50.7964L46.4496 13.4464H46.5922L42.2509 6.71875H35.6842L43.2375 17.765L34.248 29.5576H40.8093L46.5922 21.8038H46.4496L52.2325 29.5576H58.7992Z" fill="white"/>
<path d="M86.9296 6.27217C85.7162 6.24363 84.5145 6.51454 83.4304 7.061C82.3464 7.60745 81.4134 8.41264 80.7137 9.40551V6.71666H74.8979V24.3095H69.5536C67.361 24.3095 66.4237 23.426 66.4237 21.3517V11.8694H71.7845V6.71666H66.4128V0H60.6079V6.71666H58.0098V11.8694H60.6079V22.0322C60.6079 28.661 64.5874 29.5555 68.4792 29.5555H80.7137V17.0166C80.7137 13.4608 82.3581 11.4194 85.1865 11.4194C88.0149 11.4194 89.6593 13.4608 89.6593 17.0166V29.5555H95.4751V15.9411C95.4751 9.97621 92.2027 6.27217 86.9296 6.27217Z" fill="white"/>
<path d="M108.604 6.27344C101.862 6.27344 96.9727 11.2615 96.9727 18.1373C96.9727 25.0131 101.862 30.0067 108.604 30.0067C115.346 30.0067 120.236 25.0131 120.236 18.1373C120.236 11.2615 115.341 6.27344 108.604 6.27344ZM114.42 18.1373C114.42 21.9786 112.03 24.629 108.604 24.629C105.178 24.629 102.788 21.9621 102.788 18.1373C102.788 14.3126 105.178 11.6566 108.604 11.6566C112.03 11.6566 114.42 14.3126 114.42 18.1373V18.1373Z" fill="white"/>
<path d="M147.324 6.71875L143.57 23.3074L139.853 6.89435L139.809 6.71875H132.612L128.852 23.3074L125.136 6.89435L125.097 6.71875H119.484L125.147 29.3875L125.191 29.5576H132.388L136.23 12.9141L139.996 29.382L140.034 29.5576H147.231L152.866 6.99861L152.937 6.71875H147.324Z" fill="white"/>
</g>
<defs>
<clipPath id="clip0_11094_65018">
<rect width="152.936" height="30" fill="white"/>
</clipPath>
</defs>
</svg>
