<svg width="176" height="51" viewBox="0 0 176 51" fill="none" xmlns="http://www.w3.org/2000/svg">
<g clip-path="url(#clip0_188_4622)">
<g clip-path="url(#clip1_188_4622)">
<path d="M22.2609 32H17.7425C11.2856 32.0036 6.00339 26.3982 6 19.5463V17.4064C6 16.0879 7.01843 15.0072 8.26091 15.0072L31.7391 15C32.9816 15 34 16.0807 34 17.3992V19.5391C34.0034 26.391 28.7211 31.9964 22.2609 32Z" fill="black"/>
<path d="M16.5 29.4638C17.6949 27.2231 22.0843 20.609 30.4932 24.9751C30.7647 25.1156 30.8598 25.4795 30.6901 25.7461C29.7531 27.2267 26.2599 31.3371 16.8836 30.2563C16.5237 30.2131 16.3234 29.7952 16.5 29.4638Z" fill="#E8584B"/>
<path d="M31.7391 17.1615C31.8579 17.1615 31.9631 17.2732 31.9631 17.3992V19.5391C31.9631 25.2166 27.6111 29.8385 22.2609 29.8385H17.7391C12.3923 29.8385 8.04025 25.2202 8.03686 19.5463V17.4064C8.03686 17.3272 8.0742 17.2732 8.10475 17.2407C8.13531 17.2083 8.18623 17.1687 8.26091 17.1687L31.7391 17.1615ZM31.7391 15L8.26091 15.0072C7.01843 15.0072 6 16.0879 6 17.4064V19.5463C6.00339 26.3982 11.2856 32.0036 17.7391 32.0036H17.7425H22.2609C28.7178 32 34 26.3946 34 19.5427V17.4028C34 16.0807 32.9816 15 31.7391 15Z" fill="black"/>
</g>
<path d="M63 26.18H45V24.82H63V26.18ZM80.4094 31V17.5L77.3694 31H74.9494L71.9294 17.44V31H70.0894V16H73.5094L76.2494 28.36L78.9294 16H82.4094V31H80.4094ZM91.6228 31V29.32C90.9628 30.64 89.6828 31.2 88.2428 31.2C86.4628 31.2 84.8428 30.34 84.8428 28.36C84.8428 24.04 91.5828 26.2 91.5828 23.92C91.5828 22.94 90.6428 22.4 89.4228 22.4C88.1228 22.4 87.2228 23.06 87.2228 24.36H85.1428C85.1428 21.78 87.2228 20.8 89.4228 20.8C91.5828 20.8 93.5828 21.68 93.5828 24V31H91.6228ZM86.8828 28.24C86.8828 29.1 87.6228 29.52 88.6428 29.52C90.1828 29.52 91.6228 28.62 91.6228 26.88V26.16C89.9228 26.98 86.8828 26.56 86.8828 28.24ZM98.9189 27.58C98.9189 28.82 99.4589 29.36 100.619 29.36C101.059 29.36 101.459 29.3 101.799 29.18V30.96C101.439 31.08 100.819 31.2 100.239 31.2C98.3189 31.2 96.9189 30.42 96.9189 27.7V22.76H95.2789V21H96.9189V18.04H98.9189V21H101.799V22.76H98.9189V27.58ZM106.712 27.58C106.712 28.82 107.252 29.36 108.412 29.36C108.852 29.36 109.252 29.3 109.592 29.18V30.96C109.232 31.08 108.612 31.2 108.032 31.2C106.112 31.2 104.712 30.42 104.712 27.7V22.76H103.072V21H104.712V18.04H106.712V21H109.592V22.76H106.712V27.58ZM113.945 25.54V31H111.945V16H113.945V22.58C114.565 21.42 115.665 20.8 116.985 20.8C119.165 20.8 120.785 22.2 120.785 25.14V31H118.785V25.54C118.785 23.56 117.865 22.56 116.365 22.56C114.865 22.56 113.945 23.56 113.945 25.54ZM132.744 26C132.744 26.24 132.724 26.46 132.704 26.68H124.864C125.104 28.42 126.224 29.44 127.904 29.44C129.124 29.44 129.924 28.9 130.324 28H132.484C131.864 30.06 130.124 31.2 127.824 31.2C124.984 31.2 122.904 29.06 122.904 26C122.904 22.94 124.984 20.8 127.824 20.8C130.664 20.8 132.744 22.94 132.744 26ZM127.824 22.56C126.204 22.56 125.124 23.56 124.884 25.24H130.764C130.524 23.56 129.424 22.56 127.824 22.56ZM148.492 21L145.792 31H143.272L141.152 22.74L139.012 31H136.492L133.792 21H135.712L137.772 29.26L139.872 21H142.412L144.512 29.26L146.572 21H148.492ZM151.68 30.04C151.68 31.02 151.12 32.32 150.28 33.6H149.14C149.68 32.7 150.08 31.94 150.28 31.2C149.52 31.18 148.98 30.6 148.98 29.88C148.98 29.12 149.54 28.54 150.32 28.54C151.08 28.54 151.68 29.1 151.68 30.04ZM160.136 31H158.136V16H160.136V31ZM171.937 16V31H168.637L164.937 17.26V31H163.097V16H166.437L170.097 29.58V16H171.937Z" fill="black"/>
</g>
<defs>
<clipPath id="clip0_188_4622">
<rect width="176" height="51" fill="white"/>
</clipPath>
<clipPath id="clip1_188_4622">
<rect width="28" height="17" fill="white" transform="translate(6 15)"/>
</clipPath>
</defs>
</svg>
