<svg width="199" height="51" viewBox="0 0 199 51" fill="none" xmlns="http://www.w3.org/2000/svg">
<g clip-path="url(#clip0_188_4659)">
<path d="M37.3429 19.7433C35.6515 15.8944 31.3045 16.4997 27.9373 19.0876C25.9388 20.6201 24.5001 20.9383 22.1905 20.9383C20.0676 20.9383 18.8117 20.5891 16.4437 19.0876C12.8277 16.8101 8.93949 15.9487 6.7932 19.9877C3.47655 26.2266 11.0586 36.004 20.1803 36.0002H22.3305C31.1023 36.0002 40.609 27.185 37.3429 19.7433Z" fill="black"/>
<path d="M20.8374 19.3357V21.7141C20.8374 23.3126 21.4167 24.6124 17.9368 24.6124C14.5268 24.6124 15.0323 23.3165 15.0323 21.718V19.4715" fill="white"/>
<path d="M13.1816 19.3357V21.7141C13.1816 23.3126 13.7609 24.6124 10.281 24.6124C7.85083 24.6124 7.37646 23.3165 7.37646 21.718V19.4715" fill="white"/>
<path d="M28.6411 19.3357V21.7141C28.6411 23.3126 29.2204 24.6124 25.7405 24.6124C22.3305 24.6124 22.836 23.3165 22.836 21.718V19.4715" fill="white"/>
<path d="M36.3669 19.3357V21.7141C36.3669 23.3126 36.157 24.6124 33.4663 24.6124C30.0564 24.6124 30.5618 23.3165 30.5618 21.718V19.4715" fill="white"/>
<path d="M22 34.417C19.706 34.417 13.4343 34.2307 14.002 33.3849C15.4406 31.2432 18.4812 28.9075 21.9961 28.9075C25.3633 28.9075 28.295 31.1307 29.8037 33.2452C30.4958 34.2113 24.2474 34.417 22 34.417Z" fill="#E8584B"/>
<path d="M33.237 19.3435C34.1351 19.3435 34.7106 19.5569 35.2044 20.6743C36.2814 23.1303 35.2783 25.5242 34.244 27.1033C31.7556 30.9095 26.7437 33.672 22.3305 33.672H20.1765C15.4873 33.672 11.5096 30.5564 9.64718 27.468C8.23187 25.1207 7.94414 22.7927 8.85398 21.0778C9.61218 19.6539 10.3237 19.5336 11.0469 19.5336C12.3067 19.5336 14.0836 20.166 15.6506 20.7247C16.0938 20.8838 16.4827 21.0235 16.8248 21.1476C19.4027 22.0788 19.8149 22.1952 21.9728 22.1952H21.9961C24.1308 22.1952 25.2895 21.7335 26.7553 21.1476C27.2958 20.9303 27.9101 20.6859 28.6839 20.4221C30.2197 19.9022 31.9577 19.3435 33.237 19.3435ZM33.237 17.0155C31.6584 17.0155 29.8348 17.5703 27.9334 18.2183C25.1028 19.1883 24.3835 19.8711 22 19.8711C21.9923 19.8711 21.9845 19.8711 21.9767 19.8711C19.8771 19.8711 19.9743 19.7974 16.4399 18.5364C14.4841 17.838 12.6567 17.2095 11.0508 17.2095C9.35167 17.2095 7.89748 17.9118 6.79323 19.9875C3.47658 26.2264 11.0547 36 20.1765 36C20.1765 36 20.1765 36 20.1804 36H22.3305C31.1023 35.9961 40.609 27.1809 37.339 19.7392C36.4486 17.71 34.9983 17.0155 33.237 17.0155Z" fill="black"/>
</g>
<path d="M62 28.18H44V26.82H62V28.18ZM69.0894 33V18H73.4894C75.9094 18 77.6694 19.32 77.6694 21.8V22.4C77.6694 24.88 75.9094 26.1 73.6894 26.22L78.1294 33H75.7294L71.0894 25.66V33H69.0894ZM73.2894 19.84H71.0894V24.56H73.2894C74.7494 24.56 75.6694 23.88 75.6694 22.2V22C75.6694 20.42 74.7494 19.84 73.2894 19.84ZM84.2102 33.2C81.3102 33.2 79.1502 31.06 79.1502 28C79.1502 24.94 81.3102 22.8 84.2102 22.8C87.1102 22.8 89.2702 24.94 89.2702 28C89.2702 31.06 87.1102 33.2 84.2102 33.2ZM84.2102 31.36C85.9502 31.36 87.2702 30.02 87.2702 28C87.2702 25.98 85.9502 24.64 84.2102 24.64C82.4702 24.64 81.1502 25.98 81.1502 28C81.1502 30.02 82.4702 31.36 84.2102 31.36ZM99.2117 30.18C99.2117 32.06 97.5317 33.2 95.2117 33.2C92.7517 33.2 90.8917 31.96 90.8917 29.78H92.9717C92.9717 31 93.9317 31.62 95.2117 31.62C96.4317 31.62 97.1517 31.16 97.1517 30.26C97.1517 27.84 91.0917 29.76 91.0917 25.74C91.0917 23.92 92.7517 22.8 94.9117 22.8C97.2517 22.8 99.0117 24.22 99.0117 26.06H96.9317C96.9317 25.1 96.0717 24.4 94.9117 24.4C93.8317 24.4 93.1117 24.86 93.1117 25.66C93.1117 27.88 99.2117 26.1 99.2117 30.18ZM103.57 27.54V33H101.57V18H103.57V24.58C104.19 23.42 105.29 22.8 106.61 22.8C108.79 22.8 110.41 24.2 110.41 27.14V33H108.41V27.54C108.41 25.56 107.49 24.56 105.99 24.56C104.49 24.56 103.57 25.56 103.57 27.54ZM119.529 33V31.32C118.869 32.64 117.589 33.2 116.149 33.2C114.369 33.2 112.749 32.34 112.749 30.36C112.749 26.04 119.489 28.2 119.489 25.92C119.489 24.94 118.549 24.4 117.329 24.4C116.029 24.4 115.129 25.06 115.129 26.36H113.049C113.049 23.78 115.129 22.8 117.329 22.8C119.489 22.8 121.489 23.68 121.489 26V33H119.529ZM114.789 30.24C114.789 31.1 115.529 31.52 116.549 31.52C118.089 31.52 119.529 30.62 119.529 28.88V28.16C117.829 28.98 114.789 28.56 114.789 30.24ZM126.265 27.54V33H124.265V23H126.265V24.58C126.885 23.42 127.985 22.8 129.305 22.8C131.485 22.8 133.105 24.2 133.105 27.14V33H131.105V27.54C131.105 25.56 130.185 24.56 128.685 24.56C127.185 24.56 126.265 25.56 126.265 27.54ZM137.964 27.54V33H135.964V23H137.964V24.58C138.584 23.42 139.684 22.8 141.004 22.8C143.184 22.8 144.804 24.2 144.804 27.14V33H142.804V27.54C142.804 25.56 141.884 24.56 140.384 24.56C138.884 24.56 137.964 25.56 137.964 27.54ZM153.924 33V31.32C153.264 32.64 151.984 33.2 150.544 33.2C148.764 33.2 147.144 32.34 147.144 30.36C147.144 26.04 153.884 28.2 153.884 25.92C153.884 24.94 152.944 24.4 151.724 24.4C150.424 24.4 149.524 25.06 149.524 26.36H147.444C147.444 23.78 149.524 22.8 151.724 22.8C153.884 22.8 155.884 23.68 155.884 26V33H153.924ZM149.184 30.24C149.184 31.1 149.924 31.52 150.944 31.52C152.484 31.52 153.924 30.62 153.924 28.88V28.16C152.224 28.98 149.184 28.56 149.184 30.24ZM160.68 32.04C160.68 33.02 160.12 34.32 159.28 35.6H158.14C158.68 34.7 159.08 33.94 159.28 33.2C158.52 33.18 157.98 32.6 157.98 31.88C157.98 31.12 158.54 30.54 159.32 30.54C160.08 30.54 160.68 31.1 160.68 32.04ZM171.056 25.1H175.776V33H173.976V31.22C173.416 32.54 172.376 33.2 170.976 33.2C168.476 33.2 166.936 31.5 166.936 28.08V22.92C166.936 19.5 168.596 17.8 171.356 17.8C174.116 17.8 175.776 19.5 175.776 22.92V23.52H173.776V22.92C173.776 20.52 172.876 19.64 171.356 19.64C169.856 19.64 168.936 20.52 168.936 22.92V28.08C168.936 30.48 169.836 31.36 171.356 31.36C172.836 31.36 173.776 30.46 173.776 28.24V26.94H171.056V25.1ZM177.4 33L180.76 18H183.76L187.12 33H185.1L184.32 29.32H180.2L179.42 33H177.4ZM180.6 27.48H183.92L182.26 19.6L180.6 27.48Z" fill="black"/>
<defs>
<clipPath id="clip0_188_4659">
<rect width="32" height="19" fill="white" transform="translate(6 17)"/>
</clipPath>
</defs>
</svg>
