<svg width="176" height="51" viewBox="0 0 176 51" fill="none" xmlns="http://www.w3.org/2000/svg">
<g clip-path="url(#clip0_199_1804)">
<path d="M22.8174 32.6285H18.2906C13.557 32.6285 9.45144 29.8734 7.58634 25.9253C6.45655 23.5392 6.99655 20.7133 8.90378 18.8529C10.1178 17.6673 11.7685 17.0037 13.488 17.0037L28.1523 17C28.2902 17 28.428 17.0037 28.5583 17.0112C32.7787 17.261 35.2259 21.7497 33.3685 25.4481C32.1736 27.8266 30.3046 30.1568 28.7574 31.8121C26.9804 33.7134 25.6476 32.6285 22.8174 32.6285Z" fill="black"/>
<path d="M18.317 37.8815C14.7783 37.8815 12.3081 35.4768 12.3081 32.032C12.3081 27.506 14.897 26.8312 16.4404 26.8312C17.1987 26.8312 18.0336 26.9803 18.9873 27.286C19.0983 27.3233 19.2209 27.3382 19.3587 27.3382C19.8834 27.3382 20.5728 27.0959 21.3043 26.8424C22.2924 26.4994 23.4107 26.1079 24.64 26.1079C26.3136 26.1079 27.769 26.82 29.0941 28.2889L29.68 28.9413L29.1783 29.6571C29.1209 29.7392 27.7498 31.6927 25.789 33.6724C23.0239 36.4648 20.5077 37.8815 18.317 37.8815Z" fill="#E8584B"/>
<path d="M24.64 27.2301C25.7927 27.2301 26.9953 27.6588 28.2285 29.0308C28.2285 29.0308 22.8208 36.763 18.3131 36.763C15.2187 36.763 13.4531 34.6454 13.4531 32.032C13.4531 29.9405 14.0085 27.9496 16.4404 27.9496C17.0455 27.9496 17.7693 28.0726 18.6272 28.3485C18.8646 28.4231 19.1097 28.4566 19.3587 28.4566C20.9021 28.4604 22.6944 27.2301 24.64 27.2301ZM24.64 24.9932C23.2114 24.9932 21.94 25.4368 20.9174 25.791C20.3391 25.9923 19.6842 26.2197 19.3587 26.2197C19.3472 26.2197 19.3357 26.2197 19.3319 26.2197C18.2634 25.8767 17.3174 25.7127 16.4404 25.7127C14.4987 25.7127 12.9361 26.5627 12.0361 28.1025C11.4425 29.1203 11.1553 30.4028 11.1553 32.032C11.1553 36.0696 14.1655 38.9999 18.3131 38.9999C20.8293 38.9999 23.6212 37.4677 26.6123 34.4478C28.6383 32.4011 30.0629 30.3729 30.1242 30.2872L31.1238 28.8556L29.9519 27.5544C28.4238 25.8544 26.6353 24.9932 24.64 24.9932Z" fill="black"/>
<path d="M22.7712 26.3652C22.7712 26.3652 19.1252 27.3383 19.0256 31.3013" stroke="black" stroke-width="4" stroke-miterlimit="10" stroke-linecap="round"/>
</g>
<path d="M62 28.18H44V26.82H62V28.18ZM79.4094 33V19.5L76.3694 33H73.9494L70.9294 19.44V33H69.0894V18H72.5094L75.2494 30.36L77.9294 18H81.4094V33H79.4094ZM85.3628 20.82C84.6028 20.82 84.0428 20.24 84.0428 19.48C84.0428 18.72 84.6028 18.16 85.3628 18.16C86.1428 18.16 86.6828 18.72 86.6828 19.48C86.6828 20.24 86.1428 20.82 85.3628 20.82ZM86.3628 33H84.3628V23H86.3628V33ZM96.4238 26.98C96.2238 25.46 95.0038 24.64 93.5638 24.64C91.8638 24.64 90.5838 25.98 90.5838 28C90.5838 30.02 91.8638 31.36 93.5638 31.36C95.0238 31.36 96.2638 30.46 96.4638 28.8H98.5438C98.3838 31.44 96.2838 33.2 93.5638 33.2C90.7038 33.2 88.5838 31.06 88.5838 28C88.5838 24.94 90.7038 22.8 93.5638 22.8C96.2038 22.8 98.2638 24.48 98.5038 26.98H96.4238ZM107.029 33V31.32C106.369 32.64 105.089 33.2 103.649 33.2C101.869 33.2 100.249 32.34 100.249 30.36C100.249 26.04 106.989 28.2 106.989 25.92C106.989 24.94 106.049 24.4 104.829 24.4C103.529 24.4 102.629 25.06 102.629 26.36H100.549C100.549 23.78 102.629 22.8 104.829 22.8C106.989 22.8 108.989 23.68 108.989 26V33H107.029ZM102.289 30.24C102.289 31.1 103.029 31.52 104.049 31.52C105.589 31.52 107.029 30.62 107.029 28.88V28.16C105.329 28.98 102.289 28.56 102.289 30.24ZM113.765 27.54V33H111.765V18H113.765V24.58C114.385 23.42 115.485 22.8 116.805 22.8C118.985 22.8 120.605 24.2 120.605 27.14V33H118.605V27.54C118.605 25.56 117.685 24.56 116.185 24.56C114.685 24.56 113.765 25.56 113.765 27.54ZM125.484 32.04C125.484 33.02 124.924 34.32 124.084 35.6H122.944C123.484 34.7 123.884 33.94 124.084 33.2C123.324 33.18 122.784 32.6 122.784 31.88C122.784 31.12 123.344 30.54 124.124 30.54C124.884 30.54 125.484 31.1 125.484 32.04ZM142.261 33V19.5L139.221 33H136.801L133.781 19.44V33H131.941V18H135.361L138.101 30.36L140.781 18H144.261V33H142.261ZM149.214 33H147.214V18H149.214V33Z" fill="black"/>
<defs>
<clipPath id="clip0_199_1804">
<rect width="27" height="22" fill="white" transform="translate(7 17)"/>
</clipPath>
</defs>
</svg>
