<svg width="329" height="283" viewBox="0 0 329 283" fill="none" xmlns="http://www.w3.org/2000/svg">
<g clip-path="url(#clip0_11193_68254)">
<rect x="0.65907" y="0.65907" width="326.899" height="653.797" rx="28.34" fill="#FBDE74" stroke="black" stroke-width="1.31814"/>
<mask id="mask0_11193_68254" style="mask-type:alpha" maskUnits="userSpaceOnUse" x="14" y="15" width="299" height="623">
<rect x="14.5" y="15.8164" width="297.9" height="622.162" rx="15.8177" fill="white"/>
</mask>
<g mask="url(#mask0_11193_68254)">
<g clip-path="url(#clip1_11193_68254)">
<rect width="297.427" height="644.03" transform="translate(14.4277 15.5312)" fill="white"/>
<g clip-path="url(#clip2_11193_68254)">
<g clip-path="url(#clip3_11193_68254)">
<rect opacity="0.35" x="280.791" y="29.6739" width="16.6559" height="8.19578" rx="1.71847" stroke="black" stroke-width="0.79314"/>
<path opacity="0.4" d="M298.637 32.1875V35.3601C299.275 35.0914 299.69 34.4663 299.69 33.7738C299.69 33.0813 299.275 32.4562 298.637 32.1875" fill="black"/>
<rect x="281.98" y="30.8633" width="14.2765" height="5.81636" rx="1.05752" fill="black"/>
<path fill-rule="evenodd" clip-rule="evenodd" d="M270.347 31.0893C272.111 31.0893 273.808 31.7668 275.087 32.9815C275.183 33.0753 275.337 33.0741 275.432 32.9789L276.353 32.0506C276.401 32.0023 276.427 31.9369 276.427 31.8688C276.427 31.8007 276.399 31.7356 276.351 31.6878C272.994 28.4738 267.699 28.4738 264.342 31.6878C264.294 31.7355 264.266 31.8006 264.266 31.8687C264.265 31.9368 264.292 32.0023 264.34 32.0506L265.261 32.9789C265.355 33.0743 265.51 33.0755 265.606 32.9815C266.885 31.7667 268.582 31.0892 270.347 31.0893ZM270.347 34.1082C271.316 34.1081 272.251 34.4682 272.97 35.1184C273.067 35.2107 273.22 35.2087 273.315 35.1139L274.234 34.1856C274.283 34.1369 274.309 34.0709 274.309 34.0023C274.308 33.9336 274.28 33.8681 274.23 33.8204C272.042 31.7865 268.653 31.7865 266.465 33.8204C266.415 33.8681 266.387 33.9337 266.386 34.0023C266.386 34.071 266.413 34.137 266.461 34.1856L267.38 35.1139C267.475 35.2087 267.628 35.2107 267.725 35.1184C268.444 34.4686 269.378 34.1086 270.347 34.1082ZM272.188 36.1397C272.189 36.2086 272.162 36.2749 272.113 36.3231L270.523 37.9269C270.476 37.974 270.412 38.0005 270.346 38.0005C270.28 38.0005 270.216 37.974 270.169 37.9269L268.579 36.3231C268.53 36.2749 268.503 36.2085 268.504 36.1397C268.505 36.0708 268.535 36.0057 268.586 35.9595C269.602 35.1011 271.09 35.1011 272.106 35.9595C272.157 36.0057 272.186 36.0709 272.188 36.1397Z" fill="black"/>
<path fill-rule="evenodd" clip-rule="evenodd" d="M259.507 29.5469H258.714C258.275 29.5469 257.92 29.902 257.92 30.34V37.2139C257.92 37.6519 258.275 38.007 258.714 38.007H259.507C259.945 38.007 260.3 37.6519 260.3 37.2139V30.34C260.3 29.902 259.945 29.5469 259.507 29.5469ZM255.013 31.3965H255.806C256.244 31.3965 256.599 31.7516 256.599 32.1896V37.2129C256.599 37.6509 256.244 38.006 255.806 38.006H255.013C254.575 38.006 254.22 37.6509 254.22 37.2129V32.1896C254.22 31.7516 254.575 31.3965 255.013 31.3965ZM252.103 33.2492H251.31C250.872 33.2492 250.517 33.6043 250.517 34.0424V37.2149C250.517 37.653 250.872 38.0081 251.31 38.0081H252.103C252.542 38.0081 252.897 37.653 252.897 37.2149V34.0424C252.897 33.6043 252.542 33.2492 252.103 33.2492ZM248.403 34.8355H247.61C247.172 34.8355 246.816 35.1906 246.816 35.6286V37.2149C246.816 37.653 247.172 38.0081 247.61 38.0081H248.403C248.841 38.0081 249.196 37.653 249.196 37.2149V35.6286C249.196 35.1906 248.841 34.8355 248.403 34.8355Z" fill="black"/>
</g>
<path d="M34.84 120.195H37.6377V104.548H34.84V120.195ZM46.8115 120.195H49.6309L51.8864 111.791H51.9406L54.2069 120.195H57.048L60.1601 108.701H57.4926L55.5515 117.528H55.4865L53.2418 108.701H50.6502L48.4055 117.528H48.3513L46.4103 108.701H43.6994L46.8115 120.195ZM64.5735 120.39C66.0916 120.39 67.3712 119.631 68.0326 118.428H68.0977V120.195H70.7978V112.29C70.7978 109.981 68.9435 108.462 66.0699 108.462C63.153 108.462 61.3854 109.991 61.2228 112.03L61.2119 112.16H63.7168L63.7385 112.063C63.912 111.217 64.6928 110.62 65.9723 110.62C67.3386 110.62 68.0977 111.325 68.0977 112.485V113.277L65.094 113.461C62.3072 113.635 60.724 114.86 60.724 116.899V116.921C60.724 118.97 62.2746 120.39 64.5735 120.39ZM63.4132 116.812V116.801C63.4132 115.89 64.1397 115.316 65.4735 115.229L68.0977 115.066V115.934C68.0977 117.3 66.9266 118.33 65.3759 118.33C64.194 118.33 63.4132 117.755 63.4132 116.812ZM72.9774 120.195H75.6774V113.526C75.6774 111.867 76.6642 110.74 78.2149 110.74C79.7547 110.74 80.5137 111.661 80.5137 113.299V120.195H83.2138V112.757C83.2138 110.089 81.7716 108.462 79.245 108.462C77.4992 108.462 76.3281 109.265 75.7317 110.501H75.6774V108.701H72.9774V120.195ZM89.655 120.423C90.1972 120.423 90.6743 120.369 90.9888 120.325V118.298C90.8044 118.309 90.5984 118.341 90.3381 118.341C89.3514 118.341 88.8526 117.983 88.8526 116.855V110.783H90.9888V108.701H88.8526V105.784H86.1091V108.701H84.4825V110.783H86.1091V117.083C86.1091 119.447 87.2477 120.423 89.655 120.423ZM101.561 120.423C102.104 120.423 102.581 120.369 102.895 120.325V118.298C102.711 118.309 102.505 118.341 102.245 118.341C101.258 118.341 100.759 117.983 100.759 116.855V110.783H102.895V108.701H100.759V105.784H98.0155V108.701H96.3889V110.783H98.0155V117.083C98.0155 119.447 99.1541 120.423 101.561 120.423ZM109.618 120.423C112.991 120.423 115.181 118.178 115.181 114.448V114.426C115.181 110.718 112.958 108.462 109.607 108.462C106.268 108.462 104.055 110.74 104.055 114.426V114.448C104.055 118.168 106.235 120.423 109.618 120.423ZM109.629 118.243C107.905 118.243 106.81 116.866 106.81 114.448V114.426C106.81 112.041 107.927 110.653 109.607 110.653C111.321 110.653 112.427 112.03 112.427 114.426V114.448C112.427 116.855 111.332 118.243 109.629 118.243ZM117.925 120.369C118.803 120.369 119.486 119.675 119.486 118.796C119.486 117.929 118.803 117.235 117.925 117.235C117.046 117.235 116.352 117.929 116.352 118.796C116.352 119.675 117.046 120.369 117.925 120.369ZM123.064 120.369C123.943 120.369 124.626 119.675 124.626 118.796C124.626 117.929 123.943 117.235 123.064 117.235C122.186 117.235 121.492 117.929 121.492 118.796C121.492 119.675 122.186 120.369 123.064 120.369ZM128.204 120.369C129.083 120.369 129.766 119.675 129.766 118.796C129.766 117.929 129.083 117.235 128.204 117.235C127.326 117.235 126.632 117.929 126.632 118.796C126.632 119.675 127.326 120.369 128.204 120.369Z" fill="black"/>
<path d="M33.4629 157.921C33.4629 150.912 39.1445 145.23 46.1531 145.23H280.467C287.475 145.23 293.157 150.912 293.157 157.921V256.838C293.157 263.847 287.475 269.529 280.467 269.529H46.1531C39.1445 269.529 33.4629 263.847 33.4629 256.838V157.921Z" fill="#FBDE74"/>
<path d="M56.2159 179.266H58.2065V169.77H61.5448V168.089H52.8698V169.77H56.2159V179.266ZM61.4054 179.266H63.334V174.502C63.334 173.286 63.9924 172.597 65.0845 172.597C65.4098 172.597 65.7041 172.643 65.8668 172.705V170.962C65.7196 170.924 65.495 170.885 65.2549 170.885C64.3099 170.885 63.6283 171.481 63.3727 172.473H63.334V171.055H61.4054V179.266ZM69.0967 179.405C70.181 179.405 71.095 178.863 71.5675 178.003H71.614V179.266H73.5426V173.619C73.5426 171.969 72.2181 170.885 70.1655 170.885C68.082 170.885 66.8195 171.977 66.7033 173.433L66.6956 173.526H68.4848L68.5003 173.456C68.6242 172.852 69.1819 172.426 70.0958 172.426C71.0718 172.426 71.614 172.93 71.614 173.759V174.324L69.4685 174.456C67.4779 174.58 66.347 175.455 66.347 176.911V176.926C66.347 178.39 67.4546 179.405 69.0967 179.405ZM68.2679 176.849V176.841C68.2679 176.191 68.7868 175.78 69.7395 175.718L71.614 175.602V176.222C71.614 177.198 70.7774 177.933 69.6698 177.933C68.8256 177.933 68.2679 177.523 68.2679 176.849ZM75.0994 179.266H77.0281V174.502C77.0281 173.317 77.7329 172.512 78.8405 172.512C79.9404 172.512 80.4826 173.17 80.4826 174.339V179.266H82.4112V173.952C82.4112 172.047 81.381 170.885 79.5763 170.885C78.3293 170.885 77.4928 171.458 77.0668 172.341H77.0281V171.055H75.0994V179.266ZM87.1669 179.428C89.1808 179.428 90.6137 178.39 90.6137 176.841V176.834C90.6137 175.641 89.9553 174.975 88.2591 174.595L86.8881 174.293C86.0361 174.099 85.7185 173.79 85.7185 173.317V173.309C85.7185 172.705 86.253 172.31 87.105 172.31C88.0034 172.31 88.5301 172.79 88.6153 173.449L88.6231 173.511H90.42L90.4123 173.426C90.3426 172.008 89.1498 170.885 87.105 170.885C85.1221 170.885 83.8131 171.9 83.8131 173.402V173.41C83.8131 174.626 84.6032 175.393 86.1755 175.741L87.5387 176.043C88.3907 176.237 88.6773 176.516 88.6773 177.012V177.019C88.6773 177.624 88.1119 178.003 87.1747 178.003C86.1987 178.003 85.6643 177.585 85.5171 176.88L85.5017 176.81H83.604L83.6117 176.88C83.7821 178.406 85.0137 179.428 87.1669 179.428ZM92.3797 179.266H94.3083V172.543H95.9194V171.055H94.2696V170.327C94.2696 169.661 94.6181 169.313 95.3694 169.313C95.5786 169.313 95.7954 169.328 95.9503 169.351V168.004C95.7102 167.957 95.2997 167.926 94.9202 167.926C93.1387 167.926 92.3797 168.67 92.3797 170.273V171.055H91.2566V172.543H92.3797V179.266ZM100.148 179.428C102.294 179.428 103.502 178.158 103.758 176.895L103.781 176.81H101.976L101.961 176.865C101.775 177.414 101.148 177.926 100.187 177.926C98.9324 177.926 98.1423 177.074 98.1113 175.633H103.859V175.013C103.859 172.535 102.402 170.885 100.055 170.885C97.7086 170.885 96.1982 172.589 96.1982 175.176V175.184C96.1982 177.794 97.6853 179.428 100.148 179.428ZM100.079 172.395C101.101 172.395 101.845 173.046 101.984 174.347H98.1346C98.2895 173.085 99.0563 172.395 100.079 172.395ZM105.106 179.266H107.034V174.502C107.034 173.286 107.693 172.597 108.785 172.597C109.11 172.597 109.404 172.643 109.567 172.705V170.962C109.42 170.924 109.195 170.885 108.955 170.885C108.01 170.885 107.328 171.481 107.073 172.473H107.034V171.055H105.106V179.266ZM113.734 179.266H115.663V174.239C115.663 173.24 116.313 172.512 117.243 172.512C118.141 172.512 118.699 173.085 118.699 174.006V179.266H120.573V174.192C120.573 173.201 121.208 172.512 122.138 172.512C123.083 172.512 123.61 173.092 123.61 174.107V179.266H125.538V173.627C125.538 171.985 124.477 170.885 122.858 170.885C121.673 170.885 120.697 171.52 120.302 172.543H120.256C119.954 171.489 119.125 170.885 117.979 170.885C116.894 170.885 116.05 171.474 115.701 172.372H115.663V171.055H113.734V179.266ZM128.156 181.992C129.868 181.992 130.828 181.349 131.456 179.544L134.407 171.055H132.377L130.449 177.624H130.395L128.474 171.055H126.367L129.318 179.273L129.202 179.606C128.954 180.296 128.543 180.505 127.808 180.505C127.537 180.505 127.312 180.466 127.165 180.435V181.907C127.397 181.946 127.784 181.992 128.156 181.992ZM142.083 179.428C144.228 179.428 145.436 178.158 145.692 176.895L145.715 176.81H143.911L143.895 176.865C143.709 177.414 143.082 177.926 142.121 177.926C140.867 177.926 140.076 177.074 140.046 175.633H145.793V175.013C145.793 172.535 144.337 170.885 141.99 170.885C139.643 170.885 138.132 172.589 138.132 175.176V175.184C138.132 177.794 139.62 179.428 142.083 179.428ZM142.013 172.395C143.035 172.395 143.779 173.046 143.918 174.347H140.069C140.224 173.085 140.99 172.395 142.013 172.395ZM146.304 179.266H148.364L150.06 176.322H150.107L151.811 179.266H153.918L151.3 175.114L153.941 171.055H151.834L150.2 173.937H150.153L148.504 171.055H146.335L148.961 175.168L146.304 179.266ZM155.947 169.878C156.551 169.878 157.016 169.398 157.016 168.825C157.016 168.236 156.551 167.764 155.947 167.764C155.343 167.764 154.87 168.236 154.87 168.825C154.87 169.398 155.343 169.878 155.947 169.878ZM154.979 179.266H156.907V171.055H154.979V179.266ZM161.756 179.428C163.77 179.428 165.203 178.39 165.203 176.841V176.834C165.203 175.641 164.545 174.975 162.848 174.595L161.477 174.293C160.625 174.099 160.308 173.79 160.308 173.317V173.309C160.308 172.705 160.842 172.31 161.694 172.31C162.593 172.31 163.119 172.79 163.205 173.449L163.212 173.511H165.009L165.002 173.426C164.932 172.008 163.739 170.885 161.694 170.885C159.711 170.885 158.402 171.9 158.402 173.402V173.41C158.402 174.626 159.192 175.393 160.765 175.741L162.128 176.043C162.98 176.237 163.267 176.516 163.267 177.012V177.019C163.267 177.624 162.701 178.003 161.764 178.003C160.788 178.003 160.254 177.585 160.106 176.88L160.091 176.81H158.193L158.201 176.88C158.371 178.406 159.603 179.428 161.756 179.428ZM169.486 179.428C169.873 179.428 170.214 179.39 170.439 179.359V177.91C170.307 177.918 170.16 177.941 169.974 177.941C169.269 177.941 168.913 177.686 168.913 176.88V172.543H170.439V171.055H168.913V168.972H166.953V171.055H165.792V172.543H166.953V177.043C166.953 178.731 167.767 179.428 169.486 179.428ZM172.786 169.878C173.39 169.878 173.855 169.398 173.855 168.825C173.855 168.236 173.39 167.764 172.786 167.764C172.182 167.764 171.709 168.236 171.709 168.825C171.709 169.398 172.182 169.878 172.786 169.878ZM171.818 179.266H173.746V171.055H171.818V179.266ZM175.388 179.266H177.317V174.502C177.317 173.317 178.022 172.512 179.129 172.512C180.229 172.512 180.771 173.17 180.771 174.339V179.266H182.7V173.952C182.7 172.047 181.67 170.885 179.865 170.885C178.618 170.885 177.782 171.458 177.356 172.341H177.317V171.055H175.388V179.266ZM187.951 182.139C190.329 182.139 191.824 180.892 191.824 179.033V171.055H189.896V172.45H189.849C189.384 171.505 188.486 170.885 187.324 170.885C185.248 170.885 183.908 172.481 183.908 175.075V175.083C183.908 177.639 185.233 179.219 187.293 179.219C188.47 179.219 189.4 178.661 189.857 177.786H189.896V178.971C189.896 180.017 189.206 180.683 187.951 180.683C186.945 180.683 186.286 180.327 186.077 179.854L186.054 179.792H184.156L184.172 179.862C184.404 181.148 185.775 182.139 187.951 182.139ZM187.897 177.732C186.658 177.732 185.876 176.733 185.876 175.114V175.106C185.876 173.511 186.658 172.512 187.897 172.512C189.09 172.512 189.903 173.526 189.903 175.114V175.122C189.903 176.717 189.098 177.732 187.897 177.732ZM53.2881 198.266H55.2167V193.502C55.2167 192.317 55.9216 191.512 57.0292 191.512C58.129 191.512 58.6712 192.17 58.6712 193.339V198.266H60.5998V192.952C60.5998 191.047 59.5697 189.885 57.765 189.885C56.518 189.885 55.6815 190.458 55.2554 191.341H55.2167V190.055H53.2881V198.266ZM64.9451 198.428C66.1844 198.428 67.0286 197.855 67.4546 196.98H67.4933V198.266H69.422V190.055H67.4933V194.811C67.4933 196.004 66.7885 196.802 65.6809 196.802C64.581 196.802 64.0389 196.143 64.0389 194.982V190.055H62.1102V195.361C62.1102 197.266 63.1404 198.428 64.9451 198.428ZM71.0098 198.266H72.9384V193.239C72.9384 192.24 73.5891 191.512 74.5185 191.512C75.417 191.512 75.9747 192.085 75.9747 193.006V198.266H77.8491V193.192C77.8491 192.201 78.4842 191.512 79.4137 191.512C80.3586 191.512 80.8853 192.092 80.8853 193.107V198.266H82.814V192.627C82.814 190.985 81.7528 189.885 80.134 189.885C78.949 189.885 77.973 190.52 77.578 191.543H77.5315C77.2295 190.489 76.4007 189.885 75.2543 189.885C74.17 189.885 73.3257 190.474 72.9772 191.372H72.9384V190.055H71.0098V198.266ZM88.9484 198.428C91.0242 198.428 92.3409 196.802 92.3409 194.161V194.153C92.3409 191.504 91.0165 189.885 88.9561 189.885C87.7943 189.885 86.8571 190.481 86.3924 191.465H86.3459V187.089H84.4173V198.266H86.3459V196.871H86.3924C86.8571 197.84 87.7633 198.428 88.9484 198.428ZM88.3675 196.802C87.1747 196.802 86.3459 195.772 86.3459 194.161V194.153C86.3459 192.549 87.1824 191.512 88.3675 191.512C89.599 191.512 90.3736 192.518 90.3736 194.153V194.161C90.3736 195.795 89.6068 196.802 88.3675 196.802ZM97.1896 198.428C99.3351 198.428 100.543 197.158 100.799 195.895L100.822 195.81H99.0176L99.0021 195.865C98.8162 196.414 98.1888 196.926 97.2283 196.926C95.9736 196.926 95.1835 196.074 95.1526 194.633H100.9V194.013C100.9 191.535 99.4436 189.885 97.0967 189.885C94.7498 189.885 93.2394 191.589 93.2394 194.176V194.184C93.2394 196.794 94.7265 198.428 97.1896 198.428ZM97.1199 191.395C98.1423 191.395 98.8859 192.046 99.0253 193.347H95.1758C95.3307 192.085 96.0975 191.395 97.1199 191.395ZM102.147 198.266H104.075V193.502C104.075 192.286 104.734 191.597 105.826 191.597C106.151 191.597 106.446 191.643 106.608 191.705V189.962C106.461 189.924 106.236 189.885 105.996 189.885C105.051 189.885 104.37 190.481 104.114 191.473H104.075V190.055H102.147V198.266Z" fill="black"/>
<path d="M53.3532 219.609H54.1897V216.705H57.1593V215.961H54.1897V213.656H57.4242V212.903H53.3532V219.609ZM58.6976 219.609H59.5062V216.505C59.5062 215.771 60.0546 215.283 60.826 215.283C61.0026 215.283 61.156 215.301 61.3233 215.329V214.544C61.2443 214.53 61.0723 214.511 60.919 214.511C60.2405 214.511 59.7711 214.818 59.5805 215.343H59.5062V214.6H58.6976V219.609ZM64.2278 219.698C65.4083 219.698 66.1239 219.028 66.2959 218.35L66.3052 218.313H65.4966L65.478 218.355C65.3432 218.657 64.9249 218.977 64.2464 218.977C63.3541 218.977 62.7825 218.373 62.7593 217.337H66.3656V217.021C66.3656 215.524 65.5384 214.511 64.1767 214.511C62.8151 214.511 61.9321 215.571 61.9321 217.118V217.123C61.9321 218.694 62.7965 219.698 64.2278 219.698ZM64.1721 215.232C64.911 215.232 65.4594 215.701 65.543 216.691H62.7732C62.8615 215.738 63.4285 215.232 64.1721 215.232ZM69.6652 219.698C70.8456 219.698 71.5613 219.028 71.7332 218.35L71.7425 218.313H70.9339L70.9153 218.355C70.7805 218.657 70.3623 218.977 69.6838 218.977C68.7915 218.977 68.2199 218.373 68.1966 217.337H71.8029V217.021C71.8029 215.524 70.9757 214.511 69.6141 214.511C68.2524 214.511 67.3694 215.571 67.3694 217.118V217.123C67.3694 218.694 68.2338 219.698 69.6652 219.698ZM69.6094 215.232C70.3483 215.232 70.8967 215.701 70.9804 216.691H68.2106C68.2989 215.738 68.8659 215.232 69.6094 215.232ZM76.1621 221.366C77.0498 221.366 77.4634 221.041 77.877 219.916L79.8335 214.6H78.983L77.6121 218.722H77.5377L76.1621 214.6H75.2977L77.152 219.614L77.059 219.911C76.8778 220.488 76.599 220.697 76.1389 220.697C76.0273 220.697 75.9019 220.692 75.8043 220.674V221.338C75.9158 221.357 76.0552 221.366 76.1621 221.366ZM82.7752 219.698C84.202 219.698 85.0849 218.712 85.0849 217.109V217.1C85.0849 215.492 84.202 214.511 82.7752 214.511C81.3485 214.511 80.4655 215.492 80.4655 217.1V217.109C80.4655 218.712 81.3485 219.698 82.7752 219.698ZM82.7752 218.982C81.8272 218.982 81.2927 218.29 81.2927 217.109V217.1C81.2927 215.915 81.8272 215.227 82.7752 215.227C83.7233 215.227 84.2577 215.915 84.2577 217.1V217.109C84.2577 218.29 83.7233 218.982 82.7752 218.982ZM88.0174 219.698C88.7517 219.698 89.2582 219.396 89.5045 218.861H89.5789V219.609H90.3875V214.6H89.5789V217.565C89.5789 218.443 89.1095 218.982 88.2265 218.982C87.4272 218.982 87.1019 218.55 87.1019 217.648V214.6H86.2932V217.843C86.2932 219.028 86.8788 219.698 88.0174 219.698ZM91.8979 219.609H92.7065V216.505C92.7065 215.771 93.2549 215.283 94.0264 215.283C94.203 215.283 94.3563 215.301 94.5236 215.329V214.544C94.4446 214.53 94.2727 214.511 94.1193 214.511C93.4408 214.511 92.9714 214.818 92.7809 215.343H92.7065V214.6H91.8979V219.609ZM100.249 219.698C101.453 219.698 102.127 219.052 102.331 218.145L102.34 218.094L101.541 218.099L101.532 218.127C101.346 218.685 100.918 218.982 100.244 218.982C99.3522 218.982 98.7759 218.243 98.7759 217.091V217.081C98.7759 215.952 99.3429 215.227 100.244 215.227C100.965 215.227 101.411 215.627 101.536 216.119L101.541 216.133H102.345L102.34 216.105C102.192 215.213 101.462 214.511 100.244 214.511C98.841 214.511 97.9487 215.524 97.9487 217.081V217.091C97.9487 218.68 98.8456 219.698 100.249 219.698ZM105.203 219.698C105.937 219.698 106.444 219.396 106.69 218.861H106.765V219.609H107.573V214.6H106.765V217.565C106.765 218.443 106.295 218.982 105.412 218.982C104.613 218.982 104.288 218.55 104.288 217.648V214.6H103.479V217.843C103.479 219.028 104.065 219.698 105.203 219.698ZM109.084 219.609H109.892V216.505C109.892 215.771 110.441 215.283 111.212 215.283C111.389 215.283 111.542 215.301 111.709 215.329V214.544C111.63 214.53 111.458 214.511 111.305 214.511C110.627 214.511 110.157 214.818 109.967 215.343H109.892V214.6H109.084V219.609ZM112.801 219.609H113.61V216.505C113.61 215.771 114.158 215.283 114.93 215.283C115.107 215.283 115.26 215.301 115.427 215.329V214.544C115.348 214.53 115.176 214.511 115.023 214.511C114.344 214.511 113.875 214.818 113.684 215.343H113.61V214.6H112.801V219.609ZM118.332 219.698C119.512 219.698 120.228 219.028 120.4 218.35L120.409 218.313H119.6L119.582 218.355C119.447 218.657 119.029 218.977 118.35 218.977C117.458 218.977 116.886 218.373 116.863 217.337H120.47V217.021C120.47 215.524 119.642 214.511 118.281 214.511C116.919 214.511 116.036 215.571 116.036 217.118V217.123C116.036 218.694 116.9 219.698 118.332 219.698ZM118.276 215.232C119.015 215.232 119.563 215.701 119.647 216.691H116.877C116.965 215.738 117.532 215.232 118.276 215.232ZM121.724 219.609H122.533V216.644C122.533 215.766 123.039 215.227 123.839 215.227C124.638 215.227 125.01 215.659 125.01 216.561V219.609H125.819V216.366C125.819 215.176 125.191 214.511 124.067 214.511C123.328 214.511 122.858 214.823 122.607 215.352H122.533V214.6H121.724V219.609ZM129.062 219.647C129.22 219.647 129.374 219.628 129.532 219.6V218.912C129.383 218.926 129.304 218.931 129.16 218.931C128.639 218.931 128.435 218.694 128.435 218.104V215.269H129.532V214.6H128.435V213.303H127.598V214.6H126.808V215.269H127.598V218.308C127.598 219.265 128.031 219.647 129.062 219.647ZM133.417 219.609H134.226V216.644C134.226 215.766 134.732 215.227 135.531 215.227C136.331 215.227 136.703 215.659 136.703 216.561V219.609H137.511V216.366C137.511 215.176 136.884 214.511 135.759 214.511C135.02 214.511 134.551 214.823 134.3 215.352H134.226V214.6H133.417V219.609ZM140.653 219.698C141.387 219.698 141.894 219.396 142.14 218.861H142.214V219.609H143.023V214.6H142.214V217.565C142.214 218.443 141.745 218.982 140.862 218.982C140.063 218.982 139.737 218.55 139.737 217.648V214.6H138.929V217.843C138.929 219.028 139.514 219.698 140.653 219.698ZM144.533 219.609H145.342V216.505C145.342 215.799 145.839 215.227 146.494 215.227C147.126 215.227 147.535 215.613 147.535 216.208V219.609H148.344V216.389C148.344 215.752 148.804 215.227 149.501 215.227C150.208 215.227 150.547 215.594 150.547 216.333V219.609H151.355V216.147C151.355 215.097 150.784 214.511 149.761 214.511C149.069 214.511 148.497 214.86 148.228 215.39H148.154C147.921 214.869 147.447 214.511 146.769 214.511C146.113 214.511 145.639 214.823 145.416 215.362H145.342V214.6H144.533V219.609ZM155.306 219.698C156.574 219.698 157.406 218.671 157.406 217.109V217.1C157.406 215.529 156.579 214.511 155.306 214.511C154.618 214.511 154.018 214.855 153.744 215.39H153.67V212.611H152.861V219.609H153.67V218.81H153.744C154.051 219.368 154.609 219.698 155.306 219.698ZM155.12 218.982C154.209 218.982 153.651 218.266 153.651 217.109V217.1C153.651 215.943 154.209 215.227 155.12 215.227C156.035 215.227 156.579 215.933 156.579 217.1V217.109C156.579 218.276 156.035 218.982 155.12 218.982ZM160.706 219.698C161.886 219.698 162.602 219.028 162.774 218.35L162.783 218.313H161.975L161.956 218.355C161.821 218.657 161.403 218.977 160.724 218.977C159.832 218.977 159.261 218.373 159.237 217.337H162.844V217.021C162.844 215.524 162.016 214.511 160.655 214.511C159.293 214.511 158.41 215.571 158.41 217.118V217.123C158.41 218.694 159.275 219.698 160.706 219.698ZM160.65 215.232C161.389 215.232 161.937 215.701 162.021 216.691H159.251C159.34 215.738 159.907 215.232 160.65 215.232ZM164.098 219.609H164.907V216.505C164.907 215.771 165.455 215.283 166.227 215.283C166.403 215.283 166.557 215.301 166.724 215.329V214.544C166.645 214.53 166.473 214.511 166.32 214.511C165.641 214.511 165.172 214.818 164.981 215.343H164.907V214.6H164.098V219.609ZM170.735 219.609H171.543V215.269H172.682V214.6H171.543V214.065C171.543 213.517 171.776 213.233 172.352 213.233C172.496 213.233 172.631 213.238 172.728 213.257V212.611C172.561 212.578 172.385 212.564 172.189 212.564C171.237 212.564 170.735 213.043 170.735 214.042V214.6H169.903V215.269H170.735V219.609ZM173.848 219.609H174.657V216.505C174.657 215.771 175.205 215.283 175.977 215.283C176.154 215.283 176.307 215.301 176.474 215.329V214.544C176.395 214.53 176.223 214.511 176.07 214.511C175.391 214.511 174.922 214.818 174.731 215.343H174.657V214.6H173.848V219.609ZM179.393 219.698C180.819 219.698 181.702 218.712 181.702 217.109V217.1C181.702 215.492 180.819 214.511 179.393 214.511C177.966 214.511 177.083 215.492 177.083 217.1V217.109C177.083 218.712 177.966 219.698 179.393 219.698ZM179.393 218.982C178.445 218.982 177.91 218.29 177.91 217.109V217.1C177.91 215.915 178.445 215.227 179.393 215.227C180.341 215.227 180.875 215.915 180.875 217.1V217.109C180.875 218.29 180.341 218.982 179.393 218.982ZM182.957 219.609H183.766V216.505C183.766 215.799 184.263 215.227 184.918 215.227C185.55 215.227 185.959 215.613 185.959 216.208V219.609H186.768V216.389C186.768 215.752 187.228 215.227 187.925 215.227C188.632 215.227 188.971 215.594 188.971 216.333V219.609H189.779V216.147C189.779 215.097 189.208 214.511 188.185 214.511C187.493 214.511 186.921 214.86 186.652 215.39H186.577C186.345 214.869 185.871 214.511 185.193 214.511C184.537 214.511 184.063 214.823 183.84 215.362H183.766V214.6H182.957V219.609ZM194.343 221.366C195.231 221.366 195.644 221.041 196.058 219.916L198.014 214.6H197.164L195.793 218.722H195.719L194.343 214.6H193.479L195.333 219.614L195.24 219.911C195.059 220.488 194.78 220.697 194.32 220.697C194.208 220.697 194.083 220.692 193.985 220.674V221.338C194.097 221.357 194.236 221.366 194.343 221.366ZM200.956 219.698C202.383 219.698 203.266 218.712 203.266 217.109V217.1C203.266 215.492 202.383 214.511 200.956 214.511C199.529 214.511 198.646 215.492 198.646 217.1V217.109C198.646 218.712 199.529 219.698 200.956 219.698ZM200.956 218.982C200.008 218.982 199.474 218.29 199.474 217.109V217.1C199.474 215.915 200.008 215.227 200.956 215.227C201.904 215.227 202.439 215.915 202.439 217.1V217.109C202.439 218.29 201.904 218.982 200.956 218.982ZM206.198 219.698C206.933 219.698 207.439 219.396 207.685 218.861H207.76V219.609H208.568V214.6H207.76V217.565C207.76 218.443 207.29 218.982 206.407 218.982C205.608 218.982 205.283 218.55 205.283 217.648V214.6H204.474V217.843C204.474 219.028 205.06 219.698 206.198 219.698ZM210.079 219.609H210.887V216.505C210.887 215.771 211.436 215.283 212.207 215.283C212.384 215.283 212.537 215.301 212.705 215.329V214.544C212.626 214.53 212.454 214.511 212.3 214.511C211.622 214.511 211.152 214.818 210.962 215.343H210.887V214.6H210.079V219.609ZM55.3004 231.698C56.504 231.698 57.1779 231.052 57.3824 230.145L57.3917 230.094L56.5923 230.099L56.583 230.127C56.3971 230.685 55.9696 230.982 55.2957 230.982C54.4034 230.982 53.8272 230.243 53.8272 229.091V229.081C53.8272 227.952 54.3941 227.227 55.2957 227.227C56.0161 227.227 56.4622 227.627 56.5877 228.119L56.5923 228.133H57.3963L57.3917 228.105C57.2429 227.213 56.5133 226.511 55.2957 226.511C53.8922 226.511 53 227.524 53 229.081V229.091C53 230.68 53.8969 231.698 55.3004 231.698ZM60.2544 231.698C60.9887 231.698 61.4952 231.396 61.7415 230.861H61.8159V231.609H62.6245V226.6H61.8159V229.565C61.8159 230.443 61.3465 230.982 60.4635 230.982C59.6642 230.982 59.3389 230.55 59.3389 229.648V226.6H58.5302V229.843C58.5302 231.028 59.1158 231.698 60.2544 231.698ZM64.1349 231.609H64.9435V228.505C64.9435 227.771 65.4919 227.283 66.2634 227.283C66.44 227.283 66.5933 227.301 66.7606 227.329V226.544C66.6816 226.53 66.5097 226.511 66.3563 226.511C65.6778 226.511 65.2084 226.818 65.0179 227.343H64.9435V226.6H64.1349V231.609ZM67.8527 231.609H68.6614V228.505C68.6614 227.771 69.2098 227.283 69.9812 227.283C70.1578 227.283 70.3112 227.301 70.4785 227.329V226.544C70.3995 226.53 70.2275 226.511 70.0742 226.511C69.3956 226.511 68.9263 226.818 68.7357 227.343H68.6614V226.6H67.8527V231.609ZM73.383 231.698C74.5634 231.698 75.2791 231.028 75.4511 230.35L75.4604 230.313H74.6517L74.6332 230.355C74.4984 230.657 74.0801 230.977 73.4016 230.977C72.5093 230.977 71.9377 230.373 71.9145 229.337H75.5208V229.021C75.5208 227.524 74.6936 226.511 73.3319 226.511C71.9703 226.511 71.0873 227.571 71.0873 229.118V229.123C71.0873 230.694 71.9517 231.698 73.383 231.698ZM73.3273 227.232C74.0662 227.232 74.6146 227.701 74.6982 228.691H71.9284C72.0167 227.738 72.5837 227.232 73.3273 227.232ZM76.7756 231.609H77.5842V228.644C77.5842 227.766 78.0907 227.227 78.8901 227.227C79.6894 227.227 80.0612 227.659 80.0612 228.561V231.609H80.8698V228.366C80.8698 227.176 80.2425 226.511 79.1178 226.511C78.3789 226.511 77.9095 226.823 77.6586 227.352H77.5842V226.6H76.7756V231.609ZM84.1137 231.647C84.2717 231.647 84.425 231.628 84.583 231.6V230.912C84.4343 230.926 84.3553 230.931 84.2112 230.931C83.6908 230.931 83.4863 230.694 83.4863 230.104V227.269H84.583V226.6H83.4863V225.303H82.6498V226.6H81.8597V227.269H82.6498V230.308C82.6498 231.265 83.082 231.647 84.1137 231.647ZM90.5176 231.698C91.7213 231.698 92.3952 231.052 92.5996 230.145L92.6089 230.094L91.8096 230.099L91.8003 230.127C91.6144 230.685 91.1869 230.982 90.513 230.982C89.6207 230.982 89.0444 230.243 89.0444 229.091V229.081C89.0444 227.952 89.6114 227.227 90.513 227.227C91.2333 227.227 91.6795 227.627 91.8049 228.119L91.8096 228.133H92.6136L92.6089 228.105C92.4602 227.213 91.7306 226.511 90.513 226.511C89.1095 226.511 88.2172 227.524 88.2172 229.081V229.091C88.2172 230.68 89.1142 231.698 90.5176 231.698ZM95.1696 231.698C95.8435 231.698 96.3686 231.405 96.6846 230.87H96.759V231.609H97.5676V228.18C97.5676 227.139 96.8844 226.511 95.6622 226.511C94.5933 226.511 93.8312 227.041 93.701 227.826L93.6964 227.854H94.505L94.5097 227.84C94.6398 227.45 95.0348 227.227 95.6343 227.227C96.3825 227.227 96.759 227.562 96.759 228.18V228.635L95.323 228.723C94.1565 228.793 93.4966 229.309 93.4966 230.201V230.211C93.4966 231.121 94.2169 231.698 95.1696 231.698ZM94.3238 230.192V230.183C94.3238 229.685 94.6584 229.416 95.4205 229.369L96.759 229.286V229.741C96.759 230.457 96.1595 230.996 95.3369 230.996C94.756 230.996 94.3238 230.699 94.3238 230.192ZM99.0454 231.609H99.8541V228.505C99.8541 227.771 100.402 227.283 101.174 227.283C101.351 227.283 101.504 227.301 101.671 227.329V226.544C101.592 226.53 101.42 226.511 101.267 226.511C100.588 226.511 100.119 226.818 99.9284 227.343H99.8541V226.6H99.0454V231.609ZM102.763 231.609H103.572V228.505C103.572 227.771 104.12 227.283 104.892 227.283C105.068 227.283 105.222 227.301 105.389 227.329V226.544C105.31 226.53 105.138 226.511 104.985 226.511C104.306 226.511 103.837 226.818 103.646 227.343H103.572V226.6H102.763V231.609ZM106.816 225.633C107.122 225.633 107.373 225.382 107.373 225.075C107.373 224.769 107.122 224.518 106.816 224.518C106.509 224.518 106.258 224.769 106.258 225.075C106.258 225.382 106.509 225.633 106.816 225.633ZM106.407 231.609H107.215V226.6H106.407V231.609ZM110.785 231.698C111.965 231.698 112.681 231.028 112.853 230.35L112.862 230.313H112.053L112.035 230.355C111.9 230.657 111.482 230.977 110.803 230.977C109.911 230.977 109.339 230.373 109.316 229.337H112.922V229.021C112.922 227.524 112.095 226.511 110.733 226.511C109.372 226.511 108.489 227.571 108.489 229.118V229.123C108.489 230.694 109.353 231.698 110.785 231.698ZM110.729 227.232C111.468 227.232 112.016 227.701 112.1 228.691H109.33C109.418 227.738 109.985 227.232 110.729 227.232ZM114.177 231.609H114.986V228.505C114.986 227.771 115.534 227.283 116.306 227.283C116.482 227.283 116.635 227.301 116.803 227.329V226.544C116.724 226.53 116.552 226.511 116.398 226.511C115.72 226.511 115.251 226.818 115.06 227.343H114.986V226.6H114.177V231.609ZM116.993 233.315H117.593L118.322 230.671H117.398L116.993 233.315ZM124.076 231.698C124.75 231.698 125.275 231.405 125.591 230.87H125.665V231.609H126.474V228.18C126.474 227.139 125.791 226.511 124.568 226.511C123.5 226.511 122.737 227.041 122.607 227.826L122.603 227.854H123.411L123.416 227.84C123.546 227.45 123.941 227.227 124.541 227.227C125.289 227.227 125.665 227.562 125.665 228.18V228.635L124.229 228.723C123.063 228.793 122.403 229.309 122.403 230.201V230.211C122.403 231.121 123.123 231.698 124.076 231.698ZM123.23 230.192V230.183C123.23 229.685 123.565 229.416 124.327 229.369L125.665 229.286V229.741C125.665 230.457 125.066 230.996 124.243 230.996C123.662 230.996 123.23 230.699 123.23 230.192ZM127.952 231.609H128.76V228.644C128.76 227.766 129.267 227.227 130.066 227.227C130.866 227.227 131.237 227.659 131.237 228.561V231.609H132.046V228.366C132.046 227.176 131.419 226.511 130.294 226.511C129.555 226.511 129.086 226.823 128.835 227.352H128.76V226.6H127.952V231.609ZM135.359 231.698C136.057 231.698 136.614 231.368 136.921 230.81H136.995V231.609H137.804V224.611H136.995V227.39H136.921C136.647 226.855 136.047 226.511 135.359 226.511C134.086 226.511 133.259 227.529 133.259 229.1V229.109C133.259 230.671 134.091 231.698 135.359 231.698ZM135.545 230.982C134.63 230.982 134.086 230.276 134.086 229.109V229.1C134.086 227.933 134.63 227.227 135.545 227.227C136.456 227.227 137.014 227.943 137.014 229.1V229.109C137.014 230.266 136.456 230.982 135.545 230.982ZM142.033 231.609H142.842V228.644C142.842 227.766 143.348 227.227 144.148 227.227C144.947 227.227 145.319 227.659 145.319 228.561V231.609H146.127V228.366C146.127 227.176 145.5 226.511 144.375 226.511C143.636 226.511 143.167 226.823 142.916 227.352H142.842V226.6H142.033V231.609ZM149.636 231.698C150.816 231.698 151.532 231.028 151.704 230.35L151.713 230.313H150.905L150.886 230.355C150.751 230.657 150.333 230.977 149.655 230.977C148.762 230.977 148.191 230.373 148.167 229.337H151.774V229.021C151.774 227.524 150.947 226.511 149.585 226.511C148.223 226.511 147.34 227.571 147.34 229.118V229.123C147.34 230.694 148.205 231.698 149.636 231.698ZM149.58 227.232C150.319 227.232 150.868 227.701 150.951 228.691H148.181C148.27 227.738 148.837 227.232 149.58 227.232ZM154.353 231.609H155.171L157.025 226.6H156.17L154.799 230.726H154.725L153.354 226.6H152.499L154.353 231.609ZM159.953 231.698C161.133 231.698 161.849 231.028 162.021 230.35L162.03 230.313H161.222L161.203 230.355C161.068 230.657 160.65 230.977 159.972 230.977C159.079 230.977 158.508 230.373 158.484 229.337H162.091V229.021C162.091 227.524 161.264 226.511 159.902 226.511C158.54 226.511 157.657 227.571 157.657 229.118V229.123C157.657 230.694 158.522 231.698 159.953 231.698ZM159.897 227.232C160.636 227.232 161.185 227.701 161.268 228.691H158.498C158.587 227.738 159.154 227.232 159.897 227.232ZM163.346 231.609H164.154V228.505C164.154 227.771 164.703 227.283 165.474 227.283C165.651 227.283 165.804 227.301 165.971 227.329V226.544C165.892 226.53 165.72 226.511 165.567 226.511C164.888 226.511 164.419 226.818 164.229 227.343H164.154V226.6H163.346V231.609ZM169.647 233.282H170.456V230.819H170.53C170.804 231.354 171.404 231.698 172.092 231.698C173.365 231.698 174.192 230.68 174.192 229.109V229.1C174.192 227.538 173.36 226.511 172.092 226.511C171.395 226.511 170.837 226.841 170.53 227.399H170.456V226.6H169.647V233.282ZM171.906 230.982C170.995 230.982 170.437 230.266 170.437 229.109V229.1C170.437 227.943 170.995 227.227 171.906 227.227C172.821 227.227 173.365 227.933 173.365 229.1V229.109C173.365 230.276 172.821 230.982 171.906 230.982ZM176.832 231.698C177.506 231.698 178.031 231.405 178.347 230.87H178.421V231.609H179.23V228.18C179.23 227.139 178.547 226.511 177.325 226.511C176.256 226.511 175.494 227.041 175.363 227.826L175.359 227.854H176.167L176.172 227.84C176.302 227.45 176.697 227.227 177.297 227.227C178.045 227.227 178.421 227.562 178.421 228.18V228.635L176.985 228.723C175.819 228.793 175.159 229.309 175.159 230.201V230.211C175.159 231.121 175.879 231.698 176.832 231.698ZM175.986 230.192V230.183C175.986 229.685 176.321 229.416 177.083 229.369L178.421 229.286V229.741C178.421 230.457 177.822 230.996 176.999 230.996C176.418 230.996 175.986 230.699 175.986 230.192ZM180.95 233.366C181.837 233.366 182.251 233.041 182.664 231.916L184.621 226.6H183.77L182.399 230.722H182.325L180.95 226.6H180.085L181.939 231.614L181.846 231.911C181.665 232.488 181.386 232.697 180.926 232.697C180.815 232.697 180.689 232.692 180.592 232.674V233.338C180.703 233.357 180.843 233.366 180.95 233.366ZM188.701 231.609H189.51V227.269H190.648V226.6H189.51V226.065C189.51 225.517 189.742 225.233 190.318 225.233C190.463 225.233 190.597 225.238 190.695 225.257V224.611C190.528 224.578 190.351 224.564 190.156 224.564C189.203 224.564 188.701 225.043 188.701 226.042V226.6H187.869V227.269H188.701V231.609ZM193.66 231.698C195.087 231.698 195.97 230.712 195.97 229.109V229.1C195.97 227.492 195.087 226.511 193.66 226.511C192.233 226.511 191.35 227.492 191.35 229.1V229.109C191.35 230.712 192.233 231.698 193.66 231.698ZM193.66 230.982C192.712 230.982 192.177 230.29 192.177 229.109V229.1C192.177 227.915 192.712 227.227 193.66 227.227C194.608 227.227 195.142 227.915 195.142 229.1V229.109C195.142 230.29 194.608 230.982 193.66 230.982ZM197.224 231.609H198.033V228.505C198.033 227.771 198.581 227.283 199.353 227.283C199.529 227.283 199.683 227.301 199.85 227.329V226.544C199.771 226.53 199.599 226.511 199.446 226.511C198.767 226.511 198.298 226.818 198.107 227.343H198.033V226.6H197.224V231.609ZM53.2509 246.282H54.0595V243.819H54.1339C54.4081 244.354 55.0076 244.698 55.6954 244.698C56.9688 244.698 57.796 243.68 57.796 242.109V242.1C57.796 240.538 56.9641 239.511 55.6954 239.511C54.9983 239.511 54.4406 239.841 54.1339 240.399H54.0595V239.6H53.2509V246.282ZM55.5095 243.982C54.5986 243.982 54.041 243.266 54.041 242.109V242.1C54.041 240.943 54.5986 240.227 55.5095 240.227C56.425 240.227 56.9688 240.933 56.9688 242.1V242.109C56.9688 243.276 56.425 243.982 55.5095 243.982ZM59.1065 244.609H59.9151V241.644C59.9151 240.766 60.4217 240.227 61.221 240.227C62.0204 240.227 62.3922 240.659 62.3922 241.561V244.609H63.2008V241.366C63.2008 240.176 62.5734 239.511 61.4488 239.511C60.7098 239.511 60.2405 239.823 59.9895 240.352H59.9151V237.611H59.1065V244.609ZM66.7234 244.698C68.1502 244.698 69.0332 243.712 69.0332 242.109V242.1C69.0332 240.492 68.1502 239.511 66.7234 239.511C65.2967 239.511 64.4137 240.492 64.4137 242.1V242.109C64.4137 243.712 65.2967 244.698 66.7234 244.698ZM66.7234 243.982C65.7754 243.982 65.241 243.29 65.241 242.109V242.1C65.241 240.915 65.7754 240.227 66.7234 240.227C67.6715 240.227 68.2059 240.915 68.2059 242.1V242.109C68.2059 243.29 67.6715 243.982 66.7234 243.982ZM70.2879 244.609H71.0966V241.644C71.0966 240.766 71.6031 240.227 72.4024 240.227C73.2018 240.227 73.5736 240.659 73.5736 241.561V244.609H74.3822V241.366C74.3822 240.176 73.7548 239.511 72.6302 239.511C71.8912 239.511 71.4219 239.823 71.1709 240.352H71.0966V239.6H70.2879V244.609ZM77.8909 244.698C79.0713 244.698 79.787 244.028 79.959 243.35L79.9683 243.313H79.1596L79.141 243.355C79.0063 243.657 78.588 243.977 77.9095 243.977C77.0172 243.977 76.4456 243.373 76.4224 242.337H80.0287V242.021C80.0287 240.524 79.2015 239.511 77.8398 239.511C76.4781 239.511 75.5951 240.571 75.5951 242.118V242.123C75.5951 243.694 76.4595 244.698 77.8909 244.698ZM77.8351 240.232C78.5741 240.232 79.1225 240.701 79.2061 241.691H76.4363C76.5246 240.738 77.0916 240.232 77.8351 240.232ZM85.6798 244.698C86.8184 244.698 87.6874 244.08 87.6874 243.187V243.178C87.6874 242.462 87.232 242.053 86.2886 241.826L85.5171 241.64C84.9269 241.496 84.676 241.282 84.676 240.943V240.933C84.676 240.492 85.1128 240.185 85.7077 240.185C86.3118 240.185 86.7022 240.459 86.8091 240.854H87.6038C87.4922 240.036 86.7626 239.511 85.7123 239.511C84.6481 239.511 83.8488 240.139 83.8488 240.971V240.975C83.8488 241.696 84.2717 242.104 85.2104 242.328L85.9865 242.513C86.6046 242.662 86.8602 242.899 86.8602 243.238V243.248C86.8602 243.703 86.3815 244.024 85.7077 244.024C85.0664 244.024 84.6667 243.75 84.5319 243.331H83.7047C83.7976 244.159 84.5644 244.698 85.6798 244.698ZM90.987 244.698C92.1674 244.698 92.8831 244.028 93.0551 243.35L93.0644 243.313H92.2557L92.2371 243.355C92.1024 243.657 91.6841 243.977 91.0056 243.977C90.1133 243.977 89.5417 243.373 89.5185 242.337H93.1248V242.021C93.1248 240.524 92.2976 239.511 90.9359 239.511C89.5742 239.511 88.6912 240.571 88.6912 242.118V242.123C88.6912 243.694 89.5556 244.698 90.987 244.698ZM90.9312 240.232C91.6702 240.232 92.2186 240.701 92.3022 241.691H89.5324C89.6207 240.738 90.1877 240.232 90.9312 240.232ZM94.3795 244.609H95.1882V241.505C95.1882 240.771 95.7366 240.283 96.508 240.283C96.6846 240.283 96.838 240.301 97.0053 240.329V239.544C96.9263 239.53 96.7543 239.511 96.601 239.511C95.9225 239.511 95.4531 239.818 95.2625 240.343H95.1882V239.6H94.3795V244.609ZM99.4683 244.609H100.286L102.141 239.6H101.285L99.9145 243.726H99.8401L98.4692 239.6H97.6141L99.4683 244.609ZM103.637 238.633C103.944 238.633 104.195 238.382 104.195 238.075C104.195 237.769 103.944 237.518 103.637 237.518C103.33 237.518 103.079 237.769 103.079 238.075C103.079 238.382 103.33 238.633 103.637 238.633ZM103.228 244.609H104.037V239.6H103.228V244.609ZM107.61 244.698C108.814 244.698 109.488 244.052 109.692 243.145L109.702 243.094L108.902 243.099L108.893 243.127C108.707 243.685 108.28 243.982 107.606 243.982C106.713 243.982 106.137 243.243 106.137 242.091V242.081C106.137 240.952 106.704 240.227 107.606 240.227C108.326 240.227 108.772 240.627 108.898 241.119L108.902 241.133H109.706L109.702 241.105C109.553 240.213 108.823 239.511 107.606 239.511C106.202 239.511 105.31 240.524 105.31 242.081V242.091C105.31 243.68 106.207 244.698 107.61 244.698ZM112.932 244.698C114.112 244.698 114.828 244.028 115 243.35L115.009 243.313H114.2L114.182 243.355C114.047 243.657 113.629 243.977 112.95 243.977C112.058 243.977 111.486 243.373 111.463 242.337H115.069V242.021C115.069 240.524 114.242 239.511 112.88 239.511C111.519 239.511 110.636 240.571 110.636 242.118V242.123C110.636 243.694 111.5 244.698 112.932 244.698ZM112.876 240.232C113.615 240.232 114.163 240.701 114.247 241.691H111.477C111.565 240.738 112.132 240.232 112.876 240.232ZM120.377 244.698C121.05 244.698 121.576 244.405 121.892 243.87H121.966V244.609H122.775V241.18C122.775 240.139 122.091 239.511 120.869 239.511C119.8 239.511 119.038 240.041 118.908 240.826L118.903 240.854H119.712L119.717 240.84C119.847 240.45 120.242 240.227 120.841 240.227C121.59 240.227 121.966 240.562 121.966 241.18V241.635L120.53 241.723C119.363 241.793 118.704 242.309 118.704 243.201V243.211C118.704 244.121 119.424 244.698 120.377 244.698ZM119.531 243.192V243.183C119.531 242.685 119.865 242.416 120.628 242.369L121.966 242.286V242.741C121.966 243.457 121.366 243.996 120.544 243.996C119.963 243.996 119.531 243.699 119.531 243.192ZM126.316 246.375C127.682 246.375 128.547 245.66 128.547 244.54V239.6H127.738V240.427H127.682C127.375 239.86 126.827 239.511 126.121 239.511C124.81 239.511 124.001 240.529 124.001 241.933V241.942C124.001 243.345 124.805 244.349 126.102 244.349C126.79 244.349 127.357 244.038 127.673 243.485H127.747V244.498C127.747 245.237 127.213 245.66 126.316 245.66C125.595 245.66 125.149 245.39 125.061 245.009L125.056 245.004H124.22L124.211 245.009C124.336 245.832 125.108 246.375 126.316 246.375ZM126.279 243.633C125.349 243.633 124.829 242.936 124.829 241.942V241.933C124.829 240.938 125.349 240.227 126.279 240.227C127.203 240.227 127.766 240.938 127.766 241.933V241.942C127.766 242.936 127.208 243.633 126.279 243.633ZM131.428 244.698C132.102 244.698 132.627 244.405 132.943 243.87H133.017V244.609H133.826V241.18C133.826 240.139 133.143 239.511 131.92 239.511C130.852 239.511 130.089 240.041 129.959 240.826L129.955 240.854H130.763L130.768 240.84C130.898 240.45 131.293 240.227 131.893 240.227C132.641 240.227 133.017 240.562 133.017 241.18V241.635L131.581 241.723C130.415 241.793 129.755 242.309 129.755 243.201V243.211C129.755 244.121 130.475 244.698 131.428 244.698ZM130.582 243.192V243.183C130.582 242.685 130.917 242.416 131.679 242.369L133.017 242.286V242.741C133.017 243.457 132.418 243.996 131.595 243.996C131.014 243.996 130.582 243.699 130.582 243.192ZM135.731 238.633C136.038 238.633 136.289 238.382 136.289 238.075C136.289 237.769 136.038 237.518 135.731 237.518C135.425 237.518 135.174 237.769 135.174 238.075C135.174 238.382 135.425 238.633 135.731 238.633ZM135.322 244.609H136.131V239.6H135.322V244.609ZM137.655 244.609H138.464V241.644C138.464 240.766 138.97 240.227 139.77 240.227C140.569 240.227 140.941 240.659 140.941 241.561V244.609H141.75V241.366C141.75 240.176 141.122 239.511 139.997 239.511C139.259 239.511 138.789 239.823 138.538 240.352H138.464V239.6H137.655V244.609ZM143.873 244.656C144.208 244.656 144.477 244.382 144.477 244.052C144.477 243.717 144.208 243.448 143.873 243.448C143.543 243.448 143.269 243.717 143.269 244.052C143.269 244.382 143.543 244.656 143.873 244.656Z" fill="black"/>
<path d="M241.446 181.004C241.042 179.751 240.183 178.697 239.041 178.053C237.899 177.409 236.558 177.222 235.285 177.529C236.006 176.429 236.289 175.096 236.077 173.796C235.866 172.496 235.175 171.323 234.143 170.513C235.447 170.395 236.659 169.787 237.538 168.809C238.416 167.831 238.896 166.556 238.882 165.238C239.786 166.191 241.015 166.765 242.321 166.846C243.628 166.928 244.917 166.511 245.932 165.678V165.678C245.756 166.984 246.075 168.309 246.826 169.388C247.577 170.468 248.705 171.223 249.985 171.502C248.861 172.178 248.031 173.255 247.661 174.519C247.291 175.783 247.408 177.141 247.989 178.322C246.764 177.859 245.409 177.878 244.197 178.375C242.984 178.871 242.002 179.81 241.446 181.003" fill="#C0A9F7"/>
<path d="M241.446 181.004C241.042 179.751 240.183 178.697 239.041 178.053C237.899 177.409 236.558 177.222 235.285 177.529C236.006 176.429 236.289 175.096 236.077 173.796C235.866 172.496 235.175 171.323 234.143 170.513C235.447 170.395 236.659 169.787 237.538 168.809C238.416 167.831 238.896 166.556 238.882 165.238C239.786 166.191 241.015 166.765 242.321 166.846C243.628 166.928 244.917 166.511 245.932 165.678V165.678C245.756 166.984 246.075 168.309 246.826 169.388C247.577 170.468 248.705 171.223 249.985 171.502C248.861 172.178 248.031 173.255 247.661 174.519C247.291 175.783 247.408 177.141 247.989 178.322C246.764 177.859 245.409 177.878 244.197 178.375C242.984 178.871 242.002 179.81 241.446 181.003" stroke="black" stroke-width="0.634512" stroke-miterlimit="10"/>
<path d="M254.149 186.992C253.018 186.581 252.547 185.788 252.736 184.613" stroke="black" stroke-width="0.634512" stroke-miterlimit="10"/>
<path d="M243.539 188.164C242.409 187.753 241.938 186.96 242.126 185.785" stroke="black" stroke-width="0.634512" stroke-miterlimit="10"/>
<path d="M247.272 195.294C246.141 194.881 245.67 194.088 245.859 192.914" stroke="black" stroke-width="0.634512" stroke-miterlimit="10"/>
<path d="M243.357 195.934C244.14 189.78 256.564 187.143 258.984 189.535C261.404 191.927 259.393 196.151 254.016 195.344" stroke="black" stroke-width="0.634512" stroke-miterlimit="10"/>
<path d="M239.566 187.926C242.91 183.201 250.188 185.46 254.561 184.277C258.934 183.095 261.041 186.267 258.273 189.119" stroke="black" stroke-width="0.634512" stroke-miterlimit="10"/>
<path d="M258.683 181.087C256.691 180.814 244.857 171.01 242.975 172.235C240.639 173.754 242.529 179.809 246.127 182.338C248.524 184.023 250.354 184.795 251.615 184.653" stroke="black" stroke-width="0.634512" stroke-miterlimit="10"/>
<path d="M241.949 174.383C242.01 172.909 241.242 172.405 240.408 172.662C238.927 173.12 238.191 179.484 237.856 180.436C237.521 181.387 235.703 183.942 236.752 185.373C237.451 186.327 238.433 187.241 239.51 188.053" stroke="black" stroke-width="0.634512" stroke-miterlimit="10"/>
<path d="M244.277 180.539C244.245 182.646 243.489 183.947 242.012 184.441" stroke="black" stroke-width="0.634512" stroke-miterlimit="10"/>
<path d="M243.934 182.441C245.142 182.986 245.665 183.711 245.504 184.614" stroke="black" stroke-width="0.634512" stroke-miterlimit="10"/>
<path d="M238.797 175.96C238.259 175.505 237.673 175.113 237.05 174.789C236.258 174.403 233.94 173.5 233.043 175.207C232.147 176.914 237.563 180.393 237.744 180.701" stroke="black" stroke-width="0.634512" stroke-miterlimit="10"/>
<path d="M254.905 195.52C254.33 198.088 252.886 199.492 250.574 199.733" stroke="black" stroke-width="0.634512" stroke-miterlimit="10"/>
<path d="M265.792 203.811C265.194 199.81 263.194 197.529 259.793 196.969" stroke="black" stroke-width="0.634512" stroke-miterlimit="10"/>
<path fill-rule="evenodd" clip-rule="evenodd" d="M255.722 191.781L255.893 191.792C257.72 191.902 259.2 191.621 259.278 190.486C259.361 189.317 257.843 188.838 255.938 188.696C254.032 188.554 253.817 191.643 255.722 191.781Z" stroke="black" stroke-width="0.634512" stroke-miterlimit="10"/>
<path d="M254.56 184.277C252.329 184.607 254.385 187.316 256.665 187.062C258.945 186.808 259.441 185.775 258.77 184.826" stroke="black" stroke-width="0.634512" stroke-miterlimit="10"/>
<path d="M242.975 172.238C242.387 172.869 242.648 174.393 244.024 175.327L244.157 175.419C246.313 176.865 246.765 176.737 247.353 175.512C247.79 174.606 247.582 174.166 246.576 173.443" stroke="black" stroke-width="0.634512" stroke-miterlimit="10"/>
<path d="M237.055 174.796L237.239 174.894L237.423 174.994C237.918 175.264 238.38 175.59 238.8 175.967L238.831 175.84L238.88 175.654C239.266 174.207 239.786 172.861 240.409 172.668C241.033 172.474 241.61 172.718 241.857 173.477C241.996 173.916 241.956 174.638 241.973 175.387V175.514L242.001 175.624L241.952 175.414C242.024 174.755 241.897 174.168 242.021 173.679C242.161 173.135 242.49 172.659 242.947 172.337C243.674 171.865 245.58 172.752 246.352 173.293C247.142 173.896 248.075 174.314 249.072 175.012C250.186 175.791 251.403 176.502 252.479 177.259C254.273 178.554 256.135 179.751 258.058 180.843C258.963 181.357 261.41 181.633 262.803 182.393C264.271 183.193 265.668 184.438 266.914 186.045C267.227 186.447 267.506 186.661 267.756 187.176C268.971 189.671 269.774 192.048 269.96 194.245C270.076 195.609 270.082 196.819 269.993 197.322C268.698 204.664 276.653 205.269 277.737 209.204C279.603 215.969 271.522 220.343 266.977 218.488C262.431 216.633 258.65 211.015 258.07 211.044" stroke="black" stroke-width="0.634512" stroke-miterlimit="10"/>
<path d="M258.061 211.025C250.47 211.956 242.555 202.135 243.333 196.04C243.363 195.807 243.41 195.576 243.473 195.349L243.398 195.381C240.01 192.493 238.733 190.009 239.568 187.93L239.419 188.026C238.407 187.28 237.509 186.388 236.754 185.378C235.79 184.06 237.249 181.786 237.749 180.703C237.53 180.474 237.1 180.153 236.117 179.419C235.08 178.56 234.382 177.998 233.869 177.375" stroke="black" stroke-width="0.634512" stroke-miterlimit="10"/>
<path d="M263.811 240.977L277.492 240.977" stroke="black" stroke-width="1.18971" stroke-linecap="round"/>
<path d="M271.544 234.433L278.046 240.934C278.069 240.957 278.069 240.995 278.046 241.018L271.544 247.52" stroke="black" stroke-width="1.18971" stroke-linecap="round"/>
<path d="M33.4629 294.909C33.4629 287.9 39.1445 282.219 46.1531 282.219H280.129C287.138 282.219 292.82 287.9 292.82 294.909V393.827C292.82 400.835 287.138 406.517 280.129 406.517H46.1531C39.1445 406.517 33.4629 400.835 33.4629 393.827V294.909Z" fill="#F3F3F3"/>
</g>
</g>
</g>
</g>
<defs>
<clipPath id="clip0_11193_68254">
<rect width="328.502" height="283" fill="white"/>
</clipPath>
<clipPath id="clip1_11193_68254">
<rect width="297.427" height="644.03" fill="white" transform="translate(14.4277 15.5312)"/>
</clipPath>
<clipPath id="clip2_11193_68254">
<rect width="297.427" height="644.03" fill="white" transform="translate(14.4277 15.5312)"/>
</clipPath>
<clipPath id="clip3_11193_68254">
<rect width="297.427" height="34.8982" fill="white" transform="translate(14.4277 15.5312)"/>
</clipPath>
</defs>
</svg>
