<svg width="32" height="32" viewBox="0 0 32 32" fill="none" xmlns="http://www.w3.org/2000/svg">
<path d="M1 24C1 22.8954 1.89543 22 3 22H7V30H3C1.89543 30 1 29.1046 1 28V24Z" stroke="white" stroke-width="2"/>
<path d="M7 19C7 17.8954 7.89543 17 9 17H13V30H7V19Z" stroke="white" stroke-width="2"/>
<path d="M13 15C13 13.8954 13.8954 13 15 13H19V30H13V15Z" stroke="white" stroke-width="2"/>
<path d="M19 10C19 8.89543 19.8954 8 21 8H25V30H19V10Z" stroke="white" stroke-width="2"/>
<path d="M25 5C25 3.89543 25.8954 3 27 3H29C30.1046 3 31 3.89543 31 5V28C31 29.1046 30.1046 30 29 30H25V5Z" stroke="white" stroke-width="2"/>
</svg>
