<svg width="49" height="28" viewBox="0 0 49 28" fill="none" xmlns="http://www.w3.org/2000/svg">
<g clip-path="url(#clip0_10156_10045)">
<path d="M39.7949 0.161621C41.1318 0.174358 42.4524 0.457773 43.678 0.994939C45.9807 1.97003 47.8316 3.94915 48.8592 6.56774" stroke="black" stroke-miterlimit="10"/>
<path d="M0.150391 6.56774C1.16936 3.96362 3.0087 1.97003 5.33162 0.994939C6.55602 0.45747 7.87577 0.174034 9.21177 0.161621" stroke="black" stroke-miterlimit="10"/>
<path d="M24.5006 27.8408C-0.144786 27.8408 -1.79414 6.94132 6.36629 3.50968C12.8802 0.772466 14.829 7.92799 24.5006 7.92799C34.1722 7.92799 36.118 0.772466 42.6349 3.50968C50.8011 6.94132 49.1488 27.8408 24.5006 27.8408Z" fill="black"/>
<path d="M24.5006 27.8408C-0.144786 27.8408 -1.79414 6.94132 6.36629 3.50968C12.8802 0.772466 14.829 7.92799 24.5006 7.92799C34.1722 7.92799 36.118 0.772466 42.6349 3.50968C50.7953 6.94132 49.1431 27.8408 24.5006 27.8408Z" stroke="black" stroke-miterlimit="10"/>
<path d="M35.0712 26.2403C32.1582 27.2443 28.658 27.8403 24.5015 27.8403C19.9765 27.8403 16.2288 27.1343 13.1719 25.9654C17.3284 19.8891 21.1798 20.0222 24.5648 21.1536C29.2913 18.6449 33.5111 23.9226 35.0712 26.2403Z" fill="#F06355"/>
<path d="M35.0712 26.2403C32.1582 27.2443 28.658 27.8403 24.5015 27.8403C19.9765 27.8403 16.2288 27.1343 13.1719 25.9654C17.3284 19.8891 21.1798 20.0222 24.5648 21.1536C29.2913 18.6449 33.5111 23.9226 35.0712 26.2403Z" stroke="black" stroke-miterlimit="10"/>
<path d="M27.4527 23.9292C26.0134 21.6144 24.5742 21.1572 24.5742 21.1572L27.4527 23.9292Z" fill="#F06355"/>
<path d="M27.4527 23.9292C26.0134 21.6144 24.5742 21.1572 24.5742 21.1572" stroke="black" stroke-miterlimit="10"/>
<path d="M46.4841 7.99454C40.5746 10.237 32.3509 11.1773 24.5099 11.1773H24.4927C16.6489 11.1773 8.42798 10.237 2.51562 7.99454C3.21509 5.91414 4.54782 4.27645 6.36989 3.50968C12.8838 0.772466 14.8297 7.92799 24.5042 7.92799C34.1787 7.92799 36.1216 0.772466 42.6385 3.50968C44.4634 4.27645 45.8048 5.91414 46.4927 7.99454" fill="white"/>
<path d="M46.4841 7.99454C40.5746 10.237 32.3509 11.1773 24.5099 11.1773H24.4927C16.6489 11.1773 8.42798 10.237 2.51562 7.99454C3.21509 5.91414 4.54782 4.27645 6.36989 3.50968C12.8838 0.772466 14.8297 7.92799 24.5042 7.92799C34.1787 7.92799 36.1216 0.772466 42.6385 3.50968C44.4548 4.27645 45.7875 5.91414 46.4841 7.99454Z" stroke="black" stroke-miterlimit="10"/>
<path d="M24.5039 7.9248V11.313" stroke="black" stroke-miterlimit="10"/>
<path d="M32.2695 6.05615C32.5027 7.32059 32.7675 8.91489 32.9891 10.7378L32.2695 6.05615Z" fill="white"/>
<path d="M32.2695 6.05615C32.5027 7.32059 32.7675 8.91489 32.9891 10.7378" stroke="black" stroke-miterlimit="10"/>
<path d="M38.7988 2.96875C39.7202 5.0589 40.4048 7.24661 40.8397 9.49061L38.7988 2.96875Z" fill="white"/>
<path d="M38.7988 2.96875C39.7202 5.0589 40.4048 7.24661 40.8397 9.49061" stroke="black" stroke-miterlimit="10"/>
<path d="M16.7127 6.05615C16.4767 7.32059 16.2148 8.92067 15.9902 10.7464L16.7127 6.05615Z" fill="white"/>
<path d="M16.7127 6.05615C16.4767 7.32059 16.2148 8.92067 15.9902 10.7464" stroke="black" stroke-miterlimit="10"/>
<path d="M10.1823 2.96582C9.26064 5.05765 8.57327 7.24601 8.13281 9.49057L10.1823 2.96582Z" fill="white"/>
<path d="M10.1823 2.96582C9.26064 5.05765 8.57327 7.24601 8.13281 9.49057" stroke="black" stroke-miterlimit="10"/>
</g>
<defs>
<clipPath id="clip0_10156_10045">
<rect width="49" height="28" fill="white"/>
</clipPath>
</defs>
</svg>
