<svg width="129" height="120" viewBox="0 0 129 120" fill="none" xmlns="http://www.w3.org/2000/svg">
<path d="M6.03131 89.1613C2.70115 81.3631 0.989588 72.9715 1.00012 64.494V55.2975C0.983708 46.8099 2.69543 38.4076 6.03131 30.6008" stroke="black" stroke-miterlimit="10"/>
<path d="M123.09 30.6008C126.414 38.4005 128.122 46.7916 128.111 55.2682V64.4647C128.124 72.9509 126.416 81.3519 123.09 89.1613" stroke="black" stroke-miterlimit="10"/>
<path d="M118.931 55.2965V64.493C118.931 78.8863 113.204 92.6901 103.011 102.868C92.8171 113.045 78.9918 118.763 64.5761 118.763C50.1604 118.763 36.3352 113.045 26.1417 102.868C15.9483 92.6901 10.2217 78.8863 10.2217 64.493V55.2965C10.2217 40.9031 15.9483 27.0993 26.1417 16.9217C36.3352 6.7441 50.1604 1.02637 64.5761 1.02637C78.9918 1.02637 92.8171 6.7441 103.011 16.9217C113.204 27.0993 118.931 40.9031 118.931 55.2965Z" fill="black"/>
<path d="M106.773 98.5919C101.302 105.371 94.275 110.733 86.2869 114.222C78.2988 117.712 69.5856 119.227 60.8863 118.638C52.187 118.049 43.7583 115.374 36.3151 110.84C28.8719 106.305 22.6338 100.045 18.1299 92.5911C23.9225 89.1399 30.5277 87.2829 37.2729 87.2091C44.018 87.1353 50.6623 88.8473 56.5294 92.1709C58.0488 93.0494 59.5073 94.0289 60.895 95.1028C67.8897 90.6196 76.1588 88.5383 84.4463 89.1751C92.7337 89.8119 100.587 93.1319 106.812 98.6309" fill="#F06355"/>
<path d="M106.773 98.5919C101.302 105.371 94.275 110.733 86.2869 114.222C78.2988 117.712 69.5856 119.227 60.8863 118.638C52.1871 118.049 43.7583 115.374 36.3151 110.84C28.8719 106.305 22.6338 100.045 18.1299 92.5911C23.9225 89.1399 30.5277 87.2829 37.2729 87.2091C44.018 87.1353 50.6623 88.8473 56.5294 92.1709C58.0488 93.0494 59.5073 94.0289 60.895 95.1028C67.8897 90.6196 76.1588 88.5383 84.4463 89.1751C92.7337 89.8119 100.587 93.1319 106.812 98.6309L106.773 98.5919Z" stroke="black" stroke-miterlimit="10"/>
<path d="M108.044 22.7814C102.998 16.0217 96.4397 10.5324 88.8927 6.75082C81.3457 2.96925 73.0184 1 64.5743 1C56.1303 1 47.803 2.96925 40.256 6.75082C32.709 10.5324 26.1509 16.0217 21.1045 22.7814C21.1045 22.7814 38.557 26.5538 64.6428 26.5538C90.7287 26.5538 108.044 22.7814 108.044 22.7814Z" fill="white"/>
<path d="M108.044 22.7814C102.998 16.0217 96.4397 10.5324 88.8927 6.75082C81.3457 2.96925 73.0184 1 64.5743 1C56.1303 1 47.803 2.96925 40.256 6.75082C32.709 10.5324 26.1509 16.0217 21.1045 22.7814C21.1045 22.7814 38.557 26.5538 64.6428 26.5538C90.7287 26.5538 108.044 22.7814 108.044 22.7814Z" stroke="black" stroke-miterlimit="10"/>
<path d="M94.7041 10.1846C95.4872 18.9804 95.6829 24.6586 95.6829 24.6586" stroke="black" stroke-miterlimit="10"/>
<path d="M34.22 10.3398C33.4566 19.0575 33.2412 24.6575 33.2412 24.6575" stroke="black" stroke-miterlimit="10"/>
<path d="M64.6455 26.5831V1.02637" stroke="black" stroke-miterlimit="10"/>
<path d="M17.8936 92.7379C23.8524 89.1216 30.6927 87.2113 37.6659 87.2161V87.2161C44.1698 87.2295 50.5639 88.8908 56.2493 92.0445C61.9347 95.1982 66.7255 99.741 70.1729 105.247" stroke="black" stroke-miterlimit="10"/>
<path d="M119.302 55.2701V64.4666C119.302 78.8599 113.575 92.6637 103.382 102.841C93.1882 113.019 79.3629 118.737 64.9472 118.737C50.5315 118.737 36.7063 113.019 26.5128 102.841C16.3194 92.6637 10.5928 78.8599 10.5928 64.4666V55.2701C10.5928 40.8768 16.3194 27.073 26.5128 16.8954C36.7063 6.71773 50.5315 1 64.9472 1C79.3629 1 93.1882 6.71773 103.382 16.8954C113.575 27.073 119.302 40.8768 119.302 55.2701V55.2701Z" stroke="black" stroke-miterlimit="10"/>
</svg>
